<svg width="152" height="63" viewBox="0 0 152 63" fill="none" xmlns="http://www.w3.org/2000/svg">
<mask id="path-1-outside-1_1441_123" maskUnits="userSpaceOnUse" x="4" y="4" width="145" height="50" fill="black">
<rect fill="white" x="4" y="4" width="145" height="50"/>
<path d="M30.6871 35.4C30.6871 36.6 30.3871 37.7 29.7871 38.7C29.1871 39.7 28.3871 40.5 27.3871 41.1C26.3871 41.7 25.2871 42 24.0871 42H14.4871C13.2871 42 12.1704 41.7 11.1371 41.1C10.1371 40.5 9.33711 39.7 8.73711 38.7C8.13711 37.7 7.83711 36.6 7.83711 35.4V33.9C7.83711 33.2667 8.05378 32.7333 8.48711 32.3C8.95378 31.8333 9.50378 31.6 10.1371 31.6H11.5371C12.1371 31.6 12.6538 31.8333 13.0871 32.3C13.5538 32.7333 13.7871 33.2667 13.7871 33.9V35.4C13.7871 35.5667 13.8538 35.7333 13.9871 35.9C14.1538 36.0333 14.3204 36.1 14.4871 36.1H24.0871C24.2538 36.1 24.4038 36.0333 24.5371 35.9C24.6704 35.7333 24.7371 35.5667 24.7371 35.4V30.85C24.7371 30.4833 24.5704 30.25 24.2371 30.15L12.2371 25.65C10.9038 25.1833 9.83711 24.3667 9.03711 23.2C8.23711 22.0333 7.83711 20.75 7.83711 19.35V14.85C7.83711 13.6167 8.13711 12.5 8.73711 11.5C9.33711 10.5 10.1371 9.7 11.1371 9.1C12.1704 8.5 13.2871 8.2 14.4871 8.2H24.0871C25.2871 8.2 26.3871 8.5 27.3871 9.1C28.3871 9.7 29.1871 10.5 29.7871 11.5C30.3871 12.5 30.6871 13.6167 30.6871 14.85V16.2C30.6871 16.8333 30.4538 17.3667 29.9871 17.8C29.5538 18.2333 29.0204 18.45 28.3871 18.45H27.0371C26.4038 18.45 25.8538 18.2333 25.3871 17.8C24.9538 17.3667 24.7371 16.8333 24.7371 16.2V14.85C24.7371 14.3833 24.5204 14.15 24.0871 14.15H14.4871C14.3204 14.15 14.1538 14.2167 13.9871 14.35C13.8538 14.4833 13.7871 14.65 13.7871 14.85V19.35C13.7871 19.75 13.9538 20 14.2871 20.1L26.3371 24.6C27.6371 25.0667 28.6871 25.8833 29.4871 27.05C30.2871 28.2167 30.6871 29.4833 30.6871 30.85V35.4ZM56.3402 36.4C56.3402 37.9667 55.7902 39.3 54.6902 40.4C53.6236 41.4667 52.3236 42 50.7902 42H44.8902C44.7236 42 44.5569 42.0667 44.3902 42.2C44.2569 42.3333 44.1902 42.4833 44.1902 42.65V47.7C44.1902 48.3333 43.9736 48.8667 43.5402 49.3C43.1069 49.7667 42.5736 50 41.9402 50H40.5402C39.9069 50 39.3569 49.7667 38.8902 49.3C38.4569 48.8667 38.2402 48.3333 38.2402 47.7V21.7C38.2402 20.6667 38.4902 19.7333 38.9902 18.9C39.5236 18.0333 40.2069 17.35 41.0402 16.85C41.8736 16.35 42.8069 16.1 43.8402 16.1H50.7902C51.8236 16.1 52.7569 16.35 53.5902 16.85C54.4236 17.35 55.0902 18.0333 55.5902 18.9C56.0902 19.7333 56.3402 20.6667 56.3402 21.7V36.4ZM50.4402 35.45V22.75C50.4402 22.55 50.3569 22.3833 50.1902 22.25C50.0569 22.1167 49.9069 22.05 49.7402 22.05H44.8902C44.7236 22.05 44.5569 22.1167 44.3902 22.25C44.2569 22.3833 44.1902 22.55 44.1902 22.75V35.45C44.1902 35.6167 44.2569 35.7667 44.3902 35.9C44.5569 36.0333 44.7236 36.1 44.8902 36.1H49.7402C49.9069 36.1 50.0569 36.0333 50.1902 35.9C50.3569 35.7667 50.4402 35.6167 50.4402 35.45ZM71.4582 11.4C71.4582 12.4333 71.0749 13.3333 70.3082 14.1C69.5749 14.8333 68.7082 15.2 67.7082 15.2C66.6749 15.2 65.7749 14.8333 65.0082 14.1C64.2749 13.3333 63.9082 12.4333 63.9082 11.4C63.9082 10.4 64.2749 9.53333 65.0082 8.8C65.7749 8.03333 66.6749 7.65 67.7082 7.65C68.7082 7.65 69.5749 8.03333 70.3082 8.8C71.0749 9.53333 71.4582 10.4 71.4582 11.4ZM70.6582 39.7C70.6582 40.3333 70.4249 40.8833 69.9582 41.35C69.5249 41.7833 68.9915 42 68.3582 42H67.0082C66.3749 42 65.8249 41.7833 65.3582 41.35C64.9249 40.8833 64.7082 40.3333 64.7082 39.7V18.95C64.7082 18.3167 64.9249 17.7833 65.3582 17.35C65.8249 16.8833 66.3749 16.65 67.0082 16.65H68.3582C68.9915 16.65 69.5249 16.8833 69.9582 17.35C70.4249 17.7833 70.6582 18.3167 70.6582 18.95V39.7ZM97.0805 36.4C97.0805 37.9667 96.5305 39.3 95.4305 40.4C94.3638 41.4667 93.0638 42 91.5305 42H84.5805C83.0471 42 81.7305 41.4667 80.6305 40.4C79.5305 39.3 78.9805 37.9667 78.9805 36.4V21.7C78.9805 20.6667 79.2305 19.7333 79.7305 18.9C80.2638 18.0333 80.9471 17.35 81.7805 16.85C82.6138 16.35 83.5471 16.1 84.5805 16.1H90.4805C90.9471 16.1 91.1805 15.9 91.1805 15.5V10.5C91.1805 9.83333 91.3971 9.28333 91.8305 8.85C92.2638 8.41666 92.7971 8.2 93.4305 8.2H94.8305C95.4638 8.2 95.9971 8.41666 96.4305 8.85C96.8638 9.28333 97.0805 9.83333 97.0805 10.5V36.4ZM91.1805 35.45V22.75C91.1805 22.2833 90.9471 22.05 90.4805 22.05H85.6305C85.4638 22.05 85.2971 22.1167 85.1305 22.25C84.9971 22.3833 84.9305 22.55 84.9305 22.75V35.45C84.9305 35.6167 84.9971 35.7667 85.1305 35.9C85.2971 36.0333 85.4638 36.1 85.6305 36.1H90.4805C90.9471 36.1 91.1805 35.8833 91.1805 35.45ZM122.748 27.15C122.748 28.15 122.498 29.0833 121.998 29.95C121.498 30.7833 120.832 31.4667 119.998 32C119.165 32.5 118.232 32.75 117.198 32.75H111.298C111.132 32.75 110.965 32.8167 110.798 32.95C110.665 33.05 110.598 33.1833 110.598 33.35V35.45C110.598 35.6167 110.665 35.7667 110.798 35.9C110.965 36.0333 111.132 36.1 111.298 36.1H117.198C117.832 36.1 118.365 36.3167 118.798 36.75C119.265 37.1833 119.498 37.7333 119.498 38.4V39.7C119.498 40.3333 119.265 40.8833 118.798 41.35C118.365 41.7833 117.832 42 117.198 42H110.248C108.715 42 107.398 41.4667 106.298 40.4C105.198 39.3 104.648 37.9667 104.648 36.4V21.7C104.648 20.6667 104.898 19.7333 105.398 18.9C105.932 18.0667 106.615 17.4 107.448 16.9C108.282 16.3667 109.215 16.1 110.248 16.1H117.198C118.232 16.1 119.165 16.3667 119.998 16.9C120.832 17.4 121.498 18.0667 121.998 18.9C122.498 19.7333 122.748 20.6667 122.748 21.7V27.15ZM116.848 26.15V22.75C116.848 22.55 116.765 22.3833 116.598 22.25C116.465 22.1167 116.315 22.05 116.148 22.05H111.298C111.132 22.05 110.965 22.1167 110.798 22.25C110.665 22.3833 110.598 22.55 110.598 22.75V26.15C110.598 26.2833 110.665 26.4167 110.798 26.55C110.965 26.6833 111.132 26.75 111.298 26.75H116.148C116.315 26.75 116.465 26.6833 116.598 26.55C116.765 26.4167 116.848 26.2833 116.848 26.15ZM145.166 19.8C145.166 20.4333 144.95 20.9667 144.516 21.4C144.083 21.8333 143.55 22.05 142.916 22.05H136.966C136.533 22.05 136.316 22.2833 136.316 22.75V39.7C136.316 40.3333 136.083 40.8833 135.616 41.35C135.183 41.7833 134.65 42 134.016 42H132.616C131.983 42 131.45 41.7833 131.016 41.35C130.583 40.8833 130.366 40.3333 130.366 39.7V21.7C130.366 20.6667 130.616 19.7333 131.116 18.9C131.616 18.0333 132.283 17.35 133.116 16.85C133.95 16.35 134.883 16.1 135.916 16.1H142.916C143.55 16.1 144.083 16.3333 144.516 16.8C144.95 17.2333 145.166 17.7833 145.166 18.45V19.8Z"/>
</mask>
<path d="M29.7871 38.7L32.7883 40.5007L32.7883 40.5007L29.7871 38.7ZM11.1371 41.1L9.33637 44.1012L9.35791 44.1141L9.37964 44.1268L11.1371 41.1ZM8.73711 38.7L5.73588 40.5007L5.73588 40.5007L8.73711 38.7ZM8.48711 32.3L10.962 34.7749L8.48711 32.3ZM13.0871 32.3L10.5223 34.6816L10.6105 34.7766L10.7055 34.8648L13.0871 32.3ZM13.9871 35.9L11.2541 38.0864L11.497 38.3901L11.8007 38.633L13.9871 35.9ZM24.5371 35.9L27.012 38.3749L27.1491 38.2378L27.2702 38.0864L24.5371 35.9ZM24.2371 30.15L23.0082 33.4272L23.1185 33.4685L23.2314 33.5024L24.2371 30.15ZM12.2371 25.65L13.466 22.3728L13.4298 22.3593L13.3933 22.3465L12.2371 25.65ZM9.03711 23.2L11.9237 21.2206L11.9237 21.2206L9.03711 23.2ZM8.73711 11.5L11.7383 13.3007L11.7383 13.3007L8.73711 11.5ZM11.1371 9.1L9.37964 6.07324L9.35791 6.08585L9.33637 6.09877L11.1371 9.1ZM29.7871 11.5L26.7859 13.3007L26.7859 13.3007L29.7871 11.5ZM29.9871 17.8L27.6055 15.2352L27.5581 15.2793L27.5122 15.3251L29.9871 17.8ZM25.3871 17.8L22.9122 20.2749L22.9581 20.3207L23.0055 20.3648L25.3871 17.8ZM13.9871 14.35L11.8007 11.617L11.6493 11.7381L11.5122 11.8751L13.9871 14.35ZM14.2871 20.1L15.5116 16.8212L15.4034 16.7808L15.2928 16.7476L14.2871 20.1ZM26.3371 24.6L25.1127 27.8788L25.1336 27.8866L25.1546 27.8942L26.3371 24.6ZM29.4871 27.05L32.3737 25.0707L32.3737 25.0706L29.4871 27.05ZM27.1871 35.4C27.1871 35.9849 27.0497 36.4595 26.7859 36.8993L32.7883 40.5007C33.7245 38.9405 34.1871 37.2151 34.1871 35.4H27.1871ZM26.7859 36.8993C26.4815 37.4066 26.0938 37.7943 25.5864 38.0988L29.1878 44.1012C30.6805 43.2057 31.8928 41.9934 32.7883 40.5007L26.7859 36.8993ZM25.5864 38.0988C25.1466 38.3626 24.6721 38.5 24.0871 38.5V45.5C25.9022 45.5 27.6276 45.0374 29.1878 44.1012L25.5864 38.0988ZM24.0871 38.5H14.4871V45.5H24.0871V38.5ZM14.4871 38.5C13.9016 38.5 13.3917 38.3619 12.8946 38.0732L9.37964 44.1268C10.9492 45.0381 12.6726 45.5 14.4871 45.5V38.5ZM12.9378 38.0988C12.4305 37.7943 12.0428 37.4066 11.7383 36.8993L5.73588 40.5007C6.63146 41.9934 7.84375 43.2057 9.33637 44.1012L12.9378 38.0988ZM11.7383 36.8993C11.4745 36.4595 11.3371 35.9849 11.3371 35.4H4.33711C4.33711 37.2151 4.79972 38.9405 5.73588 40.5007L11.7383 36.8993ZM11.3371 35.4V33.9H4.33711V35.4H11.3371ZM11.3371 33.9C11.3371 33.9896 11.3202 34.1505 11.2422 34.3423C11.1634 34.5364 11.0544 34.6825 10.962 34.7749L6.01224 29.8251C4.89838 30.939 4.33711 32.3731 4.33711 33.9H11.3371ZM10.962 34.7749C10.9107 34.8261 10.7967 34.9206 10.6165 34.997C10.4335 35.0747 10.2615 35.1 10.1371 35.1V28.1C8.53288 28.1 7.1045 28.7329 6.01224 29.8251L10.962 34.7749ZM10.1371 35.1H11.5371V28.1H10.1371V35.1ZM11.5371 35.1C11.3699 35.1 11.1546 35.0644 10.9341 34.9648C10.7182 34.8673 10.5838 34.7478 10.5223 34.6816L15.6519 29.9184C14.602 28.7877 13.1755 28.1 11.5371 28.1V35.1ZM10.7055 34.8648C10.6204 34.7857 10.4987 34.6408 10.4056 34.4279C10.3122 34.2145 10.2871 34.0233 10.2871 33.9H17.2871C17.2871 32.2873 16.6441 30.8266 15.4687 29.7352L10.7055 34.8648ZM10.2871 33.9V35.4H17.2871V33.9H10.2871ZM10.2871 35.4C10.2871 36.5616 10.7657 37.4759 11.2541 38.0864L16.7202 33.7136C16.9419 33.9907 17.2871 34.5718 17.2871 35.4H10.2871ZM11.8007 38.633C12.4112 39.1214 13.3255 39.6 14.4871 39.6V32.6C15.3153 32.6 15.8964 32.9452 16.1735 33.167L11.8007 38.633ZM14.4871 39.6H24.0871V32.6H14.4871V39.6ZM24.0871 39.6C25.307 39.6 26.3162 39.0706 27.012 38.3749L22.0622 33.4251C22.2547 33.2327 22.5318 33.0167 22.9031 32.8517C23.2826 32.683 23.6885 32.6 24.0871 32.6V39.6ZM27.2702 38.0864C27.7585 37.4759 28.2371 36.5616 28.2371 35.4H21.2371C21.2371 34.5718 21.5823 33.9907 21.8041 33.7136L27.2702 38.0864ZM28.2371 35.4V30.85H21.2371V35.4H28.2371ZM28.2371 30.85C28.2371 30.1409 28.0723 29.2226 27.4602 28.3657C26.8358 27.4915 25.9894 27.0216 25.2428 26.7976L23.2314 33.5024C22.8182 33.3784 22.2218 33.0751 21.764 32.4343C21.3186 31.8108 21.2371 31.1925 21.2371 30.85H28.2371ZM25.466 26.8728L13.466 22.3728L11.0082 28.9272L23.0082 33.4272L25.466 26.8728ZM13.3933 22.3465C12.764 22.1262 12.3031 21.774 11.9237 21.2206L6.15056 25.1793C7.37112 26.9593 9.04352 28.2404 11.0809 28.9535L13.3933 22.3465ZM11.9237 21.2206C11.5188 20.6302 11.3371 20.0356 11.3371 19.35H4.33711C4.33711 21.4644 4.95542 23.4364 6.15056 25.1793L11.9237 21.2206ZM11.3371 19.35V14.85H4.33711V19.35H11.3371ZM11.3371 14.85C11.3371 14.213 11.4837 13.725 11.7383 13.3007L5.73589 9.69926C4.79047 11.2749 4.33711 13.0204 4.33711 14.85H11.3371ZM11.7383 13.3007C12.0428 12.7934 12.4305 12.4056 12.9378 12.1012L9.33637 6.09877C7.84375 6.99435 6.63146 8.20664 5.73588 9.69927L11.7383 13.3007ZM12.8946 12.1268C13.3917 11.8381 13.9016 11.7 14.4871 11.7V4.7C12.6726 4.7 10.9492 5.16187 9.37964 6.07324L12.8946 12.1268ZM14.4871 11.7H24.0871V4.7H14.4871V11.7ZM24.0871 11.7C24.6721 11.7 25.1466 11.8374 25.5864 12.1012L29.1878 6.09877C27.6276 5.16261 25.9022 4.7 24.0871 4.7V11.7ZM25.5864 12.1012C26.0938 12.4056 26.4815 12.7934 26.7859 13.3007L32.7883 9.69927C31.8928 8.20664 30.6805 6.99435 29.1878 6.09877L25.5864 12.1012ZM26.7859 13.3007C27.0405 13.725 27.1871 14.213 27.1871 14.85H34.1871C34.1871 13.0204 33.7337 11.2749 32.7883 9.69926L26.7859 13.3007ZM27.1871 14.85V16.2H34.1871V14.85H27.1871ZM27.1871 16.2C27.1871 16.0767 27.2122 15.8855 27.3056 15.6721C27.3987 15.4592 27.5204 15.3143 27.6055 15.2352L32.3687 20.3648C33.5441 19.2734 34.1871 17.8127 34.1871 16.2H27.1871ZM27.5122 15.3251C27.6046 15.2328 27.7507 15.1237 27.9448 15.0449C28.1366 14.9669 28.2975 14.95 28.3871 14.95V21.95C29.914 21.95 31.3481 21.3887 32.462 20.2749L27.5122 15.3251ZM28.3871 14.95H27.0371V21.95H28.3871V14.95ZM27.0371 14.95C27.1279 14.95 27.2705 14.9673 27.4324 15.0311C27.5941 15.0947 27.707 15.178 27.7687 15.2352L23.0055 20.3648C24.1156 21.3956 25.5149 21.95 27.0371 21.95V14.95ZM27.862 15.3251C27.9544 15.4175 28.0634 15.5636 28.1422 15.7577C28.2202 15.9495 28.2371 16.1104 28.2371 16.2H21.2371C21.2371 17.7269 21.7984 19.161 22.9122 20.2749L27.862 15.3251ZM28.2371 16.2V14.85H21.2371V16.2H28.2371ZM28.2371 14.85C28.2371 14.1389 28.0774 12.9535 27.1394 11.9434C26.156 10.8844 24.9125 10.65 24.0871 10.65V17.65C23.695 17.65 22.7766 17.5323 22.0098 16.7066C21.2885 15.9298 21.2371 15.0944 21.2371 14.85H28.2371ZM24.0871 10.65H14.4871V17.65H24.0871V10.65ZM14.4871 10.65C13.3255 10.65 12.4112 11.1286 11.8007 11.617L16.1735 17.083C15.8964 17.3048 15.3153 17.65 14.4871 17.65V10.65ZM11.5122 11.8751C10.6796 12.7077 10.2871 13.7842 10.2871 14.85H17.2871C17.2871 15.1445 17.2367 15.5001 17.0868 15.8749C16.9353 16.2537 16.7133 16.5736 16.462 16.8249L11.5122 11.8751ZM10.2871 14.85V19.35H17.2871V14.85H10.2871ZM10.2871 19.35C10.2871 20.0165 10.4253 20.917 10.9999 21.7789C11.6051 22.6868 12.4644 23.2073 13.2814 23.4524L15.2928 16.7476C15.7765 16.8927 16.3857 17.2382 16.8243 17.896C17.2322 18.508 17.2871 19.0835 17.2871 19.35H10.2871ZM13.0627 23.3788L25.1127 27.8788L27.5616 21.3212L15.5116 16.8212L13.0627 23.3788ZM25.1546 27.8942C25.7449 28.1061 26.2056 28.4534 26.6006 29.0293L32.3737 25.0706C31.1686 23.3133 29.5294 22.0273 27.5196 21.3058L25.1546 27.8942ZM26.6006 29.0293C27.0159 29.635 27.1871 30.2158 27.1871 30.85H34.1871C34.1871 28.7509 33.5584 26.7983 32.3737 25.0707L26.6006 29.0293ZM27.1871 30.85V35.4H34.1871V30.85H27.1871ZM54.6902 40.4L57.1651 42.8749L57.1651 42.8749L54.6902 40.4ZM44.3902 42.2L42.2038 39.467L42.0524 39.5881L41.9154 39.7251L44.3902 42.2ZM43.5402 49.3L41.0654 46.8251L41.0195 46.8709L40.9755 46.9184L43.5402 49.3ZM38.8902 49.3L36.4154 51.7749L36.4154 51.7749L38.8902 49.3ZM38.9902 18.9L36.0094 17.0657L35.9991 17.0824L35.989 17.0993L38.9902 18.9ZM41.0402 16.85L39.2395 13.8488L39.2395 13.8488L41.0402 16.85ZM53.5902 16.85L51.7895 19.8512L51.7895 19.8512L53.5902 16.85ZM55.5902 18.9L52.5586 20.649L52.5736 20.675L52.589 20.7007L55.5902 18.9ZM50.1902 22.25L47.7154 24.7249L47.8524 24.8619L48.0038 24.983L50.1902 22.25ZM44.3902 22.25L42.2038 19.517L42.0524 19.6381L41.9154 19.7751L44.3902 22.25ZM44.3902 35.9L41.9154 38.3749L42.0524 38.5119L42.2038 38.633L44.3902 35.9ZM50.1902 35.9L48.0038 33.167L47.8524 33.2881L47.7154 33.4251L50.1902 35.9ZM52.8402 36.4C52.8402 37.0458 52.6538 37.4867 52.2154 37.9251L57.1651 42.8749C58.9267 41.1133 59.8402 38.8875 59.8402 36.4H52.8402ZM52.2154 37.9251C51.8171 38.3234 51.4125 38.5 50.7902 38.5V45.5C53.2347 45.5 55.43 44.6099 57.1651 42.8749L52.2154 37.9251ZM50.7902 38.5H44.8902V45.5H50.7902V38.5ZM44.8902 38.5C43.7287 38.5 42.8143 38.9786 42.2038 39.467L46.5767 44.933C46.2995 45.1548 45.7185 45.5 44.8902 45.5V38.5ZM41.9154 39.7251C41.2196 40.4209 40.6902 41.4301 40.6902 42.65H47.6902C47.6902 43.0486 47.6073 43.4545 47.4386 43.834C47.2735 44.2053 47.0576 44.4824 46.8651 44.6749L41.9154 39.7251ZM40.6902 42.65V47.7H47.6902V42.65H40.6902ZM40.6902 47.7C40.6902 47.6104 40.7072 47.4495 40.7851 47.2577C40.864 47.0636 40.973 46.9175 41.0654 46.8251L46.0151 51.7749C47.129 50.661 47.6902 49.2269 47.6902 47.7H40.6902ZM40.9755 46.9184C41.0545 46.8333 41.1994 46.7116 41.4124 46.6184C41.6257 46.5251 41.8169 46.5 41.9402 46.5V53.5C43.5529 53.5 45.0136 52.8569 46.105 51.6816L40.9755 46.9184ZM41.9402 46.5H40.5402V53.5H41.9402V46.5ZM40.5402 46.5C40.6646 46.5 40.8367 46.5253 41.0197 46.603C41.1998 46.6794 41.3139 46.7739 41.3651 46.8251L36.4154 51.7749C37.5076 52.8671 38.936 53.5 40.5402 53.5V46.5ZM41.3651 46.8251C41.4575 46.9175 41.5665 47.0636 41.6454 47.2577C41.7233 47.4495 41.7402 47.6104 41.7402 47.7H34.7402C34.7402 49.2269 35.3015 50.661 36.4154 51.7749L41.3651 46.8251ZM41.7402 47.7V21.7H34.7402V47.7H41.7402ZM41.7402 21.7C41.7402 21.2592 41.8387 20.9554 41.9915 20.7007L35.989 17.0993C35.1418 18.5113 34.7402 20.0741 34.7402 21.7H41.7402ZM41.971 20.7343C42.2246 20.3224 42.5117 20.0488 42.841 19.8512L39.2395 13.8488C37.9021 14.6512 36.8226 15.7443 36.0094 17.0657L41.971 20.7343ZM42.841 19.8512C43.0956 19.6984 43.3995 19.6 43.8402 19.6V12.6C42.2143 12.6 40.6515 13.0016 39.2395 13.8488L42.841 19.8512ZM43.8402 19.6H50.7902V12.6H43.8402V19.6ZM50.7902 19.6C51.231 19.6 51.5349 19.6984 51.7895 19.8512L55.391 13.8488C53.9789 13.0016 52.4161 12.6 50.7902 12.6V19.6ZM51.7895 19.8512C52.0973 20.0359 52.3467 20.2817 52.5586 20.649L58.6219 17.151C57.8338 15.785 56.7498 14.6641 55.391 13.8488L51.7895 19.8512ZM52.589 20.7007C52.7418 20.9554 52.8402 21.2592 52.8402 21.7H59.8402C59.8402 20.0741 59.4387 18.5113 58.5915 17.0993L52.589 20.7007ZM52.8402 21.7V36.4H59.8402V21.7H52.8402ZM53.9402 35.45V22.75H46.9402V35.45H53.9402ZM53.9402 22.75C53.9402 21.4072 53.3094 20.2632 52.3767 19.517L48.0038 24.983C47.7491 24.7793 47.4628 24.4714 47.2472 24.0402C47.0283 23.6024 46.9402 23.1526 46.9402 22.75H53.9402ZM52.6651 19.7751C51.9694 19.0794 50.9601 18.55 49.7402 18.55V25.55C49.3416 25.55 48.9358 25.467 48.5562 25.2983C48.1849 25.1333 47.9078 24.9173 47.7154 24.7249L52.6651 19.7751ZM49.7402 18.55H44.8902V25.55H49.7402V18.55ZM44.8902 18.55C43.7287 18.55 42.8143 19.0286 42.2038 19.517L46.5767 24.983C46.2995 25.2048 45.7185 25.55 44.8902 25.55V18.55ZM41.9154 19.7751C41.0827 20.6077 40.6902 21.6842 40.6902 22.75H47.6902C47.6902 23.0445 47.6398 23.4001 47.4899 23.7749C47.3384 24.1537 47.1164 24.4736 46.8651 24.7249L41.9154 19.7751ZM40.6902 22.75V35.45H47.6902V22.75H40.6902ZM40.6902 35.45C40.6902 36.6699 41.2196 37.6791 41.9154 38.3749L46.8651 33.4251C47.0576 33.6176 47.2735 33.8947 47.4386 34.266C47.6073 34.6455 47.6902 35.0514 47.6902 35.45H40.6902ZM42.2038 38.633C42.8143 39.1214 43.7287 39.6 44.8902 39.6V32.6C45.7185 32.6 46.2995 32.9452 46.5767 33.167L42.2038 38.633ZM44.8902 39.6H49.7402V32.6H44.8902V39.6ZM49.7402 39.6C50.9601 39.6 51.9694 39.0706 52.6651 38.3749L47.7154 33.4251C47.9078 33.2327 48.1849 33.0167 48.5563 32.8517C48.9358 32.683 49.3416 32.6 49.7402 32.6V39.6ZM52.3767 38.633C53.1202 38.0382 53.9402 36.9668 53.9402 35.45H46.9402C46.9402 34.9205 47.0799 34.4167 47.3182 33.9878C47.5443 33.5807 47.8155 33.3176 48.0038 33.167L52.3767 38.633ZM70.3082 14.1L67.8333 11.6251L67.8333 11.6251L70.3082 14.1ZM65.0082 14.1L62.479 16.5193L62.5327 16.5755L62.5889 16.6292L65.0082 14.1ZM65.0082 8.8L62.5333 6.32512L62.5333 6.32513L65.0082 8.8ZM70.3082 8.8L67.779 11.2193L67.8327 11.2755L67.8889 11.3292L70.3082 8.8ZM69.9582 41.35L72.4331 43.8249L72.4331 43.8249L69.9582 41.35ZM65.3582 41.35L62.7934 43.7316L62.8816 43.8266L62.9766 43.9148L65.3582 41.35ZM65.3582 17.35L62.8833 14.8751L62.8833 14.8751L65.3582 17.35ZM69.9582 17.35L67.3934 19.7316L67.4816 19.8266L67.5766 19.9148L69.9582 17.35ZM67.9582 11.4C67.9582 11.4408 67.9545 11.4624 67.9532 11.4693C67.9519 11.4757 67.9511 11.4774 67.9506 11.4785C67.9501 11.4798 67.9455 11.4907 67.9305 11.5123C67.9152 11.5345 67.8857 11.5727 67.8333 11.6251L72.7831 16.5749C74.1701 15.1878 74.9582 13.4113 74.9582 11.4H67.9582ZM67.8333 11.6251C67.791 11.6675 67.7627 11.6886 67.7504 11.6971C67.7386 11.7052 67.7371 11.7047 67.7445 11.7016C67.7476 11.7003 67.751 11.6991 67.7542 11.6981C67.7574 11.6971 67.7591 11.6968 67.7586 11.6969C67.7585 11.6969 67.7433 11.7 67.7082 11.7V18.7C69.6742 18.7 71.4205 17.9374 72.7831 16.5749L67.8333 11.6251ZM67.7082 11.7C67.6153 11.7 67.5834 11.6856 67.5787 11.6837C67.5724 11.6811 67.5219 11.6611 67.4275 11.5708L62.5889 16.6292C63.9876 17.9671 65.7471 18.7 67.7082 18.7V11.7ZM67.5374 11.6807C67.4471 11.5863 67.4271 11.5358 67.4245 11.5295C67.4226 11.5248 67.4082 11.4929 67.4082 11.4H60.4082C60.4082 13.3611 61.1411 15.1206 62.479 16.5193L67.5374 11.6807ZM67.4082 11.4C67.4082 11.3649 67.4113 11.3497 67.4113 11.3496C67.4114 11.3491 67.4111 11.3508 67.4101 11.354C67.4091 11.3572 67.4079 11.3606 67.4066 11.3637C67.4035 11.3711 67.403 11.3696 67.4111 11.3578C67.4196 11.3455 67.4407 11.3172 67.4831 11.2749L62.5333 6.32513C61.1708 7.68765 60.4082 9.43399 60.4082 11.4H67.4082ZM67.4831 11.2749C67.5355 11.2225 67.5737 11.193 67.5959 11.1777C67.6175 11.1627 67.6284 11.1581 67.6297 11.1576C67.6308 11.1571 67.6325 11.1563 67.6389 11.155C67.6458 11.1537 67.6674 11.15 67.7082 11.15V4.15C65.6969 4.15 63.9204 4.93807 62.5333 6.32512L67.4831 11.2749ZM67.7082 11.15C67.7334 11.15 67.7386 11.1523 67.7291 11.1503C67.7191 11.1483 67.7055 11.1441 67.6924 11.1384C67.6797 11.1328 67.6788 11.1305 67.6905 11.1389C67.7029 11.1478 67.7332 11.1714 67.779 11.2193L72.8375 6.38072C71.4888 4.97076 69.7266 4.15 67.7082 4.15V11.15ZM67.8889 11.3292C67.9368 11.375 67.9604 11.4053 67.9693 11.4177C67.9777 11.4294 67.9754 11.4285 67.9698 11.4158C67.9641 11.4028 67.9599 11.3891 67.9579 11.3791C67.9559 11.3696 67.9582 11.3748 67.9582 11.4H74.9582C74.9582 9.38162 74.1374 7.61941 72.7275 6.27075L67.8889 11.3292ZM67.1582 39.7C67.1582 39.5756 67.1835 39.4036 67.2612 39.2206C67.3376 39.0404 67.4321 38.9264 67.4833 38.8751L72.4331 43.8249C73.5253 42.7326 74.1582 41.3042 74.1582 39.7H67.1582ZM67.4833 38.8751C67.5757 38.7828 67.7218 38.6737 67.9159 38.5949C68.1077 38.5169 68.2686 38.5 68.3582 38.5V45.5C69.8851 45.5 71.3192 44.9387 72.4331 43.8249L67.4833 38.8751ZM68.3582 38.5H67.0082V45.5H68.3582V38.5ZM67.0082 38.5C67.099 38.5 67.2416 38.5173 67.4035 38.5811C67.5652 38.6447 67.6781 38.728 67.7398 38.7852L62.9766 43.9148C64.0867 44.9456 65.486 45.5 67.0082 45.5V38.5ZM67.923 38.9684C67.9803 39.0301 68.0635 39.143 68.1271 39.3047C68.1909 39.4666 68.2082 39.6092 68.2082 39.7H61.2082C61.2082 41.2222 61.7627 42.6215 62.7934 43.7316L67.923 38.9684ZM68.2082 39.7V18.95H61.2082V39.7H68.2082ZM68.2082 18.95C68.2082 19.0396 68.1913 19.2005 68.1133 19.3923C68.0345 19.5864 67.9254 19.7325 67.8331 19.8249L62.8833 14.8751C61.7695 15.989 61.2082 17.4231 61.2082 18.95H68.2082ZM67.8331 19.8249C67.7818 19.8761 67.6678 19.9706 67.4876 20.047C67.3046 20.1247 67.1326 20.15 67.0082 20.15V13.15C65.404 13.15 63.9756 13.7829 62.8833 14.8751L67.8331 19.8249ZM67.0082 20.15H68.3582V13.15H67.0082V20.15ZM68.3582 20.15C68.2349 20.15 68.0437 20.1249 67.8303 20.0315C67.6174 19.9384 67.4725 19.8167 67.3934 19.7316L72.523 14.9684C71.4316 13.7931 69.9709 13.15 68.3582 13.15V20.15ZM67.5766 19.9148C67.4915 19.8357 67.3698 19.6908 67.2767 19.4779C67.1833 19.2645 67.1582 19.0733 67.1582 18.95H74.1582C74.1582 17.3373 73.5151 15.8766 72.3398 14.7852L67.5766 19.9148ZM67.1582 18.95V39.7H74.1582V18.95H67.1582ZM95.4305 40.4L97.9053 42.8749L97.9053 42.8749L95.4305 40.4ZM80.6305 40.4L78.1556 42.8749L78.1746 42.8939L78.194 42.9127L80.6305 40.4ZM79.7305 18.9L76.7497 17.0657L76.7394 17.0824L76.7292 17.0993L79.7305 18.9ZM81.7805 16.85L79.9797 13.8488L79.9797 13.8488L81.7805 16.85ZM91.8305 8.85L94.3053 11.3249L94.3053 11.3249L91.8305 8.85ZM96.4305 8.85L98.9053 6.37513L98.9053 6.37512L96.4305 8.85ZM85.1305 22.25L82.944 19.517L82.7927 19.6381L82.6556 19.7751L85.1305 22.25ZM85.1305 35.9L82.6556 38.3749L82.7927 38.5119L82.944 38.633L85.1305 35.9ZM93.5805 36.4C93.5805 37.0458 93.394 37.4867 92.9556 37.9251L97.9053 42.8749C99.6669 41.1133 100.58 38.8875 100.58 36.4H93.5805ZM92.9556 37.9251C92.5573 38.3234 92.1527 38.5 91.5305 38.5V45.5C93.9749 45.5 96.1703 44.6099 97.9053 42.8749L92.9556 37.9251ZM91.5305 38.5H84.5805V45.5H91.5305V38.5ZM84.5805 38.5C83.956 38.5 83.5134 38.3203 83.067 37.8873L78.194 42.9127C79.9475 44.613 82.1382 45.5 84.5805 45.5V38.5ZM83.1053 37.9251C82.6669 37.4867 82.4805 37.0458 82.4805 36.4H75.4805C75.4805 38.8875 76.394 41.1133 78.1556 42.8749L83.1053 37.9251ZM82.4805 36.4V21.7H75.4805V36.4H82.4805ZM82.4805 21.7C82.4805 21.2592 82.5789 20.9554 82.7317 20.7007L76.7292 17.0993C75.882 18.5113 75.4805 20.0741 75.4805 21.7H82.4805ZM82.7113 20.7343C82.9648 20.3224 83.252 20.0488 83.5812 19.8512L79.9797 13.8488C78.6423 14.6512 77.5628 15.7443 76.7497 17.0657L82.7113 20.7343ZM83.5812 19.8512C83.8358 19.6984 84.1397 19.6 84.5805 19.6V12.6C82.9546 12.6 81.3918 13.0016 79.9797 13.8488L83.5812 19.8512ZM84.5805 19.6H90.4805V12.6H84.5805V19.6ZM90.4805 19.6C91.1326 19.6 92.2748 19.4718 93.2832 18.6074C94.3949 17.6545 94.6805 16.3925 94.6805 15.5H87.6805C87.6805 15.0075 87.8493 14.0455 88.7277 13.2926C89.5028 12.6282 90.295 12.6 90.4805 12.6V19.6ZM94.6805 15.5V10.5H87.6805V15.5H94.6805ZM94.6805 10.5C94.6805 10.55 94.6713 10.6879 94.5994 10.8703C94.5253 11.0586 94.4155 11.2148 94.3053 11.3249L89.3556 6.37512C88.205 7.52577 87.6805 8.99495 87.6805 10.5H94.6805ZM94.3053 11.3249C94.213 11.4172 94.0669 11.5263 93.8728 11.6051C93.681 11.683 93.52 11.7 93.4305 11.7V4.7C91.9036 4.7 90.4695 5.26127 89.3556 6.37513L94.3053 11.3249ZM93.4305 11.7H94.8305V4.7H93.4305V11.7ZM94.8305 11.7C94.7409 11.7 94.5799 11.683 94.3881 11.6051C94.1941 11.5263 94.048 11.4172 93.9556 11.3249L98.9053 6.37512C97.7915 5.26127 96.3573 4.7 94.8305 4.7V11.7ZM93.9556 11.3249C93.8455 11.2147 93.7357 11.0585 93.6615 10.8703C93.5897 10.6879 93.5805 10.55 93.5805 10.5H100.58C100.58 8.99495 100.056 7.52577 98.9053 6.37513L93.9556 11.3249ZM93.5805 10.5V36.4H100.58V10.5H93.5805ZM94.6805 35.45V22.75H87.6805V35.45H94.6805ZM94.6805 22.75C94.6805 21.9772 94.4849 20.7547 93.4803 19.7501C92.4758 18.7456 91.2533 18.55 90.4805 18.55V25.55C90.1743 25.55 89.3018 25.4711 88.5306 24.6999C87.7594 23.9287 87.6805 23.0562 87.6805 22.75H94.6805ZM90.4805 18.55H85.6305V25.55H90.4805V18.55ZM85.6305 18.55C84.4689 18.55 83.5545 19.0286 82.944 19.517L87.3169 24.983C87.0397 25.2048 86.4587 25.55 85.6305 25.55V18.55ZM82.6556 19.7751C81.823 20.6077 81.4305 21.6842 81.4305 22.75H88.4305C88.4305 23.0445 88.38 23.4001 88.2301 23.7749C88.0786 24.1537 87.8566 24.4736 87.6053 24.7249L82.6556 19.7751ZM81.4305 22.75V35.45H88.4305V22.75H81.4305ZM81.4305 35.45C81.4305 36.6699 81.9598 37.6791 82.6556 38.3749L87.6053 33.4251C87.7978 33.6176 88.0138 33.8947 88.1788 34.266C88.3475 34.6455 88.4305 35.0514 88.4305 35.45H81.4305ZM82.944 38.633C83.5545 39.1214 84.4689 39.6 85.6305 39.6V32.6C86.4587 32.6 87.0397 32.9452 87.3169 33.167L82.944 38.633ZM85.6305 39.6H90.4805V32.6H85.6305V39.6ZM90.4805 39.6C91.1915 39.6 92.3769 39.4402 93.387 38.5023C94.4461 37.5189 94.6805 36.2754 94.6805 35.45H87.6805C87.6805 35.0579 87.7982 34.1395 88.6239 33.3727C89.4007 32.6514 90.2361 32.6 90.4805 32.6V39.6ZM121.998 29.95L125 31.7507L125.015 31.725L125.03 31.699L121.998 29.95ZM119.998 32L121.799 35.0012L121.843 34.9752L121.885 34.9479L119.998 32ZM110.798 32.95L112.898 35.75L112.942 35.7172L112.985 35.683L110.798 32.95ZM110.798 35.9L108.324 38.3749L108.461 38.5119L108.612 38.633L110.798 35.9ZM118.798 36.75L116.324 39.2249L116.369 39.2707L116.417 39.3148L118.798 36.75ZM118.798 41.35L121.273 43.8249L121.273 43.8249L118.798 41.35ZM106.298 40.4L103.824 42.8749L103.843 42.8939L103.862 42.9127L106.298 40.4ZM105.398 18.9L102.45 17.0133L102.423 17.0559L102.397 17.0993L105.398 18.9ZM107.448 16.9L109.249 19.9012L109.293 19.8752L109.335 19.8479L107.448 16.9ZM119.998 16.9L118.112 19.8479L118.154 19.8752L118.198 19.9012L119.998 16.9ZM121.998 18.9L125 17.0993L125 17.0993L121.998 18.9ZM116.598 22.25L114.124 24.7249L114.261 24.8619L114.412 24.983L116.598 22.25ZM110.798 22.25L108.612 19.517L108.461 19.6381L108.324 19.7751L110.798 22.25ZM110.798 26.55L108.324 29.0249L108.461 29.1619L108.612 29.283L110.798 26.55ZM116.598 26.55L114.412 23.817L114.261 23.9381L114.124 24.0751L116.598 26.55ZM119.248 27.15C119.248 27.5356 119.16 27.8658 118.967 28.201L125.03 31.699C125.837 30.3008 126.248 28.7644 126.248 27.15H119.248ZM118.997 28.1493C118.78 28.5107 118.499 28.8045 118.112 29.052L121.885 34.9479C123.165 34.1288 124.217 33.056 125 31.7507L118.997 28.1493ZM118.198 28.9988C117.943 29.1516 117.639 29.25 117.198 29.25V36.25C118.824 36.25 120.387 35.8484 121.799 35.0012L118.198 28.9988ZM117.198 29.25H111.298V36.25H117.198V29.25ZM111.298 29.25C110.137 29.25 109.223 29.7286 108.612 30.217L112.985 35.683C112.708 35.9048 112.127 36.25 111.298 36.25V29.25ZM108.698 30.15C107.684 30.911 107.098 32.0817 107.098 33.35H114.098C114.098 33.7452 114.016 34.2161 113.779 34.6902C113.542 35.1644 113.215 35.5129 112.898 35.75L108.698 30.15ZM107.098 33.35V35.45H114.098V33.35H107.098ZM107.098 35.45C107.098 36.6699 107.628 37.6791 108.324 38.3749L113.273 33.4251C113.466 33.6176 113.682 33.8947 113.847 34.266C114.015 34.6455 114.098 35.0514 114.098 35.45H107.098ZM108.612 38.633C109.222 39.1214 110.137 39.6 111.298 39.6V32.6C112.127 32.6 112.708 32.9452 112.985 33.167L108.612 38.633ZM111.298 39.6H117.198V32.6H111.298V39.6ZM117.198 39.6C117.109 39.6 116.948 39.5831 116.756 39.5051C116.562 39.4263 116.416 39.3172 116.324 39.2249L121.273 34.2751C120.159 33.1613 118.725 32.6 117.198 32.6V39.6ZM116.417 39.3148C116.313 39.2183 116.19 39.063 116.101 38.8544C116.014 38.6496 115.998 38.4819 115.998 38.4H122.998C122.998 36.8115 122.397 35.315 121.18 34.1852L116.417 39.3148ZM115.998 38.4V39.7H122.998V38.4H115.998ZM115.998 39.7C115.998 39.5756 116.024 39.4036 116.101 39.2206C116.178 39.0404 116.272 38.9264 116.324 38.8751L121.273 43.8249C122.366 42.7326 122.998 41.3042 122.998 39.7H115.998ZM116.324 38.8751C116.416 38.7828 116.562 38.6737 116.756 38.5949C116.948 38.5169 117.109 38.5 117.198 38.5V45.5C118.725 45.5 120.159 44.9387 121.273 43.8249L116.324 38.8751ZM117.198 38.5H110.248V45.5H117.198V38.5ZM110.248 38.5C109.624 38.5 109.181 38.3203 108.735 37.8873L103.862 42.9127C105.615 44.613 107.806 45.5 110.248 45.5V38.5ZM108.773 37.9251C108.335 37.4867 108.148 37.0458 108.148 36.4H101.148C101.148 38.8875 102.062 41.1133 103.824 42.8749L108.773 37.9251ZM108.148 36.4V21.7H101.148V36.4H108.148ZM108.148 21.7C108.148 21.2592 108.247 20.9554 108.4 20.7007L102.397 17.0993C101.55 18.5113 101.148 20.0741 101.148 21.7H108.148ZM108.346 20.7867C108.594 20.3999 108.888 20.1181 109.249 19.9012L105.648 13.8988C104.342 14.6819 103.27 15.7334 102.45 17.0133L108.346 20.7867ZM109.335 19.8479C109.579 19.6916 109.853 19.6 110.248 19.6V12.6C108.578 12.6 106.984 13.0418 105.562 13.952L109.335 19.8479ZM110.248 19.6H117.198V12.6H110.248V19.6ZM117.198 19.6C117.594 19.6 117.867 19.6916 118.112 19.8479L121.885 13.952C120.463 13.0418 118.869 12.6 117.198 12.6V19.6ZM118.198 19.9012C118.538 20.1056 118.793 20.36 118.997 20.7007L125 17.0993C124.204 15.7733 123.125 14.6943 121.799 13.8988L118.198 19.9012ZM118.997 20.7007C119.15 20.9554 119.248 21.2592 119.248 21.7H126.248C126.248 20.0741 125.847 18.5113 125 17.0993L118.997 20.7007ZM119.248 21.7V27.15H126.248V21.7H119.248ZM120.348 26.15V22.75H113.348V26.15H120.348ZM120.348 22.75C120.348 21.4072 119.718 20.2632 118.785 19.517L114.412 24.983C114.157 24.7793 113.871 24.4714 113.655 24.0402C113.437 23.6024 113.348 23.1526 113.348 22.75H120.348ZM119.073 19.7751C118.378 19.0794 117.368 18.55 116.148 18.55V25.55C115.75 25.55 115.344 25.467 114.964 25.2983C114.593 25.1333 114.316 24.9173 114.124 24.7249L119.073 19.7751ZM116.148 18.55H111.298V25.55H116.148V18.55ZM111.298 18.55C110.137 18.55 109.222 19.0286 108.612 19.517L112.985 24.983C112.708 25.2048 112.127 25.55 111.298 25.55V18.55ZM108.324 19.7751C107.491 20.6077 107.098 21.6842 107.098 22.75H114.098C114.098 23.0445 114.048 23.4001 113.898 23.7749C113.747 24.1537 113.525 24.4736 113.273 24.7249L108.324 19.7751ZM107.098 22.75V26.15H114.098V22.75H107.098ZM107.098 26.15C107.098 27.539 107.809 28.5101 108.324 29.0249L113.273 24.0751C113.521 24.3233 114.098 25.0277 114.098 26.15H107.098ZM108.612 29.283C109.222 29.7714 110.137 30.25 111.298 30.25V23.25C112.127 23.25 112.708 23.5952 112.985 23.817L108.612 29.283ZM111.298 30.25H116.148V23.25H111.298V30.25ZM116.148 30.25C117.368 30.25 118.378 29.7206 119.073 29.0249L114.124 24.0751C114.316 23.8827 114.593 23.6667 114.964 23.5017C115.344 23.333 115.75 23.25 116.148 23.25V30.25ZM118.785 29.283C119.284 28.8835 120.348 27.8521 120.348 26.15H113.348C113.348 24.7145 114.246 23.9498 114.412 23.817L118.785 29.283ZM144.516 21.4L142.042 18.9251L142.042 18.9251L144.516 21.4ZM135.616 41.35L138.091 43.8249L138.091 43.8249L135.616 41.35ZM131.016 41.35L128.452 43.7316L128.496 43.7791L128.542 43.8249L131.016 41.35ZM131.116 18.9L134.118 20.7007L134.133 20.675L134.148 20.649L131.116 18.9ZM133.116 16.85L131.316 13.8488L131.316 13.8488L133.116 16.85ZM144.516 16.8L141.952 19.1816L141.996 19.2291L142.042 19.2749L144.516 16.8ZM141.666 19.8C141.666 19.7104 141.683 19.5495 141.761 19.3577C141.84 19.1636 141.949 19.0175 142.042 18.9251L146.991 23.8749C148.105 22.761 148.666 21.3269 148.666 19.8H141.666ZM142.042 18.9251C142.134 18.8328 142.28 18.7237 142.474 18.6449C142.666 18.5669 142.827 18.55 142.916 18.55V25.55C144.443 25.55 145.877 24.9887 146.991 23.8749L142.042 18.9251ZM142.916 18.55H136.966V25.55H142.916V18.55ZM136.966 18.55C136.141 18.55 134.898 18.7844 133.914 19.8434C132.976 20.8535 132.816 22.0389 132.816 22.75H139.816C139.816 22.9944 139.765 23.8298 139.044 24.6066C138.277 25.4323 137.359 25.55 136.966 25.55V18.55ZM132.816 22.75V39.7H139.816V22.75H132.816ZM132.816 39.7C132.816 39.5756 132.842 39.4036 132.919 39.2206C132.996 39.0404 133.09 38.9264 133.142 38.8751L138.091 43.8249C139.184 42.7326 139.816 41.3042 139.816 39.7H132.816ZM133.142 38.8751C133.234 38.7828 133.38 38.6737 133.574 38.5949C133.766 38.5169 133.927 38.5 134.016 38.5V45.5C135.543 45.5 136.977 44.9387 138.091 43.8249L133.142 38.8751ZM134.016 38.5H132.616V45.5H134.016V38.5ZM132.616 38.5C132.706 38.5 132.867 38.5169 133.059 38.5949C133.253 38.6737 133.399 38.7828 133.491 38.8751L128.542 43.8249C129.655 44.9387 131.09 45.5 132.616 45.5V38.5ZM133.581 38.9684C133.638 39.0301 133.722 39.143 133.785 39.3047C133.849 39.4666 133.866 39.6092 133.866 39.7H126.866C126.866 41.2222 127.421 42.6215 128.452 43.7316L133.581 38.9684ZM133.866 39.7V21.7H126.866V39.7H133.866ZM133.866 21.7C133.866 21.2592 133.965 20.9554 134.118 20.7007L128.115 17.0993C127.268 18.5113 126.866 20.0741 126.866 21.7H133.866ZM134.148 20.649C134.36 20.2817 134.609 20.0359 134.917 19.8512L131.316 13.8488C129.957 14.6641 128.873 15.785 128.085 17.151L134.148 20.649ZM134.917 19.8512C135.172 19.6984 135.476 19.6 135.916 19.6V12.6C134.29 12.6 132.728 13.0016 131.316 13.8488L134.917 19.8512ZM135.916 19.6H142.916V12.6H135.916V19.6ZM142.916 19.6C142.793 19.6 142.602 19.5749 142.389 19.4815C142.176 19.3884 142.031 19.2667 141.952 19.1816L147.081 14.4184C145.99 13.2431 144.529 12.6 142.916 12.6V19.6ZM142.042 19.2749C141.931 19.1648 141.822 19.0086 141.747 18.8203C141.676 18.6379 141.666 18.5 141.666 18.45H148.666C148.666 16.945 148.142 15.4758 146.991 14.3251L142.042 19.2749ZM141.666 18.45V19.8H148.666V18.45H141.666Z" fill="#673DE6" mask="url(#path-1-outside-1_1441_123)"/>
<path d="M118.262 51.749C118.262 51.9643 118.188 52.1513 118.041 52.31C117.894 52.4573 117.707 52.531 117.48 52.531H115.695C115.548 52.531 115.474 52.6047 115.474 52.752V61.218C115.474 61.4333 115.395 61.6203 115.236 61.779C115.089 61.9263 114.907 62 114.692 62H114.25C114.035 62 113.848 61.9263 113.689 61.779C113.542 61.6203 113.468 61.4333 113.468 61.218V52.752C113.468 52.6047 113.394 52.531 113.247 52.531H111.445C111.23 52.531 111.043 52.4573 110.884 52.31C110.737 52.1513 110.663 51.9643 110.663 51.749V51.29C110.663 51.0633 110.737 50.8763 110.884 50.729C111.043 50.5817 111.23 50.508 111.445 50.508H117.48C117.707 50.508 117.894 50.5817 118.041 50.729C118.188 50.8763 118.262 51.0633 118.262 51.29V51.749ZM124.936 56.951C124.936 57.291 124.851 57.6083 124.681 57.903C124.511 58.1863 124.284 58.4187 124.001 58.6C123.717 58.77 123.4 58.855 123.049 58.855H121.043C120.986 58.855 120.929 58.8777 120.873 58.923C120.827 58.957 120.805 59.0023 120.805 59.059V59.773C120.805 59.8297 120.827 59.8807 120.873 59.926C120.929 59.9713 120.986 59.994 121.043 59.994H123.049C123.264 59.994 123.445 60.0677 123.593 60.215C123.751 60.3623 123.831 60.5493 123.831 60.776V61.218C123.831 61.4333 123.751 61.6203 123.593 61.779C123.445 61.9263 123.264 62 123.049 62H120.686C120.164 62 119.717 61.8187 119.343 61.456C118.969 61.082 118.782 60.6287 118.782 60.096V55.098C118.782 54.7467 118.867 54.4293 119.037 54.146C119.218 53.8627 119.45 53.636 119.734 53.466C120.017 53.2847 120.334 53.194 120.686 53.194H123.049C123.4 53.194 123.717 53.2847 124.001 53.466C124.284 53.636 124.511 53.8627 124.681 54.146C124.851 54.4293 124.936 54.7467 124.936 55.098V56.951ZM122.93 56.611V55.455C122.93 55.387 122.901 55.3303 122.845 55.285C122.799 55.2397 122.748 55.217 122.692 55.217H121.043C120.986 55.217 120.929 55.2397 120.873 55.285C120.827 55.3303 120.805 55.387 120.805 55.455V56.611C120.805 56.6563 120.827 56.7017 120.873 56.747C120.929 56.7923 120.986 56.815 121.043 56.815H122.692C122.748 56.815 122.799 56.7923 122.845 56.747C122.901 56.7017 122.93 56.6563 122.93 56.611ZM132.473 60.096C132.473 60.6287 132.286 61.082 131.912 61.456C131.549 61.8187 131.107 62 130.586 62H128.223C127.701 62 127.254 61.8187 126.88 61.456C126.506 61.082 126.319 60.6287 126.319 60.096V55.098C126.319 54.7467 126.404 54.4293 126.574 54.146C126.755 53.8513 126.987 53.619 127.271 53.449C127.554 53.279 127.871 53.194 128.223 53.194H130.586C130.937 53.194 131.254 53.279 131.538 53.449C131.821 53.619 132.048 53.8513 132.218 54.146C132.388 54.4293 132.473 54.7467 132.473 55.098V55.982C132.473 56.1973 132.399 56.3843 132.252 56.543C132.104 56.6903 131.923 56.764 131.708 56.764H131.232C131.016 56.764 130.835 56.6903 130.688 56.543C130.54 56.3843 130.467 56.1973 130.467 55.982V55.455C130.467 55.387 130.438 55.3303 130.382 55.285C130.336 55.2397 130.285 55.217 130.229 55.217H128.58C128.523 55.217 128.466 55.2397 128.41 55.285C128.364 55.3303 128.342 55.387 128.342 55.455V59.773C128.342 59.8297 128.364 59.8807 128.41 59.926C128.466 59.9713 128.523 59.994 128.58 59.994H130.229C130.285 59.994 130.336 59.9713 130.382 59.926C130.438 59.8807 130.467 59.8297 130.467 59.773V59.246C130.467 59.0307 130.54 58.8493 130.688 58.702C130.835 58.5433 131.016 58.464 131.232 58.464H131.708C131.923 58.464 132.104 58.5433 132.252 58.702C132.399 58.8493 132.473 59.0307 132.473 59.246V60.096ZM140.01 61.218C140.01 61.4333 139.936 61.6203 139.789 61.779C139.641 61.9263 139.46 62 139.245 62H138.769C138.553 62 138.372 61.9263 138.225 61.779C138.077 61.6203 138.004 61.4333 138.004 61.218V55.455C138.004 55.387 137.975 55.3303 137.919 55.285C137.873 55.2397 137.822 55.217 137.766 55.217H136.117C136.06 55.217 136.003 55.2397 135.947 55.285C135.901 55.3303 135.879 55.387 135.879 55.455V61.218C135.879 61.4333 135.805 61.6203 135.658 61.779C135.51 61.9263 135.329 62 135.114 62H134.638C134.422 62 134.235 61.9263 134.077 61.779C133.929 61.6203 133.856 61.4333 133.856 61.218V51.29C133.856 51.0633 133.929 50.8763 134.077 50.729C134.235 50.5817 134.422 50.508 134.638 50.508H135.114C135.329 50.508 135.51 50.5817 135.658 50.729C135.805 50.8763 135.879 51.0633 135.879 51.29V52.99C135.879 53.0467 135.901 53.0977 135.947 53.143C136.003 53.177 136.06 53.194 136.117 53.194H138.123C138.474 53.194 138.791 53.279 139.075 53.449C139.358 53.619 139.585 53.8513 139.755 54.146C139.925 54.4293 140.01 54.7467 140.01 55.098V61.218Z" fill="#673DE6"/>
</svg>
