<svg width="276" height="100" viewBox="0 0 276 100" fill="none" xmlns="http://www.w3.org/2000/svg">
<g clip-path="url(#clip0_1257_232)">
<path d="M10.7876 69.2216H33.4579V73.2757H24.1498V91.9243H20.0957V73.2757H10.7876V69.2216ZM94.7489 73.2433C93.6138 73.2433 92.6733 74.1838 92.6733 75.3189V77.427H107.268V81.4811H92.6733V85.7622C92.6733 86.8973 93.6138 87.8379 94.7489 87.8379H111.322V91.8919H94.7489C91.376 91.8919 88.6517 89.1352 88.6517 85.7622V75.3189C88.6517 71.946 91.376 69.1892 94.7489 69.1892H111.322V73.2433H94.7489ZM175.704 73.2433C171.682 73.2433 168.407 76.5189 168.407 80.5406C168.407 84.5622 171.682 87.8379 175.704 87.8379H187.055V91.8919H175.704C169.445 91.8919 164.353 86.8 164.353 80.5406C164.353 74.2811 169.445 69.1892 175.704 69.1892H187.055V73.2433H175.704ZM260.84 69.1892H264.894V91.8919H260.84V81.4811H246.246V91.8919H242.192V69.1892H246.246V77.427H260.84V69.1892Z" fill="white"/>
<mask id="mask0_1257_232" style="mask-type:luminance" maskUnits="userSpaceOnUse" x="0" y="0" width="171" height="55">
<path d="M170.27 0H0V54.0541H170.27V0Z" fill="white"/>
<path d="M48.223 17.0945L39.7771 17.1621V16.8918C39.7771 14.5269 37.8176 12.5675 35.4527 12.5675H16.2635C13.8986 12.5675 11.9392 14.5269 11.9392 16.8918V17.1621C11.9392 19.5269 13.8986 21.4864 16.2635 21.4864H33.2906C37.6825 21.4864 41.6014 23.3783 44.3041 26.3513C44.5068 26.554 44.6419 26.7567 44.8446 26.9594C46.9392 29.5269 48.223 32.8377 48.223 36.4188C48.223 44.6621 41.5338 51.3513 33.2906 51.3513H18.4932C10.25 51.3513 3.56079 44.6621 3.56079 36.4188H12.0067C12.0067 39.9999 14.9121 42.9053 18.4932 42.9053H33.2906C36.8717 42.9053 39.8446 39.9999 39.8446 36.4188C39.8446 32.8377 36.8717 29.9323 33.2906 29.9323H16.2635C12.8175 29.9323 9.70944 28.581 7.41214 26.3513C6.80403 25.7431 6.26349 25.0675 5.79052 24.3242C4.3716 22.2972 3.56079 19.7972 3.56079 17.0945V16.8242C3.56079 9.7972 9.23647 4.05396 16.2635 4.05396H35.4527C42.4798 4.05396 48.223 9.7972 48.223 16.8242V17.0945ZM93.8119 7.77017L93.8798 7.90531C96.1768 10.2026 97.596 13.3783 97.596 16.8918C97.596 22.0269 94.5555 26.4864 90.1636 28.5134C89.0146 29.054 87.7984 29.3918 86.5146 29.5269C86.3798 29.5269 86.2444 29.5269 86.1095 29.5269V29.5945H63.4741V51.3513H55.0281V4.05396H84.8254C88.339 4.05396 91.5146 5.47287 93.8119 7.77017ZM86.65 20.8783V20.8107C88.2041 20.135 89.2176 18.581 89.2176 16.8918C89.2176 15.3377 88.4065 14.2567 87.9338 13.7837C87.393 13.2431 86.3798 12.5675 84.893 12.5675H63.4741V21.2837H84.893C85.5014 21.2837 86.1095 21.1486 86.65 20.8783ZM112.763 51.3513H104.317V4.05396H112.763V51.3513ZM119.493 4.05396L143.074 4.12152C156.115 4.12152 166.723 14.6621 166.723 27.7026C166.723 33.5134 164.628 38.8513 161.115 42.9729C160.709 43.4458 160.236 43.9188 159.763 44.3918C155.507 48.7161 149.628 51.3513 143.142 51.3513H119.493V4.05396ZM127.871 12.5675V42.9729H143.074C151.452 42.9729 158.277 36.1485 158.277 27.7702C158.277 19.3918 151.452 12.5675 143.074 12.5675H127.871Z" fill="black"/>
</mask>
<g mask="url(#mask0_1257_232)">
<path d="M48.223 17.0945L48.2446 19.7971L50.9257 19.7757V17.0945H48.223ZM39.777 17.1621H37.0743V19.8865L39.7986 19.8647L39.777 17.1621ZM44.304 26.3513L42.304 28.1694L42.3473 28.2169L42.3929 28.2623L44.304 26.3513ZM44.8446 26.9594L46.9386 25.2509L46.8524 25.145L46.7557 25.0483L44.8446 26.9594ZM3.56073 36.4188V33.7161H0.858032V36.4188H3.56073ZM12.0067 36.4188H14.7094V33.7161H12.0067V36.4188ZM7.41208 26.3513L5.50098 28.2623L5.51525 28.2767L5.52973 28.2907L7.41208 26.3513ZM5.79046 24.3242L8.07062 22.8732L8.0387 22.823L8.0046 22.7743L5.79046 24.3242ZM48.2013 14.3919L39.7554 14.4595L39.7986 19.8647L48.2446 19.7971L48.2013 14.3919ZM42.4797 17.1621V16.8918H37.0743V17.1621H42.4797ZM42.4797 16.8918C42.4797 13.0343 39.3102 9.86478 35.4527 9.86478V15.2702C36.3248 15.2702 37.0743 16.0196 37.0743 16.8918H42.4797ZM35.4527 9.86478H16.2634V15.2702H35.4527V9.86478ZM16.2634 9.86478C12.4059 9.86478 9.23641 13.0343 9.23641 16.8918H14.6418C14.6418 16.0196 15.3912 15.2702 16.2634 15.2702V9.86478ZM9.23641 16.8918V17.1621H14.6418V16.8918H9.23641ZM9.23641 17.1621C9.23641 21.0196 12.4059 24.1891 16.2634 24.1891V18.7837C15.3912 18.7837 14.6418 18.0343 14.6418 17.1621H9.23641ZM16.2634 24.1891H33.2905V18.7837H16.2634V24.1891ZM33.2905 24.1891C36.8881 24.1891 40.0911 25.7349 42.304 28.1694L46.3038 24.5332C43.1113 21.0216 38.4767 18.7837 33.2905 18.7837V24.1891ZM42.3929 28.2623C42.3902 28.2599 42.3951 28.2642 42.4113 28.2832C42.4308 28.3053 42.4527 28.331 42.4981 28.3856C42.5743 28.4769 42.7329 28.6699 42.9335 28.8705L46.7557 25.0483C46.7581 25.0508 46.7535 25.0463 46.737 25.0276C46.7175 25.0054 46.6959 24.9795 46.6505 24.9251C46.5743 24.8336 46.4157 24.6408 46.2151 24.4402L42.3929 28.2623ZM42.7502 28.6677C44.4705 30.7767 45.5203 33.4902 45.5203 36.4188H50.9257C50.9257 32.1853 49.4075 28.2772 46.9386 25.2509L42.7502 28.6677ZM45.5203 36.4188C45.5203 43.1694 40.0411 48.6486 33.2905 48.6486V54.054C43.0265 54.054 50.9257 46.1548 50.9257 36.4188H45.5203ZM33.2905 48.6486H18.4932V54.054H33.2905V48.6486ZM18.4932 48.6486C11.7426 48.6486 6.26344 43.1694 6.26344 36.4188H0.858032C0.858032 46.1548 8.75727 54.054 18.4932 54.054V48.6486ZM3.56073 39.1215H12.0067V33.7161H3.56073V39.1215ZM9.30398 36.4188C9.30398 41.4926 13.4194 45.608 18.4932 45.608V40.2026C16.4048 40.2026 14.7094 38.5072 14.7094 36.4188H9.30398ZM18.4932 45.608H33.2905V40.2026H18.4932V45.608ZM33.2905 45.608C38.3278 45.608 42.5473 41.5288 42.5473 36.4188H37.1419C37.1419 38.471 35.4154 40.2026 33.2905 40.2026V45.608ZM42.5473 36.4188C42.5473 31.3088 38.3275 27.2296 33.2905 27.2296V32.635C35.4154 32.635 37.1419 34.3667 37.1419 36.4188H42.5473ZM33.2905 27.2296H16.2634V32.635H33.2905V27.2296ZM16.2634 27.2296C13.5432 27.2296 11.1041 26.1683 9.29446 24.4119L5.52973 28.2907C8.31468 30.9937 12.0917 32.635 16.2634 32.635V27.2296ZM9.32319 24.4402C8.85789 23.9749 8.44033 23.4542 8.07062 22.8732L3.5103 25.7753C4.08654 26.6808 4.75006 27.5115 5.50098 28.2623L9.32319 24.4402ZM8.0046 22.7743C6.90903 21.2092 6.26344 19.2521 6.26344 17.0945H0.858032C0.858032 20.3423 1.83406 23.3852 3.57633 25.8741L8.0046 22.7743ZM6.26344 17.0945V16.8242H0.858032V17.0945H6.26344ZM6.26344 16.8242C6.26344 11.2712 10.7477 6.75667 16.2634 6.75667V1.35126C7.72511 1.35126 0.858032 8.32324 0.858032 16.8242H6.26344ZM16.2634 6.75667H35.4527V1.35126H16.2634V6.75667ZM35.4527 6.75667C40.987 6.75667 45.5203 11.2899 45.5203 16.8242H50.9257C50.9257 8.30456 43.9724 1.35126 35.4527 1.35126V6.75667ZM45.5203 16.8242V17.0945H50.9257V16.8242H45.5203ZM93.8119 7.77018L96.2294 6.56145L96.0332 6.16921L95.7232 5.85908L93.8119 7.77018ZM93.8797 7.90532L91.4621 9.11402L91.6584 9.50629L91.9684 9.81643L93.8797 7.90532ZM90.1635 28.5134L89.0308 26.0594L89.0127 26.068L90.1635 28.5134ZM86.5146 29.5269V32.2296H86.6565L86.7975 32.2148L86.5146 29.5269ZM86.1094 29.5269V26.8242H83.4067V29.5269H86.1094ZM86.1094 29.5945V32.2972H88.8121V29.5945H86.1094ZM63.474 29.5945V26.8918H60.7713V29.5945H63.474ZM63.474 51.3513V54.054H66.1767V51.3513H63.474ZM55.0281 51.3513H52.3254V54.054H55.0281V51.3513ZM55.0281 4.05397V1.35126H52.3254V4.05397H55.0281ZM86.65 20.8783L87.8586 23.2957L89.3527 22.5486V20.8783H86.65ZM86.65 20.8107L85.5721 18.3322L83.9473 19.0387V20.8107H86.65ZM63.474 12.5675V9.86478H60.7713V12.5675H63.474ZM63.474 21.2837H60.7713V23.9864H63.474V21.2837ZM91.3946 8.97889L91.4621 9.11402L96.297 6.69662L96.2294 6.56145L91.3946 8.97889ZM91.9684 9.81643C93.7778 11.6258 94.8932 14.1215 94.8932 16.8918H100.299C100.299 12.6351 98.5759 8.77943 95.7908 5.99421L91.9684 9.81643ZM94.8932 16.8918C94.8932 20.9385 92.497 24.4596 89.0308 26.0594L91.2959 30.9675C96.6135 28.5132 100.299 23.1154 100.299 16.8918H94.8932ZM89.0127 26.068C88.1421 26.4775 87.22 26.7351 86.2319 26.8391L86.7975 32.2148C88.377 32.0486 89.8873 31.6305 91.314 30.9588L89.0127 26.068ZM86.5146 26.8242C86.5143 26.8242 86.5119 26.8242 86.5116 26.8242C86.5113 26.8242 86.5119 26.8242 86.5116 26.8242C86.5113 26.8242 86.5086 26.8242 86.5084 26.8242C86.5081 26.8242 86.5086 26.8242 86.5084 26.8242C86.5081 26.8242 86.5054 26.8242 86.5051 26.8242C86.5048 26.8242 86.5024 26.8242 86.5021 26.8242C86.5019 26.8242 86.5024 26.8242 86.5021 26.8242C86.5019 26.8242 86.4992 26.8242 86.4989 26.8242C86.4986 26.8242 86.4992 26.8242 86.4989 26.8242C86.4986 26.8242 86.4959 26.8242 86.4957 26.8242C86.4954 26.8242 86.4959 26.8242 86.4957 26.8242C86.4954 26.8242 86.4927 26.8242 86.4924 26.8242C86.4921 26.8242 86.4927 26.8242 86.4924 26.8242C86.4921 26.8242 86.4897 26.8242 86.4894 26.8242C86.4892 26.8242 86.4897 26.8242 86.4894 26.8242C86.4892 26.8242 86.4865 26.8242 86.4862 26.8242C86.4859 26.8242 86.4865 26.8242 86.4862 26.8242C86.4859 26.8242 86.4832 26.8242 86.4829 26.8242C86.4827 26.8242 86.4803 26.8242 86.48 26.8242C86.4797 26.8242 86.4803 26.8242 86.48 26.8242C86.4797 26.8242 86.477 26.8242 86.4767 26.8242C86.4765 26.8242 86.477 26.8242 86.4767 26.8242C86.4765 26.8242 86.4738 26.8242 86.4735 26.8242C86.4732 26.8242 86.4738 26.8242 86.4735 26.8242C86.4732 26.8242 86.4705 26.8242 86.4702 26.8242C86.47 26.8242 86.4676 26.8242 86.4673 26.8242C86.467 26.8242 86.4676 26.8242 86.4673 26.8242C86.467 26.8242 86.4643 26.8242 86.464 26.8242C86.4638 26.8242 86.4643 26.8242 86.464 26.8242C86.4638 26.8242 86.4611 26.8242 86.4608 26.8242C86.4605 26.8242 86.4611 26.8242 86.4608 26.8242C86.4608 26.8242 86.4581 26.8242 86.4578 26.8242C86.4576 26.8242 86.4581 26.8242 86.4578 26.8242C86.4576 26.8242 86.4548 26.8242 86.4546 26.8242C86.4543 26.8242 86.4548 26.8242 86.4546 26.8242C86.4543 26.8242 86.4516 26.8242 86.4513 26.8242C86.4511 26.8242 86.4516 26.8242 86.4513 26.8242C86.4511 26.8242 86.4484 26.8242 86.4481 26.8242C86.4478 26.8242 86.4484 26.8242 86.4481 26.8242C86.4478 26.8242 86.4454 26.8242 86.4451 26.8242C86.4448 26.8242 86.4454 26.8242 86.4451 26.8242C86.4448 26.8242 86.4421 26.8242 86.4419 26.8242C86.4416 26.8242 86.4421 26.8242 86.4419 26.8242C86.4416 26.8242 86.4389 26.8242 86.4386 26.8242C86.4384 26.8242 86.4389 26.8242 86.4386 26.8242C86.4384 26.8242 86.4359 26.8242 86.4357 26.8242C86.4354 26.8242 86.4359 26.8242 86.4357 26.8242C86.4354 26.8242 86.4327 26.8242 86.4324 26.8242C86.4321 26.8242 86.4327 26.8242 86.4324 26.8242C86.4321 26.8242 86.4294 26.8242 86.4292 26.8242C86.4289 26.8242 86.4294 26.8242 86.4292 26.8242C86.4289 26.8242 86.4262 26.8242 86.4259 26.8242C86.4257 26.8242 86.4232 26.8242 86.423 26.8242C86.4227 26.8242 86.4232 26.8242 86.423 26.8242C86.4227 26.8242 86.42 26.8242 86.4197 26.8242C86.4194 26.8242 86.42 26.8242 86.4197 26.8242C86.4194 26.8242 86.4167 26.8242 86.4165 26.8242C86.4162 26.8242 86.4167 26.8242 86.4165 26.8242C86.4162 26.8242 86.4135 26.8242 86.4132 26.8242C86.413 26.8242 86.4105 26.8242 86.4102 26.8242C86.41 26.8242 86.4105 26.8242 86.4102 26.8242C86.41 26.8242 86.4073 26.8242 86.407 26.8242C86.4067 26.8242 86.4073 26.8242 86.407 26.8242C86.4067 26.8242 86.404 26.8242 86.4038 26.8242C86.4035 26.8242 86.4011 26.8242 86.4008 26.8242C86.4005 26.8242 86.4011 26.8242 86.4008 26.8242C86.4005 26.8242 86.3978 26.8242 86.3975 26.8242C86.3973 26.8242 86.3978 26.8242 86.3975 26.8242C86.3973 26.8242 86.3946 26.8242 86.3943 26.8242C86.394 26.8242 86.3946 26.8242 86.3943 26.8242C86.394 26.8242 86.3913 26.8242 86.3911 26.8242C86.3908 26.8242 86.3913 26.8242 86.3911 26.8242C86.3908 26.8242 86.3884 26.8242 86.3881 26.8242C86.3878 26.8242 86.3884 26.8242 86.3881 26.8242C86.3878 26.8242 86.3851 26.8242 86.3848 26.8242C86.3846 26.8242 86.3851 26.8242 86.3848 26.8242C86.3846 26.8242 86.3819 26.8242 86.3816 26.8242C86.3813 26.8242 86.3789 26.8242 86.3786 26.8242C86.3784 26.8242 86.3789 26.8242 86.3786 26.8242C86.3784 26.8242 86.3757 26.8242 86.3754 26.8242C86.3751 26.8242 86.3757 26.8242 86.3754 26.8242C86.3751 26.8242 86.3724 26.8242 86.3721 26.8242C86.3719 26.8242 86.3724 26.8242 86.3721 26.8242C86.3719 26.8242 86.3692 26.8242 86.3689 26.8242C86.3686 26.8242 86.3662 26.8242 86.3659 26.8242C86.3657 26.8242 86.3662 26.8242 86.3659 26.8242C86.3657 26.8242 86.363 26.8242 86.3627 26.8242C86.3624 26.8242 86.363 26.8242 86.3627 26.8242C86.3624 26.8242 86.3597 26.8242 86.3594 26.8242C86.3592 26.8242 86.3597 26.8242 86.3594 26.8242C86.3594 26.8242 86.3567 26.8242 86.3565 26.8242C86.3562 26.8242 86.3567 26.8242 86.3565 26.8242C86.3562 26.8242 86.3535 26.8242 86.3532 26.8242C86.353 26.8242 86.3535 26.8242 86.3532 26.8242C86.353 26.8242 86.3503 26.8242 86.35 26.8242C86.3497 26.8242 86.3503 26.8242 86.35 26.8242C86.3497 26.8242 86.347 26.8242 86.3467 26.8242C86.3465 26.8242 86.347 26.8242 86.3467 26.8242C86.3465 26.8242 86.344 26.8242 86.3438 26.8242C86.3435 26.8242 86.344 26.8242 86.3438 26.8242C86.3435 26.8242 86.3408 26.8242 86.3405 26.8242C86.3402 26.8242 86.3408 26.8242 86.3405 26.8242C86.3402 26.8242 86.3375 26.8242 86.3373 26.8242C86.337 26.8242 86.3375 26.8242 86.3373 26.8242C86.337 26.8242 86.3346 26.8242 86.3343 26.8242C86.334 26.8242 86.3346 26.8242 86.3343 26.8242C86.334 26.8242 86.3313 26.8242 86.3311 26.8242C86.3308 26.8242 86.3313 26.8242 86.3311 26.8242C86.3308 26.8242 86.3281 26.8242 86.3278 26.8242C86.3275 26.8242 86.3281 26.8242 86.3278 26.8242C86.3275 26.8242 86.3248 26.8242 86.3246 26.8242C86.3243 26.8242 86.3219 26.8242 86.3216 26.8242C86.3213 26.8242 86.3219 26.8242 86.3216 26.8242C86.3213 26.8242 86.3186 26.8242 86.3184 26.8242C86.3181 26.8242 86.3186 26.8242 86.3184 26.8242C86.3181 26.8242 86.3154 26.8242 86.3151 26.8242C86.3148 26.8242 86.3154 26.8242 86.3151 26.8242C86.3148 26.8242 86.3121 26.8242 86.3119 26.8242C86.3116 26.8242 86.3092 26.8242 86.3089 26.8242C86.3086 26.8242 86.3092 26.8242 86.3089 26.8242C86.3086 26.8242 86.3059 26.8242 86.3057 26.8242C86.3054 26.8242 86.3059 26.8242 86.3057 26.8242C86.3054 26.8242 86.3027 26.8242 86.3024 26.8242C86.3021 26.8242 86.2997 26.8242 86.2994 26.8242C86.2992 26.8242 86.2997 26.8242 86.2994 26.8242C86.2992 26.8242 86.2965 26.8242 86.2962 26.8242C86.2959 26.8242 86.2965 26.8242 86.2962 26.8242C86.2959 26.8242 86.2932 26.8242 86.293 26.8242C86.2927 26.8242 86.2932 26.8242 86.293 26.8242C86.2927 26.8242 86.29 26.8242 86.2897 26.8242C86.2894 26.8242 86.29 26.8242 86.2897 26.8242C86.2894 26.8242 86.287 26.8242 86.2867 26.8242C86.2865 26.8242 86.287 26.8242 86.2867 26.8242C86.2865 26.8242 86.2838 26.8242 86.2835 26.8242C86.2832 26.8242 86.2838 26.8242 86.2835 26.8242C86.2832 26.8242 86.2805 26.8242 86.2803 26.8242C86.28 26.8242 86.2775 26.8242 86.2773 26.8242C86.277 26.8242 86.2775 26.8242 86.2773 26.8242C86.277 26.8242 86.2743 26.8242 86.274 26.8242C86.2738 26.8242 86.2743 26.8242 86.274 26.8242C86.2738 26.8242 86.2711 26.8242 86.2708 26.8242C86.2705 26.8242 86.2711 26.8242 86.2708 26.8242C86.2705 26.8242 86.2678 26.8242 86.2675 26.8242C86.2673 26.8242 86.2648 26.8242 86.2646 26.8242C86.2643 26.8242 86.2648 26.8242 86.2646 26.8242C86.2643 26.8242 86.2616 26.8242 86.2613 26.8242C86.2611 26.8242 86.2616 26.8242 86.2613 26.8242C86.2611 26.8242 86.2584 26.8242 86.2581 26.8242C86.2578 26.8242 86.2584 26.8242 86.2581 26.8242C86.2581 26.8242 86.2554 26.8242 86.2551 26.8242C86.2548 26.8242 86.2554 26.8242 86.2551 26.8242C86.2548 26.8242 86.2521 26.8242 86.2519 26.8242C86.2516 26.8242 86.2521 26.8242 86.2519 26.8242C86.2516 26.8242 86.2489 26.8242 86.2486 26.8242C86.2484 26.8242 86.2489 26.8242 86.2486 26.8242C86.2484 26.8242 86.2457 26.8242 86.2454 26.8242C86.2451 26.8242 86.2457 26.8242 86.2454 26.8242C86.2451 26.8242 86.2427 26.8242 86.2424 26.8242C86.2421 26.8242 86.2427 26.8242 86.2424 26.8242C86.2421 26.8242 86.2394 26.8242 86.2392 26.8242C86.2389 26.8242 86.2394 26.8242 86.2392 26.8242C86.2389 26.8242 86.2362 26.8242 86.2359 26.8242C86.2357 26.8242 86.2362 26.8242 86.2359 26.8242C86.2357 26.8242 86.2332 26.8242 86.233 26.8242C86.2327 26.8242 86.2332 26.8242 86.233 26.8242C86.2327 26.8242 86.23 26.8242 86.2297 26.8242C86.2294 26.8242 86.23 26.8242 86.2297 26.8242C86.2294 26.8242 86.2267 26.8242 86.2265 26.8242C86.2262 26.8242 86.2267 26.8242 86.2265 26.8242C86.2262 26.8242 86.2235 26.8242 86.2232 26.8242C86.223 26.8242 86.2205 26.8242 86.2203 26.8242C86.22 26.8242 86.2205 26.8242 86.2203 26.8242C86.22 26.8242 86.2173 26.8242 86.217 26.8242C86.2167 26.8242 86.2173 26.8242 86.217 26.8242C86.2167 26.8242 86.214 26.8242 86.2138 26.8242C86.2135 26.8242 86.214 26.8242 86.2138 26.8242C86.2135 26.8242 86.2108 26.8242 86.2105 26.8242C86.2103 26.8242 86.2078 26.8242 86.2075 26.8242C86.2073 26.8242 86.2078 26.8242 86.2075 26.8242C86.2073 26.8242 86.2046 26.8242 86.2043 26.8242C86.204 26.8242 86.2046 26.8242 86.2043 26.8242C86.204 26.8242 86.2013 26.8242 86.2011 26.8242C86.2008 26.8242 86.1984 26.8242 86.1981 26.8242C86.1978 26.8242 86.1984 26.8242 86.1981 26.8242C86.1978 26.8242 86.1951 26.8242 86.1948 26.8242C86.1946 26.8242 86.1951 26.8242 86.1948 26.8242C86.1946 26.8242 86.1919 26.8242 86.1916 26.8242C86.1913 26.8242 86.1919 26.8242 86.1916 26.8242C86.1913 26.8242 86.1886 26.8242 86.1884 26.8242C86.1881 26.8242 86.1886 26.8242 86.1884 26.8242C86.1881 26.8242 86.1857 26.8242 86.1854 26.8242C86.1851 26.8242 86.1857 26.8242 86.1854 26.8242C86.1851 26.8242 86.1824 26.8242 86.1821 26.8242C86.1819 26.8242 86.1824 26.8242 86.1821 26.8242C86.1819 26.8242 86.1792 26.8242 86.1789 26.8242C86.1786 26.8242 86.1762 26.8242 86.1759 26.8242C86.1757 26.8242 86.1762 26.8242 86.1759 26.8242C86.1757 26.8242 86.173 26.8242 86.1727 26.8242C86.1724 26.8242 86.173 26.8242 86.1727 26.8242C86.1724 26.8242 86.1697 26.8242 86.1694 26.8242C86.1692 26.8242 86.1697 26.8242 86.1694 26.8242C86.1692 26.8242 86.1665 26.8242 86.1662 26.8242C86.1659 26.8242 86.1635 26.8242 86.1632 26.8242C86.1629 26.8242 86.1635 26.8242 86.1632 26.8242C86.1629 26.8242 86.1602 26.8242 86.16 26.8242C86.1597 26.8242 86.1602 26.8242 86.16 26.8242C86.1597 26.8242 86.157 26.8242 86.1567 26.8242C86.1565 26.8242 86.157 26.8242 86.1567 26.8242C86.1567 26.8242 86.154 26.8242 86.1538 26.8242C86.1535 26.8242 86.154 26.8242 86.1538 26.8242C86.1535 26.8242 86.1508 26.8242 86.1505 26.8242C86.1503 26.8242 86.1508 26.8242 86.1505 26.8242C86.1503 26.8242 86.1475 26.8242 86.1473 26.8242C86.147 26.8242 86.1475 26.8242 86.1473 26.8242C86.147 26.8242 86.1443 26.8242 86.144 26.8242C86.1438 26.8242 86.1413 26.8242 86.1411 26.8242C86.1408 26.8242 86.1413 26.8242 86.1411 26.8242C86.1408 26.8242 86.1381 26.8242 86.1378 26.8242C86.1376 26.8242 86.1381 26.8242 86.1378 26.8242C86.1376 26.8242 86.1348 26.8242 86.1346 26.8242C86.1343 26.8242 86.1348 26.8242 86.1346 26.8242C86.1343 26.8242 86.1319 26.8242 86.1316 26.8242C86.1313 26.8242 86.1319 26.8242 86.1316 26.8242C86.1313 26.8242 86.1286 26.8242 86.1284 26.8242C86.1281 26.8242 86.1286 26.8242 86.1284 26.8242C86.1281 26.8242 86.1254 26.8242 86.1251 26.8242C86.1248 26.8242 86.1254 26.8242 86.1251 26.8242C86.1248 26.8242 86.1221 26.8242 86.1219 26.8242C86.1216 26.8242 86.1192 26.8242 86.1189 26.8242C86.1186 26.8242 86.1192 26.8242 86.1189 26.8242C86.1186 26.8242 86.1159 26.8242 86.1157 26.8242C86.1154 26.8242 86.1159 26.8242 86.1157 26.8242C86.1154 26.8242 86.1127 26.8242 86.1124 26.8242C86.1121 26.8242 86.1127 26.8242 86.1124 26.8242C86.1121 26.8242 86.1094 26.8242 86.1094 26.8242V32.2296C86.1097 32.2296 86.1121 32.2296 86.1124 32.2296C86.1121 32.2296 86.1127 32.2296 86.1124 32.2296C86.1127 32.2296 86.1154 32.2296 86.1157 32.2296C86.1154 32.2296 86.1159 32.2296 86.1157 32.2296C86.1159 32.2296 86.1186 32.2296 86.1189 32.2296C86.1192 32.2296 86.1216 32.2296 86.1219 32.2296C86.1216 32.2296 86.1221 32.2296 86.1219 32.2296C86.1221 32.2296 86.1248 32.2296 86.1251 32.2296C86.1248 32.2296 86.1254 32.2296 86.1251 32.2296C86.1254 32.2296 86.1281 32.2296 86.1284 32.2296C86.1281 32.2296 86.1286 32.2296 86.1284 32.2296C86.1286 32.2296 86.1313 32.2296 86.1316 32.2296C86.1313 32.2296 86.1319 32.2296 86.1316 32.2296C86.1319 32.2296 86.1343 32.2296 86.1346 32.2296C86.1343 32.2296 86.1348 32.2296 86.1346 32.2296C86.1348 32.2296 86.1376 32.2296 86.1378 32.2296C86.1376 32.2296 86.1381 32.2296 86.1378 32.2296C86.1381 32.2296 86.1408 32.2296 86.1411 32.2296C86.1413 32.2296 86.1438 32.2296 86.144 32.2296C86.1438 32.2296 86.1443 32.2296 86.144 32.2296C86.1443 32.2296 86.147 32.2296 86.1473 32.2296C86.147 32.2296 86.1475 32.2296 86.1473 32.2296C86.1475 32.2296 86.1503 32.2296 86.1505 32.2296C86.1503 32.2296 86.1508 32.2296 86.1505 32.2296C86.1508 32.2296 86.1535 32.2296 86.1538 32.2296C86.154 32.2296 86.1565 32.2296 86.1567 32.2296C86.1565 32.2296 86.157 32.2296 86.1567 32.2296C86.157 32.2296 86.1597 32.2296 86.16 32.2296C86.1597 32.2296 86.1602 32.2296 86.16 32.2296C86.1602 32.2296 86.1629 32.2296 86.1632 32.2296C86.1629 32.2296 86.1635 32.2296 86.1632 32.2296C86.1632 32.2296 86.1659 32.2296 86.1662 32.2296C86.1659 32.2296 86.1665 32.2296 86.1662 32.2296C86.1665 32.2296 86.1692 32.2296 86.1694 32.2296C86.1692 32.2296 86.1697 32.2296 86.1694 32.2296C86.1697 32.2296 86.1724 32.2296 86.1727 32.2296C86.1724 32.2296 86.173 32.2296 86.1727 32.2296C86.173 32.2296 86.1757 32.2296 86.1759 32.2296C86.1762 32.2296 86.1786 32.2296 86.1789 32.2296C86.1786 32.2296 86.1792 32.2296 86.1789 32.2296C86.1792 32.2296 86.1819 32.2296 86.1821 32.2296C86.1819 32.2296 86.1824 32.2296 86.1821 32.2296C86.1824 32.2296 86.1851 32.2296 86.1854 32.2296C86.1851 32.2296 86.1857 32.2296 86.1854 32.2296C86.1857 32.2296 86.1881 32.2296 86.1884 32.2296C86.1881 32.2296 86.1886 32.2296 86.1884 32.2296C86.1886 32.2296 86.1913 32.2296 86.1916 32.2296C86.1913 32.2296 86.1919 32.2296 86.1916 32.2296C86.1919 32.2296 86.1946 32.2296 86.1948 32.2296C86.1946 32.2296 86.1951 32.2296 86.1948 32.2296C86.1951 32.2296 86.1978 32.2296 86.1981 32.2296C86.1984 32.2296 86.2008 32.2296 86.2011 32.2296C86.2008 32.2296 86.2013 32.2296 86.2011 32.2296C86.2013 32.2296 86.204 32.2296 86.2043 32.2296C86.204 32.2296 86.2046 32.2296 86.2043 32.2296C86.2046 32.2296 86.2073 32.2296 86.2075 32.2296C86.2073 32.2296 86.2078 32.2296 86.2075 32.2296C86.2078 32.2296 86.2105 32.2296 86.2105 32.2296C86.2103 32.2296 86.2108 32.2296 86.2105 32.2296C86.2108 32.2296 86.2135 32.2296 86.2138 32.2296C86.2135 32.2296 86.214 32.2296 86.2138 32.2296C86.214 32.2296 86.2167 32.2296 86.217 32.2296C86.2167 32.2296 86.2173 32.2296 86.217 32.2296C86.2173 32.2296 86.22 32.2296 86.2203 32.2296C86.2205 32.2296 86.223 32.2296 86.2232 32.2296C86.223 32.2296 86.2235 32.2296 86.2232 32.2296C86.2235 32.2296 86.2262 32.2296 86.2265 32.2296C86.2262 32.2296 86.2267 32.2296 86.2265 32.2296C86.2267 32.2296 86.2294 32.2296 86.2297 32.2296C86.2294 32.2296 86.23 32.2296 86.2297 32.2296C86.23 32.2296 86.2327 32.2296 86.233 32.2296C86.2327 32.2296 86.2332 32.2296 86.233 32.2296C86.2332 32.2296 86.2357 32.2296 86.2359 32.2296C86.2357 32.2296 86.2362 32.2296 86.2359 32.2296C86.2362 32.2296 86.2389 32.2296 86.2392 32.2296C86.2389 32.2296 86.2394 32.2296 86.2392 32.2296C86.2394 32.2296 86.2421 32.2296 86.2424 32.2296C86.2421 32.2296 86.2427 32.2296 86.2424 32.2296C86.2427 32.2296 86.2451 32.2296 86.2454 32.2296C86.2451 32.2296 86.2457 32.2296 86.2454 32.2296C86.2457 32.2296 86.2484 32.2296 86.2486 32.2296C86.2484 32.2296 86.2489 32.2296 86.2486 32.2296C86.2489 32.2296 86.2516 32.2296 86.2519 32.2296C86.2516 32.2296 86.2521 32.2296 86.2519 32.2296C86.2521 32.2296 86.2548 32.2296 86.2551 32.2296C86.2554 32.2296 86.2578 32.2296 86.2581 32.2296C86.2578 32.2296 86.2584 32.2296 86.2581 32.2296C86.2584 32.2296 86.2611 32.2296 86.2613 32.2296C86.2611 32.2296 86.2616 32.2296 86.2613 32.2296C86.2616 32.2296 86.2643 32.2296 86.2646 32.2296C86.2643 32.2296 86.2648 32.2296 86.2646 32.2296C86.2646 32.2296 86.2673 32.2296 86.2675 32.2296C86.2673 32.2296 86.2678 32.2296 86.2675 32.2296C86.2678 32.2296 86.2705 32.2296 86.2708 32.2296C86.2705 32.2296 86.2711 32.2296 86.2708 32.2296C86.2711 32.2296 86.2738 32.2296 86.274 32.2296C86.2738 32.2296 86.2743 32.2296 86.274 32.2296C86.2743 32.2296 86.277 32.2296 86.2773 32.2296C86.2775 32.2296 86.28 32.2296 86.2803 32.2296C86.28 32.2296 86.2805 32.2296 86.2803 32.2296C86.2805 32.2296 86.2832 32.2296 86.2835 32.2296C86.2832 32.2296 86.2838 32.2296 86.2835 32.2296C86.2838 32.2296 86.2865 32.2296 86.2867 32.2296C86.2865 32.2296 86.287 32.2296 86.2867 32.2296C86.287 32.2296 86.2894 32.2296 86.2897 32.2296C86.2894 32.2296 86.29 32.2296 86.2897 32.2296C86.29 32.2296 86.2927 32.2296 86.293 32.2296C86.2927 32.2296 86.2932 32.2296 86.293 32.2296C86.2932 32.2296 86.2959 32.2296 86.2962 32.2296C86.2959 32.2296 86.2965 32.2296 86.2962 32.2296C86.2965 32.2296 86.2992 32.2296 86.2994 32.2296C86.2997 32.2296 86.3021 32.2296 86.3024 32.2296C86.3021 32.2296 86.3027 32.2296 86.3024 32.2296C86.3027 32.2296 86.3054 32.2296 86.3057 32.2296C86.3054 32.2296 86.3059 32.2296 86.3057 32.2296C86.3059 32.2296 86.3086 32.2296 86.3089 32.2296C86.3086 32.2296 86.3092 32.2296 86.3089 32.2296C86.3092 32.2296 86.3119 32.2296 86.3119 32.2296C86.3116 32.2296 86.3121 32.2296 86.3119 32.2296C86.3121 32.2296 86.3148 32.2296 86.3151 32.2296C86.3148 32.2296 86.3154 32.2296 86.3151 32.2296C86.3154 32.2296 86.3181 32.2296 86.3184 32.2296C86.3181 32.2296 86.3186 32.2296 86.3184 32.2296C86.3186 32.2296 86.3213 32.2296 86.3216 32.2296C86.3219 32.2296 86.3243 32.2296 86.3246 32.2296C86.3243 32.2296 86.3248 32.2296 86.3246 32.2296C86.3248 32.2296 86.3275 32.2296 86.3278 32.2296C86.3275 32.2296 86.3281 32.2296 86.3278 32.2296C86.3281 32.2296 86.3308 32.2296 86.3311 32.2296C86.3308 32.2296 86.3313 32.2296 86.3311 32.2296C86.3313 32.2296 86.334 32.2296 86.3343 32.2296C86.334 32.2296 86.3346 32.2296 86.3343 32.2296C86.3346 32.2296 86.337 32.2296 86.3373 32.2296C86.337 32.2296 86.3375 32.2296 86.3373 32.2296C86.3375 32.2296 86.3402 32.2296 86.3405 32.2296C86.3402 32.2296 86.3408 32.2296 86.3405 32.2296C86.3408 32.2296 86.3435 32.2296 86.3438 32.2296C86.3435 32.2296 86.344 32.2296 86.3438 32.2296C86.344 32.2296 86.3465 32.2296 86.3467 32.2296C86.3465 32.2296 86.347 32.2296 86.3467 32.2296C86.347 32.2296 86.3497 32.2296 86.35 32.2296C86.3497 32.2296 86.3503 32.2296 86.35 32.2296C86.3503 32.2296 86.353 32.2296 86.3532 32.2296C86.353 32.2296 86.3535 32.2296 86.3532 32.2296C86.3535 32.2296 86.3562 32.2296 86.3565 32.2296C86.3567 32.2296 86.3592 32.2296 86.3594 32.2296C86.3592 32.2296 86.3597 32.2296 86.3594 32.2296C86.3597 32.2296 86.3624 32.2296 86.3627 32.2296C86.3624 32.2296 86.363 32.2296 86.3627 32.2296C86.363 32.2296 86.3657 32.2296 86.3659 32.2296C86.3657 32.2296 86.3662 32.2296 86.3659 32.2296C86.3659 32.2296 86.3686 32.2296 86.3689 32.2296C86.3686 32.2296 86.3692 32.2296 86.3689 32.2296C86.3692 32.2296 86.3719 32.2296 86.3721 32.2296C86.3719 32.2296 86.3724 32.2296 86.3721 32.2296C86.3724 32.2296 86.3751 32.2296 86.3754 32.2296C86.3751 32.2296 86.3757 32.2296 86.3754 32.2296C86.3757 32.2296 86.3784 32.2296 86.3786 32.2296C86.3789 32.2296 86.3813 32.2296 86.3816 32.2296C86.3813 32.2296 86.3819 32.2296 86.3816 32.2296C86.3819 32.2296 86.3846 32.2296 86.3848 32.2296C86.3846 32.2296 86.3851 32.2296 86.3848 32.2296C86.3851 32.2296 86.3878 32.2296 86.3881 32.2296C86.3878 32.2296 86.3884 32.2296 86.3881 32.2296C86.3884 32.2296 86.3908 32.2296 86.3911 32.2296C86.3908 32.2296 86.3913 32.2296 86.3911 32.2296C86.3913 32.2296 86.394 32.2296 86.3943 32.2296C86.394 32.2296 86.3946 32.2296 86.3943 32.2296C86.3946 32.2296 86.3973 32.2296 86.3975 32.2296C86.3973 32.2296 86.3978 32.2296 86.3975 32.2296C86.3978 32.2296 86.4005 32.2296 86.4008 32.2296C86.4011 32.2296 86.4035 32.2296 86.4038 32.2296C86.4035 32.2296 86.404 32.2296 86.4038 32.2296C86.404 32.2296 86.4067 32.2296 86.407 32.2296C86.4067 32.2296 86.4073 32.2296 86.407 32.2296C86.4073 32.2296 86.41 32.2296 86.4102 32.2296C86.41 32.2296 86.4105 32.2296 86.4102 32.2296C86.4105 32.2296 86.4132 32.2296 86.4132 32.2296C86.413 32.2296 86.4135 32.2296 86.4132 32.2296C86.4135 32.2296 86.4162 32.2296 86.4165 32.2296C86.4162 32.2296 86.4167 32.2296 86.4165 32.2296C86.4167 32.2296 86.4194 32.2296 86.4197 32.2296C86.4194 32.2296 86.42 32.2296 86.4197 32.2296C86.42 32.2296 86.4227 32.2296 86.423 32.2296C86.4232 32.2296 86.4257 32.2296 86.4259 32.2296C86.4257 32.2296 86.4262 32.2296 86.4259 32.2296C86.4262 32.2296 86.4289 32.2296 86.4292 32.2296C86.4289 32.2296 86.4294 32.2296 86.4292 32.2296C86.4294 32.2296 86.4321 32.2296 86.4324 32.2296C86.4321 32.2296 86.4327 32.2296 86.4324 32.2296C86.4327 32.2296 86.4354 32.2296 86.4357 32.2296C86.4354 32.2296 86.4359 32.2296 86.4357 32.2296C86.4359 32.2296 86.4384 32.2296 86.4386 32.2296C86.4384 32.2296 86.4389 32.2296 86.4386 32.2296C86.4389 32.2296 86.4416 32.2296 86.4419 32.2296C86.4416 32.2296 86.4421 32.2296 86.4419 32.2296C86.4421 32.2296 86.4448 32.2296 86.4451 32.2296C86.4448 32.2296 86.4454 32.2296 86.4451 32.2296C86.4454 32.2296 86.4478 32.2296 86.4481 32.2296C86.4478 32.2296 86.4484 32.2296 86.4481 32.2296C86.4484 32.2296 86.4511 32.2296 86.4513 32.2296C86.4511 32.2296 86.4516 32.2296 86.4513 32.2296C86.4516 32.2296 86.4543 32.2296 86.4546 32.2296C86.4543 32.2296 86.4548 32.2296 86.4546 32.2296C86.4548 32.2296 86.4576 32.2296 86.4578 32.2296C86.4581 32.2296 86.4605 32.2296 86.4608 32.2296C86.4605 32.2296 86.4611 32.2296 86.4608 32.2296C86.4611 32.2296 86.4638 32.2296 86.464 32.2296C86.4638 32.2296 86.4643 32.2296 86.464 32.2296C86.4643 32.2296 86.467 32.2296 86.4673 32.2296C86.467 32.2296 86.4676 32.2296 86.4673 32.2296C86.4673 32.2296 86.47 32.2296 86.4702 32.2296C86.47 32.2296 86.4705 32.2296 86.4702 32.2296C86.4705 32.2296 86.4732 32.2296 86.4735 32.2296C86.4732 32.2296 86.4738 32.2296 86.4735 32.2296C86.4738 32.2296 86.4765 32.2296 86.4767 32.2296C86.4765 32.2296 86.477 32.2296 86.4767 32.2296C86.477 32.2296 86.4797 32.2296 86.48 32.2296C86.4803 32.2296 86.4827 32.2296 86.4829 32.2296C86.4827 32.2296 86.4832 32.2296 86.4829 32.2296C86.4832 32.2296 86.4859 32.2296 86.4862 32.2296C86.4859 32.2296 86.4865 32.2296 86.4862 32.2296C86.4865 32.2296 86.4892 32.2296 86.4894 32.2296C86.4892 32.2296 86.4897 32.2296 86.4894 32.2296C86.4897 32.2296 86.4921 32.2296 86.4924 32.2296C86.4921 32.2296 86.4927 32.2296 86.4924 32.2296C86.4927 32.2296 86.4954 32.2296 86.4957 32.2296C86.4954 32.2296 86.4959 32.2296 86.4957 32.2296C86.4959 32.2296 86.4986 32.2296 86.4989 32.2296C86.4986 32.2296 86.4992 32.2296 86.4989 32.2296C86.4992 32.2296 86.5019 32.2296 86.5021 32.2296C86.5024 32.2296 86.5048 32.2296 86.5051 32.2296C86.5048 32.2296 86.5054 32.2296 86.5051 32.2296C86.5054 32.2296 86.5081 32.2296 86.5084 32.2296C86.5081 32.2296 86.5086 32.2296 86.5084 32.2296C86.5086 32.2296 86.5113 32.2296 86.5116 32.2296C86.5113 32.2296 86.5119 32.2296 86.5116 32.2296C86.5119 32.2296 86.5146 32.2296 86.5146 32.2296V26.8242ZM83.4067 29.5269V29.5945H88.8121V29.5269H83.4067ZM86.1094 26.8918H63.474V32.2972H86.1094V26.8918ZM60.7713 29.5945V51.3513H66.1767V29.5945H60.7713ZM63.474 48.6486H55.0281V54.054H63.474V48.6486ZM57.7308 51.3513V4.05397H52.3254V51.3513H57.7308ZM55.0281 6.75667H84.8254V1.35126H55.0281V6.75667ZM84.8254 6.75667C87.5959 6.75667 90.0916 7.87189 91.9008 9.68129L95.7232 5.85908C92.9378 3.07389 89.0821 1.35126 84.8254 1.35126V6.75667ZM89.3527 20.8783V20.8107H83.9473V20.8783H89.3527ZM87.7275 23.2893C90.2719 22.183 91.9202 19.653 91.9202 16.8918H86.5148C86.5148 17.509 86.1359 18.0871 85.5721 18.3322L87.7275 23.2893ZM91.9202 16.8918C91.9202 14.3681 90.6124 12.6402 89.8448 11.8726L86.0224 15.6948C86.2008 15.8732 86.5148 16.3074 86.5148 16.8918H91.9202ZM89.8448 11.8726C88.9248 10.9528 87.2586 9.86478 84.893 9.86478V15.2702C85.5005 15.2702 85.8613 15.5335 86.0224 15.6948L89.8448 11.8726ZM84.893 9.86478H63.474V15.2702H84.893V9.86478ZM60.7713 12.5675V21.2837H66.1767V12.5675H60.7713ZM63.474 23.9864H84.893V18.581H63.474V23.9864ZM84.893 23.9864C85.894 23.9864 86.9194 23.7652 87.8586 23.2957L85.4411 18.4609C85.2992 18.5319 85.1084 18.581 84.893 18.581V23.9864ZM112.763 51.3513V54.054H115.465V51.3513H112.763ZM104.317 51.3513H101.614V54.054H104.317V51.3513ZM104.317 4.05397V1.35126H101.614V4.05397H104.317ZM112.763 4.05397H115.465V1.35126H112.763V4.05397ZM112.763 48.6486H104.317V54.054H112.763V48.6486ZM107.019 51.3513V4.05397H101.614V51.3513H107.019ZM104.317 6.75667H112.763V1.35126H104.317V6.75667ZM110.06 4.05397V51.3513H115.465V4.05397H110.06ZM119.493 4.05397L119.501 1.35127L116.79 1.34351V4.05397H119.493ZM143.074 4.12154L143.066 6.82424H143.074V4.12154ZM161.115 42.9729L163.167 44.7318L163.171 44.7261L161.115 42.9729ZM159.763 44.3918L157.852 42.4807L157.837 42.4959L159.763 44.3918ZM119.493 51.3513H116.79V54.054H119.493V51.3513ZM127.871 12.5675V9.86478H125.169V12.5675H127.871ZM127.871 42.9729H125.169V45.6756H127.871V42.9729ZM119.485 6.75664L143.066 6.82424L143.082 1.41884L119.501 1.35127L119.485 6.75664ZM143.074 6.82424C154.632 6.82424 164.02 16.1648 164.02 27.7026H169.425C169.425 13.1593 157.597 1.41883 143.074 1.41883V6.82424ZM164.02 27.7026C164.02 32.8526 162.166 37.5732 159.058 41.2196L163.171 44.7261C167.09 40.1294 169.425 34.1742 169.425 27.7026H164.02ZM159.062 41.214C158.737 41.5937 158.341 41.9915 157.852 42.4807L161.674 46.3029C162.131 45.8461 162.681 45.298 163.167 44.7318L159.062 41.214ZM157.837 42.4959C154.071 46.3221 148.879 48.6486 143.142 48.6486V54.054C150.377 54.054 156.942 51.1102 161.689 46.2878L157.837 42.4959ZM143.142 48.6486H119.493V54.054H143.142V48.6486ZM122.196 51.3513V4.05397H116.79V51.3513H122.196ZM125.169 12.5675V42.9729H130.574V12.5675H125.169ZM127.871 45.6756H143.074V40.2702H127.871V45.6756ZM143.074 45.6756C152.945 45.6756 160.979 37.6413 160.979 27.7702H155.574C155.574 34.6559 149.96 40.2702 143.074 40.2702V45.6756ZM160.979 27.7702C160.979 17.8991 152.945 9.86478 143.074 9.86478V15.2702C149.96 15.2702 155.574 20.8845 155.574 27.7702H160.979ZM143.074 9.86478H127.871V15.2702H143.074V9.86478Z" fill="white"/>
</g>
<path d="M220.27 4.05396H174.324V16.254H220.27V4.05396Z" fill="white"/>
<path d="M220.27 22.9729H174.324V35.1729H220.27V22.9729Z" fill="white"/>
<path d="M220.27 41.8918H174.324V54.0918H220.27V41.8918Z" fill="white"/>
<mask id="mask1_1257_232" style="mask-type:luminance" maskUnits="userSpaceOnUse" x="224" y="0" width="52" height="57">
<path d="M275.676 0H224.324V56.7568H275.676V0Z" fill="white"/>
<path d="M260.119 29.527L266.876 42.9729L271.2 51.4189H261.741L257.416 42.9729L252.889 34.1216L252.687 33.7162C251.2 31.2837 248.565 29.6621 245.524 29.6621H237.079V51.4189H228.633V4.12158H258.497C262.011 4.12158 265.187 5.5405 267.484 7.8378C269.781 10.2027 271.2 13.3783 271.2 16.8919C271.2 22.027 268.16 26.4864 263.768 28.5135C262.619 29.054 261.403 29.3919 260.119 29.527ZM237.079 21.2837L258.497 21.2162C259.106 21.2162 259.714 21.081 260.254 20.8108C261.808 20.1351 262.822 18.581 262.822 16.8919C262.822 15.3378 262.011 14.2567 261.538 13.7837C260.997 13.2432 259.984 12.5675 258.497 12.5675H237.079V21.2837Z" fill="black"/>
</mask>
<g mask="url(#mask1_1257_232)">
<path d="M260.119 29.5271L259.836 26.8392L255.949 27.2484L257.704 30.7406L260.119 29.5271ZM266.876 42.973L264.461 44.1865L264.47 44.2046L266.876 42.973ZM271.2 51.419V54.1217H275.622L273.605 50.1873L271.2 51.419ZM261.741 51.419L259.335 52.6506L260.088 54.1217H261.741V51.419ZM252.889 34.1217L250.472 35.3303L250.483 35.3522L252.889 34.1217ZM252.687 33.7163L255.104 32.5076L255.053 32.4049L254.993 32.3068L252.687 33.7163ZM237.079 29.6622V26.9595H234.376V29.6622H237.079ZM237.079 51.419V54.1217H239.781V51.419H237.079ZM228.633 51.419H225.93V54.1217H228.633V51.419ZM228.633 4.12165V1.41895H225.93V4.12165H228.633ZM267.484 7.83787L269.423 5.95465L269.409 5.94063L269.395 5.92676L267.484 7.83787ZM263.768 28.5135L262.635 26.0595L262.617 26.0681L263.768 28.5135ZM237.079 21.2838H234.376V23.9951L237.087 23.9865L237.079 21.2838ZM258.497 21.2162V18.5135L258.489 18.5135L258.497 21.2162ZM260.254 20.8108L259.177 18.3323L259.11 18.3611L259.046 18.3935L260.254 20.8108ZM237.079 12.5676V9.8649H234.376V12.5676H237.079ZM257.704 30.7406L264.461 44.1865L269.291 41.7595L262.534 28.3135L257.704 30.7406ZM264.47 44.2046L268.795 52.6506L273.605 50.1873L269.282 41.7414L264.47 44.2046ZM271.2 48.7162H261.741V54.1217H271.2V48.7162ZM264.147 50.1873L259.822 41.7414L255.01 44.2038L259.335 52.6506L264.147 50.1873ZM259.822 41.7414L255.296 32.8908L250.483 35.3522L255.01 44.2038L259.822 41.7414ZM255.307 32.913L255.104 32.5076L250.269 34.9249L250.472 35.3303L255.307 32.913ZM254.993 32.3068C253.046 29.1208 249.564 26.9595 245.525 26.9595V32.3649C247.567 32.3649 249.355 33.4468 250.381 35.1254L254.993 32.3068ZM245.525 26.9595H237.079V32.3649H245.525V26.9595ZM234.376 29.6622V51.419H239.781V29.6622H234.376ZM237.079 48.7162H228.633V54.1217H237.079V48.7162ZM231.335 51.419V4.12165H225.93V51.419H231.335ZM228.633 6.82436H258.497V1.41895H228.633V6.82436ZM258.497 6.82436C261.268 6.82436 263.764 7.93957 265.573 9.74898L269.395 5.92676C266.61 3.14157 262.754 1.41895 258.497 1.41895V6.82436ZM265.546 9.72106C267.386 11.6157 268.498 14.1279 268.498 16.8919H273.903C273.903 12.6289 272.176 8.78974 269.423 5.95465L265.546 9.72106ZM268.498 16.8919C268.498 20.9386 266.102 24.4597 262.635 26.0595L264.9 30.9676C270.218 28.5133 273.903 23.1155 273.903 16.8919H268.498ZM262.617 26.0681C261.747 26.4777 260.825 26.7352 259.836 26.8392L260.402 32.2149C261.982 32.0487 263.492 31.6306 264.919 30.959L262.617 26.0681ZM237.087 23.9865L258.506 23.9189L258.489 18.5135L237.07 18.5811L237.087 23.9865ZM258.497 23.919C259.499 23.919 260.524 23.6977 261.463 23.2282L259.046 18.3935C258.904 18.4645 258.713 18.5135 258.497 18.5135V23.919ZM261.332 23.2894C263.876 22.1831 265.525 19.6531 265.525 16.8919H260.119C260.119 17.5091 259.74 18.0872 259.177 18.3323L261.332 23.2894ZM265.525 16.8919C265.525 14.3682 264.217 12.6403 263.449 11.8727L259.627 15.6949C259.805 15.8733 260.119 16.3075 260.119 16.8919H265.525ZM263.449 11.8727C262.529 10.9529 260.863 9.8649 258.497 9.8649V15.2703C259.105 15.2703 259.466 15.5337 259.627 15.6949L263.449 11.8727ZM258.497 9.8649H237.079V15.2703H258.497V9.8649ZM234.376 12.5676V21.2838H239.781V12.5676H234.376Z" fill="white"/>
</g>
<path d="M5.4054 61.8918H275.676" stroke="black" stroke-width="0.5"/>
</g>
<defs>
<clipPath id="clip0_1257_232">
<rect width="275.676" height="100" fill="white"/>
</clipPath>
</defs>
</svg>
