<svg width="283" height="112" viewBox="0 0 283 112" fill="none" xmlns="http://www.w3.org/2000/svg">
<mask id="path-1-outside-1_1418_344" maskUnits="userSpaceOnUse" x="-3" y="-3" width="289" height="99" fill="black">
<rect fill="white" x="-3" y="-3" width="289" height="99"/>
<path d="M49.8742 59.8C49.8742 62.2 49.2742 64.4 48.0742 66.4C46.8742 68.4 45.2742 70 43.2742 71.2C41.2742 72.4 39.0742 73 36.6742 73H17.4742C15.0742 73 12.8409 72.4 10.7742 71.2C8.77422 70 7.17422 68.4 5.97422 66.4C4.77422 64.4 4.17422 62.2 4.17422 59.8V56.8C4.17422 55.5333 4.60755 54.4667 5.47422 53.6C6.40755 52.6667 7.50755 52.2 8.77422 52.2H11.5742C12.7742 52.2 13.8076 52.6667 14.6742 53.6C15.6076 54.4667 16.0742 55.5333 16.0742 56.8V59.8C16.0742 60.1333 16.2076 60.4667 16.4742 60.8C16.8076 61.0667 17.1409 61.2 17.4742 61.2H36.6742C37.0076 61.2 37.3076 61.0667 37.5742 60.8C37.8409 60.4667 37.9742 60.1333 37.9742 59.8V50.7C37.9742 49.9667 37.6409 49.5 36.9742 49.3L12.9742 40.3C10.3076 39.3667 8.17422 37.7333 6.57422 35.4C4.97422 33.0667 4.17422 30.5 4.17422 27.7V18.7C4.17422 16.2333 4.77422 14 5.97422 12C7.17422 10 8.77422 8.4 10.7742 7.19999C12.8409 5.99999 15.0742 5.39999 17.4742 5.39999H36.6742C39.0742 5.39999 41.2742 5.99999 43.2742 7.19999C45.2742 8.4 46.8742 10 48.0742 12C49.2742 14 49.8742 16.2333 49.8742 18.7V21.4C49.8742 22.6667 49.4076 23.7333 48.4742 24.6C47.6076 25.4667 46.5409 25.9 45.2742 25.9H42.5742C41.3076 25.9 40.2076 25.4667 39.2742 24.6C38.4076 23.7333 37.9742 22.6667 37.9742 21.4V18.7C37.9742 17.7667 37.5409 17.3 36.6742 17.3H17.4742C17.1409 17.3 16.8076 17.4333 16.4742 17.7C16.2076 17.9667 16.0742 18.3 16.0742 18.7V27.7C16.0742 28.5 16.4076 29 17.0742 29.2L41.1742 38.2C43.7742 39.1333 45.8742 40.7667 47.4742 43.1C49.0742 45.4333 49.8742 47.9667 49.8742 50.7V59.8ZM101.18 61.8C101.18 64.9333 100.08 67.6 97.8805 69.8C95.7471 71.9333 93.1471 73 90.0805 73H78.2805C77.9471 73 77.6138 73.1333 77.2805 73.4C77.0138 73.6667 76.8805 73.9667 76.8805 74.3V84.4C76.8805 85.6667 76.4471 86.7333 75.5805 87.6C74.7138 88.5333 73.6471 89 72.3805 89H69.5805C68.3138 89 67.2138 88.5333 66.2805 87.6C65.4138 86.7333 64.9805 85.6667 64.9805 84.4V32.4C64.9805 30.3333 65.4805 28.4667 66.4805 26.8C67.5471 25.0667 68.9138 23.7 70.5805 22.7C72.2471 21.7 74.1138 21.2 76.1805 21.2H90.0805C92.1471 21.2 94.0138 21.7 95.6805 22.7C97.3471 23.7 98.6805 25.0667 99.6805 26.8C100.68 28.4667 101.18 30.3333 101.18 32.4V61.8ZM89.3805 59.9V34.5C89.3805 34.1 89.2138 33.7667 88.8805 33.5C88.6138 33.2333 88.3138 33.1 87.9805 33.1H78.2805C77.9471 33.1 77.6138 33.2333 77.2805 33.5C77.0138 33.7667 76.8805 34.1 76.8805 34.5V59.9C76.8805 60.2333 77.0138 60.5333 77.2805 60.8C77.6138 61.0667 77.9471 61.2 78.2805 61.2H87.9805C88.3138 61.2 88.6138 61.0667 88.8805 60.8C89.2138 60.5333 89.3805 60.2333 89.3805 59.9ZM131.416 11.8C131.416 13.8667 130.65 15.6667 129.116 17.2C127.65 18.6667 125.916 19.4 123.916 19.4C121.85 19.4 120.05 18.6667 118.516 17.2C117.05 15.6667 116.316 13.8667 116.316 11.8C116.316 9.8 117.05 8.06666 118.516 6.6C120.05 5.06666 121.85 4.3 123.916 4.3C125.916 4.3 127.65 5.06666 129.116 6.6C130.65 8.06666 131.416 9.8 131.416 11.8ZM129.816 68.4C129.816 69.6667 129.35 70.7667 128.416 71.7C127.55 72.5667 126.483 73 125.216 73H122.516C121.25 73 120.15 72.5667 119.216 71.7C118.35 70.7667 117.916 69.6667 117.916 68.4V26.9C117.916 25.6333 118.35 24.5667 119.216 23.7C120.15 22.7667 121.25 22.3 122.516 22.3H125.216C126.483 22.3 127.55 22.7667 128.416 23.7C129.35 24.5667 129.816 25.6333 129.816 26.9V68.4ZM182.661 61.8C182.661 64.9333 181.561 67.6 179.361 69.8C177.228 71.9333 174.628 73 171.561 73H157.661C154.594 73 151.961 71.9333 149.761 69.8C147.561 67.6 146.461 64.9333 146.461 61.8V32.4C146.461 30.3333 146.961 28.4667 147.961 26.8C149.028 25.0667 150.394 23.7 152.061 22.7C153.728 21.7 155.594 21.2 157.661 21.2H169.461C170.394 21.2 170.861 20.8 170.861 20V9.99999C170.861 8.66666 171.294 7.56666 172.161 6.7C173.028 5.83333 174.094 5.39999 175.361 5.39999H178.161C179.428 5.39999 180.494 5.83333 181.361 6.7C182.228 7.56666 182.661 8.66666 182.661 9.99999V61.8ZM170.861 59.9V34.5C170.861 33.5667 170.394 33.1 169.461 33.1H159.761C159.428 33.1 159.094 33.2333 158.761 33.5C158.494 33.7667 158.361 34.1 158.361 34.5V59.9C158.361 60.2333 158.494 60.5333 158.761 60.8C159.094 61.0667 159.428 61.2 159.761 61.2H169.461C170.394 61.2 170.861 60.7667 170.861 59.9ZM233.997 43.3C233.997 45.3 233.497 47.1667 232.497 48.9C231.497 50.5667 230.164 51.9333 228.497 53C226.83 54 224.964 54.5 222.897 54.5H211.097C210.764 54.5 210.43 54.6333 210.097 54.9C209.83 55.1 209.697 55.3667 209.697 55.7V59.9C209.697 60.2333 209.83 60.5333 210.097 60.8C210.43 61.0667 210.764 61.2 211.097 61.2H222.897C224.164 61.2 225.23 61.6333 226.097 62.5C227.03 63.3667 227.497 64.4667 227.497 65.8V68.4C227.497 69.6667 227.03 70.7667 226.097 71.7C225.23 72.5667 224.164 73 222.897 73H208.997C205.93 73 203.297 71.9333 201.097 69.8C198.897 67.6 197.797 64.9333 197.797 61.8V32.4C197.797 30.3333 198.297 28.4667 199.297 26.8C200.364 25.1333 201.73 23.8 203.397 22.8C205.064 21.7333 206.93 21.2 208.997 21.2H222.897C224.964 21.2 226.83 21.7333 228.497 22.8C230.164 23.8 231.497 25.1333 232.497 26.8C233.497 28.4667 233.997 30.3333 233.997 32.4V43.3ZM222.197 41.3V34.5C222.197 34.1 222.03 33.7667 221.697 33.5C221.43 33.2333 221.13 33.1 220.797 33.1H211.097C210.764 33.1 210.43 33.2333 210.097 33.5C209.83 33.7667 209.697 34.1 209.697 34.5V41.3C209.697 41.5667 209.83 41.8333 210.097 42.1C210.43 42.3667 210.764 42.5 211.097 42.5H220.797C221.13 42.5 221.43 42.3667 221.697 42.1C222.03 41.8333 222.197 41.5667 222.197 41.3ZM278.833 28.6C278.833 29.8667 278.399 30.9333 277.533 31.8C276.666 32.6667 275.599 33.1 274.333 33.1H262.433C261.566 33.1 261.133 33.5667 261.133 34.5V68.4C261.133 69.6667 260.666 70.7667 259.733 71.7C258.866 72.5667 257.799 73 256.533 73H253.733C252.466 73 251.399 72.5667 250.533 71.7C249.666 70.7667 249.233 69.6667 249.233 68.4V32.4C249.233 30.3333 249.733 28.4667 250.733 26.8C251.733 25.0667 253.066 23.7 254.733 22.7C256.399 21.7 258.266 21.2 260.333 21.2H274.333C275.599 21.2 276.666 21.6667 277.533 22.6C278.399 23.4667 278.833 24.5667 278.833 25.9V28.6Z"/>
</mask>
<path d="M48.0742 66.4L54.0767 70.0015L54.0767 70.0015L48.0742 66.4ZM10.7742 71.2L7.17275 77.2025L7.21583 77.2283L7.25927 77.2535L10.7742 71.2ZM5.97422 66.4L-0.0282311 70.0015L-0.0282309 70.0015L5.97422 66.4ZM5.47422 53.6L10.424 58.5497L5.47422 53.6ZM14.6742 53.6L9.54467 58.3632L9.72108 58.5531L9.91106 58.7296L14.6742 53.6ZM16.4742 60.8L11.0081 65.1729L11.494 65.7802L12.1014 66.2661L16.4742 60.8ZM37.5742 60.8L42.524 65.7498L42.7981 65.4756L43.0403 65.1729L37.5742 60.8ZM36.9742 49.3L34.5164 55.8543L34.737 55.9371L34.9628 56.0048L36.9742 49.3ZM12.9742 40.3L15.4321 33.7457L15.3597 33.7185L15.2867 33.693L12.9742 40.3ZM6.57422 35.4L12.3473 31.4413L12.3473 31.4413L6.57422 35.4ZM5.97422 12L11.9767 15.6015L11.9767 15.6015L5.97422 12ZM10.7742 7.19999L7.25927 1.14647L7.21583 1.1717L7.17275 1.19754L10.7742 7.19999ZM48.0742 12L42.0718 15.6015L42.0718 15.6015L48.0742 12ZM48.4742 24.6L43.7111 19.4704L43.6161 19.5586L43.5245 19.6502L48.4742 24.6ZM39.2742 24.6L34.3245 29.5498L34.4161 29.6414L34.5111 29.7295L39.2742 24.6ZM16.4742 17.7L12.1014 12.2339L11.7986 12.4761L11.5245 12.7503L16.4742 17.7ZM17.0742 29.2L19.5231 22.6423L19.3068 22.5616L19.0857 22.4952L17.0742 29.2ZM41.1742 38.2L38.7253 44.7577L38.7671 44.7733L38.8092 44.7884L41.1742 38.2ZM47.4742 43.1L53.2473 39.1413L53.2473 39.1413L47.4742 43.1ZM42.8742 59.8C42.8742 60.9699 42.5994 61.9191 42.0718 62.7985L54.0767 70.0015C55.949 66.8809 56.8742 63.4301 56.8742 59.8H42.8742ZM42.0718 62.7985C41.4629 63.8133 40.6875 64.5887 39.6727 65.1975L46.8757 77.2025C49.8609 75.4113 52.2855 72.9867 54.0767 70.0015L42.0718 62.7985ZM39.6727 65.1975C38.7933 65.7252 37.8441 66 36.6742 66V80C40.3043 80 43.7552 79.0748 46.8757 77.2025L39.6727 65.1975ZM36.6742 66H17.4742V80H36.6742V66ZM17.4742 66C16.3033 66 15.2834 65.7238 14.2892 65.1465L7.25927 77.2535C10.3984 79.0762 13.8452 80 17.4742 80V66ZM14.3757 65.1975C13.3609 64.5887 12.5855 63.8133 11.9767 62.7985L-0.0282309 70.0015C1.76292 72.9867 4.1875 75.4113 7.17275 77.2025L14.3757 65.1975ZM11.9767 62.7985C11.449 61.9191 11.1742 60.9699 11.1742 59.8H-2.82578C-2.82578 63.4301 -1.90056 66.8809 -0.0282311 70.0015L11.9767 62.7985ZM11.1742 59.8V56.8H-2.82578V59.8H11.1742ZM11.1742 56.8C11.1742 56.9791 11.1403 57.301 10.9845 57.6846C10.8268 58.0728 10.6087 58.365 10.424 58.5497L0.524472 48.6503C-1.70324 50.878 -2.82578 53.7462 -2.82578 56.8H11.1742ZM10.424 58.5497C10.3215 58.6523 10.0933 58.8412 9.73307 58.9941C9.36709 59.1493 9.02295 59.2 8.77422 59.2V45.2C5.56576 45.2 2.709 46.4657 0.524472 48.6503L10.424 58.5497ZM8.77422 59.2H11.5742V45.2H8.77422V59.2ZM11.5742 59.2C11.2398 59.2 10.8093 59.1288 10.3681 58.9296C9.93639 58.7346 9.66756 58.4955 9.54467 58.3632L19.8038 48.8368C17.7039 46.5755 14.8509 45.2 11.5742 45.2V59.2ZM9.91106 58.7296C9.74084 58.5715 9.49744 58.2816 9.31112 57.8557C9.12441 57.429 9.07422 57.0466 9.07422 56.8H23.0742C23.0742 53.5746 21.7881 50.6533 19.4374 48.4704L9.91106 58.7296ZM9.07422 56.8V59.8H23.0742V56.8H9.07422ZM9.07422 59.8C9.07422 62.1231 10.0313 63.9519 11.0081 65.1729L21.9403 56.4271C22.3838 56.9815 23.0742 58.1435 23.0742 59.8H9.07422ZM12.1014 66.2661C13.3223 67.2429 15.1511 68.2 17.4742 68.2V54.2C19.1307 54.2 20.2928 54.8905 20.8471 55.3339L12.1014 66.2661ZM17.4742 68.2H36.6742V54.2H17.4742V68.2ZM36.6742 68.2C39.114 68.2 41.1325 67.1412 42.524 65.7498L32.6245 55.8502C33.0094 55.4653 33.5635 55.0334 34.3063 54.7033C35.0653 54.366 35.8769 54.2 36.6742 54.2V68.2ZM43.0403 65.1729C44.0171 63.9519 44.9742 62.1231 44.9742 59.8H30.9742C30.9742 58.1436 31.6647 56.9815 32.1081 56.4271L43.0403 65.1729ZM44.9742 59.8V50.7H30.9742V59.8H44.9742ZM44.9742 50.7C44.9742 49.2817 44.6445 47.4452 43.4204 45.7313C42.1716 43.9831 40.4787 43.0431 38.9857 42.5952L34.9628 56.0048C34.1364 55.7569 32.9435 55.1503 32.0281 53.8687C31.1373 52.6215 30.9742 51.3849 30.9742 50.7H44.9742ZM39.4321 42.7457L15.4321 33.7457L10.5164 46.8543L34.5164 55.8543L39.4321 42.7457ZM15.2867 33.693C14.0281 33.2525 13.1062 32.548 12.3473 31.4413L0.801117 39.3587C3.24225 42.9187 6.58705 45.4809 10.6618 46.907L15.2867 33.693ZM12.3473 31.4413C11.5376 30.2604 11.1742 29.0712 11.1742 27.7H-2.82578C-2.82578 31.9288 -1.58915 35.8729 0.801118 39.3587L12.3473 31.4413ZM11.1742 27.7V18.7H-2.82578V27.7H11.1742ZM11.1742 18.7C11.1742 17.4259 11.4675 16.4501 11.9767 15.6015L-0.0282295 8.39853C-1.91905 11.5499 -2.82578 15.0407 -2.82578 18.7H11.1742ZM11.9767 15.6015C12.5855 14.5867 13.3609 13.8113 14.3757 13.2024L7.17275 1.19754C4.1875 2.98869 1.76292 5.41328 -0.0282327 8.39853L11.9767 15.6015ZM14.2892 13.2535C15.2834 12.6762 16.3033 12.4 17.4742 12.4V-1.60001C13.8452 -1.60001 10.3984 -0.676254 7.25927 1.14647L14.2892 13.2535ZM17.4742 12.4H36.6742V-1.60001H17.4742V12.4ZM36.6742 12.4C37.8441 12.4 38.7933 12.6748 39.6727 13.2024L46.8757 1.19754C43.7552 -0.67478 40.3043 -1.60001 36.6742 -1.60001V12.4ZM39.6727 13.2024C40.6875 13.8113 41.4629 14.5867 42.0718 15.6015L54.0767 8.39853C52.2855 5.41328 49.8609 2.98869 46.8757 1.19754L39.6727 13.2024ZM42.0718 15.6015C42.5809 16.4501 42.8742 17.4259 42.8742 18.7H56.8742C56.8742 15.0407 55.9675 11.5499 54.0767 8.39852L42.0718 15.6015ZM42.8742 18.7V21.4H56.8742V18.7H42.8742ZM42.8742 21.4C42.8742 21.1534 42.9244 20.771 43.1111 20.3443C43.2974 19.9184 43.5408 19.6285 43.7111 19.4704L53.2374 29.7296C55.5881 27.5467 56.8742 24.6254 56.8742 21.4H42.8742ZM43.5245 19.6502C43.7092 19.4655 44.0014 19.2474 44.3896 19.0897C44.7732 18.9339 45.0951 18.9 45.2742 18.9V32.9C48.328 32.9 51.1963 31.7775 53.424 29.5497L43.5245 19.6502ZM45.2742 18.9H42.5742V32.9H45.2742V18.9ZM42.5742 18.9C42.7559 18.9 43.041 18.9345 43.3649 19.0621C43.6882 19.1895 43.914 19.3559 44.0374 19.4704L34.5111 29.7295C36.7312 31.7911 39.5298 32.9 42.5742 32.9V18.9ZM44.224 19.6502C44.4087 19.835 44.6268 20.1272 44.7845 20.5154C44.9403 20.899 44.9742 21.2209 44.9742 21.4H30.9742C30.9742 24.4538 32.0968 27.322 34.3245 29.5498L44.224 19.6502ZM44.9742 21.4V18.7H30.9742V21.4H44.9742ZM44.9742 18.7C44.9742 17.2779 44.6547 14.9071 42.7788 12.8868C40.812 10.7687 38.3251 10.3 36.6742 10.3V24.3C35.89 24.3 34.0531 24.0646 32.5197 22.4132C31.0771 20.8596 30.9742 19.1888 30.9742 18.7H44.9742ZM36.6742 10.3H17.4742V24.3H36.6742V10.3ZM17.4742 10.3C15.1511 10.3 13.3223 11.2571 12.1014 12.2339L20.8471 23.1661C20.2928 23.6095 19.1307 24.3 17.4742 24.3V10.3ZM11.5245 12.7503C9.85924 14.4155 9.07422 16.5685 9.07422 18.7H23.0742C23.0742 19.289 22.9733 20.0003 22.6736 20.7497C22.3705 21.5074 21.9265 22.1472 21.424 22.6497L11.5245 12.7503ZM9.07422 18.7V27.7H23.0742V18.7H9.07422ZM9.07422 27.7C9.07422 29.033 9.35061 30.834 10.4999 32.5579C11.7103 34.3735 13.4288 35.4146 15.0628 35.9048L19.0857 22.4952C20.053 22.7854 21.2715 23.4765 22.1486 24.7921C22.9645 26.016 23.0742 27.167 23.0742 27.7H9.07422ZM14.6253 35.7577L38.7253 44.7577L43.6231 31.6423L19.5231 22.6423L14.6253 35.7577ZM38.8092 44.7884C39.9897 45.2122 40.9112 45.9067 41.7011 47.0587L53.2473 39.1413C50.8372 35.6266 47.5587 33.0545 43.5393 31.6116L38.8092 44.7884ZM41.7011 47.0587C42.5317 48.27 42.8742 49.4316 42.8742 50.7H56.8742C56.8742 46.5018 55.6167 42.5967 53.2473 39.1413L41.7011 47.0587ZM42.8742 50.7V59.8H56.8742V50.7H42.8742ZM97.8805 69.8L102.83 74.7497L102.83 74.7497L97.8805 69.8ZM77.2805 73.4L72.9076 67.9339L72.6049 68.1761L72.3307 68.4503L77.2805 73.4ZM75.5805 87.6L70.6307 82.6503L70.5391 82.7419L70.4509 82.8368L75.5805 87.6ZM66.2805 87.6L61.3307 92.5497L61.3307 92.5497L66.2805 87.6ZM66.4805 26.8L60.5189 23.1313L60.4983 23.1648L60.478 23.1985L66.4805 26.8ZM70.5805 22.7L66.979 16.6975L66.979 16.6975L70.5805 22.7ZM95.6805 22.7L92.079 28.7024L92.079 28.7025L95.6805 22.7ZM99.6805 26.8L93.6172 30.2981L93.6472 30.35L93.678 30.4015L99.6805 26.8ZM88.8805 33.5L83.9307 38.4497L84.2049 38.7239L84.5076 38.9661L88.8805 33.5ZM77.2805 33.5L72.9076 28.0339L72.6049 28.2761L72.3307 28.5502L77.2805 33.5ZM77.2805 60.8L72.3307 65.7497L72.6049 66.0239L72.9076 66.2661L77.2805 60.8ZM88.8805 60.8L84.5076 55.3339L84.2049 55.5761L83.9307 55.8502L88.8805 60.8ZM94.1805 61.8C94.1805 63.0916 93.8075 63.9734 92.9307 64.8503L102.83 74.7497C106.353 71.2266 108.18 66.775 108.18 61.8H94.1805ZM92.9307 64.8503C92.1342 65.6468 91.3249 66 90.0805 66V80C94.9693 80 99.3601 78.2199 102.83 74.7497L92.9307 64.8503ZM90.0805 66H78.2805V80H90.0805V66ZM78.2805 66C75.9573 66 74.1286 66.9571 72.9076 67.9339L81.6533 78.8661C81.099 79.3095 79.9369 80 78.2805 80V66ZM72.3307 68.4503C70.9392 69.8417 69.8805 71.8603 69.8805 74.3H83.8805C83.8805 75.0973 83.7145 75.9089 83.3772 76.668C83.0471 77.4107 82.6152 77.9648 82.2302 78.3497L72.3307 68.4503ZM69.8805 74.3V84.4H83.8805V74.3H69.8805ZM69.8805 84.4C69.8805 84.2209 69.9144 83.899 70.0702 83.5154C70.2279 83.1272 70.446 82.835 70.6307 82.6503L80.5302 92.5497C82.7579 90.322 83.8805 87.4538 83.8805 84.4H69.8805ZM70.4509 82.8368C70.609 82.6666 70.8989 82.4232 71.3247 82.2369C71.7515 82.0502 72.1339 82 72.3805 82V96C75.6058 96 78.5272 94.7139 80.71 92.3632L70.4509 82.8368ZM72.3805 82H69.5805V96H72.3805V82ZM69.5805 82C69.8292 82 70.1733 82.0507 70.5393 82.2059C70.8996 82.3588 71.1277 82.5477 71.2302 82.6503L61.3307 92.5497C63.5153 94.7343 66.372 96 69.5805 96V82ZM71.2302 82.6503C71.415 82.835 71.633 83.1272 71.7907 83.5154C71.9466 83.899 71.9805 84.2209 71.9805 84.4H57.9805C57.9805 87.4538 59.103 90.322 61.3307 92.5497L71.2302 82.6503ZM71.9805 84.4V32.4H57.9805V84.4H71.9805ZM71.9805 32.4C71.9805 31.5185 72.1773 30.9108 72.4829 30.4015L60.478 23.1985C58.7836 26.0226 57.9805 29.1482 57.9805 32.4H71.9805ZM72.4421 30.4687C72.9491 29.6447 73.5235 29.0975 74.1819 28.7024L66.979 16.6975C64.3042 18.3025 62.1452 20.4886 60.5189 23.1313L72.4421 30.4687ZM74.1819 28.7025C74.6912 28.3969 75.299 28.2 76.1805 28.2V14.2C72.9286 14.2 69.8031 15.0031 66.979 16.6975L74.1819 28.7025ZM76.1805 28.2H90.0805V14.2H76.1805V28.2ZM90.0805 28.2C90.962 28.2 91.5697 28.3969 92.079 28.7024L99.2819 16.6975C96.4579 15.0031 93.3323 14.2 90.0805 14.2V28.2ZM92.079 28.7025C92.6946 29.0718 93.1933 29.5634 93.6172 30.2981L105.744 23.3019C104.168 20.5699 102 18.3282 99.2819 16.6975L92.079 28.7025ZM93.678 30.4015C93.9836 30.9108 94.1805 31.5185 94.1805 32.4H108.18C108.18 29.1482 107.377 26.0226 105.683 23.1985L93.678 30.4015ZM94.1805 32.4V61.8H108.18V32.4H94.1805ZM96.3805 59.9V34.5H82.3805V59.9H96.3805ZM96.3805 34.5C96.3805 31.8144 95.1188 29.5263 93.2533 28.0339L84.5076 38.9661C83.9982 38.5585 83.4256 37.9427 82.9945 37.0805C82.5567 36.2048 82.3805 35.3052 82.3805 34.5H96.3805ZM93.8302 28.5503C92.4387 27.1588 90.4202 26.1 87.9805 26.1V40.1C87.1832 40.1 86.3715 39.934 85.6125 39.5967C84.8698 39.2666 84.3157 38.8347 83.9307 38.4497L93.8302 28.5503ZM87.9805 26.1H78.2805V40.1H87.9805V26.1ZM78.2805 26.1C75.9573 26.1 74.1286 27.0571 72.9076 28.0339L81.6533 38.9661C81.099 39.4095 79.9369 40.1 78.2805 40.1V26.1ZM72.3307 28.5502C70.6655 30.2155 69.8805 32.3685 69.8805 34.5H83.8805C83.8805 35.089 83.7796 35.8003 83.4798 36.5497C83.1767 37.3074 82.7328 37.9472 82.2302 38.4498L72.3307 28.5502ZM69.8805 34.5V59.9H83.8805V34.5H69.8805ZM69.8805 59.9C69.8805 62.3397 70.9392 64.3583 72.3307 65.7497L82.2302 55.8503C82.6151 56.2352 83.0471 56.7893 83.3772 57.532C83.7145 58.2911 83.8805 59.1027 83.8805 59.9H69.8805ZM72.9076 66.2661C74.1286 67.2429 75.9573 68.2 78.2805 68.2V54.2C79.9369 54.2 81.099 54.8905 81.6533 55.3339L72.9076 66.2661ZM78.2805 68.2H87.9805V54.2H78.2805V68.2ZM87.9805 68.2C90.4202 68.2 92.4387 67.1412 93.8302 65.7498L83.9307 55.8502C84.3157 55.4653 84.8698 55.0334 85.6125 54.7033C86.3715 54.366 87.1832 54.2 87.9805 54.2V68.2ZM93.2533 66.2661C94.7405 65.0764 96.3805 62.9336 96.3805 59.9H82.3805C82.3805 58.8409 82.6598 57.8334 83.1364 56.9755C83.5887 56.1613 84.1309 55.6352 84.5076 55.3339L93.2533 66.2661ZM129.116 17.2L124.167 12.2502L124.167 12.2503L129.116 17.2ZM118.516 17.2L113.458 22.0386L113.565 22.151L113.678 22.2585L118.516 17.2ZM118.516 6.6L113.567 1.65025L113.567 1.65025L118.516 6.6ZM129.116 6.6L124.058 11.4386L124.165 11.551L124.278 11.6585L129.116 6.6ZM128.416 71.7L133.366 76.6497L133.366 76.6497L128.416 71.7ZM119.216 71.7L114.087 76.4632L114.263 76.6531L114.453 76.8296L119.216 71.7ZM119.216 23.7L114.267 18.7502L114.267 18.7503L119.216 23.7ZM128.416 23.7L123.287 28.4632L123.463 28.6531L123.653 28.8295L128.416 23.7ZM124.416 11.8C124.416 11.8817 124.409 11.9247 124.406 11.9386C124.404 11.9514 124.402 11.9549 124.401 11.957C124.4 11.9595 124.391 11.9813 124.361 12.0245C124.33 12.0689 124.271 12.1455 124.167 12.2502L134.066 22.1497C136.84 19.3756 138.416 15.8225 138.416 11.8H124.416ZM124.167 12.2503C124.082 12.335 124.025 12.3773 124.001 12.3942C123.977 12.4104 123.974 12.4095 123.989 12.4032C123.995 12.4006 124.002 12.3981 124.008 12.3962C124.015 12.3942 124.018 12.3936 124.017 12.3938C124.017 12.3938 123.987 12.4 123.916 12.4V26.4C127.848 26.4 131.341 24.8748 134.066 22.1497L124.167 12.2503ZM123.916 12.4C123.731 12.4 123.667 12.3711 123.657 12.3674C123.645 12.3622 123.544 12.3221 123.355 12.1415L113.678 22.2585C116.475 24.9342 119.994 26.4 123.916 26.4V12.4ZM123.575 12.3614C123.394 12.1726 123.354 12.0715 123.349 12.0589C123.345 12.0496 123.316 11.9858 123.316 11.8H109.316C109.316 15.7222 110.782 19.2412 113.458 22.0386L123.575 12.3614ZM123.316 11.8C123.316 11.7298 123.323 11.6993 123.323 11.6992C123.323 11.6983 123.322 11.7016 123.32 11.708C123.318 11.7145 123.316 11.7213 123.313 11.7275C123.307 11.7422 123.306 11.7392 123.322 11.7157C123.339 11.691 123.381 11.6345 123.466 11.5497L113.567 1.65025C110.842 4.37531 109.316 7.86799 109.316 11.8H123.316ZM123.466 11.5497C123.571 11.4449 123.647 11.3859 123.692 11.3553C123.735 11.3255 123.757 11.3163 123.759 11.3152C123.762 11.3143 123.765 11.3126 123.778 11.3101C123.792 11.3073 123.835 11.3 123.916 11.3V-2.7C119.894 -2.7 116.341 -1.12387 113.567 1.65025L123.466 11.5497ZM123.916 11.3C123.967 11.3 123.977 11.3045 123.958 11.3007C123.938 11.2965 123.911 11.2883 123.885 11.2767C123.859 11.2655 123.858 11.261 123.881 11.2779C123.906 11.2957 123.966 11.3428 124.058 11.4386L134.175 1.76144C131.478 -1.05848 127.953 -2.7 123.916 -2.7V11.3ZM124.278 11.6585C124.374 11.7501 124.421 11.8107 124.439 11.8354C124.455 11.8589 124.451 11.8569 124.44 11.8315C124.428 11.8055 124.42 11.7781 124.416 11.7581C124.412 11.7392 124.416 11.7497 124.416 11.8H138.416C138.416 7.76323 136.775 4.23881 133.955 1.5415L124.278 11.6585ZM122.816 68.4C122.816 68.1513 122.867 67.8071 123.022 67.4412C123.175 67.0809 123.364 66.8528 123.467 66.7503L133.366 76.6497C135.551 74.4652 136.816 71.6085 136.816 68.4H122.816ZM123.467 66.7503C123.651 66.5655 123.944 66.3474 124.332 66.1897C124.715 66.0339 125.037 66 125.216 66V80C128.27 80 131.138 78.8775 133.366 76.6497L123.467 66.7503ZM125.216 66H122.516V80H125.216V66ZM122.516 66C122.698 66 122.983 66.0345 123.307 66.1621C123.63 66.2895 123.856 66.4559 123.98 66.5704L114.453 76.8296C116.673 78.8911 119.472 80 122.516 80V66ZM124.346 66.9368C124.461 67.0602 124.627 67.2861 124.754 67.6093C124.882 67.9333 124.916 68.2184 124.916 68.4H110.916C110.916 71.4444 112.025 74.243 114.087 76.4632L124.346 66.9368ZM124.916 68.4V26.9H110.916V68.4H124.916ZM124.916 26.9C124.916 27.0791 124.883 27.401 124.727 27.7846C124.569 28.1728 124.351 28.465 124.166 28.6497L114.267 18.7503C112.039 20.978 110.916 23.8462 110.916 26.9H124.916ZM124.166 28.6497C124.064 28.7523 123.836 28.9412 123.475 29.0941C123.109 29.2493 122.765 29.3 122.516 29.3V15.3C119.308 15.3 116.451 16.5657 114.267 18.7502L124.166 28.6497ZM122.516 29.3H125.216V15.3H122.516V29.3ZM125.216 29.3C124.97 29.3 124.587 29.2498 124.161 29.0631C123.735 28.8768 123.445 28.6334 123.287 28.4632L133.546 18.9368C131.363 16.5861 128.442 15.3 125.216 15.3V29.3ZM123.653 28.8295C123.483 28.6715 123.24 28.3816 123.053 27.9557C122.867 27.529 122.816 27.1466 122.816 26.9H136.816C136.816 23.6746 135.53 20.7533 133.18 18.5704L123.653 28.8295ZM122.816 26.9V68.4H136.816V26.9H122.816ZM179.361 69.8L184.311 74.7497L184.311 74.7497L179.361 69.8ZM149.761 69.8L144.811 74.7497L144.849 74.7878L144.888 74.8253L149.761 69.8ZM147.961 26.8L141.999 23.1313L141.979 23.1648L141.958 23.1985L147.961 26.8ZM152.061 22.7L148.459 16.6975L148.459 16.6975L152.061 22.7ZM172.161 6.7L177.111 11.6497L177.111 11.6497L172.161 6.7ZM181.361 6.7L186.311 1.75025L186.311 1.75025L181.361 6.7ZM158.761 33.5L154.388 28.0339L154.085 28.2761L153.811 28.5502L158.761 33.5ZM158.761 60.8L153.811 65.7497L154.085 66.0239L154.388 66.2661L158.761 60.8ZM175.661 61.8C175.661 63.0916 175.288 63.9734 174.411 64.8503L184.311 74.7497C187.834 71.2266 189.661 66.775 189.661 61.8H175.661ZM174.411 64.8503C173.615 65.6468 172.805 66 171.561 66V80C176.45 80 180.841 78.2199 184.311 74.7497L174.411 64.8503ZM171.561 66H157.661V80H171.561V66ZM157.661 66C156.412 66 155.527 65.6406 154.634 64.7747L144.888 74.8253C148.395 78.2261 152.776 80 157.661 80V66ZM154.711 64.8503C153.834 63.9734 153.461 63.0916 153.461 61.8H139.461C139.461 66.775 141.288 71.2266 144.811 74.7497L154.711 64.8503ZM153.461 61.8V32.4H139.461V61.8H153.461ZM153.461 32.4C153.461 31.5185 153.658 30.9108 153.963 30.4015L141.958 23.1985C140.264 26.0226 139.461 29.1482 139.461 32.4H153.461ZM153.923 30.4687C154.43 29.6447 155.004 29.0975 155.662 28.7024L148.459 16.6975C145.785 18.3025 143.626 20.4886 141.999 23.1313L153.923 30.4687ZM155.662 28.7025C156.172 28.3969 156.779 28.2 157.661 28.2V14.2C154.409 14.2 151.284 15.0031 148.459 16.6975L155.662 28.7025ZM157.661 28.2H169.461V14.2H157.661V28.2ZM169.461 28.2C170.765 28.2 173.05 27.9435 175.066 26.2148C177.29 24.309 177.861 21.785 177.861 20H163.861C163.861 19.015 164.199 17.091 165.955 15.5852C167.506 14.2565 169.09 14.2 169.461 14.2V28.2ZM177.861 20V9.99999H163.861V20H177.861ZM177.861 9.99999C177.861 10.1 177.843 10.3758 177.699 10.7407C177.551 11.1171 177.331 11.4295 177.111 11.6497L167.211 1.75025C164.91 4.05154 163.861 6.9899 163.861 9.99999H177.861ZM177.111 11.6497C176.926 11.8345 176.634 12.0526 176.246 12.2103C175.862 12.3661 175.54 12.4 175.361 12.4V-1.60001C172.307 -1.60001 169.439 -0.477466 167.211 1.75025L177.111 11.6497ZM175.361 12.4H178.161V-1.60001H175.361V12.4ZM178.161 12.4C177.982 12.4 177.66 12.3661 177.276 12.2103C176.888 12.0526 176.596 11.8345 176.411 11.6497L186.311 1.75025C184.083 -0.477464 181.215 -1.60001 178.161 -1.60001V12.4ZM176.411 11.6497C176.191 11.4295 175.971 11.1171 175.823 10.7407C175.679 10.3758 175.661 10.1 175.661 9.99999H189.661C189.661 6.98991 188.612 4.05155 186.311 1.75025L176.411 11.6497ZM175.661 9.99999V61.8H189.661V9.99999H175.661ZM177.861 59.9V34.5H163.861V59.9H177.861ZM177.861 34.5C177.861 32.9543 177.47 30.5093 175.461 28.5003C173.452 26.4912 171.007 26.1 169.461 26.1V40.1C168.849 40.1 167.104 39.9422 165.561 38.3997C164.019 36.8573 163.861 35.1123 163.861 34.5H177.861ZM169.461 26.1H159.761V40.1H169.461V26.1ZM159.761 26.1C157.438 26.1 155.609 27.0571 154.388 28.0339L163.134 38.9661C162.579 39.4095 161.417 40.1 159.761 40.1V26.1ZM153.811 28.5502C152.146 30.2155 151.361 32.3685 151.361 34.5H165.361C165.361 35.089 165.26 35.8003 164.96 36.5497C164.657 37.3074 164.213 37.9472 163.711 38.4498L153.811 28.5502ZM151.361 34.5V59.9H165.361V34.5H151.361ZM151.361 59.9C151.361 62.3397 152.42 64.3583 153.811 65.7497L163.711 55.8503C164.096 56.2352 164.528 56.7893 164.858 57.532C165.195 58.2911 165.361 59.1027 165.361 59.9H151.361ZM154.388 66.2661C155.609 67.2429 157.438 68.2 159.761 68.2V54.2C161.417 54.2 162.579 54.8905 163.134 55.3339L154.388 66.2661ZM159.761 68.2H169.461V54.2H159.761V68.2ZM169.461 68.2C170.883 68.2 173.254 67.8805 175.274 66.0046C177.392 64.0378 177.861 61.5509 177.861 59.9H163.861C163.861 59.1158 164.096 57.2789 165.748 55.7454C167.301 54.3028 168.972 54.2 169.461 54.2V68.2ZM232.497 48.9L238.499 52.5015L238.53 52.45L238.56 52.3981L232.497 48.9ZM228.497 53L232.098 59.0024L232.185 58.9504L232.27 58.8959L228.497 53ZM210.097 54.9L214.297 60.5L214.384 60.4344L214.47 60.3661L210.097 54.9ZM210.097 60.8L205.147 65.7497L205.421 66.0239L205.724 66.2661L210.097 60.8ZM226.097 62.5L221.147 67.4497L221.239 67.5414L221.334 67.6296L226.097 62.5ZM226.097 71.7L231.047 76.6497L231.047 76.6497L226.097 71.7ZM201.097 69.8L196.147 74.7497L196.185 74.7878L196.224 74.8253L201.097 69.8ZM199.297 26.8L193.401 23.0266L193.346 23.1118L193.294 23.1985L199.297 26.8ZM203.397 22.8L206.998 28.8024L207.085 28.7504L207.17 28.6959L203.397 22.8ZM228.497 22.8L224.724 28.6959L224.809 28.7504L224.895 28.8024L228.497 22.8ZM232.497 26.8L238.499 23.1985L238.499 23.1985L232.497 26.8ZM221.697 33.5L216.747 38.4497L217.021 38.7239L217.324 38.9661L221.697 33.5ZM210.097 33.5L205.724 28.0339L205.421 28.2761L205.147 28.5502L210.097 33.5ZM210.097 42.1L205.147 47.0497L205.421 47.3239L205.724 47.5661L210.097 42.1ZM221.697 42.1L217.324 36.6339L217.021 36.8761L216.747 37.1503L221.697 42.1ZM226.997 43.3C226.997 44.0713 226.82 44.7317 226.434 45.4019L238.56 52.3981C240.173 49.6017 240.997 46.5287 240.997 43.3H226.997ZM226.494 45.2985C226.061 46.0214 225.497 46.609 224.723 47.1041L232.27 58.8959C234.83 57.2576 236.933 55.1119 238.499 52.5015L226.494 45.2985ZM224.895 46.9976C224.386 47.3031 223.778 47.5 222.897 47.5V61.5C226.149 61.5 229.274 60.6969 232.098 59.0024L224.895 46.9976ZM222.897 47.5H211.097V61.5H222.897V47.5ZM211.097 47.5C208.774 47.5 206.945 48.4571 205.724 49.4339L214.47 60.3661C213.915 60.8095 212.753 61.5 211.097 61.5V47.5ZM205.897 49.3C203.868 50.822 202.697 53.1634 202.697 55.7H216.697C216.697 56.4904 216.532 57.4321 216.058 58.3805C215.584 59.3288 214.929 60.0258 214.297 60.5L205.897 49.3ZM202.697 55.7V59.9H216.697V55.7H202.697ZM202.697 59.9C202.697 62.3397 203.756 64.3583 205.147 65.7497L215.047 55.8503C215.432 56.2352 215.863 56.7893 216.194 57.532C216.531 58.2911 216.697 59.1027 216.697 59.9H202.697ZM205.724 66.2661C206.945 67.2429 208.774 68.2 211.097 68.2V54.2C212.753 54.2 213.915 54.8905 214.47 55.3339L205.724 66.2661ZM211.097 68.2H222.897V54.2H211.097V68.2ZM222.897 68.2C222.718 68.2 222.396 68.1661 222.012 68.0103C221.624 67.8526 221.332 67.6345 221.147 67.4497L231.047 57.5503C228.819 55.3225 225.951 54.2 222.897 54.2V68.2ZM221.334 67.6296C221.126 67.4367 220.88 67.1259 220.703 66.7088C220.529 66.2991 220.497 65.9637 220.497 65.8H234.497C234.497 62.623 233.293 59.63 230.86 57.3704L221.334 67.6296ZM220.497 65.8V68.4H234.497V65.8H220.497ZM220.497 68.4C220.497 68.1513 220.548 67.8071 220.703 67.4412C220.856 67.0809 221.045 66.8528 221.147 66.7503L231.047 76.6497C233.231 74.4652 234.497 71.6085 234.497 68.4H220.497ZM221.147 66.7503C221.332 66.5655 221.624 66.3474 222.012 66.1897C222.396 66.0339 222.718 66 222.897 66V80C225.951 80 228.819 78.8775 231.047 76.6497L221.147 66.7503ZM222.897 66H208.997V80H222.897V66ZM208.997 66C207.748 66 206.863 65.6406 205.97 64.7747L196.224 74.8253C199.731 78.2261 204.112 80 208.997 80V66ZM206.047 64.8503C205.17 63.9734 204.797 63.0916 204.797 61.8H190.797C190.797 66.775 192.624 71.2266 196.147 74.7497L206.047 64.8503ZM204.797 61.8V32.4H190.797V61.8H204.797ZM204.797 32.4C204.797 31.5185 204.994 30.9108 205.299 30.4015L193.294 23.1985C191.6 26.0226 190.797 29.1482 190.797 32.4H204.797ZM205.193 30.5734C205.688 29.7998 206.275 29.2362 206.998 28.8024L199.795 16.7975C197.185 18.3638 195.039 20.4668 193.401 23.0266L205.193 30.5734ZM207.17 28.6959C207.659 28.3831 208.205 28.2 208.997 28.2V14.2C205.655 14.2 202.468 15.0835 199.624 16.9041L207.17 28.6959ZM208.997 28.2H222.897V14.2H208.997V28.2ZM222.897 28.2C223.689 28.2 224.235 28.3831 224.724 28.6959L232.27 16.9041C229.426 15.0835 226.238 14.2 222.897 14.2V28.2ZM224.895 28.8024C225.577 29.2113 226.086 29.72 226.494 30.4015L238.499 23.1985C236.908 20.5466 234.75 18.3887 232.098 16.7975L224.895 28.8024ZM226.494 30.4015C226.8 30.9108 226.997 31.5185 226.997 32.4H240.997C240.997 29.1482 240.194 26.0226 238.499 23.1985L226.494 30.4015ZM226.997 32.4V43.3H240.997V32.4H226.997ZM229.197 41.3V34.5H215.197V41.3H229.197ZM229.197 34.5C229.197 31.8144 227.935 29.5263 226.07 28.0339L217.324 38.9661C216.815 38.5585 216.242 37.9427 215.811 37.0805C215.373 36.2048 215.197 35.3052 215.197 34.5H229.197ZM226.647 28.5503C225.255 27.1588 223.237 26.1 220.797 26.1V40.1C220 40.1 219.188 39.934 218.429 39.5967C217.686 39.2666 217.132 38.8347 216.747 38.4497L226.647 28.5503ZM220.797 26.1H211.097V40.1H220.797V26.1ZM211.097 26.1C208.774 26.1 206.945 27.0571 205.724 28.0339L214.47 38.9661C213.915 39.4095 212.753 40.1 211.097 40.1V26.1ZM205.147 28.5502C203.482 30.2155 202.697 32.3685 202.697 34.5H216.697C216.697 35.089 216.596 35.8003 216.296 36.5497C215.993 37.3074 215.549 37.9472 215.047 38.4498L205.147 28.5502ZM202.697 34.5V41.3H216.697V34.5H202.697ZM202.697 41.3C202.697 44.078 204.117 46.0201 205.147 47.0497L215.047 37.1503C215.543 37.6466 216.697 39.0554 216.697 41.3H202.697ZM205.724 47.5661C206.945 48.5429 208.774 49.5 211.097 49.5V35.5C212.753 35.5 213.915 36.1905 214.47 36.6339L205.724 47.5661ZM211.097 49.5H220.797V35.5H211.097V49.5ZM220.797 49.5C223.237 49.5 225.255 48.4412 226.647 47.0497L216.747 37.1503C217.132 36.7653 217.686 36.3334 218.429 36.0033C219.188 35.666 220 35.5 220.797 35.5V49.5ZM226.07 47.5661C227.069 46.767 229.197 44.7043 229.197 41.3H215.197C215.197 38.4291 216.992 36.8996 217.324 36.6339L226.07 47.5661ZM277.533 31.8L272.583 26.8502L272.583 26.8503L277.533 31.8ZM259.733 71.7L264.683 76.6497L264.683 76.6497L259.733 71.7ZM250.533 71.7L245.403 76.4632L245.491 76.5581L245.583 76.6497L250.533 71.7ZM250.733 26.8L256.735 30.4015L256.766 30.35L256.796 30.2981L250.733 26.8ZM254.733 22.7L251.131 16.6975L251.131 16.6975L254.733 22.7ZM277.533 22.6L272.403 27.3632L272.491 27.4581L272.583 27.5498L277.533 22.6ZM271.833 28.6C271.833 28.4209 271.867 28.099 272.023 27.7154C272.18 27.3272 272.398 27.035 272.583 26.8502L282.483 36.7498C284.71 34.522 285.833 31.6538 285.833 28.6H271.833ZM272.583 26.8503C272.768 26.6655 273.06 26.4474 273.448 26.2897C273.832 26.1339 274.154 26.1 274.333 26.1V40.1C277.387 40.1 280.255 38.9775 282.483 36.7497L272.583 26.8503ZM274.333 26.1H262.433V40.1H274.333V26.1ZM262.433 26.1C260.782 26.1 258.295 26.5688 256.328 28.6868C254.452 30.7071 254.133 33.0779 254.133 34.5H268.133C268.133 34.9888 268.03 36.6596 266.587 38.2132C265.054 39.8646 263.217 40.1 262.433 40.1V26.1ZM254.133 34.5V68.4H268.133V34.5H254.133ZM254.133 68.4C254.133 68.1513 254.183 67.8071 254.339 67.4412C254.492 67.0809 254.681 66.8528 254.783 66.7503L264.683 76.6497C266.867 74.4652 268.133 71.6085 268.133 68.4H254.133ZM254.783 66.7503C254.968 66.5655 255.26 66.3474 255.648 66.1897C256.032 66.0339 256.354 66 256.533 66V80C259.587 80 262.455 78.8775 264.683 76.6497L254.783 66.7503ZM256.533 66H253.733V80H256.533V66ZM253.733 66C253.912 66 254.234 66.0339 254.617 66.1897C255.006 66.3474 255.298 66.5655 255.483 66.7503L245.583 76.6497C247.811 78.8775 250.679 80 253.733 80V66ZM255.662 66.9368C255.777 67.0602 255.943 67.2861 256.071 67.6093C256.198 67.9333 256.233 68.2184 256.233 68.4H242.233C242.233 71.4444 243.342 74.243 245.403 76.4632L255.662 66.9368ZM256.233 68.4V32.4H242.233V68.4H256.233ZM256.233 32.4C256.233 31.5185 256.43 30.9108 256.735 30.4015L244.73 23.1985C243.036 26.0226 242.233 29.1482 242.233 32.4H256.233ZM256.796 30.2981C257.22 29.5634 257.719 29.0718 258.334 28.7024L251.131 16.6975C248.414 18.3282 246.246 20.5699 244.67 23.3019L256.796 30.2981ZM258.334 28.7025C258.844 28.3969 259.451 28.2 260.333 28.2V14.2C257.081 14.2 253.955 15.0031 251.131 16.6975L258.334 28.7025ZM260.333 28.2H274.333V14.2H260.333V28.2ZM274.333 28.2C274.086 28.2 273.704 28.1498 273.277 27.9631C272.851 27.7768 272.561 27.5334 272.403 27.3632L282.662 17.8368C280.48 15.4861 277.558 14.2 274.333 14.2V28.2ZM272.583 27.5498C272.363 27.3295 272.143 27.0171 271.995 26.6407C271.851 26.2758 271.833 26 271.833 25.9H285.833C285.833 22.8899 284.784 19.9515 282.483 17.6502L272.583 27.5498ZM271.833 25.9V28.6H285.833V25.9H271.833Z" fill="#673DE6" mask="url(#path-1-outside-1_1418_344)"/>
<path d="M223.01 88.895C223.01 89.3383 222.858 89.7233 222.555 90.05C222.252 90.3533 221.867 90.505 221.4 90.505H217.725C217.422 90.505 217.27 90.6567 217.27 90.96V108.39C217.27 108.833 217.107 109.218 216.78 109.545C216.477 109.848 216.103 110 215.66 110H214.75C214.307 110 213.922 109.848 213.595 109.545C213.292 109.218 213.14 108.833 213.14 108.39V90.96C213.14 90.6567 212.988 90.505 212.685 90.505H208.975C208.532 90.505 208.147 90.3533 207.82 90.05C207.517 89.7233 207.365 89.3383 207.365 88.895V87.95C207.365 87.4833 207.517 87.0983 207.82 86.795C208.147 86.4917 208.532 86.34 208.975 86.34H221.4C221.867 86.34 222.252 86.4917 222.555 86.795C222.858 87.0983 223.01 87.4833 223.01 87.95V88.895ZM236.75 99.605C236.75 100.305 236.575 100.958 236.225 101.565C235.875 102.148 235.408 102.627 234.825 103C234.241 103.35 233.588 103.525 232.865 103.525H228.735C228.618 103.525 228.501 103.572 228.385 103.665C228.291 103.735 228.245 103.828 228.245 103.945V105.415C228.245 105.532 228.291 105.637 228.385 105.73C228.501 105.823 228.618 105.87 228.735 105.87H232.865C233.308 105.87 233.681 106.022 233.985 106.325C234.311 106.628 234.475 107.013 234.475 107.48V108.39C234.475 108.833 234.311 109.218 233.985 109.545C233.681 109.848 233.308 110 232.865 110H228C226.926 110 226.005 109.627 225.235 108.88C224.465 108.11 224.08 107.177 224.08 106.08V95.79C224.08 95.0667 224.255 94.4133 224.605 93.83C224.978 93.2467 225.456 92.78 226.04 92.43C226.623 92.0567 227.276 91.87 228 91.87H232.865C233.588 91.87 234.241 92.0567 234.825 92.43C235.408 92.78 235.875 93.2467 236.225 93.83C236.575 94.4133 236.75 95.0667 236.75 95.79V99.605ZM232.62 98.905V96.525C232.62 96.385 232.561 96.2683 232.445 96.175C232.351 96.0817 232.246 96.035 232.13 96.035H228.735C228.618 96.035 228.501 96.0817 228.385 96.175C228.291 96.2683 228.245 96.385 228.245 96.525V98.905C228.245 98.9983 228.291 99.0917 228.385 99.185C228.501 99.2783 228.618 99.325 228.735 99.325H232.13C232.246 99.325 232.351 99.2783 232.445 99.185C232.561 99.0917 232.62 98.9983 232.62 98.905ZM252.267 106.08C252.267 107.177 251.882 108.11 251.112 108.88C250.366 109.627 249.456 110 248.382 110H243.517C242.444 110 241.522 109.627 240.752 108.88C239.982 108.11 239.597 107.177 239.597 106.08V95.79C239.597 95.0667 239.772 94.4133 240.122 93.83C240.496 93.2233 240.974 92.745 241.557 92.395C242.141 92.045 242.794 91.87 243.517 91.87H248.382C249.106 91.87 249.759 92.045 250.342 92.395C250.926 92.745 251.392 93.2233 251.742 93.83C252.092 94.4133 252.267 95.0667 252.267 95.79V97.61C252.267 98.0533 252.116 98.4383 251.812 98.765C251.509 99.0683 251.136 99.22 250.692 99.22H249.712C249.269 99.22 248.896 99.0683 248.592 98.765C248.289 98.4383 248.137 98.0533 248.137 97.61V96.525C248.137 96.385 248.079 96.2683 247.962 96.175C247.869 96.0817 247.764 96.035 247.647 96.035H244.252C244.136 96.035 244.019 96.0817 243.902 96.175C243.809 96.2683 243.762 96.385 243.762 96.525V105.415C243.762 105.532 243.809 105.637 243.902 105.73C244.019 105.823 244.136 105.87 244.252 105.87H247.647C247.764 105.87 247.869 105.823 247.962 105.73C248.079 105.637 248.137 105.532 248.137 105.415V104.33C248.137 103.887 248.289 103.513 248.592 103.21C248.896 102.883 249.269 102.72 249.712 102.72H250.692C251.136 102.72 251.509 102.883 251.812 103.21C252.116 103.513 252.267 103.887 252.267 104.33V106.08ZM267.785 108.39C267.785 108.833 267.633 109.218 267.33 109.545C267.027 109.848 266.653 110 266.21 110H265.23C264.787 110 264.413 109.848 264.11 109.545C263.807 109.218 263.655 108.833 263.655 108.39V96.525C263.655 96.385 263.597 96.2683 263.48 96.175C263.387 96.0817 263.282 96.035 263.165 96.035H259.77C259.653 96.035 259.537 96.0817 259.42 96.175C259.327 96.2683 259.28 96.385 259.28 96.525V108.39C259.28 108.833 259.128 109.218 258.825 109.545C258.522 109.848 258.148 110 257.705 110H256.725C256.282 110 255.897 109.848 255.57 109.545C255.267 109.218 255.115 108.833 255.115 108.39V87.95C255.115 87.4833 255.267 87.0983 255.57 86.795C255.897 86.4917 256.282 86.34 256.725 86.34H257.705C258.148 86.34 258.522 86.4917 258.825 86.795C259.128 87.0983 259.28 87.4833 259.28 87.95V91.45C259.28 91.5667 259.327 91.6717 259.42 91.765C259.537 91.835 259.653 91.87 259.77 91.87H263.9C264.623 91.87 265.277 92.045 265.86 92.395C266.443 92.745 266.91 93.2233 267.26 93.83C267.61 94.4133 267.785 95.0667 267.785 95.79V108.39Z" fill="#673DE6"/>
</svg>
