<svg width="297" height="120" viewBox="0 0 297 120" fill="none" xmlns="http://www.w3.org/2000/svg">
<mask id="path-1-outside-1_1419_359" maskUnits="userSpaceOnUse" x="4" y="2" width="289" height="99" fill="black">
<rect fill="white" x="4" y="2" width="289" height="99"/>
<path d="M56.8742 64.8C56.8742 67.2 56.2742 69.4 55.0742 71.4C53.8742 73.4 52.2742 75 50.2742 76.2C48.2742 77.4 46.0742 78 43.6742 78H24.4742C22.0742 78 19.8409 77.4 17.7742 76.2C15.7742 75 14.1742 73.4 12.9742 71.4C11.7742 69.4 11.1742 67.2 11.1742 64.8V61.8C11.1742 60.5333 11.6076 59.4667 12.4742 58.6C13.4076 57.6667 14.5076 57.2 15.7742 57.2H18.5742C19.7742 57.2 20.8076 57.6667 21.6742 58.6C22.6076 59.4667 23.0742 60.5333 23.0742 61.8V64.8C23.0742 65.1333 23.2076 65.4667 23.4742 65.8C23.8076 66.0667 24.1409 66.2 24.4742 66.2H43.6742C44.0076 66.2 44.3076 66.0667 44.5742 65.8C44.8409 65.4667 44.9742 65.1333 44.9742 64.8V55.7C44.9742 54.9667 44.6409 54.5 43.9742 54.3L19.9742 45.3C17.3076 44.3667 15.1742 42.7333 13.5742 40.4C11.9742 38.0667 11.1742 35.5 11.1742 32.7V23.7C11.1742 21.2333 11.7742 19 12.9742 17C14.1742 15 15.7742 13.4 17.7742 12.2C19.8409 11 22.0742 10.4 24.4742 10.4H43.6742C46.0742 10.4 48.2742 11 50.2742 12.2C52.2742 13.4 53.8742 15 55.0742 17C56.2742 19 56.8742 21.2333 56.8742 23.7V26.4C56.8742 27.6667 56.4076 28.7333 55.4742 29.6C54.6076 30.4667 53.5409 30.9 52.2742 30.9H49.5742C48.3076 30.9 47.2076 30.4667 46.2742 29.6C45.4076 28.7333 44.9742 27.6667 44.9742 26.4V23.7C44.9742 22.7667 44.5409 22.3 43.6742 22.3H24.4742C24.1409 22.3 23.8076 22.4333 23.4742 22.7C23.2076 22.9667 23.0742 23.3 23.0742 23.7V32.7C23.0742 33.5 23.4076 34 24.0742 34.2L48.1742 43.2C50.7742 44.1333 52.8742 45.7667 54.4742 48.1C56.0742 50.4333 56.8742 52.9667 56.8742 55.7V64.8ZM108.18 66.8C108.18 69.9333 107.08 72.6 104.88 74.8C102.747 76.9333 100.147 78 97.0805 78H85.2805C84.9471 78 84.6138 78.1333 84.2805 78.4C84.0138 78.6667 83.8805 78.9667 83.8805 79.3V89.4C83.8805 90.6667 83.4471 91.7333 82.5805 92.6C81.7138 93.5333 80.6471 94 79.3805 94H76.5805C75.3138 94 74.2138 93.5333 73.2805 92.6C72.4138 91.7333 71.9805 90.6667 71.9805 89.4V37.4C71.9805 35.3333 72.4805 33.4667 73.4805 31.8C74.5471 30.0667 75.9138 28.7 77.5805 27.7C79.2471 26.7 81.1138 26.2 83.1805 26.2H97.0805C99.1471 26.2 101.014 26.7 102.68 27.7C104.347 28.7 105.68 30.0667 106.68 31.8C107.68 33.4667 108.18 35.3333 108.18 37.4V66.8ZM96.3805 64.9V39.5C96.3805 39.1 96.2138 38.7667 95.8805 38.5C95.6138 38.2333 95.3138 38.1 94.9805 38.1H85.2805C84.9471 38.1 84.6138 38.2333 84.2805 38.5C84.0138 38.7667 83.8805 39.1 83.8805 39.5V64.9C83.8805 65.2333 84.0138 65.5333 84.2805 65.8C84.6138 66.0667 84.9471 66.2 85.2805 66.2H94.9805C95.3138 66.2 95.6138 66.0667 95.8805 65.8C96.2138 65.5333 96.3805 65.2333 96.3805 64.9ZM138.416 16.8C138.416 18.8667 137.65 20.6667 136.116 22.2C134.65 23.6667 132.916 24.4 130.916 24.4C128.85 24.4 127.05 23.6667 125.516 22.2C124.05 20.6667 123.316 18.8667 123.316 16.8C123.316 14.8 124.05 13.0667 125.516 11.6C127.05 10.0667 128.85 9.3 130.916 9.3C132.916 9.3 134.65 10.0667 136.116 11.6C137.65 13.0667 138.416 14.8 138.416 16.8ZM136.816 73.4C136.816 74.6667 136.35 75.7667 135.416 76.7C134.55 77.5667 133.483 78 132.216 78H129.516C128.25 78 127.15 77.5667 126.216 76.7C125.35 75.7667 124.916 74.6667 124.916 73.4V31.9C124.916 30.6333 125.35 29.5667 126.216 28.7C127.15 27.7667 128.25 27.3 129.516 27.3H132.216C133.483 27.3 134.55 27.7667 135.416 28.7C136.35 29.5667 136.816 30.6333 136.816 31.9V73.4ZM189.661 66.8C189.661 69.9333 188.561 72.6 186.361 74.8C184.228 76.9333 181.628 78 178.561 78H164.661C161.594 78 158.961 76.9333 156.761 74.8C154.561 72.6 153.461 69.9333 153.461 66.8V37.4C153.461 35.3333 153.961 33.4667 154.961 31.8C156.028 30.0667 157.394 28.7 159.061 27.7C160.728 26.7 162.594 26.2 164.661 26.2H176.461C177.394 26.2 177.861 25.8 177.861 25V15C177.861 13.6667 178.294 12.5667 179.161 11.7C180.028 10.8333 181.094 10.4 182.361 10.4H185.161C186.428 10.4 187.494 10.8333 188.361 11.7C189.228 12.5667 189.661 13.6667 189.661 15V66.8ZM177.861 64.9V39.5C177.861 38.5667 177.394 38.1 176.461 38.1H166.761C166.428 38.1 166.094 38.2333 165.761 38.5C165.494 38.7667 165.361 39.1 165.361 39.5V64.9C165.361 65.2333 165.494 65.5333 165.761 65.8C166.094 66.0667 166.428 66.2 166.761 66.2H176.461C177.394 66.2 177.861 65.7667 177.861 64.9ZM240.997 48.3C240.997 50.3 240.497 52.1667 239.497 53.9C238.497 55.5667 237.164 56.9333 235.497 58C233.83 59 231.964 59.5 229.897 59.5H218.097C217.764 59.5 217.43 59.6333 217.097 59.9C216.83 60.1 216.697 60.3667 216.697 60.7V64.9C216.697 65.2333 216.83 65.5333 217.097 65.8C217.43 66.0667 217.764 66.2 218.097 66.2H229.897C231.164 66.2 232.23 66.6333 233.097 67.5C234.03 68.3667 234.497 69.4667 234.497 70.8V73.4C234.497 74.6667 234.03 75.7667 233.097 76.7C232.23 77.5667 231.164 78 229.897 78H215.997C212.93 78 210.297 76.9333 208.097 74.8C205.897 72.6 204.797 69.9333 204.797 66.8V37.4C204.797 35.3333 205.297 33.4667 206.297 31.8C207.364 30.1333 208.73 28.8 210.397 27.8C212.064 26.7333 213.93 26.2 215.997 26.2H229.897C231.964 26.2 233.83 26.7333 235.497 27.8C237.164 28.8 238.497 30.1333 239.497 31.8C240.497 33.4667 240.997 35.3333 240.997 37.4V48.3ZM229.197 46.3V39.5C229.197 39.1 229.03 38.7667 228.697 38.5C228.43 38.2333 228.13 38.1 227.797 38.1H218.097C217.764 38.1 217.43 38.2333 217.097 38.5C216.83 38.7667 216.697 39.1 216.697 39.5V46.3C216.697 46.5667 216.83 46.8333 217.097 47.1C217.43 47.3667 217.764 47.5 218.097 47.5H227.797C228.13 47.5 228.43 47.3667 228.697 47.1C229.03 46.8333 229.197 46.5667 229.197 46.3ZM285.833 33.6C285.833 34.8667 285.399 35.9333 284.533 36.8C283.666 37.6667 282.599 38.1 281.333 38.1H269.433C268.566 38.1 268.133 38.5667 268.133 39.5V73.4C268.133 74.6667 267.666 75.7667 266.733 76.7C265.866 77.5667 264.799 78 263.533 78H260.733C259.466 78 258.399 77.5667 257.533 76.7C256.666 75.7667 256.233 74.6667 256.233 73.4V37.4C256.233 35.3333 256.733 33.4667 257.733 31.8C258.733 30.0667 260.066 28.7 261.733 27.7C263.399 26.7 265.266 26.2 267.333 26.2H281.333C282.599 26.2 283.666 26.6667 284.533 27.6C285.399 28.4667 285.833 29.5667 285.833 30.9V33.6Z"/>
</mask>
<path d="M55.0742 71.4L61.0767 75.0015L61.0767 75.0015L55.0742 71.4ZM17.7742 76.2L14.1727 82.2025L14.2158 82.2283L14.2593 82.2535L17.7742 76.2ZM12.9742 71.4L6.97177 75.0015L6.97177 75.0015L12.9742 71.4ZM12.4742 58.6L17.424 63.5497L12.4742 58.6ZM21.6742 58.6L16.5447 63.3632L16.7211 63.5531L16.9111 63.7296L21.6742 58.6ZM23.4742 65.8L18.0081 70.1729L18.494 70.7802L19.1014 71.2661L23.4742 65.8ZM44.5742 65.8L49.524 70.7498L49.7981 70.4756L50.0403 70.1729L44.5742 65.8ZM43.9742 54.3L41.5164 60.8543L41.737 60.9371L41.9628 61.0048L43.9742 54.3ZM19.9742 45.3L22.4321 38.7457L22.3597 38.7185L22.2867 38.693L19.9742 45.3ZM13.5742 40.4L19.3473 36.4413L19.3473 36.4413L13.5742 40.4ZM12.9742 17L18.9767 20.6015L18.9767 20.6015L12.9742 17ZM17.7742 12.2L14.2593 6.14647L14.2158 6.1717L14.1727 6.19754L17.7742 12.2ZM55.0742 17L49.0718 20.6015L49.0718 20.6015L55.0742 17ZM55.4742 29.6L50.7111 24.4704L50.6161 24.5586L50.5245 24.6502L55.4742 29.6ZM46.2742 29.6L41.3245 34.5498L41.4161 34.6414L41.5111 34.7295L46.2742 29.6ZM23.4742 22.7L19.1014 17.2339L18.7986 17.4761L18.5245 17.7503L23.4742 22.7ZM24.0742 34.2L26.5231 27.6423L26.3068 27.5616L26.0857 27.4952L24.0742 34.2ZM48.1742 43.2L45.7253 49.7577L45.7671 49.7733L45.8092 49.7884L48.1742 43.2ZM54.4742 48.1L60.2473 44.1413L60.2473 44.1413L54.4742 48.1ZM49.8742 64.8C49.8742 65.9699 49.5994 66.9191 49.0718 67.7985L61.0767 75.0015C62.949 71.8809 63.8742 68.4301 63.8742 64.8H49.8742ZM49.0718 67.7985C48.4629 68.8133 47.6875 69.5887 46.6727 70.1975L53.8757 82.2025C56.8609 80.4113 59.2855 77.9867 61.0767 75.0015L49.0718 67.7985ZM46.6727 70.1975C45.7933 70.7252 44.8441 71 43.6742 71V85C47.3043 85 50.7552 84.0748 53.8757 82.2025L46.6727 70.1975ZM43.6742 71H24.4742V85H43.6742V71ZM24.4742 71C23.3033 71 22.2834 70.7238 21.2892 70.1465L14.2593 82.2535C17.3984 84.0762 20.8452 85 24.4742 85V71ZM21.3757 70.1975C20.3609 69.5887 19.5855 68.8133 18.9767 67.7985L6.97177 75.0015C8.76292 77.9867 11.1875 80.4113 14.1727 82.2025L21.3757 70.1975ZM18.9767 67.7985C18.449 66.9191 18.1742 65.9699 18.1742 64.8H4.17422C4.17422 68.4301 5.09944 71.8809 6.97177 75.0015L18.9767 67.7985ZM18.1742 64.8V61.8H4.17422V64.8H18.1742ZM18.1742 61.8C18.1742 61.9791 18.1403 62.301 17.9845 62.6846C17.8268 63.0728 17.6087 63.365 17.424 63.5497L7.52447 53.6503C5.29676 55.878 4.17422 58.7462 4.17422 61.8H18.1742ZM17.424 63.5497C17.3215 63.6523 17.0933 63.8412 16.7331 63.9941C16.3671 64.1493 16.0229 64.2 15.7742 64.2V50.2C12.5658 50.2 9.709 51.4657 7.52447 53.6503L17.424 63.5497ZM15.7742 64.2H18.5742V50.2H15.7742V64.2ZM18.5742 64.2C18.2398 64.2 17.8093 64.1288 17.3681 63.9296C16.9364 63.7346 16.6676 63.4955 16.5447 63.3632L26.8038 53.8368C24.7039 51.5755 21.8509 50.2 18.5742 50.2V64.2ZM16.9111 63.7296C16.7408 63.5715 16.4974 63.2816 16.3111 62.8557C16.1244 62.429 16.0742 62.0466 16.0742 61.8H30.0742C30.0742 58.5746 28.7881 55.6533 26.4374 53.4704L16.9111 63.7296ZM16.0742 61.8V64.8H30.0742V61.8H16.0742ZM16.0742 64.8C16.0742 67.1231 17.0313 68.9519 18.0081 70.1729L28.9403 61.4271C29.3838 61.9815 30.0742 63.1435 30.0742 64.8H16.0742ZM19.1014 71.2661C20.3223 72.2429 22.1511 73.2 24.4742 73.2V59.2C26.1307 59.2 27.2928 59.8905 27.8471 60.3339L19.1014 71.2661ZM24.4742 73.2H43.6742V59.2H24.4742V73.2ZM43.6742 73.2C46.114 73.2 48.1325 72.1412 49.524 70.7498L39.6245 60.8502C40.0094 60.4653 40.5635 60.0334 41.3063 59.7033C42.0653 59.366 42.8769 59.2 43.6742 59.2V73.2ZM50.0403 70.1729C51.0171 68.9519 51.9742 67.1231 51.9742 64.8H37.9742C37.9742 63.1436 38.6647 61.9815 39.1081 61.4271L50.0403 70.1729ZM51.9742 64.8V55.7H37.9742V64.8H51.9742ZM51.9742 55.7C51.9742 54.2817 51.6445 52.4452 50.4204 50.7313C49.1716 48.9831 47.4787 48.0431 45.9857 47.5952L41.9628 61.0048C41.1364 60.7569 39.9435 60.1503 39.0281 58.8687C38.1373 57.6215 37.9742 56.3849 37.9742 55.7H51.9742ZM46.4321 47.7457L22.4321 38.7457L17.5164 51.8543L41.5164 60.8543L46.4321 47.7457ZM22.2867 38.693C21.0281 38.2525 20.1062 37.548 19.3473 36.4413L7.80112 44.3587C10.2422 47.9187 13.587 50.4809 17.6618 51.907L22.2867 38.693ZM19.3473 36.4413C18.5376 35.2604 18.1742 34.0712 18.1742 32.7H4.17422C4.17422 36.9288 5.41085 40.8729 7.80112 44.3587L19.3473 36.4413ZM18.1742 32.7V23.7H4.17422V32.7H18.1742ZM18.1742 23.7C18.1742 22.4259 18.4675 21.4501 18.9767 20.6015L6.97177 13.3985C5.08095 16.5499 4.17422 20.0407 4.17422 23.7H18.1742ZM18.9767 20.6015C19.5855 19.5867 20.3609 18.8113 21.3757 18.2024L14.1727 6.19754C11.1875 7.98869 8.76292 10.4133 6.97177 13.3985L18.9767 20.6015ZM21.2892 18.2535C22.2834 17.6762 23.3033 17.4 24.4742 17.4V3.39999C20.8452 3.39999 17.3984 4.32375 14.2593 6.14647L21.2892 18.2535ZM24.4742 17.4H43.6742V3.39999H24.4742V17.4ZM43.6742 17.4C44.8441 17.4 45.7933 17.6748 46.6727 18.2024L53.8757 6.19754C50.7552 4.32522 47.3043 3.39999 43.6742 3.39999V17.4ZM46.6727 18.2024C47.6875 18.8113 48.4629 19.5867 49.0718 20.6015L61.0767 13.3985C59.2855 10.4133 56.8609 7.98869 53.8757 6.19754L46.6727 18.2024ZM49.0718 20.6015C49.5809 21.4501 49.8742 22.4259 49.8742 23.7H63.8742C63.8742 20.0407 62.9675 16.5499 61.0767 13.3985L49.0718 20.6015ZM49.8742 23.7V26.4H63.8742V23.7H49.8742ZM49.8742 26.4C49.8742 26.1534 49.9244 25.771 50.1111 25.3443C50.2974 24.9184 50.5408 24.6285 50.7111 24.4704L60.2374 34.7296C62.5881 32.5467 63.8742 29.6254 63.8742 26.4H49.8742ZM50.5245 24.6502C50.7092 24.4655 51.0014 24.2474 51.3896 24.0897C51.7732 23.9339 52.0951 23.9 52.2742 23.9V37.9C55.328 37.9 58.1963 36.7775 60.424 34.5497L50.5245 24.6502ZM52.2742 23.9H49.5742V37.9H52.2742V23.9ZM49.5742 23.9C49.7559 23.9 50.041 23.9345 50.3649 24.0621C50.6882 24.1895 50.914 24.3559 51.0374 24.4704L41.5111 34.7295C43.7312 36.7911 46.5298 37.9 49.5742 37.9V23.9ZM51.224 24.6502C51.4087 24.835 51.6268 25.1272 51.7845 25.5154C51.9403 25.899 51.9742 26.2209 51.9742 26.4H37.9742C37.9742 29.4538 39.0968 32.322 41.3245 34.5498L51.224 24.6502ZM51.9742 26.4V23.7H37.9742V26.4H51.9742ZM51.9742 23.7C51.9742 22.2779 51.6547 19.9071 49.7788 17.8868C47.812 15.7687 45.3251 15.3 43.6742 15.3V29.3C42.89 29.3 41.0531 29.0646 39.5197 27.4132C38.0771 25.8596 37.9742 24.1888 37.9742 23.7H51.9742ZM43.6742 15.3H24.4742V29.3H43.6742V15.3ZM24.4742 15.3C22.1511 15.3 20.3223 16.2571 19.1014 17.2339L27.8471 28.1661C27.2928 28.6095 26.1307 29.3 24.4742 29.3V15.3ZM18.5245 17.7503C16.8592 19.4155 16.0742 21.5685 16.0742 23.7H30.0742C30.0742 24.289 29.9733 25.0003 29.6736 25.7497C29.3705 26.5074 28.9265 27.1472 28.424 27.6497L18.5245 17.7503ZM16.0742 23.7V32.7H30.0742V23.7H16.0742ZM16.0742 32.7C16.0742 34.033 16.3506 35.834 17.4999 37.5579C18.7103 39.3735 20.4288 40.4146 22.0628 40.9048L26.0857 27.4952C27.053 27.7854 28.2715 28.4765 29.1486 29.7921C29.9645 31.016 30.0742 32.167 30.0742 32.7H16.0742ZM21.6253 40.7577L45.7253 49.7577L50.6231 36.6423L26.5231 27.6423L21.6253 40.7577ZM45.8092 49.7884C46.9897 50.2122 47.9112 50.9067 48.7011 52.0587L60.2473 44.1413C57.8372 40.6266 54.5587 38.0545 50.5393 36.6116L45.8092 49.7884ZM48.7011 52.0587C49.5317 53.27 49.8742 54.4316 49.8742 55.7H63.8742C63.8742 51.5018 62.6167 47.5967 60.2473 44.1413L48.7011 52.0587ZM49.8742 55.7V64.8H63.8742V55.7H49.8742ZM104.88 74.8L109.83 79.7497L109.83 79.7497L104.88 74.8ZM84.2805 78.4L79.9076 72.9339L79.6049 73.1761L79.3307 73.4503L84.2805 78.4ZM82.5805 92.6L77.6307 87.6503L77.5391 87.7419L77.4509 87.8368L82.5805 92.6ZM73.2805 92.6L68.3307 97.5497L68.3307 97.5497L73.2805 92.6ZM73.4805 31.8L67.5189 28.1313L67.4983 28.1648L67.478 28.1985L73.4805 31.8ZM77.5805 27.7L73.979 21.6975L73.979 21.6975L77.5805 27.7ZM102.68 27.7L99.079 33.7024L99.079 33.7025L102.68 27.7ZM106.68 31.8L100.617 35.2981L100.647 35.35L100.678 35.4015L106.68 31.8ZM95.8805 38.5L90.9307 43.4497L91.2049 43.7239L91.5076 43.9661L95.8805 38.5ZM84.2805 38.5L79.9076 33.0339L79.6049 33.2761L79.3307 33.5502L84.2805 38.5ZM84.2805 65.8L79.3307 70.7497L79.6049 71.0239L79.9076 71.2661L84.2805 65.8ZM95.8805 65.8L91.5076 60.3339L91.2049 60.5761L90.9307 60.8502L95.8805 65.8ZM101.18 66.8C101.18 68.0916 100.808 68.9734 99.9307 69.8503L109.83 79.7497C113.353 76.2266 115.18 71.775 115.18 66.8H101.18ZM99.9307 69.8503C99.1342 70.6468 98.3249 71 97.0805 71V85C101.969 85 106.36 83.2199 109.83 79.7497L99.9307 69.8503ZM97.0805 71H85.2805V85H97.0805V71ZM85.2805 71C82.9573 71 81.1286 71.9571 79.9076 72.9339L88.6533 83.8661C88.099 84.3095 86.9369 85 85.2805 85V71ZM79.3307 73.4503C77.9392 74.8417 76.8805 76.8603 76.8805 79.3H90.8805C90.8805 80.0973 90.7145 80.9089 90.3772 81.668C90.0471 82.4107 89.6152 82.9648 89.2302 83.3497L79.3307 73.4503ZM76.8805 79.3V89.4H90.8805V79.3H76.8805ZM76.8805 89.4C76.8805 89.2209 76.9144 88.899 77.0702 88.5154C77.2279 88.1272 77.446 87.835 77.6307 87.6503L87.5302 97.5497C89.7579 95.322 90.8805 92.4538 90.8805 89.4H76.8805ZM77.4509 87.8368C77.609 87.6666 77.8989 87.4232 78.3247 87.2369C78.7515 87.0502 79.1339 87 79.3805 87V101C82.6058 101 85.5272 99.7139 87.71 97.3632L77.4509 87.8368ZM79.3805 87H76.5805V101H79.3805V87ZM76.5805 87C76.8292 87 77.1733 87.0507 77.5393 87.2059C77.8996 87.3588 78.1277 87.5477 78.2302 87.6503L68.3307 97.5497C70.5153 99.7343 73.372 101 76.5805 101V87ZM78.2302 87.6503C78.415 87.835 78.633 88.1272 78.7907 88.5154C78.9466 88.899 78.9805 89.2209 78.9805 89.4H64.9805C64.9805 92.4538 66.103 95.322 68.3307 97.5497L78.2302 87.6503ZM78.9805 89.4V37.4H64.9805V89.4H78.9805ZM78.9805 37.4C78.9805 36.5185 79.1773 35.9108 79.4829 35.4015L67.478 28.1985C65.7836 31.0226 64.9805 34.1482 64.9805 37.4H78.9805ZM79.4421 35.4687C79.9491 34.6447 80.5235 34.0975 81.1819 33.7024L73.979 21.6975C71.3042 23.3025 69.1452 25.4886 67.5189 28.1313L79.4421 35.4687ZM81.1819 33.7025C81.6912 33.3969 82.299 33.2 83.1805 33.2V19.2C79.9286 19.2 76.8031 20.0031 73.979 21.6975L81.1819 33.7025ZM83.1805 33.2H97.0805V19.2H83.1805V33.2ZM97.0805 33.2C97.962 33.2 98.5697 33.3969 99.079 33.7024L106.282 21.6975C103.458 20.0031 100.332 19.2 97.0805 19.2V33.2ZM99.079 33.7025C99.6946 34.0718 100.193 34.5634 100.617 35.2981L112.744 28.3019C111.168 25.5699 109 23.3282 106.282 21.6975L99.079 33.7025ZM100.678 35.4015C100.984 35.9108 101.18 36.5185 101.18 37.4H115.18C115.18 34.1482 114.377 31.0226 112.683 28.1985L100.678 35.4015ZM101.18 37.4V66.8H115.18V37.4H101.18ZM103.38 64.9V39.5H89.3805V64.9H103.38ZM103.38 39.5C103.38 36.8144 102.119 34.5263 100.253 33.0339L91.5076 43.9661C90.9982 43.5585 90.4256 42.9427 89.9945 42.0805C89.5567 41.2048 89.3805 40.3052 89.3805 39.5H103.38ZM100.83 33.5503C99.4387 32.1588 97.4202 31.1 94.9805 31.1V45.1C94.1832 45.1 93.3715 44.934 92.6125 44.5967C91.8698 44.2666 91.3157 43.8347 90.9307 43.4497L100.83 33.5503ZM94.9805 31.1H85.2805V45.1H94.9805V31.1ZM85.2805 31.1C82.9573 31.1 81.1286 32.0571 79.9076 33.0339L88.6533 43.9661C88.099 44.4095 86.9369 45.1 85.2805 45.1V31.1ZM79.3307 33.5502C77.6655 35.2155 76.8805 37.3685 76.8805 39.5H90.8805C90.8805 40.089 90.7796 40.8003 90.4798 41.5497C90.1767 42.3074 89.7328 42.9472 89.2302 43.4498L79.3307 33.5502ZM76.8805 39.5V64.9H90.8805V39.5H76.8805ZM76.8805 64.9C76.8805 67.3397 77.9392 69.3583 79.3307 70.7497L89.2302 60.8503C89.6151 61.2352 90.0471 61.7893 90.3772 62.532C90.7145 63.2911 90.8805 64.1027 90.8805 64.9H76.8805ZM79.9076 71.2661C81.1286 72.2429 82.9573 73.2 85.2805 73.2V59.2C86.9369 59.2 88.099 59.8905 88.6533 60.3339L79.9076 71.2661ZM85.2805 73.2H94.9805V59.2H85.2805V73.2ZM94.9805 73.2C97.4202 73.2 99.4387 72.1412 100.83 70.7498L90.9307 60.8502C91.3157 60.4653 91.8698 60.0334 92.6125 59.7033C93.3715 59.366 94.1832 59.2 94.9805 59.2V73.2ZM100.253 71.2661C101.74 70.0764 103.38 67.9336 103.38 64.9H89.3805C89.3805 63.8409 89.6598 62.8334 90.1364 61.9755C90.5887 61.1613 91.1309 60.6352 91.5076 60.3339L100.253 71.2661ZM136.116 22.2L131.167 17.2502L131.167 17.2503L136.116 22.2ZM125.516 22.2L120.458 27.0386L120.565 27.151L120.678 27.2585L125.516 22.2ZM125.516 11.6L120.567 6.65025L120.567 6.65025L125.516 11.6ZM136.116 11.6L131.058 16.4386L131.165 16.551L131.278 16.6585L136.116 11.6ZM135.416 76.7L140.366 81.6497L140.366 81.6497L135.416 76.7ZM126.216 76.7L121.087 81.4632L121.263 81.6531L121.453 81.8296L126.216 76.7ZM126.216 28.7L121.267 23.7502L121.267 23.7503L126.216 28.7ZM135.416 28.7L130.287 33.4632L130.463 33.6531L130.653 33.8295L135.416 28.7ZM131.416 16.8C131.416 16.8817 131.409 16.9247 131.406 16.9386C131.404 16.9514 131.402 16.9549 131.401 16.957C131.4 16.9595 131.391 16.9813 131.361 17.0245C131.33 17.0689 131.271 17.1455 131.167 17.2502L141.066 27.1497C143.84 24.3756 145.416 20.8225 145.416 16.8H131.416ZM131.167 17.2503C131.082 17.335 131.025 17.3773 131.001 17.3942C130.977 17.4104 130.974 17.4095 130.989 17.4032C130.995 17.4006 131.002 17.3981 131.008 17.3962C131.015 17.3942 131.018 17.3936 131.017 17.3938C131.017 17.3938 130.987 17.4 130.916 17.4V31.4C134.848 31.4 138.341 29.8748 141.066 27.1497L131.167 17.2503ZM130.916 17.4C130.731 17.4 130.667 17.3711 130.657 17.3674C130.645 17.3622 130.544 17.3221 130.355 17.1415L120.678 27.2585C123.475 29.9342 126.994 31.4 130.916 31.4V17.4ZM130.575 17.3614C130.394 17.1726 130.354 17.0715 130.349 17.0589C130.345 17.0496 130.316 16.9858 130.316 16.8H116.316C116.316 20.7222 117.782 24.2412 120.458 27.0386L130.575 17.3614ZM130.316 16.8C130.316 16.7298 130.323 16.6993 130.323 16.6992C130.323 16.6983 130.322 16.7016 130.32 16.708C130.318 16.7145 130.316 16.7213 130.313 16.7275C130.307 16.7422 130.306 16.7392 130.322 16.7157C130.339 16.691 130.381 16.6345 130.466 16.5497L120.567 6.65025C117.842 9.37531 116.316 12.868 116.316 16.8H130.316ZM130.466 16.5497C130.571 16.4449 130.647 16.3859 130.692 16.3553C130.735 16.3255 130.757 16.3163 130.759 16.3152C130.762 16.3143 130.765 16.3126 130.778 16.3101C130.792 16.3073 130.835 16.3 130.916 16.3V2.3C126.894 2.3 123.341 3.87613 120.567 6.65025L130.466 16.5497ZM130.916 16.3C130.967 16.3 130.977 16.3045 130.958 16.3007C130.938 16.2965 130.911 16.2883 130.885 16.2767C130.859 16.2655 130.858 16.261 130.881 16.2779C130.906 16.2957 130.966 16.3428 131.058 16.4386L141.175 6.76144C138.478 3.94152 134.953 2.3 130.916 2.3V16.3ZM131.278 16.6585C131.374 16.7501 131.421 16.8107 131.439 16.8354C131.455 16.8589 131.451 16.8569 131.44 16.8315C131.428 16.8055 131.42 16.7781 131.416 16.7581C131.412 16.7392 131.416 16.7497 131.416 16.8H145.416C145.416 12.7632 143.775 9.23881 140.955 6.5415L131.278 16.6585ZM129.816 73.4C129.816 73.1513 129.867 72.8071 130.022 72.4412C130.175 72.0809 130.364 71.8528 130.467 71.7503L140.366 81.6497C142.551 79.4652 143.816 76.6085 143.816 73.4H129.816ZM130.467 71.7503C130.651 71.5655 130.944 71.3474 131.332 71.1897C131.715 71.0339 132.037 71 132.216 71V85C135.27 85 138.138 83.8775 140.366 81.6497L130.467 71.7503ZM132.216 71H129.516V85H132.216V71ZM129.516 71C129.698 71 129.983 71.0345 130.307 71.1621C130.63 71.2895 130.856 71.4559 130.98 71.5704L121.453 81.8296C123.673 83.8911 126.472 85 129.516 85V71ZM131.346 71.9368C131.461 72.0602 131.627 72.2861 131.754 72.6093C131.882 72.9333 131.916 73.2184 131.916 73.4H117.916C117.916 76.4444 119.025 79.243 121.087 81.4632L131.346 71.9368ZM131.916 73.4V31.9H117.916V73.4H131.916ZM131.916 31.9C131.916 32.0791 131.883 32.401 131.727 32.7846C131.569 33.1728 131.351 33.465 131.166 33.6497L121.267 23.7503C119.039 25.978 117.916 28.8462 117.916 31.9H131.916ZM131.166 33.6497C131.064 33.7523 130.836 33.9412 130.475 34.0941C130.109 34.2493 129.765 34.3 129.516 34.3V20.3C126.308 20.3 123.451 21.5657 121.267 23.7502L131.166 33.6497ZM129.516 34.3H132.216V20.3H129.516V34.3ZM132.216 34.3C131.97 34.3 131.587 34.2498 131.161 34.0631C130.735 33.8768 130.445 33.6334 130.287 33.4632L140.546 23.9368C138.363 21.5861 135.442 20.3 132.216 20.3V34.3ZM130.653 33.8295C130.483 33.6715 130.24 33.3816 130.053 32.9557C129.867 32.529 129.816 32.1466 129.816 31.9H143.816C143.816 28.6746 142.53 25.7533 140.18 23.5704L130.653 33.8295ZM129.816 31.9V73.4H143.816V31.9H129.816ZM186.361 74.8L191.311 79.7497L191.311 79.7497L186.361 74.8ZM156.761 74.8L151.811 79.7497L151.849 79.7878L151.888 79.8253L156.761 74.8ZM154.961 31.8L148.999 28.1313L148.979 28.1648L148.958 28.1985L154.961 31.8ZM159.061 27.7L155.459 21.6975L155.459 21.6975L159.061 27.7ZM179.161 11.7L184.111 16.6497L184.111 16.6497L179.161 11.7ZM188.361 11.7L193.311 6.75025L193.311 6.75025L188.361 11.7ZM165.761 38.5L161.388 33.0339L161.085 33.2761L160.811 33.5502L165.761 38.5ZM165.761 65.8L160.811 70.7497L161.085 71.0239L161.388 71.2661L165.761 65.8ZM182.661 66.8C182.661 68.0916 182.288 68.9734 181.411 69.8503L191.311 79.7497C194.834 76.2266 196.661 71.775 196.661 66.8H182.661ZM181.411 69.8503C180.615 70.6468 179.805 71 178.561 71V85C183.45 85 187.841 83.2199 191.311 79.7497L181.411 69.8503ZM178.561 71H164.661V85H178.561V71ZM164.661 71C163.412 71 162.527 70.6406 161.634 69.7747L151.888 79.8253C155.395 83.2261 159.776 85 164.661 85V71ZM161.711 69.8503C160.834 68.9734 160.461 68.0916 160.461 66.8H146.461C146.461 71.775 148.288 76.2266 151.811 79.7497L161.711 69.8503ZM160.461 66.8V37.4H146.461V66.8H160.461ZM160.461 37.4C160.461 36.5185 160.658 35.9108 160.963 35.4015L148.958 28.1985C147.264 31.0226 146.461 34.1482 146.461 37.4H160.461ZM160.923 35.4687C161.43 34.6447 162.004 34.0975 162.662 33.7024L155.459 21.6975C152.785 23.3025 150.626 25.4886 148.999 28.1313L160.923 35.4687ZM162.662 33.7025C163.172 33.3969 163.779 33.2 164.661 33.2V19.2C161.409 19.2 158.284 20.0031 155.459 21.6975L162.662 33.7025ZM164.661 33.2H176.461V19.2H164.661V33.2ZM176.461 33.2C177.765 33.2 180.05 32.9435 182.066 31.2148C184.29 29.309 184.861 26.785 184.861 25H170.861C170.861 24.015 171.199 22.091 172.955 20.5852C174.506 19.2565 176.09 19.2 176.461 19.2V33.2ZM184.861 25V15H170.861V25H184.861ZM184.861 15C184.861 15.1 184.843 15.3758 184.699 15.7407C184.551 16.1171 184.331 16.4295 184.111 16.6497L174.211 6.75025C171.91 9.05154 170.861 11.9899 170.861 15H184.861ZM184.111 16.6497C183.926 16.8345 183.634 17.0526 183.246 17.2103C182.862 17.3661 182.54 17.4 182.361 17.4V3.39999C179.307 3.39999 176.439 4.52253 174.211 6.75025L184.111 16.6497ZM182.361 17.4H185.161V3.39999H182.361V17.4ZM185.161 17.4C184.982 17.4 184.66 17.3661 184.276 17.2103C183.888 17.0526 183.596 16.8345 183.411 16.6497L193.311 6.75025C191.083 4.52254 188.215 3.39999 185.161 3.39999V17.4ZM183.411 16.6497C183.191 16.4295 182.971 16.1171 182.823 15.7407C182.679 15.3758 182.661 15.1 182.661 15H196.661C196.661 11.9899 195.612 9.05155 193.311 6.75025L183.411 16.6497ZM182.661 15V66.8H196.661V15H182.661ZM184.861 64.9V39.5H170.861V64.9H184.861ZM184.861 39.5C184.861 37.9543 184.47 35.5093 182.461 33.5003C180.452 31.4912 178.007 31.1 176.461 31.1V45.1C175.849 45.1 174.104 44.9422 172.561 43.3997C171.019 41.8573 170.861 40.1123 170.861 39.5H184.861ZM176.461 31.1H166.761V45.1H176.461V31.1ZM166.761 31.1C164.438 31.1 162.609 32.0571 161.388 33.0339L170.134 43.9661C169.579 44.4095 168.417 45.1 166.761 45.1V31.1ZM160.811 33.5502C159.146 35.2155 158.361 37.3685 158.361 39.5H172.361C172.361 40.089 172.26 40.8003 171.96 41.5497C171.657 42.3074 171.213 42.9472 170.711 43.4498L160.811 33.5502ZM158.361 39.5V64.9H172.361V39.5H158.361ZM158.361 64.9C158.361 67.3397 159.42 69.3583 160.811 70.7497L170.711 60.8503C171.096 61.2352 171.528 61.7893 171.858 62.532C172.195 63.2911 172.361 64.1027 172.361 64.9H158.361ZM161.388 71.2661C162.609 72.2429 164.438 73.2 166.761 73.2V59.2C168.417 59.2 169.579 59.8905 170.134 60.3339L161.388 71.2661ZM166.761 73.2H176.461V59.2H166.761V73.2ZM176.461 73.2C177.883 73.2 180.254 72.8805 182.274 71.0046C184.392 69.0378 184.861 66.5509 184.861 64.9H170.861C170.861 64.1158 171.096 62.2789 172.748 60.7454C174.301 59.3028 175.972 59.2 176.461 59.2V73.2ZM239.497 53.9L245.499 57.5015L245.53 57.45L245.56 57.3981L239.497 53.9ZM235.497 58L239.098 64.0024L239.185 63.9504L239.27 63.8959L235.497 58ZM217.097 59.9L221.297 65.5L221.384 65.4344L221.47 65.3661L217.097 59.9ZM217.097 65.8L212.147 70.7497L212.421 71.0239L212.724 71.2661L217.097 65.8ZM233.097 67.5L228.147 72.4497L228.239 72.5414L228.334 72.6296L233.097 67.5ZM233.097 76.7L238.047 81.6497L238.047 81.6497L233.097 76.7ZM208.097 74.8L203.147 79.7497L203.185 79.7878L203.224 79.8253L208.097 74.8ZM206.297 31.8L200.401 28.0266L200.346 28.1118L200.294 28.1985L206.297 31.8ZM210.397 27.8L213.998 33.8024L214.085 33.7504L214.17 33.6959L210.397 27.8ZM235.497 27.8L231.724 33.6959L231.809 33.7504L231.895 33.8024L235.497 27.8ZM239.497 31.8L245.499 28.1985L245.499 28.1985L239.497 31.8ZM228.697 38.5L223.747 43.4497L224.021 43.7239L224.324 43.9661L228.697 38.5ZM217.097 38.5L212.724 33.0339L212.421 33.2761L212.147 33.5502L217.097 38.5ZM217.097 47.1L212.147 52.0497L212.421 52.3239L212.724 52.5661L217.097 47.1ZM228.697 47.1L224.324 41.6339L224.021 41.8761L223.747 42.1503L228.697 47.1ZM233.997 48.3C233.997 49.0713 233.82 49.7317 233.434 50.4019L245.56 57.3981C247.173 54.6017 247.997 51.5287 247.997 48.3H233.997ZM233.494 50.2985C233.061 51.0214 232.497 51.609 231.723 52.1041L239.27 63.8959C241.83 62.2576 243.933 60.1119 245.499 57.5015L233.494 50.2985ZM231.895 51.9976C231.386 52.3031 230.778 52.5 229.897 52.5V66.5C233.149 66.5 236.274 65.6969 239.098 64.0024L231.895 51.9976ZM229.897 52.5H218.097V66.5H229.897V52.5ZM218.097 52.5C215.774 52.5 213.945 53.4571 212.724 54.4339L221.47 65.3661C220.915 65.8095 219.753 66.5 218.097 66.5V52.5ZM212.897 54.3C210.868 55.822 209.697 58.1634 209.697 60.7H223.697C223.697 61.4904 223.532 62.4321 223.058 63.3805C222.584 64.3288 221.929 65.0258 221.297 65.5L212.897 54.3ZM209.697 60.7V64.9H223.697V60.7H209.697ZM209.697 64.9C209.697 67.3397 210.756 69.3583 212.147 70.7497L222.047 60.8503C222.432 61.2352 222.863 61.7893 223.194 62.532C223.531 63.2911 223.697 64.1027 223.697 64.9H209.697ZM212.724 71.2661C213.945 72.2429 215.774 73.2 218.097 73.2V59.2C219.753 59.2 220.915 59.8905 221.47 60.3339L212.724 71.2661ZM218.097 73.2H229.897V59.2H218.097V73.2ZM229.897 73.2C229.718 73.2 229.396 73.1661 229.012 73.0103C228.624 72.8526 228.332 72.6345 228.147 72.4497L238.047 62.5503C235.819 60.3225 232.951 59.2 229.897 59.2V73.2ZM228.334 72.6296C228.126 72.4367 227.88 72.1259 227.703 71.7088C227.529 71.2991 227.497 70.9637 227.497 70.8H241.497C241.497 67.623 240.293 64.63 237.86 62.3704L228.334 72.6296ZM227.497 70.8V73.4H241.497V70.8H227.497ZM227.497 73.4C227.497 73.1513 227.548 72.8071 227.703 72.4412C227.856 72.0809 228.045 71.8528 228.147 71.7503L238.047 81.6497C240.231 79.4652 241.497 76.6085 241.497 73.4H227.497ZM228.147 71.7503C228.332 71.5655 228.624 71.3474 229.012 71.1897C229.396 71.0339 229.718 71 229.897 71V85C232.951 85 235.819 83.8775 238.047 81.6497L228.147 71.7503ZM229.897 71H215.997V85H229.897V71ZM215.997 71C214.748 71 213.863 70.6406 212.97 69.7747L203.224 79.8253C206.731 83.2261 211.112 85 215.997 85V71ZM213.047 69.8503C212.17 68.9734 211.797 68.0916 211.797 66.8H197.797C197.797 71.775 199.624 76.2266 203.147 79.7497L213.047 69.8503ZM211.797 66.8V37.4H197.797V66.8H211.797ZM211.797 37.4C211.797 36.5185 211.994 35.9108 212.299 35.4015L200.294 28.1985C198.6 31.0226 197.797 34.1482 197.797 37.4H211.797ZM212.193 35.5734C212.688 34.7998 213.275 34.2362 213.998 33.8024L206.795 21.7975C204.185 23.3638 202.039 25.4668 200.401 28.0266L212.193 35.5734ZM214.17 33.6959C214.659 33.3831 215.205 33.2 215.997 33.2V19.2C212.655 19.2 209.468 20.0835 206.624 21.9041L214.17 33.6959ZM215.997 33.2H229.897V19.2H215.997V33.2ZM229.897 33.2C230.689 33.2 231.235 33.3831 231.724 33.6959L239.27 21.9041C236.426 20.0835 233.238 19.2 229.897 19.2V33.2ZM231.895 33.8024C232.577 34.2113 233.086 34.72 233.494 35.4015L245.499 28.1985C243.908 25.5466 241.75 23.3887 239.098 21.7975L231.895 33.8024ZM233.494 35.4015C233.8 35.9108 233.997 36.5185 233.997 37.4H247.997C247.997 34.1482 247.194 31.0226 245.499 28.1985L233.494 35.4015ZM233.997 37.4V48.3H247.997V37.4H233.997ZM236.197 46.3V39.5H222.197V46.3H236.197ZM236.197 39.5C236.197 36.8144 234.935 34.5263 233.07 33.0339L224.324 43.9661C223.815 43.5585 223.242 42.9427 222.811 42.0805C222.373 41.2048 222.197 40.3052 222.197 39.5H236.197ZM233.647 33.5503C232.255 32.1588 230.237 31.1 227.797 31.1V45.1C227 45.1 226.188 44.934 225.429 44.5967C224.686 44.2666 224.132 43.8347 223.747 43.4497L233.647 33.5503ZM227.797 31.1H218.097V45.1H227.797V31.1ZM218.097 31.1C215.774 31.1 213.945 32.0571 212.724 33.0339L221.47 43.9661C220.915 44.4095 219.753 45.1 218.097 45.1V31.1ZM212.147 33.5502C210.482 35.2155 209.697 37.3685 209.697 39.5H223.697C223.697 40.089 223.596 40.8003 223.296 41.5497C222.993 42.3074 222.549 42.9472 222.047 43.4498L212.147 33.5502ZM209.697 39.5V46.3H223.697V39.5H209.697ZM209.697 46.3C209.697 49.078 211.117 51.0201 212.147 52.0497L222.047 42.1503C222.543 42.6466 223.697 44.0554 223.697 46.3H209.697ZM212.724 52.5661C213.945 53.5429 215.774 54.5 218.097 54.5V40.5C219.753 40.5 220.915 41.1905 221.47 41.6339L212.724 52.5661ZM218.097 54.5H227.797V40.5H218.097V54.5ZM227.797 54.5C230.237 54.5 232.255 53.4412 233.647 52.0497L223.747 42.1503C224.132 41.7653 224.686 41.3334 225.429 41.0033C226.188 40.666 227 40.5 227.797 40.5V54.5ZM233.07 52.5661C234.069 51.767 236.197 49.7043 236.197 46.3H222.197C222.197 43.4291 223.992 41.8996 224.324 41.6339L233.07 52.5661ZM284.533 36.8L279.583 31.8502L279.583 31.8503L284.533 36.8ZM266.733 76.7L271.683 81.6497L271.683 81.6497L266.733 76.7ZM257.533 76.7L252.403 81.4632L252.491 81.5581L252.583 81.6497L257.533 76.7ZM257.733 31.8L263.735 35.4015L263.766 35.35L263.796 35.2981L257.733 31.8ZM261.733 27.7L258.131 21.6975L258.131 21.6975L261.733 27.7ZM284.533 27.6L279.403 32.3632L279.491 32.4581L279.583 32.5498L284.533 27.6ZM278.833 33.6C278.833 33.4209 278.867 33.099 279.023 32.7154C279.18 32.3272 279.398 32.035 279.583 31.8502L289.483 41.7498C291.71 39.522 292.833 36.6538 292.833 33.6H278.833ZM279.583 31.8503C279.768 31.6655 280.06 31.4474 280.448 31.2897C280.832 31.1339 281.154 31.1 281.333 31.1V45.1C284.387 45.1 287.255 43.9775 289.483 41.7497L279.583 31.8503ZM281.333 31.1H269.433V45.1H281.333V31.1ZM269.433 31.1C267.782 31.1 265.295 31.5688 263.328 33.6868C261.452 35.7071 261.133 38.0779 261.133 39.5H275.133C275.133 39.9888 275.03 41.6596 273.587 43.2132C272.054 44.8646 270.217 45.1 269.433 45.1V31.1ZM261.133 39.5V73.4H275.133V39.5H261.133ZM261.133 73.4C261.133 73.1513 261.183 72.8071 261.339 72.4412C261.492 72.0809 261.681 71.8528 261.783 71.7503L271.683 81.6497C273.867 79.4652 275.133 76.6085 275.133 73.4H261.133ZM261.783 71.7503C261.968 71.5655 262.26 71.3474 262.648 71.1897C263.032 71.0339 263.354 71 263.533 71V85C266.587 85 269.455 83.8775 271.683 81.6497L261.783 71.7503ZM263.533 71H260.733V85H263.533V71ZM260.733 71C260.912 71 261.234 71.0339 261.617 71.1897C262.006 71.3474 262.298 71.5655 262.483 71.7503L252.583 81.6497C254.811 83.8775 257.679 85 260.733 85V71ZM262.662 71.9368C262.777 72.0602 262.943 72.2861 263.071 72.6093C263.198 72.9333 263.233 73.2184 263.233 73.4H249.233C249.233 76.4444 250.342 79.243 252.403 81.4632L262.662 71.9368ZM263.233 73.4V37.4H249.233V73.4H263.233ZM263.233 37.4C263.233 36.5185 263.43 35.9108 263.735 35.4015L251.73 28.1985C250.036 31.0226 249.233 34.1482 249.233 37.4H263.233ZM263.796 35.2981C264.22 34.5634 264.719 34.0718 265.334 33.7024L258.131 21.6975C255.414 23.3282 253.246 25.5699 251.67 28.3019L263.796 35.2981ZM265.334 33.7025C265.844 33.3969 266.451 33.2 267.333 33.2V19.2C264.081 19.2 260.955 20.0031 258.131 21.6975L265.334 33.7025ZM267.333 33.2H281.333V19.2H267.333V33.2ZM281.333 33.2C281.086 33.2 280.704 33.1498 280.277 32.9631C279.851 32.7768 279.561 32.5334 279.403 32.3632L289.662 22.8368C287.48 20.4861 284.558 19.2 281.333 19.2V33.2ZM279.583 32.5498C279.363 32.3295 279.143 32.0171 278.995 31.6407C278.851 31.2758 278.833 31 278.833 30.9H292.833C292.833 27.8899 291.784 24.9515 289.483 22.6502L279.583 32.5498ZM278.833 30.9V33.6H292.833V30.9H278.833Z" fill="#673DE6" mask="url(#path-1-outside-1_1419_359)"/>
<path d="M230.01 93.895C230.01 94.3383 229.858 94.7233 229.555 95.05C229.252 95.3533 228.867 95.505 228.4 95.505H224.725C224.422 95.505 224.27 95.6567 224.27 95.96V113.39C224.27 113.833 224.107 114.218 223.78 114.545C223.477 114.848 223.103 115 222.66 115H221.75C221.307 115 220.922 114.848 220.595 114.545C220.292 114.218 220.14 113.833 220.14 113.39V95.96C220.14 95.6567 219.988 95.505 219.685 95.505H215.975C215.532 95.505 215.147 95.3533 214.82 95.05C214.517 94.7233 214.365 94.3383 214.365 93.895V92.95C214.365 92.4833 214.517 92.0983 214.82 91.795C215.147 91.4917 215.532 91.34 215.975 91.34H228.4C228.867 91.34 229.252 91.4917 229.555 91.795C229.858 92.0983 230.01 92.4833 230.01 92.95V93.895ZM243.75 104.605C243.75 105.305 243.575 105.958 243.225 106.565C242.875 107.148 242.408 107.627 241.825 108C241.241 108.35 240.588 108.525 239.865 108.525H235.735C235.618 108.525 235.501 108.572 235.385 108.665C235.291 108.735 235.245 108.828 235.245 108.945V110.415C235.245 110.532 235.291 110.637 235.385 110.73C235.501 110.823 235.618 110.87 235.735 110.87H239.865C240.308 110.87 240.681 111.022 240.985 111.325C241.311 111.628 241.475 112.013 241.475 112.48V113.39C241.475 113.833 241.311 114.218 240.985 114.545C240.681 114.848 240.308 115 239.865 115H235C233.926 115 233.005 114.627 232.235 113.88C231.465 113.11 231.08 112.177 231.08 111.08V100.79C231.08 100.067 231.255 99.4133 231.605 98.83C231.978 98.2467 232.456 97.78 233.04 97.43C233.623 97.0567 234.276 96.87 235 96.87H239.865C240.588 96.87 241.241 97.0567 241.825 97.43C242.408 97.78 242.875 98.2467 243.225 98.83C243.575 99.4133 243.75 100.067 243.75 100.79V104.605ZM239.62 103.905V101.525C239.62 101.385 239.561 101.268 239.445 101.175C239.351 101.082 239.246 101.035 239.13 101.035H235.735C235.618 101.035 235.501 101.082 235.385 101.175C235.291 101.268 235.245 101.385 235.245 101.525V103.905C235.245 103.998 235.291 104.092 235.385 104.185C235.501 104.278 235.618 104.325 235.735 104.325H239.13C239.246 104.325 239.351 104.278 239.445 104.185C239.561 104.092 239.62 103.998 239.62 103.905ZM259.267 111.08C259.267 112.177 258.882 113.11 258.112 113.88C257.366 114.627 256.456 115 255.382 115H250.517C249.444 115 248.522 114.627 247.752 113.88C246.982 113.11 246.597 112.177 246.597 111.08V100.79C246.597 100.067 246.772 99.4133 247.122 98.83C247.496 98.2233 247.974 97.745 248.557 97.395C249.141 97.045 249.794 96.87 250.517 96.87H255.382C256.106 96.87 256.759 97.045 257.342 97.395C257.926 97.745 258.392 98.2233 258.742 98.83C259.092 99.4133 259.267 100.067 259.267 100.79V102.61C259.267 103.053 259.116 103.438 258.812 103.765C258.509 104.068 258.136 104.22 257.692 104.22H256.712C256.269 104.22 255.896 104.068 255.592 103.765C255.289 103.438 255.137 103.053 255.137 102.61V101.525C255.137 101.385 255.079 101.268 254.962 101.175C254.869 101.082 254.764 101.035 254.647 101.035H251.252C251.136 101.035 251.019 101.082 250.902 101.175C250.809 101.268 250.762 101.385 250.762 101.525V110.415C250.762 110.532 250.809 110.637 250.902 110.73C251.019 110.823 251.136 110.87 251.252 110.87H254.647C254.764 110.87 254.869 110.823 254.962 110.73C255.079 110.637 255.137 110.532 255.137 110.415V109.33C255.137 108.887 255.289 108.513 255.592 108.21C255.896 107.883 256.269 107.72 256.712 107.72H257.692C258.136 107.72 258.509 107.883 258.812 108.21C259.116 108.513 259.267 108.887 259.267 109.33V111.08ZM274.785 113.39C274.785 113.833 274.633 114.218 274.33 114.545C274.027 114.848 273.653 115 273.21 115H272.23C271.787 115 271.413 114.848 271.11 114.545C270.807 114.218 270.655 113.833 270.655 113.39V101.525C270.655 101.385 270.597 101.268 270.48 101.175C270.387 101.082 270.282 101.035 270.165 101.035H266.77C266.653 101.035 266.537 101.082 266.42 101.175C266.327 101.268 266.28 101.385 266.28 101.525V113.39C266.28 113.833 266.128 114.218 265.825 114.545C265.522 114.848 265.148 115 264.705 115H263.725C263.282 115 262.897 114.848 262.57 114.545C262.267 114.218 262.115 113.833 262.115 113.39V92.95C262.115 92.4833 262.267 92.0983 262.57 91.795C262.897 91.4917 263.282 91.34 263.725 91.34H264.705C265.148 91.34 265.522 91.4917 265.825 91.795C266.128 92.0983 266.28 92.4833 266.28 92.95V96.45C266.28 96.5667 266.327 96.6717 266.42 96.765C266.537 96.835 266.653 96.87 266.77 96.87H270.9C271.623 96.87 272.277 97.045 272.86 97.395C273.443 97.745 273.91 98.2233 274.26 98.83C274.61 99.4133 274.785 100.067 274.785 100.79V113.39Z" fill="#673DE6"/>
</svg>
