<svg width="265" height="110" viewBox="0 0 265 110" fill="none" xmlns="http://www.w3.org/2000/svg">
<mask id="path-1-outside-1_1419_358" maskUnits="userSpaceOnUse" x="6" y="4" width="254" height="89" fill="black">
<rect fill="white" x="6" y="4" width="254" height="89"/>
<path d="M53.8742 61.8C53.8742 64.2 53.2742 66.4 52.0742 68.4C50.8742 70.4 49.2742 72 47.2742 73.2C45.2742 74.4 43.0742 75 40.6742 75H21.4742C19.0742 75 16.8409 74.4 14.7742 73.2C12.7742 72 11.1742 70.4 9.97422 68.4C8.77422 66.4 8.17422 64.2 8.17422 61.8V58.8C8.17422 57.5333 8.60755 56.4667 9.47422 55.6C10.4076 54.6667 11.5076 54.2 12.7742 54.2H15.5742C16.7742 54.2 17.8076 54.6667 18.6742 55.6C19.6076 56.4667 20.0742 57.5333 20.0742 58.8V61.8C20.0742 62.1333 20.2076 62.4667 20.4742 62.8C20.8076 63.0667 21.1409 63.2 21.4742 63.2H40.6742C41.0076 63.2 41.3076 63.0667 41.5742 62.8C41.8409 62.4667 41.9742 62.1333 41.9742 61.8V52.7C41.9742 51.9667 41.6409 51.5 40.9742 51.3L16.9742 42.3C14.3076 41.3667 12.1742 39.7333 10.5742 37.4C8.97422 35.0667 8.17422 32.5 8.17422 29.7V20.7C8.17422 18.2333 8.77422 16 9.97422 14C11.1742 12 12.7742 10.4 14.7742 9.19999C16.8409 7.99999 19.0742 7.39999 21.4742 7.39999H40.6742C43.0742 7.39999 45.2742 7.99999 47.2742 9.19999C49.2742 10.4 50.8742 12 52.0742 14C53.2742 16 53.8742 18.2333 53.8742 20.7V23.4C53.8742 24.6667 53.4076 25.7333 52.4742 26.6C51.6076 27.4667 50.5409 27.9 49.2742 27.9H46.5742C45.3076 27.9 44.2076 27.4667 43.2742 26.6C42.4076 25.7333 41.9742 24.6667 41.9742 23.4V20.7C41.9742 19.7667 41.5409 19.3 40.6742 19.3H21.4742C21.1409 19.3 20.8076 19.4333 20.4742 19.7C20.2076 19.9667 20.0742 20.3 20.0742 20.7V29.7C20.0742 30.5 20.4076 31 21.0742 31.2L45.1742 40.2C47.7742 41.1333 49.8742 42.7667 51.4742 45.1C53.0742 47.4333 53.8742 49.9667 53.8742 52.7V61.8ZM100.18 63.8C100.18 66.9333 99.0805 69.6 96.8805 71.8C94.7471 73.9333 92.1471 75 89.0805 75H77.2805C76.9471 75 76.6138 75.1333 76.2805 75.4C76.0138 75.6667 75.8805 75.9667 75.8805 76.3V86.4C75.8805 87.6667 75.4471 88.7333 74.5805 89.6C73.7138 90.5333 72.6471 91 71.3805 91H68.5805C67.3138 91 66.2138 90.5333 65.2805 89.6C64.4138 88.7333 63.9805 87.6667 63.9805 86.4V34.4C63.9805 32.3333 64.4805 30.4667 65.4805 28.8C66.5471 27.0667 67.9138 25.7 69.5805 24.7C71.2471 23.7 73.1138 23.2 75.1805 23.2H89.0805C91.1471 23.2 93.0138 23.7 94.6805 24.7C96.3471 25.7 97.6805 27.0667 98.6805 28.8C99.6805 30.4667 100.18 32.3333 100.18 34.4V63.8ZM88.3805 61.9V36.5C88.3805 36.1 88.2138 35.7667 87.8805 35.5C87.6138 35.2333 87.3138 35.1 86.9805 35.1H77.2805C76.9471 35.1 76.6138 35.2333 76.2805 35.5C76.0138 35.7667 75.8805 36.1 75.8805 36.5V61.9C75.8805 62.2333 76.0138 62.5333 76.2805 62.8C76.6138 63.0667 76.9471 63.2 77.2805 63.2H86.9805C87.3138 63.2 87.6138 63.0667 87.8805 62.8C88.2138 62.5333 88.3805 62.2333 88.3805 61.9ZM125.416 13.8C125.416 15.8667 124.65 17.6667 123.116 19.2C121.65 20.6667 119.916 21.4 117.916 21.4C115.85 21.4 114.05 20.6667 112.516 19.2C111.05 17.6667 110.316 15.8667 110.316 13.8C110.316 11.8 111.05 10.0667 112.516 8.6C114.05 7.06666 115.85 6.3 117.916 6.3C119.916 6.3 121.65 7.06666 123.116 8.6C124.65 10.0667 125.416 11.8 125.416 13.8ZM123.816 70.4C123.816 71.6667 123.35 72.7667 122.416 73.7C121.55 74.5667 120.483 75 119.216 75H116.516C115.25 75 114.15 74.5667 113.216 73.7C112.35 72.7667 111.916 71.6667 111.916 70.4V28.9C111.916 27.6333 112.35 26.5667 113.216 25.7C114.15 24.7667 115.25 24.3 116.516 24.3H119.216C120.483 24.3 121.55 24.7667 122.416 25.7C123.35 26.5667 123.816 27.6333 123.816 28.9V70.4ZM171.661 63.8C171.661 66.9333 170.561 69.6 168.361 71.8C166.228 73.9333 163.628 75 160.561 75H146.661C143.594 75 140.961 73.9333 138.761 71.8C136.561 69.6 135.461 66.9333 135.461 63.8V34.4C135.461 32.3333 135.961 30.4667 136.961 28.8C138.028 27.0667 139.394 25.7 141.061 24.7C142.728 23.7 144.594 23.2 146.661 23.2H158.461C159.394 23.2 159.861 22.8 159.861 22V12C159.861 10.6667 160.294 9.56666 161.161 8.7C162.028 7.83333 163.094 7.39999 164.361 7.39999H167.161C168.428 7.39999 169.494 7.83333 170.361 8.7C171.228 9.56666 171.661 10.6667 171.661 12V63.8ZM159.861 61.9V36.5C159.861 35.5667 159.394 35.1 158.461 35.1H148.761C148.428 35.1 148.094 35.2333 147.761 35.5C147.494 35.7667 147.361 36.1 147.361 36.5V61.9C147.361 62.2333 147.494 62.5333 147.761 62.8C148.094 63.0667 148.428 63.2 148.761 63.2H158.461C159.394 63.2 159.861 62.7667 159.861 61.9ZM217.997 45.3C217.997 47.3 217.497 49.1667 216.497 50.9C215.497 52.5667 214.164 53.9333 212.497 55C210.83 56 208.964 56.5 206.897 56.5H195.097C194.764 56.5 194.43 56.6333 194.097 56.9C193.83 57.1 193.697 57.3667 193.697 57.7V61.9C193.697 62.2333 193.83 62.5333 194.097 62.8C194.43 63.0667 194.764 63.2 195.097 63.2H206.897C208.164 63.2 209.23 63.6333 210.097 64.5C211.03 65.3667 211.497 66.4667 211.497 67.8V70.4C211.497 71.6667 211.03 72.7667 210.097 73.7C209.23 74.5667 208.164 75 206.897 75H192.997C189.93 75 187.297 73.9333 185.097 71.8C182.897 69.6 181.797 66.9333 181.797 63.8V34.4C181.797 32.3333 182.297 30.4667 183.297 28.8C184.364 27.1333 185.73 25.8 187.397 24.8C189.064 23.7333 190.93 23.2 192.997 23.2H206.897C208.964 23.2 210.83 23.7333 212.497 24.8C214.164 25.8 215.497 27.1333 216.497 28.8C217.497 30.4667 217.997 32.3333 217.997 34.4V45.3ZM206.197 43.3V36.5C206.197 36.1 206.03 35.7667 205.697 35.5C205.43 35.2333 205.13 35.1 204.797 35.1H195.097C194.764 35.1 194.43 35.2333 194.097 35.5C193.83 35.7667 193.697 36.1 193.697 36.5V43.3C193.697 43.5667 193.83 43.8333 194.097 44.1C194.43 44.3667 194.764 44.5 195.097 44.5H204.797C205.13 44.5 205.43 44.3667 205.697 44.1C206.03 43.8333 206.197 43.5667 206.197 43.3ZM257.833 30.6C257.833 31.8667 257.399 32.9333 256.533 33.8C255.666 34.6667 254.599 35.1 253.333 35.1H241.433C240.566 35.1 240.133 35.5667 240.133 36.5V70.4C240.133 71.6667 239.666 72.7667 238.733 73.7C237.866 74.5667 236.799 75 235.533 75H232.733C231.466 75 230.399 74.5667 229.533 73.7C228.666 72.7667 228.233 71.6667 228.233 70.4V34.4C228.233 32.3333 228.733 30.4667 229.733 28.8C230.733 27.0667 232.066 25.7 233.733 24.7C235.399 23.7 237.266 23.2 239.333 23.2H253.333C254.599 23.2 255.666 23.6667 256.533 24.6C257.399 25.4667 257.833 26.5667 257.833 27.9V30.6Z"/>
</mask>
<path d="M53.8742 61.8C53.8742 64.2 53.2742 66.4 52.0742 68.4C50.8742 70.4 49.2742 72 47.2742 73.2C45.2742 74.4 43.0742 75 40.6742 75H21.4742C19.0742 75 16.8409 74.4 14.7742 73.2C12.7742 72 11.1742 70.4 9.97422 68.4C8.77422 66.4 8.17422 64.2 8.17422 61.8V58.8C8.17422 57.5333 8.60755 56.4667 9.47422 55.6C10.4076 54.6667 11.5076 54.2 12.7742 54.2H15.5742C16.7742 54.2 17.8076 54.6667 18.6742 55.6C19.6076 56.4667 20.0742 57.5333 20.0742 58.8V61.8C20.0742 62.1333 20.2076 62.4667 20.4742 62.8C20.8076 63.0667 21.1409 63.2 21.4742 63.2H40.6742C41.0076 63.2 41.3076 63.0667 41.5742 62.8C41.8409 62.4667 41.9742 62.1333 41.9742 61.8V52.7C41.9742 51.9667 41.6409 51.5 40.9742 51.3L16.9742 42.3C14.3076 41.3667 12.1742 39.7333 10.5742 37.4C8.97422 35.0667 8.17422 32.5 8.17422 29.7V20.7C8.17422 18.2333 8.77422 16 9.97422 14C11.1742 12 12.7742 10.4 14.7742 9.19999C16.8409 7.99999 19.0742 7.39999 21.4742 7.39999H40.6742C43.0742 7.39999 45.2742 7.99999 47.2742 9.19999C49.2742 10.4 50.8742 12 52.0742 14C53.2742 16 53.8742 18.2333 53.8742 20.7V23.4C53.8742 24.6667 53.4076 25.7333 52.4742 26.6C51.6076 27.4667 50.5409 27.9 49.2742 27.9H46.5742C45.3076 27.9 44.2076 27.4667 43.2742 26.6C42.4076 25.7333 41.9742 24.6667 41.9742 23.4V20.7C41.9742 19.7667 41.5409 19.3 40.6742 19.3H21.4742C21.1409 19.3 20.8076 19.4333 20.4742 19.7C20.2076 19.9667 20.0742 20.3 20.0742 20.7V29.7C20.0742 30.5 20.4076 31 21.0742 31.2L45.1742 40.2C47.7742 41.1333 49.8742 42.7667 51.4742 45.1C53.0742 47.4333 53.8742 49.9667 53.8742 52.7V61.8ZM100.18 63.8C100.18 66.9333 99.0805 69.6 96.8805 71.8C94.7471 73.9333 92.1471 75 89.0805 75H77.2805C76.9471 75 76.6138 75.1333 76.2805 75.4C76.0138 75.6667 75.8805 75.9667 75.8805 76.3V86.4C75.8805 87.6667 75.4471 88.7333 74.5805 89.6C73.7138 90.5333 72.6471 91 71.3805 91H68.5805C67.3138 91 66.2138 90.5333 65.2805 89.6C64.4138 88.7333 63.9805 87.6667 63.9805 86.4V34.4C63.9805 32.3333 64.4805 30.4667 65.4805 28.8C66.5471 27.0667 67.9138 25.7 69.5805 24.7C71.2471 23.7 73.1138 23.2 75.1805 23.2H89.0805C91.1471 23.2 93.0138 23.7 94.6805 24.7C96.3471 25.7 97.6805 27.0667 98.6805 28.8C99.6805 30.4667 100.18 32.3333 100.18 34.4V63.8ZM88.3805 61.9V36.5C88.3805 36.1 88.2138 35.7667 87.8805 35.5C87.6138 35.2333 87.3138 35.1 86.9805 35.1H77.2805C76.9471 35.1 76.6138 35.2333 76.2805 35.5C76.0138 35.7667 75.8805 36.1 75.8805 36.5V61.9C75.8805 62.2333 76.0138 62.5333 76.2805 62.8C76.6138 63.0667 76.9471 63.2 77.2805 63.2H86.9805C87.3138 63.2 87.6138 63.0667 87.8805 62.8C88.2138 62.5333 88.3805 62.2333 88.3805 61.9ZM125.416 13.8C125.416 15.8667 124.65 17.6667 123.116 19.2C121.65 20.6667 119.916 21.4 117.916 21.4C115.85 21.4 114.05 20.6667 112.516 19.2C111.05 17.6667 110.316 15.8667 110.316 13.8C110.316 11.8 111.05 10.0667 112.516 8.6C114.05 7.06666 115.85 6.3 117.916 6.3C119.916 6.3 121.65 7.06666 123.116 8.6C124.65 10.0667 125.416 11.8 125.416 13.8ZM123.816 70.4C123.816 71.6667 123.35 72.7667 122.416 73.7C121.55 74.5667 120.483 75 119.216 75H116.516C115.25 75 114.15 74.5667 113.216 73.7C112.35 72.7667 111.916 71.6667 111.916 70.4V28.9C111.916 27.6333 112.35 26.5667 113.216 25.7C114.15 24.7667 115.25 24.3 116.516 24.3H119.216C120.483 24.3 121.55 24.7667 122.416 25.7C123.35 26.5667 123.816 27.6333 123.816 28.9V70.4ZM171.661 63.8C171.661 66.9333 170.561 69.6 168.361 71.8C166.228 73.9333 163.628 75 160.561 75H146.661C143.594 75 140.961 73.9333 138.761 71.8C136.561 69.6 135.461 66.9333 135.461 63.8V34.4C135.461 32.3333 135.961 30.4667 136.961 28.8C138.028 27.0667 139.394 25.7 141.061 24.7C142.728 23.7 144.594 23.2 146.661 23.2H158.461C159.394 23.2 159.861 22.8 159.861 22V12C159.861 10.6667 160.294 9.56666 161.161 8.7C162.028 7.83333 163.094 7.39999 164.361 7.39999H167.161C168.428 7.39999 169.494 7.83333 170.361 8.7C171.228 9.56666 171.661 10.6667 171.661 12V63.8ZM159.861 61.9V36.5C159.861 35.5667 159.394 35.1 158.461 35.1H148.761C148.428 35.1 148.094 35.2333 147.761 35.5C147.494 35.7667 147.361 36.1 147.361 36.5V61.9C147.361 62.2333 147.494 62.5333 147.761 62.8C148.094 63.0667 148.428 63.2 148.761 63.2H158.461C159.394 63.2 159.861 62.7667 159.861 61.9ZM217.997 45.3C217.997 47.3 217.497 49.1667 216.497 50.9C215.497 52.5667 214.164 53.9333 212.497 55C210.83 56 208.964 56.5 206.897 56.5H195.097C194.764 56.5 194.43 56.6333 194.097 56.9C193.83 57.1 193.697 57.3667 193.697 57.7V61.9C193.697 62.2333 193.83 62.5333 194.097 62.8C194.43 63.0667 194.764 63.2 195.097 63.2H206.897C208.164 63.2 209.23 63.6333 210.097 64.5C211.03 65.3667 211.497 66.4667 211.497 67.8V70.4C211.497 71.6667 211.03 72.7667 210.097 73.7C209.23 74.5667 208.164 75 206.897 75H192.997C189.93 75 187.297 73.9333 185.097 71.8C182.897 69.6 181.797 66.9333 181.797 63.8V34.4C181.797 32.3333 182.297 30.4667 183.297 28.8C184.364 27.1333 185.73 25.8 187.397 24.8C189.064 23.7333 190.93 23.2 192.997 23.2H206.897C208.964 23.2 210.83 23.7333 212.497 24.8C214.164 25.8 215.497 27.1333 216.497 28.8C217.497 30.4667 217.997 32.3333 217.997 34.4V45.3ZM206.197 43.3V36.5C206.197 36.1 206.03 35.7667 205.697 35.5C205.43 35.2333 205.13 35.1 204.797 35.1H195.097C194.764 35.1 194.43 35.2333 194.097 35.5C193.83 35.7667 193.697 36.1 193.697 36.5V43.3C193.697 43.5667 193.83 43.8333 194.097 44.1C194.43 44.3667 194.764 44.5 195.097 44.5H204.797C205.13 44.5 205.43 44.3667 205.697 44.1C206.03 43.8333 206.197 43.5667 206.197 43.3ZM257.833 30.6C257.833 31.8667 257.399 32.9333 256.533 33.8C255.666 34.6667 254.599 35.1 253.333 35.1H241.433C240.566 35.1 240.133 35.5667 240.133 36.5V70.4C240.133 71.6667 239.666 72.7667 238.733 73.7C237.866 74.5667 236.799 75 235.533 75H232.733C231.466 75 230.399 74.5667 229.533 73.7C228.666 72.7667 228.233 71.6667 228.233 70.4V34.4C228.233 32.3333 228.733 30.4667 229.733 28.8C230.733 27.0667 232.066 25.7 233.733 24.7C235.399 23.7 237.266 23.2 239.333 23.2H253.333C254.599 23.2 255.666 23.6667 256.533 24.6C257.399 25.4667 257.833 26.5667 257.833 27.9V30.6Z" fill="#673DE6"/>
<path d="M52.0742 68.4L53.7892 69.429L53.7892 69.429L52.0742 68.4ZM14.7742 73.2L13.7452 74.915L13.7575 74.9224L13.7699 74.9296L14.7742 73.2ZM9.97422 68.4L8.25923 69.429L8.25923 69.429L9.97422 68.4ZM9.47422 55.6L10.8884 57.0142L9.47422 55.6ZM18.6742 55.6L17.2086 56.9609L17.259 57.0152L17.3133 57.0656L18.6742 55.6ZM20.4742 62.8L18.9125 64.0494L19.0513 64.2229L19.2248 64.3617L20.4742 62.8ZM41.5742 62.8L42.9884 64.2142L43.0668 64.1359L43.136 64.0494L41.5742 62.8ZM40.9742 51.3L40.272 53.1727L40.335 53.1963L40.3995 53.2157L40.9742 51.3ZM16.9742 42.3L17.6765 40.4273L17.6558 40.4196L17.6349 40.4123L16.9742 42.3ZM10.5742 37.4L12.2237 36.2689L12.2237 36.2689L10.5742 37.4ZM9.97422 14L11.6892 15.029L11.6892 15.029L9.97422 14ZM14.7742 9.19999L13.7699 7.47042L13.7575 7.47762L13.7452 7.48501L14.7742 9.19999ZM52.0742 14L50.3592 15.029L50.3592 15.029L52.0742 14ZM52.4742 26.6L51.1133 25.1344L51.0862 25.1596L51.06 25.1858L52.4742 26.6ZM43.2742 26.6L41.86 28.0142L41.8862 28.0404L41.9133 28.0656L43.2742 26.6ZM20.4742 19.7L19.2248 18.1383L19.1383 18.2075L19.06 18.2858L20.4742 19.7ZM21.0742 31.2L21.7739 29.3264L21.7121 29.3033L21.6489 29.2843L21.0742 31.2ZM45.1742 40.2L44.4745 42.0736L44.4865 42.0781L44.4985 42.0824L45.1742 40.2ZM51.4742 45.1L53.1237 43.9689L53.1237 43.9689L51.4742 45.1ZM51.8742 61.8C51.8742 63.8485 51.3671 65.6912 50.3592 67.371L53.7892 69.429C55.1813 67.1088 55.8742 64.5515 55.8742 61.8H51.8742ZM50.3592 67.371C49.3281 69.0895 47.9637 70.4539 46.2452 71.485L48.3032 74.915C50.5847 73.5461 52.4203 71.7105 53.7892 69.429L50.3592 67.371ZM46.2452 71.485C44.5654 72.4929 42.7228 73 40.6742 73V77C43.4257 77 45.9831 76.3071 48.3032 74.915L46.2452 71.485ZM40.6742 73H21.4742V77H40.6742V73ZM21.4742 73C19.4254 73 17.5387 72.4925 15.7785 71.4704L13.7699 74.9296C16.143 76.3075 18.7231 77 21.4742 77V73ZM15.8032 71.485C14.0847 70.4539 12.7203 69.0895 11.6892 67.371L8.25923 69.429C9.62813 71.7105 11.4637 73.5461 13.7452 74.915L15.8032 71.485ZM11.6892 67.371C10.6813 65.6912 10.1742 63.8485 10.1742 61.8H6.17422C6.17422 64.5515 6.86714 67.1088 8.25923 69.429L11.6892 67.371ZM10.1742 61.8V58.8H6.17422V61.8H10.1742ZM10.1742 58.8C10.1742 58.0439 10.4106 57.492 10.8884 57.0142L8.06001 54.1858C6.80447 55.4413 6.17422 57.0227 6.17422 58.8H10.1742ZM10.8884 57.0142C11.4643 56.4384 12.0624 56.2 12.7742 56.2V52.2C10.9528 52.2 9.35082 52.895 8.06001 54.1858L10.8884 57.0142ZM12.7742 56.2H15.5742V52.2H12.7742V56.2ZM15.5742 56.2C16.1809 56.2 16.6943 56.407 17.2086 56.9609L20.1398 54.2391C18.9208 52.9263 17.3676 52.2 15.5742 52.2V56.2ZM17.3133 57.0656C17.8417 57.5562 18.0742 58.093 18.0742 58.8H22.0742C22.0742 56.9737 21.3734 55.3771 20.0351 54.1344L17.3133 57.0656ZM18.0742 58.8V61.8H22.0742V58.8H18.0742ZM18.0742 61.8C18.0742 62.7018 18.4429 63.4624 18.9125 64.0494L22.036 61.5506C22.0029 61.5093 22.0126 61.5108 22.0312 61.5572C22.0517 61.6084 22.0742 61.6932 22.0742 61.8H18.0742ZM19.2248 64.3617C19.8118 64.8313 20.5724 65.2 21.4742 65.2V61.2C21.581 61.2 21.6658 61.2226 21.717 61.243C21.7634 61.2616 21.7649 61.2713 21.7236 61.2383L19.2248 64.3617ZM21.4742 65.2H40.6742V61.2H21.4742V65.2ZM40.6742 65.2C41.6094 65.2 42.4004 64.8023 42.9884 64.2142L40.16 61.3858C40.1748 61.371 40.2319 61.3191 40.3369 61.2724C40.4467 61.2236 40.5655 61.2 40.6742 61.2V65.2ZM43.136 64.0494C43.6055 63.4624 43.9742 62.7018 43.9742 61.8H39.9742C39.9742 61.6932 39.9968 61.6085 40.0173 61.5572C40.0358 61.5108 40.0455 61.5093 40.0125 61.5506L43.136 64.0494ZM43.9742 61.8V52.7H39.9742V61.8H43.9742ZM43.9742 52.7C43.9742 52.0329 43.8205 51.2939 43.3517 50.6375C42.8759 49.9714 42.2136 49.5838 41.5489 49.3843L40.3995 53.2157C40.4015 53.2162 40.2393 53.162 40.0968 52.9625C39.9613 52.7728 39.9742 52.6338 39.9742 52.7H43.9742ZM41.6765 49.4273L17.6765 40.4273L16.272 44.1727L40.272 53.1727L41.6765 49.4273ZM17.6349 40.4123C15.3706 39.6198 13.5834 38.2518 12.2237 36.2689L8.92476 38.5311C10.7651 41.2149 13.2446 43.1136 16.3135 44.1877L17.6349 40.4123ZM12.2237 36.2689C10.8495 34.2649 10.1742 32.0918 10.1742 29.7H6.17422C6.17422 32.9082 7.09897 35.8684 8.92476 38.5311L12.2237 36.2689ZM10.1742 29.7V20.7H6.17422V29.7H10.1742ZM10.1742 20.7C10.1742 18.5741 10.6866 16.7 11.6892 15.029L8.25923 12.971C6.86186 15.3 6.17422 17.8926 6.17422 20.7H10.1742ZM11.6892 15.029C12.7203 13.3105 14.0847 11.9461 15.8032 10.915L13.7452 7.48501C11.4637 8.85391 9.62813 10.6895 8.25923 12.971L11.6892 15.029ZM15.7785 10.9296C17.5387 9.90749 19.4254 9.39999 21.4742 9.39999V5.39999C18.7231 5.39999 16.143 6.09249 13.7699 7.47042L15.7785 10.9296ZM21.4742 9.39999H40.6742V5.39999H21.4742V9.39999ZM40.6742 9.39999C42.7228 9.39999 44.5654 9.90707 46.2452 10.915L48.3032 7.48501C45.9831 6.09292 43.4257 5.39999 40.6742 5.39999V9.39999ZM46.2452 10.915C47.9637 11.9461 49.3281 13.3105 50.3592 15.029L53.7892 12.971C52.4203 10.6895 50.5847 8.85391 48.3032 7.48501L46.2452 10.915ZM50.3592 15.029C51.3619 16.7 51.8742 18.5741 51.8742 20.7H55.8742C55.8742 17.8926 55.1866 15.3 53.7892 12.971L50.3592 15.029ZM51.8742 20.7V23.4H55.8742V20.7H51.8742ZM51.8742 23.4C51.8742 24.107 51.6417 24.6438 51.1133 25.1344L53.8351 28.0656C55.1734 26.8229 55.8742 25.2263 55.8742 23.4H51.8742ZM51.06 25.1858C50.5822 25.6636 50.0303 25.9 49.2742 25.9V29.9C51.0515 29.9 52.6329 29.2697 53.8884 28.0142L51.06 25.1858ZM49.2742 25.9H46.5742V29.9H49.2742V25.9ZM46.5742 25.9C45.8155 25.9 45.2008 25.6597 44.6351 25.1344L41.9133 28.0656C43.2143 29.2736 44.7996 29.9 46.5742 29.9V25.9ZM44.6884 25.1858C44.2106 24.708 43.9742 24.1561 43.9742 23.4H39.9742C39.9742 25.1773 40.6045 26.7587 41.86 28.0142L44.6884 25.1858ZM43.9742 23.4V20.7H39.9742V23.4H43.9742ZM43.9742 20.7C43.9742 19.9603 43.8055 19.033 43.1148 18.2891C42.3981 17.5173 41.4554 17.3 40.6742 17.3V21.3C40.7597 21.3 40.467 21.3161 40.1836 21.0109C39.9262 20.7337 39.9742 20.5063 39.9742 20.7H43.9742ZM40.6742 17.3H21.4742V21.3H40.6742V17.3ZM21.4742 17.3C20.5724 17.3 19.8118 17.6687 19.2248 18.1383L21.7236 21.2617C21.7649 21.2287 21.7634 21.2384 21.717 21.2569C21.6658 21.2774 21.581 21.3 21.4742 21.3V17.3ZM19.06 18.2858C18.3937 18.952 18.0742 19.8053 18.0742 20.7H22.0742C22.0742 20.7254 22.0692 20.7977 22.0312 20.8928C21.9922 20.9902 21.9368 21.0659 21.8884 21.1142L19.06 18.2858ZM18.0742 20.7V29.7H22.0742V20.7H18.0742ZM18.0742 29.7C18.0742 30.3666 18.2127 31.1133 18.6601 31.7844C19.125 32.4817 19.7946 32.9042 20.4995 33.1157L21.6489 29.2843C21.6583 29.2872 21.7113 29.3046 21.7836 29.3553C21.8592 29.4082 21.9315 29.4803 21.9883 29.5656C22.1024 29.7367 22.0742 29.8334 22.0742 29.7H18.0742ZM20.3745 33.0736L44.4745 42.0736L45.8739 38.3264L21.7739 29.3264L20.3745 33.0736ZM44.4985 42.0824C46.6929 42.8701 48.4562 44.2353 49.8248 46.2311L53.1237 43.9689C51.2922 41.2981 48.8555 39.3965 45.8499 38.3176L44.4985 42.0824ZM49.8248 46.2311C51.2049 48.2438 51.8742 50.3852 51.8742 52.7H55.8742C55.8742 49.5481 54.9435 46.6229 53.1237 43.9689L49.8248 46.2311ZM51.8742 52.7V61.8H55.8742V52.7H51.8742ZM96.8805 71.8L98.2947 73.2142L98.2947 73.2142L96.8805 71.8ZM76.2805 75.4L75.0311 73.8383L74.9446 73.9075L74.8663 73.9858L76.2805 75.4ZM74.5805 89.6L73.1663 88.1858L73.1401 88.212L73.1149 88.2391L74.5805 89.6ZM65.2805 89.6L63.8663 91.0142L63.8663 91.0142L65.2805 89.6ZM65.4805 28.8L63.7772 27.7518L63.7713 27.7614L63.7655 27.771L65.4805 28.8ZM69.5805 24.7L68.5515 22.985L68.5515 22.985L69.5805 24.7ZM94.6805 24.7L93.6515 26.415L93.6515 26.415L94.6805 24.7ZM98.6805 28.8L96.9481 29.7994L96.9567 29.8143L96.9655 29.829L98.6805 28.8ZM87.8805 35.5L86.4663 36.9142L86.5446 36.9925L86.6311 37.0617L87.8805 35.5ZM76.2805 35.5L75.0311 33.9383L74.9446 34.0075L74.8663 34.0858L76.2805 35.5ZM76.2805 62.8L74.8663 64.2142L74.9446 64.2925L75.0311 64.3617L76.2805 62.8ZM87.8805 62.8L86.6311 61.2383L86.5446 61.3075L86.4663 61.3858L87.8805 62.8ZM98.1805 63.8C98.1805 66.4071 97.2882 68.5638 95.4663 70.3858L98.2947 73.2142C100.873 70.6362 102.18 67.4595 102.18 63.8H98.1805ZM95.4663 70.3858C93.7149 72.1372 91.6265 73 89.0805 73V77C92.6678 77 95.7794 75.7295 98.2947 73.2142L95.4663 70.3858ZM89.0805 73H77.2805V77H89.0805V73ZM77.2805 73C76.3786 73 75.618 73.3687 75.0311 73.8383L77.5299 76.9617C77.5712 76.9287 77.5697 76.9384 77.5233 76.957C77.472 76.9774 77.3873 77 77.2805 77V73ZM74.8663 73.9858C74.2782 74.5738 73.8805 75.3648 73.8805 76.3H77.8805C77.8805 76.4087 77.8569 76.5275 77.8081 76.6373C77.7614 76.7423 77.7094 76.7995 77.6947 76.8142L74.8663 73.9858ZM73.8805 76.3V86.4H77.8805V76.3H73.8805ZM73.8805 86.4C73.8805 87.1561 73.6441 87.708 73.1663 88.1858L75.9947 91.0142C77.2502 89.7587 77.8805 88.1773 77.8805 86.4H73.8805ZM73.1149 88.2391C72.6243 88.7675 72.0875 89 71.3805 89V93C73.2068 93 74.8033 92.2992 76.0461 90.9609L73.1149 88.2391ZM71.3805 89H68.5805V93H71.3805V89ZM68.5805 89C67.8686 89 67.2705 88.7616 66.6947 88.1858L63.8663 91.0142C65.1571 92.305 66.759 93 68.5805 93V89ZM66.6947 88.1858C66.2169 87.708 65.9805 87.1561 65.9805 86.4H61.9805C61.9805 88.1773 62.6107 89.7587 63.8663 91.0142L66.6947 88.1858ZM65.9805 86.4V34.4H61.9805V86.4H65.9805ZM65.9805 34.4C65.9805 32.672 66.3939 31.165 67.1955 29.829L63.7655 27.771C62.5671 29.7684 61.9805 31.9947 61.9805 34.4H65.9805ZM67.1838 29.8482C68.0906 28.3747 69.2308 27.2422 70.6095 26.415L68.5515 22.985C66.5968 24.1578 65.0037 25.7586 63.7772 27.7518L67.1838 29.8482ZM70.6095 26.415C71.9454 25.6134 73.4524 25.2 75.1805 25.2V21.2C72.7752 21.2 70.5488 21.7866 68.5515 22.985L70.6095 26.415ZM75.1805 25.2H89.0805V21.2H75.1805V25.2ZM89.0805 25.2C90.8085 25.2 92.3155 25.6134 93.6515 26.415L95.7095 22.985C93.7121 21.7866 91.4858 21.2 89.0805 21.2V25.2ZM93.6515 26.415C95.0178 27.2348 96.1127 28.3514 96.9481 29.7994L100.413 27.8006C99.2482 25.7819 97.6764 24.1652 95.7095 22.985L93.6515 26.415ZM96.9655 29.829C97.7671 31.165 98.1805 32.6719 98.1805 34.4H102.18C102.18 31.9947 101.594 29.7684 100.395 27.771L96.9655 29.829ZM98.1805 34.4V63.8H102.18V34.4H98.1805ZM90.3805 61.9V36.5H86.3805V61.9H90.3805ZM90.3805 36.5C90.3805 35.447 89.901 34.5551 89.1299 33.9383L86.6311 37.0617C86.6046 37.0405 86.5303 36.9717 86.4666 36.8444C86.401 36.7133 86.3805 36.5872 86.3805 36.5H90.3805ZM89.2947 34.0858C88.7066 33.4977 87.9156 33.1 86.9805 33.1V37.1C86.8717 37.1 86.7529 37.0764 86.6432 37.0276C86.5381 36.9809 86.481 36.929 86.4663 36.9142L89.2947 34.0858ZM86.9805 33.1H77.2805V37.1H86.9805V33.1ZM77.2805 33.1C76.3786 33.1 75.618 33.4687 75.0311 33.9383L77.5299 37.0617C77.5712 37.0287 77.5697 37.0384 77.5233 37.057C77.472 37.0774 77.3873 37.1 77.2805 37.1V33.1ZM74.8663 34.0858C74.2 34.752 73.8805 35.6053 73.8805 36.5H77.8805C77.8805 36.5254 77.8755 36.5977 77.8374 36.6928C77.7985 36.7902 77.743 36.8659 77.6947 36.9142L74.8663 34.0858ZM73.8805 36.5V61.9H77.8805V36.5H73.8805ZM73.8805 61.9C73.8805 62.8352 74.2782 63.6262 74.8663 64.2142L77.6947 61.3858C77.7094 61.4005 77.7614 61.4577 77.8081 61.5627C77.8569 61.6725 77.8805 61.7913 77.8805 61.9H73.8805ZM75.0311 64.3617C75.618 64.8313 76.3786 65.2 77.2805 65.2V61.2C77.3873 61.2 77.472 61.2226 77.5233 61.243C77.5697 61.2616 77.5712 61.2713 77.5299 61.2383L75.0311 64.3617ZM77.2805 65.2H86.9805V61.2H77.2805V65.2ZM86.9805 65.2C87.9156 65.2 88.7066 64.8023 89.2947 64.2142L86.4663 61.3858C86.481 61.371 86.5381 61.3191 86.6432 61.2724C86.7529 61.2236 86.8717 61.2 86.9805 61.2V65.2ZM89.1299 64.3617C89.7928 63.8313 90.3805 63.0048 90.3805 61.9H86.3805C86.3805 61.7165 86.4305 61.5417 86.5072 61.4037C86.5769 61.2782 86.6425 61.2291 86.6311 61.2383L89.1299 64.3617ZM123.116 19.2L121.702 17.7858L121.702 17.7858L123.116 19.2ZM112.516 19.2L111.071 20.5824L111.102 20.6146L111.134 20.6453L112.516 19.2ZM112.516 8.6L111.102 7.18578L111.102 7.18578L112.516 8.6ZM123.116 8.6L121.671 9.98244L121.702 10.0146L121.734 10.0453L123.116 8.6ZM122.416 73.7L123.831 75.1142L123.831 75.1142L122.416 73.7ZM113.216 73.7L111.751 75.0609L111.801 75.1152L111.856 75.1656L113.216 73.7ZM113.216 25.7L111.802 24.2858L111.802 24.2858L113.216 25.7ZM122.416 25.7L120.951 27.0609L121.001 27.1152L121.056 27.1656L122.416 25.7ZM123.416 13.8C123.416 15.3078 122.881 16.607 121.702 17.7858L124.531 20.6142C126.418 18.7264 127.416 16.4255 127.416 13.8H123.416ZM121.702 17.7858C120.595 18.8929 119.364 19.4 117.916 19.4V23.4C120.468 23.4 122.704 22.4404 124.531 20.6142L121.702 17.7858ZM117.916 19.4C116.38 19.4 115.071 18.8759 113.899 17.7547L111.134 20.6453C113.028 22.4574 115.32 23.4 117.916 23.4V19.4ZM113.962 17.8176C112.84 16.6454 112.316 15.3365 112.316 13.8H108.316C108.316 16.3968 109.259 18.688 111.071 20.5824L113.962 17.8176ZM112.316 13.8C112.316 12.352 112.823 11.1213 113.931 10.0142L111.102 7.18578C109.276 9.01199 108.316 11.248 108.316 13.8H112.316ZM113.931 10.0142C115.109 8.83539 116.409 8.3 117.916 8.3V4.3C115.291 4.3 112.99 5.29794 111.102 7.18578L113.931 10.0142ZM117.916 8.3C119.334 8.3 120.556 8.8167 121.671 9.98244L124.562 7.21755C122.743 5.31662 120.498 4.3 117.916 4.3V8.3ZM121.734 10.0453C122.9 11.1603 123.416 12.3819 123.416 13.8H127.416C127.416 11.2181 126.4 8.97299 124.499 7.15471L121.734 10.0453ZM121.816 70.4C121.816 71.1119 121.578 71.7099 121.002 72.2858L123.831 75.1142C125.121 73.8234 125.816 72.2215 125.816 70.4H121.816ZM121.002 72.2858C120.524 72.7636 119.972 73 119.216 73V77C120.994 77 122.575 76.3698 123.831 75.1142L121.002 72.2858ZM119.216 73H116.516V77H119.216V73ZM116.516 73C115.758 73 115.143 72.7597 114.577 72.2344L111.856 75.1656C113.156 76.3736 114.742 77 116.516 77V73ZM114.682 72.3391C114.157 71.7734 113.916 71.1587 113.916 70.4H109.916C109.916 72.1746 110.543 73.7599 111.751 75.0609L114.682 72.3391ZM113.916 70.4V28.9H109.916V70.4H113.916ZM113.916 28.9C113.916 28.1439 114.153 27.592 114.631 27.1142L111.802 24.2858C110.547 25.5413 109.916 27.1227 109.916 28.9H113.916ZM114.631 27.1142C115.206 26.5384 115.805 26.3 116.516 26.3V22.3C114.695 22.3 113.093 22.995 111.802 24.2858L114.631 27.1142ZM116.516 26.3H119.216V22.3H116.516V26.3ZM119.216 26.3C119.923 26.3 120.46 26.5325 120.951 27.0609L123.882 24.3391C122.639 23.0008 121.043 22.3 119.216 22.3V26.3ZM121.056 27.1656C121.584 27.6562 121.816 28.193 121.816 28.9H125.816C125.816 27.0737 125.116 25.4771 123.777 24.2344L121.056 27.1656ZM121.816 28.9V70.4H125.816V28.9H121.816ZM168.361 71.8L169.775 73.2142L169.775 73.2142L168.361 71.8ZM138.761 71.8L137.347 73.2142L137.358 73.2251L137.369 73.2358L138.761 71.8ZM136.961 28.8L135.258 27.7518L135.252 27.7614L135.246 27.771L136.961 28.8ZM141.061 24.7L140.032 22.985L140.032 22.985L141.061 24.7ZM161.161 8.7L162.575 10.1142L162.575 10.1142L161.161 8.7ZM170.361 8.7L171.775 7.28578L171.775 7.28578L170.361 8.7ZM147.761 35.5L146.512 33.9383L146.425 34.0075L146.347 34.0858L147.761 35.5ZM147.761 62.8L146.347 64.2142L146.425 64.2925L146.512 64.3617L147.761 62.8ZM169.661 63.8C169.661 66.4071 168.769 68.5638 166.947 70.3858L169.775 73.2142C172.353 70.6362 173.661 67.4595 173.661 63.8H169.661ZM166.947 70.3858C165.195 72.1372 163.107 73 160.561 73V77C164.148 77 167.26 75.7295 169.775 73.2142L166.947 70.3858ZM160.561 73H146.661V77H160.561V73ZM146.661 73C144.114 73 141.98 72.1354 140.153 70.3642L137.369 73.2358C139.942 75.7313 143.075 77 146.661 77V73ZM140.175 70.3858C138.353 68.5638 137.461 66.4071 137.461 63.8H133.461C133.461 67.4595 134.769 70.6362 137.347 73.2142L140.175 70.3858ZM137.461 63.8V34.4H133.461V63.8H137.461ZM137.461 34.4C137.461 32.672 137.874 31.165 138.676 29.829L135.246 27.771C134.048 29.7684 133.461 31.9947 133.461 34.4H137.461ZM138.664 29.8482C139.571 28.3747 140.711 27.2422 142.09 26.415L140.032 22.985C138.077 24.1578 136.484 25.7586 135.258 27.7518L138.664 29.8482ZM142.09 26.415C143.426 25.6134 144.933 25.2 146.661 25.2V21.2C144.256 21.2 142.029 21.7866 140.032 22.985L142.09 26.415ZM146.661 25.2H158.461V21.2H146.661V25.2ZM158.461 25.2C159.167 25.2 160.07 25.0553 160.813 24.4185C161.614 23.7312 161.861 22.7957 161.861 22H157.861C157.861 22.0101 157.859 21.9298 157.909 21.8001C157.965 21.6584 158.064 21.506 158.209 21.3815C158.486 21.1447 158.688 21.2 158.461 21.2V25.2ZM161.861 22V12H157.861V22H161.861ZM161.861 12C161.861 11.1457 162.118 10.571 162.575 10.1142L159.747 7.28578C158.47 8.56234 157.861 10.1876 157.861 12H161.861ZM162.575 10.1142C163.053 9.63641 163.605 9.39999 164.361 9.39999V5.39999C162.584 5.39999 161.002 6.03024 159.747 7.28578L162.575 10.1142ZM164.361 9.39999H167.161V5.39999H164.361V9.39999ZM167.161 9.39999C167.917 9.39999 168.469 9.63641 168.947 10.1142L171.775 7.28578C170.52 6.03024 168.938 5.39999 167.161 5.39999V9.39999ZM168.947 10.1142C169.403 10.571 169.661 11.1457 169.661 12H173.661C173.661 10.1876 173.052 8.56234 171.775 7.28578L168.947 10.1142ZM169.661 12V63.8H173.661V12H169.661ZM161.861 61.9V36.5H157.861V61.9H161.861ZM161.861 36.5C161.861 35.725 161.666 34.7765 160.925 34.0358C160.184 33.2951 159.236 33.1 158.461 33.1V37.1C158.619 37.1 158.371 37.1382 158.097 36.8642C157.823 36.5902 157.861 36.3416 157.861 36.5H161.861ZM158.461 33.1H148.761V37.1H158.461V33.1ZM148.761 33.1C147.859 33.1 147.098 33.4687 146.512 33.9383L149.01 37.0617C149.052 37.0287 149.05 37.0384 149.004 37.057C148.952 37.0774 148.868 37.1 148.761 37.1V33.1ZM146.347 34.0858C145.68 34.752 145.361 35.6053 145.361 36.5H149.361C149.361 36.5254 149.356 36.5977 149.318 36.6928C149.279 36.7902 149.223 36.8659 149.175 36.9142L146.347 34.0858ZM145.361 36.5V61.9H149.361V36.5H145.361ZM145.361 61.9C145.361 62.8352 145.759 63.6262 146.347 64.2142L149.175 61.3858C149.19 61.4005 149.242 61.4577 149.289 61.5627C149.337 61.6725 149.361 61.7913 149.361 61.9H145.361ZM146.512 64.3617C147.098 64.8313 147.859 65.2 148.761 65.2V61.2C148.868 61.2 148.952 61.2226 149.004 61.243C149.05 61.2616 149.052 61.2713 149.01 61.2383L146.512 64.3617ZM148.761 65.2H158.461V61.2H148.761V65.2ZM158.461 65.2C159.201 65.2 160.128 65.0313 160.872 64.3406C161.644 63.6239 161.861 62.6812 161.861 61.9H157.861C157.861 61.9855 157.845 61.6928 158.15 61.4094C158.427 61.152 158.655 61.2 158.461 61.2V65.2ZM216.497 50.9L218.212 51.929L218.221 51.9143L218.229 51.8994L216.497 50.9ZM212.497 55L213.526 56.715L213.551 56.7001L213.575 56.6845L212.497 55ZM194.097 56.9L195.297 58.5L195.322 58.4813L195.346 58.4617L194.097 56.9ZM194.097 62.8L192.683 64.2142L192.761 64.2925L192.847 64.3617L194.097 62.8ZM210.097 64.5L208.683 65.9142L208.709 65.9404L208.736 65.9656L210.097 64.5ZM210.097 73.7L211.511 75.1142L211.511 75.1142L210.097 73.7ZM185.097 71.8L183.683 73.2142L183.694 73.2251L183.705 73.2358L185.097 71.8ZM183.297 28.8L181.612 27.7219L181.597 27.7462L181.582 27.771L183.297 28.8ZM187.397 24.8L188.426 26.515L188.451 26.5001L188.475 26.4845L187.397 24.8ZM212.497 24.8L211.419 26.4845L211.443 26.5001L211.468 26.515L212.497 24.8ZM216.497 28.8L218.212 27.771L218.212 27.771L216.497 28.8ZM205.697 35.5L204.283 36.9142L204.361 36.9925L204.447 37.0617L205.697 35.5ZM194.097 35.5L192.847 33.9383L192.761 34.0075L192.683 34.0858L194.097 35.5ZM194.097 44.1L192.683 45.5142L192.761 45.5925L192.847 45.6617L194.097 44.1ZM205.697 44.1L204.447 42.5383L204.361 42.6075L204.283 42.6858L205.697 44.1ZM215.997 45.3C215.997 46.9489 215.589 48.4709 214.765 49.9006L218.229 51.8994C219.404 49.8624 219.997 47.6511 219.997 45.3H215.997ZM214.782 49.871C213.944 51.268 212.83 52.4121 211.419 53.3155L213.575 56.6845C215.497 55.4546 217.05 53.8653 218.212 51.929L214.782 49.871ZM211.468 53.285C210.132 54.0866 208.625 54.5 206.897 54.5V58.5C209.302 58.5 211.529 57.9134 213.526 56.715L211.468 53.285ZM206.897 54.5H195.097V58.5H206.897V54.5ZM195.097 54.5C194.195 54.5 193.434 54.8687 192.847 55.3383L195.346 58.4617C195.388 58.4287 195.386 58.4384 195.34 58.457C195.288 58.4774 195.204 58.5 195.097 58.5V54.5ZM192.897 55.3C192.127 55.8777 191.697 56.7372 191.697 57.7H195.697C195.697 57.8068 195.674 57.9687 195.586 58.1444C195.498 58.3201 195.382 58.4359 195.297 58.5L192.897 55.3ZM191.697 57.7V61.9H195.697V57.7H191.697ZM191.697 61.9C191.697 62.8352 192.095 63.6262 192.683 64.2142L195.511 61.3858C195.526 61.4005 195.578 61.4577 195.624 61.5627C195.673 61.6725 195.697 61.7913 195.697 61.9H191.697ZM192.847 64.3617C193.434 64.8313 194.195 65.2 195.097 65.2V61.2C195.204 61.2 195.288 61.2226 195.34 61.243C195.386 61.2616 195.388 61.2713 195.346 61.2383L192.847 64.3617ZM195.097 65.2H206.897V61.2H195.097V65.2ZM206.897 65.2C207.653 65.2 208.205 65.4364 208.683 65.9142L211.511 63.0858C210.256 61.8302 208.674 61.2 206.897 61.2V65.2ZM208.736 65.9656C209.241 66.4343 209.497 66.9934 209.497 67.8H213.497C213.497 65.9399 212.82 64.299 211.458 63.0344L208.736 65.9656ZM209.497 67.8V70.4H213.497V67.8H209.497ZM209.497 70.4C209.497 71.1119 209.259 71.7099 208.683 72.2858L211.511 75.1142C212.802 73.8234 213.497 72.2215 213.497 70.4H209.497ZM208.683 72.2858C208.205 72.7636 207.653 73 206.897 73V77C208.674 77 210.256 76.3698 211.511 75.1142L208.683 72.2858ZM206.897 73H192.997V77H206.897V73ZM192.997 73C190.45 73 188.316 72.1354 186.489 70.3642L183.705 73.2358C186.278 75.7313 189.411 77 192.997 77V73ZM186.511 70.3858C184.689 68.5638 183.797 66.4071 183.797 63.8H179.797C179.797 67.4595 181.105 70.6362 183.683 73.2142L186.511 70.3858ZM183.797 63.8V34.4H179.797V63.8H183.797ZM183.797 34.4C183.797 32.672 184.21 31.165 185.012 29.829L181.582 27.771C180.383 29.7684 179.797 31.9947 179.797 34.4H183.797ZM184.981 29.8781C185.885 28.4666 187.029 27.3532 188.426 26.515L186.368 23.085C184.432 24.2468 182.842 25.8 181.612 27.7219L184.981 29.8781ZM188.475 26.4845C189.805 25.6333 191.294 25.2 192.997 25.2V21.2C190.566 21.2 188.322 21.8334 186.319 23.1155L188.475 26.4845ZM192.997 25.2H206.897V21.2H192.997V25.2ZM206.897 25.2C208.599 25.2 210.089 25.6333 211.419 26.4845L213.575 23.1155C211.572 21.8334 209.328 21.2 206.897 21.2V25.2ZM211.468 26.515C212.853 27.3461 213.951 28.4438 214.782 29.829L218.212 27.771C217.043 25.8228 215.474 24.2539 213.526 23.085L211.468 26.515ZM214.782 29.829C215.583 31.165 215.997 32.6719 215.997 34.4H219.997C219.997 31.9947 219.41 29.7684 218.212 27.771L214.782 29.829ZM215.997 34.4V45.3H219.997V34.4H215.997ZM208.197 43.3V36.5H204.197V43.3H208.197ZM208.197 36.5C208.197 35.447 207.717 34.5551 206.946 33.9383L204.447 37.0617C204.421 37.0405 204.347 36.9717 204.283 36.8444C204.217 36.7133 204.197 36.5872 204.197 36.5H208.197ZM207.111 34.0858C206.523 33.4977 205.732 33.1 204.797 33.1V37.1C204.688 37.1 204.569 37.0764 204.46 37.0276C204.355 36.9809 204.297 36.929 204.283 36.9142L207.111 34.0858ZM204.797 33.1H195.097V37.1H204.797V33.1ZM195.097 33.1C194.195 33.1 193.434 33.4687 192.847 33.9383L195.346 37.0617C195.388 37.0287 195.386 37.0384 195.34 37.057C195.288 37.0774 195.204 37.1 195.097 37.1V33.1ZM192.683 34.0858C192.016 34.752 191.697 35.6053 191.697 36.5H195.697C195.697 36.5254 195.692 36.5977 195.654 36.6928C195.615 36.7902 195.559 36.8659 195.511 36.9142L192.683 34.0858ZM191.697 36.5V43.3H195.697V36.5H191.697ZM191.697 43.3C191.697 44.2842 192.198 45.0296 192.683 45.5142L195.511 42.6858C195.462 42.6371 195.697 42.8491 195.697 43.3H191.697ZM192.847 45.6617C193.434 46.1313 194.195 46.5 195.097 46.5V42.5C195.204 42.5 195.288 42.5226 195.34 42.543C195.386 42.5616 195.388 42.5713 195.346 42.5383L192.847 45.6617ZM195.097 46.5H204.797V42.5H195.097V46.5ZM204.797 46.5C205.732 46.5 206.523 46.1023 207.111 45.5142L204.283 42.6858C204.297 42.671 204.355 42.6191 204.46 42.5724C204.569 42.5236 204.688 42.5 204.797 42.5V46.5ZM206.946 45.6617C207.47 45.243 208.197 44.4631 208.197 43.3H204.197C204.197 42.9958 204.297 42.7668 204.376 42.64C204.446 42.5274 204.497 42.4989 204.447 42.5383L206.946 45.6617ZM256.533 33.8L255.119 32.3858L255.119 32.3858L256.533 33.8ZM238.733 73.7L240.147 75.1142L240.147 75.1142L238.733 73.7ZM229.533 73.7L228.067 75.0609L228.092 75.088L228.119 75.1142L229.533 73.7ZM229.733 28.8L231.448 29.829L231.457 29.8143L231.465 29.7994L229.733 28.8ZM233.733 24.7L232.704 22.985L232.704 22.985L233.733 24.7ZM256.533 24.6L255.067 25.9609L255.092 25.988L255.119 26.0142L256.533 24.6ZM255.833 30.6C255.833 31.3561 255.596 31.908 255.119 32.3858L257.947 35.2142C259.203 33.9587 259.833 32.3773 259.833 30.6H255.833ZM255.119 32.3858C254.641 32.8636 254.089 33.1 253.333 33.1V37.1C255.11 37.1 256.691 36.4697 257.947 35.2142L255.119 32.3858ZM253.333 33.1H241.433V37.1H253.333V33.1ZM241.433 33.1C240.652 33.1 239.709 33.3173 238.992 34.0891C238.301 34.833 238.133 35.7603 238.133 36.5H242.133C242.133 36.3063 242.181 36.5337 241.923 36.8109C241.64 37.1161 241.347 37.1 241.433 37.1V33.1ZM238.133 36.5V70.4H242.133V36.5H238.133ZM238.133 70.4C238.133 71.1119 237.894 71.7099 237.319 72.2858L240.147 75.1142C241.438 73.8234 242.133 72.2215 242.133 70.4H238.133ZM237.319 72.2858C236.841 72.7636 236.289 73 235.533 73V77C237.31 77 238.891 76.3698 240.147 75.1142L237.319 72.2858ZM235.533 73H232.733V77H235.533V73ZM232.733 73C231.977 73 231.425 72.7636 230.947 72.2858L228.119 75.1142C229.374 76.3698 230.956 77 232.733 77V73ZM230.998 72.3391C230.473 71.7734 230.233 71.1587 230.233 70.4H226.233C226.233 72.1746 226.859 73.7599 228.067 75.0609L230.998 72.3391ZM230.233 70.4V34.4H226.233V70.4H230.233ZM230.233 34.4C230.233 32.672 230.646 31.165 231.448 29.829L228.018 27.771C226.819 29.7684 226.233 31.9947 226.233 34.4H230.233ZM231.465 29.7994C232.301 28.3514 233.395 27.2348 234.762 26.415L232.704 22.985C230.737 24.1652 229.165 25.7819 228 27.8006L231.465 29.7994ZM234.762 26.415C236.098 25.6134 237.605 25.2 239.333 25.2V21.2C236.928 21.2 234.701 21.7866 232.704 22.985L234.762 26.415ZM239.333 25.2H253.333V21.2H239.333V25.2ZM253.333 25.2C254.04 25.2 254.577 25.4325 255.067 25.9609L257.998 23.2391C256.756 21.9008 255.159 21.2 253.333 21.2V25.2ZM255.119 26.0142C255.575 26.471 255.833 27.0457 255.833 27.9H259.833C259.833 26.0876 259.224 24.4623 257.947 23.1858L255.119 26.0142ZM255.833 27.9V30.6H259.833V27.9H255.833Z" fill="#673DE6" mask="url(#path-1-outside-1_1419_358)"/>
<path d="M197.01 86.895C197.01 87.3383 196.858 87.7233 196.555 88.05C196.252 88.3533 195.867 88.505 195.4 88.505H191.725C191.422 88.505 191.27 88.6567 191.27 88.96V106.39C191.27 106.833 191.107 107.218 190.78 107.545C190.477 107.848 190.103 108 189.66 108H188.75C188.307 108 187.922 107.848 187.595 107.545C187.292 107.218 187.14 106.833 187.14 106.39V88.96C187.14 88.6567 186.988 88.505 186.685 88.505H182.975C182.532 88.505 182.147 88.3533 181.82 88.05C181.517 87.7233 181.365 87.3383 181.365 86.895V85.95C181.365 85.4833 181.517 85.0983 181.82 84.795C182.147 84.4917 182.532 84.34 182.975 84.34H195.4C195.867 84.34 196.252 84.4917 196.555 84.795C196.858 85.0983 197.01 85.4833 197.01 85.95V86.895ZM210.75 97.605C210.75 98.305 210.575 98.9583 210.225 99.565C209.875 100.148 209.408 100.627 208.825 101C208.241 101.35 207.588 101.525 206.865 101.525H202.735C202.618 101.525 202.501 101.572 202.385 101.665C202.291 101.735 202.245 101.828 202.245 101.945V103.415C202.245 103.532 202.291 103.637 202.385 103.73C202.501 103.823 202.618 103.87 202.735 103.87H206.865C207.308 103.87 207.681 104.022 207.985 104.325C208.311 104.628 208.475 105.013 208.475 105.48V106.39C208.475 106.833 208.311 107.218 207.985 107.545C207.681 107.848 207.308 108 206.865 108H202C200.926 108 200.005 107.627 199.235 106.88C198.465 106.11 198.08 105.177 198.08 104.08V93.79C198.08 93.0667 198.255 92.4133 198.605 91.83C198.978 91.2467 199.456 90.78 200.04 90.43C200.623 90.0567 201.276 89.87 202 89.87H206.865C207.588 89.87 208.241 90.0567 208.825 90.43C209.408 90.78 209.875 91.2467 210.225 91.83C210.575 92.4133 210.75 93.0667 210.75 93.79V97.605ZM206.62 96.905V94.525C206.62 94.385 206.561 94.2683 206.445 94.175C206.351 94.0817 206.246 94.035 206.13 94.035H202.735C202.618 94.035 202.501 94.0817 202.385 94.175C202.291 94.2683 202.245 94.385 202.245 94.525V96.905C202.245 96.9983 202.291 97.0917 202.385 97.185C202.501 97.2783 202.618 97.325 202.735 97.325H206.13C206.246 97.325 206.351 97.2783 206.445 97.185C206.561 97.0917 206.62 96.9983 206.62 96.905ZM226.267 104.08C226.267 105.177 225.882 106.11 225.112 106.88C224.366 107.627 223.456 108 222.382 108H217.517C216.444 108 215.522 107.627 214.752 106.88C213.982 106.11 213.597 105.177 213.597 104.08V93.79C213.597 93.0667 213.772 92.4133 214.122 91.83C214.496 91.2233 214.974 90.745 215.557 90.395C216.141 90.045 216.794 89.87 217.517 89.87H222.382C223.106 89.87 223.759 90.045 224.342 90.395C224.926 90.745 225.392 91.2233 225.742 91.83C226.092 92.4133 226.267 93.0667 226.267 93.79V95.61C226.267 96.0533 226.116 96.4383 225.812 96.765C225.509 97.0683 225.136 97.22 224.692 97.22H223.712C223.269 97.22 222.896 97.0683 222.592 96.765C222.289 96.4383 222.137 96.0533 222.137 95.61V94.525C222.137 94.385 222.079 94.2683 221.962 94.175C221.869 94.0817 221.764 94.035 221.647 94.035H218.252C218.136 94.035 218.019 94.0817 217.902 94.175C217.809 94.2683 217.762 94.385 217.762 94.525V103.415C217.762 103.532 217.809 103.637 217.902 103.73C218.019 103.823 218.136 103.87 218.252 103.87H221.647C221.764 103.87 221.869 103.823 221.962 103.73C222.079 103.637 222.137 103.532 222.137 103.415V102.33C222.137 101.887 222.289 101.513 222.592 101.21C222.896 100.883 223.269 100.72 223.712 100.72H224.692C225.136 100.72 225.509 100.883 225.812 101.21C226.116 101.513 226.267 101.887 226.267 102.33V104.08ZM241.785 106.39C241.785 106.833 241.633 107.218 241.33 107.545C241.027 107.848 240.653 108 240.21 108H239.23C238.787 108 238.413 107.848 238.11 107.545C237.807 107.218 237.655 106.833 237.655 106.39V94.525C237.655 94.385 237.597 94.2683 237.48 94.175C237.387 94.0817 237.282 94.035 237.165 94.035H233.77C233.653 94.035 233.537 94.0817 233.42 94.175C233.327 94.2683 233.28 94.385 233.28 94.525V106.39C233.28 106.833 233.128 107.218 232.825 107.545C232.522 107.848 232.148 108 231.705 108H230.725C230.282 108 229.897 107.848 229.57 107.545C229.267 107.218 229.115 106.833 229.115 106.39V85.95C229.115 85.4833 229.267 85.0983 229.57 84.795C229.897 84.4917 230.282 84.34 230.725 84.34H231.705C232.148 84.34 232.522 84.4917 232.825 84.795C233.128 85.0983 233.28 85.4833 233.28 85.95V89.45C233.28 89.5667 233.327 89.6717 233.42 89.765C233.537 89.835 233.653 89.87 233.77 89.87H237.9C238.623 89.87 239.277 90.045 239.86 90.395C240.443 90.745 240.91 91.2233 241.26 91.83C241.61 92.4133 241.785 93.0667 241.785 93.79V106.39Z" fill="#673DE6"/>
</svg>
