<svg width="102" height="37" viewBox="0 0 102 37" fill="none" xmlns="http://www.w3.org/2000/svg">
<path d="M3.9914 25.612H12.3794V27.112H8.9354V34.012H7.4354V27.112H3.9914V25.612ZM35.0571 27.1C34.6371 27.1 34.2891 27.448 34.2891 27.868V28.648H39.6891V30.148H34.2891V31.732C34.2891 32.152 34.6371 32.5 35.0571 32.5H41.1891V34H35.0571C33.8091 34 32.8011 32.98 32.8011 31.732V27.868C32.8011 26.62 33.8091 25.6 35.0571 25.6H41.1891V27.1H35.0571ZM65.0105 27.1C63.5225 27.1 62.3105 28.312 62.3105 29.8C62.3105 31.288 63.5225 32.5 65.0105 32.5H69.2105V34H65.0105C62.6945 34 60.8105 32.116 60.8105 29.8C60.8105 27.484 62.6945 25.6 65.0105 25.6H69.2105V27.1H65.0105ZM96.5109 25.6H98.0109V34H96.5109V30.148H91.1109V34H89.6109V25.6H91.1109V28.648H96.5109V25.6Z" fill="#673DE6"/>
<mask id="path-2-outside-1_1336_24" maskUnits="userSpaceOnUse" x="0" y="0" width="63" height="20" fill="black">
<rect fill="white" width="63" height="20"/>
<path d="M17.8425 6.325L14.7175 6.35V6.25C14.7175 5.375 13.9925 4.65 13.1175 4.65H6.01748C5.14248 4.65 4.41748 5.375 4.41748 6.25V6.35C4.41748 7.225 5.14248 7.95 6.01748 7.95H12.3175C13.9425 7.95 15.3925 8.65 16.3925 9.75C16.4675 9.825 16.5175 9.9 16.5925 9.975C17.3675 10.925 17.8425 12.15 17.8425 13.475C17.8425 16.525 15.3675 19 12.3175 19H6.84248C3.79248 19 1.31748 16.525 1.31748 13.475H4.44248C4.44248 14.8 5.51748 15.875 6.84248 15.875H12.3175C13.6425 15.875 14.7425 14.8 14.7425 13.475C14.7425 12.15 13.6425 11.075 12.3175 11.075H6.01748C4.74248 11.075 3.59248 10.575 2.74248 9.75C2.51748 9.525 2.31748 9.275 2.14248 9C1.61748 8.25 1.31748 7.325 1.31748 6.325V6.225C1.31748 3.625 3.41748 1.5 6.01748 1.5H13.1175C15.7175 1.5 17.8425 3.625 17.8425 6.225V6.325ZM34.7104 2.875L34.7355 2.925C35.5854 3.775 36.1105 4.95 36.1105 6.25C36.1105 8.15 34.9855 9.8 33.3605 10.55C32.9354 10.75 32.4854 10.875 32.0104 10.925C31.9605 10.925 31.9104 10.925 31.8605 10.925V10.95H23.4854V19H20.3604V1.5H31.3854C32.6854 1.5 33.8604 2.025 34.7104 2.875ZM32.0605 7.725V7.7C32.6355 7.45 33.0105 6.875 33.0105 6.25C33.0105 5.675 32.7104 5.275 32.5355 5.1C32.3354 4.9 31.9605 4.65 31.4104 4.65H23.4854V7.875H31.4104C31.6355 7.875 31.8605 7.825 32.0605 7.725ZM41.7222 19H38.5972V1.5H41.7222V19ZM44.2124 1.5L52.9374 1.525C57.7624 1.525 61.6874 5.425 61.6874 10.25C61.6874 12.4 60.9124 14.375 59.6124 15.9C59.4624 16.075 59.2874 16.25 59.1124 16.425C57.5374 18.025 55.3624 19 52.9624 19H44.2124V1.5ZM47.3124 4.65V15.9H52.9374C56.0374 15.9 58.5624 13.375 58.5624 10.275C58.5624 7.175 56.0374 4.65 52.9374 4.65H47.3124Z"/>
</mask>
<path d="M17.8425 6.325L17.8505 7.32497L18.8425 7.31703V6.325H17.8425ZM14.7175 6.35H13.7175V7.35803L14.7255 7.34997L14.7175 6.35ZM16.3925 9.75L15.6525 10.4227L15.6685 10.4403L15.6854 10.4571L16.3925 9.75ZM16.5925 9.975L17.3673 9.34287L17.3354 9.30367L17.2996 9.26789L16.5925 9.975ZM1.31748 13.475V12.475H0.317481V13.475H1.31748ZM4.44248 13.475H5.44248V12.475H4.44248V13.475ZM2.74248 9.75L2.03537 10.4571L2.04065 10.4624L2.04601 10.4676L2.74248 9.75ZM2.14248 9L2.98614 8.46312L2.97433 8.44456L2.96171 8.42654L2.14248 9ZM17.8345 5.32503L14.7095 5.35003L14.7255 7.34997L17.8505 7.32497L17.8345 5.32503ZM15.7175 6.35V6.25H13.7175V6.35H15.7175ZM15.7175 6.25C15.7175 4.82271 14.5448 3.65 13.1175 3.65V5.65C13.4402 5.65 13.7175 5.92728 13.7175 6.25H15.7175ZM13.1175 3.65H6.01748V5.65H13.1175V3.65ZM6.01748 3.65C4.5902 3.65 3.41748 4.82271 3.41748 6.25H5.41748C5.41748 5.92728 5.69476 5.65 6.01748 5.65V3.65ZM3.41748 6.25V6.35H5.41748V6.25H3.41748ZM3.41748 6.35C3.41748 7.77728 4.5902 8.95 6.01748 8.95V6.95C5.69477 6.95 5.41748 6.67271 5.41748 6.35H3.41748ZM6.01748 8.95H12.3175V6.95H6.01748V8.95ZM12.3175 8.95C13.6486 8.95 14.8337 9.52196 15.6525 10.4227L17.1324 9.07733C15.9512 7.77803 14.2364 6.95 12.3175 6.95V8.95ZM15.6854 10.4571C15.6844 10.4562 15.6862 10.4578 15.6922 10.4648C15.6994 10.473 15.7075 10.4825 15.7243 10.5027C15.7525 10.5365 15.8112 10.6079 15.8854 10.6821L17.2996 9.26789C17.3005 9.26882 17.2988 9.26715 17.2927 9.26024C17.2855 9.25202 17.2775 9.24246 17.2607 9.22231C17.2325 9.18847 17.1738 9.11712 17.0996 9.0429L15.6854 10.4571ZM15.8176 10.6071C16.4541 11.3874 16.8425 12.3914 16.8425 13.475H18.8425C18.8425 11.9086 18.2808 10.4626 17.3673 9.34287L15.8176 10.6071ZM16.8425 13.475C16.8425 15.9727 14.8152 18 12.3175 18V20C15.9198 20 18.8425 17.0773 18.8425 13.475H16.8425ZM12.3175 18H6.84248V20H12.3175V18ZM6.84248 18C4.34477 18 2.31748 15.9727 2.31748 13.475H0.317481C0.317481 17.0773 3.2402 20 6.84248 20V18ZM1.31748 14.475H4.44248V12.475H1.31748V14.475ZM3.44248 13.475C3.44248 15.3523 4.9652 16.875 6.84248 16.875V14.875C6.06977 14.875 5.44248 14.2477 5.44248 13.475H3.44248ZM6.84248 16.875H12.3175V14.875H6.84248V16.875ZM12.3175 16.875C14.1813 16.875 15.7425 15.3657 15.7425 13.475H13.7425C13.7425 14.2343 13.1037 14.875 12.3175 14.875V16.875ZM15.7425 13.475C15.7425 11.5843 14.1812 10.075 12.3175 10.075V12.075C13.1037 12.075 13.7425 12.7157 13.7425 13.475H15.7425ZM12.3175 10.075H6.01748V12.075H12.3175V10.075ZM6.01748 10.075C5.01101 10.075 4.10853 9.6823 3.43896 9.03242L2.04601 10.4676C3.07644 11.4677 4.47395 12.075 6.01748 12.075V10.075ZM3.44959 9.04289C3.27743 8.87073 3.12293 8.67807 2.98614 8.46312L1.29882 9.53688C1.51203 9.87192 1.75753 10.1793 2.03537 10.4571L3.44959 9.04289ZM2.96171 8.42654C2.55635 7.84745 2.31748 7.12331 2.31748 6.325H0.317481C0.317481 7.52669 0.678611 8.65255 1.32325 9.57346L2.96171 8.42654ZM2.31748 6.325V6.225H0.317481V6.325H2.31748ZM2.31748 6.225C2.31748 4.17036 3.97666 2.5 6.01748 2.5V0.499999C2.8583 0.499999 0.317481 3.07963 0.317481 6.225H2.31748ZM6.01748 2.5H13.1175V0.499999H6.01748V2.5ZM13.1175 2.5C15.1652 2.5 16.8425 4.17728 16.8425 6.225H18.8425C18.8425 3.07272 16.2698 0.499999 13.1175 0.499999V2.5ZM16.8425 6.225V6.325H18.8425V6.225H16.8425ZM34.7104 2.875L35.6049 2.42777L35.5323 2.28264L35.4176 2.16789L34.7104 2.875ZM34.7355 2.925L33.841 3.37222L33.9136 3.51736L34.0283 3.63211L34.7355 2.925ZM33.3605 10.55L32.9414 9.64201L32.9347 9.64518L33.3605 10.55ZM32.0104 10.925V11.925H32.0629L32.1151 11.9195L32.0104 10.925ZM31.8605 10.925V9.925H30.8605V10.925H31.8605ZM31.8605 10.95V11.95H32.8605V10.95H31.8605ZM23.4854 10.95V9.95H22.4854V10.95H23.4854ZM23.4854 19V20H24.4854V19H23.4854ZM20.3604 19H19.3604V20H20.3604V19ZM20.3604 1.5V0.499999H19.3604V1.5H20.3604ZM32.0605 7.725L32.5077 8.61943L33.0605 8.34303V7.725H32.0605ZM32.0605 7.7L31.6617 6.78293L31.0605 7.04435V7.7H32.0605ZM32.5355 5.1L33.2426 4.39289L33.2426 4.39289L32.5355 5.1ZM23.4854 4.65V3.65H22.4854V4.65H23.4854ZM23.4854 7.875H22.4854V8.875H23.4854V7.875ZM33.816 3.32222L33.841 3.37222L35.6299 2.47778L35.6049 2.42777L33.816 3.32222ZM34.0283 3.63211C34.6978 4.30158 35.1105 5.22497 35.1105 6.25H37.1105C37.1105 4.67503 36.4731 3.24842 35.4426 2.21789L34.0283 3.63211ZM35.1105 6.25C35.1105 7.74726 34.2239 9.05011 32.9414 9.64204L33.7795 11.458C35.747 10.5499 37.1105 8.55274 37.1105 6.25H35.1105ZM32.9347 9.64518C32.6126 9.79672 32.2714 9.89201 31.9058 9.93049L32.1151 11.9195C32.6995 11.858 33.2583 11.7033 33.7862 11.4548L32.9347 9.64518ZM32.0104 9.925C32.0104 9.925 32.0103 9.925 32.0102 9.925C32.0101 9.925 32.01 9.925 32.0099 9.925C32.0098 9.925 32.0097 9.925 32.0096 9.925C32.0095 9.925 32.0094 9.925 32.0093 9.925C32.0092 9.925 32.0091 9.925 32.009 9.925C32.0089 9.925 32.0088 9.925 32.0087 9.925C32.0086 9.925 32.0085 9.925 32.0084 9.925C32.0083 9.925 32.0082 9.925 32.0081 9.925C32.008 9.925 32.0079 9.925 32.0078 9.925C32.0077 9.925 32.0076 9.925 32.0075 9.925C32.0074 9.925 32.0073 9.925 32.0072 9.925C32.0071 9.925 32.007 9.925 32.0069 9.925C32.0068 9.925 32.0067 9.925 32.0066 9.925C32.0065 9.925 32.0064 9.925 32.0063 9.925C32.0063 9.925 32.0062 9.925 32.0061 9.925C32.006 9.925 32.0059 9.925 32.0058 9.925C32.0057 9.925 32.0056 9.925 32.0055 9.925C32.0054 9.925 32.0053 9.925 32.0052 9.925C32.0051 9.925 32.005 9.925 32.0049 9.925C32.0048 9.925 32.0047 9.925 32.0046 9.925C32.0045 9.925 32.0044 9.925 32.0043 9.925C32.0042 9.925 32.0041 9.925 32.004 9.925C32.0039 9.925 32.0038 9.925 32.0037 9.925C32.0036 9.925 32.0035 9.925 32.0034 9.925C32.0033 9.925 32.0032 9.925 32.0031 9.925C32.003 9.925 32.0029 9.925 32.0028 9.925C32.0027 9.925 32.0026 9.925 32.0025 9.925C32.0024 9.925 32.0023 9.925 32.0022 9.925C32.0021 9.925 32.0021 9.925 32.002 9.925C32.0019 9.925 32.0018 9.925 32.0017 9.925C32.0016 9.925 32.0015 9.925 32.0014 9.925C32.0013 9.925 32.0012 9.925 32.0011 9.925C32.001 9.925 32.0009 9.925 32.0008 9.925C32.0007 9.925 32.0006 9.925 32.0005 9.925C32.0004 9.925 32.0003 9.925 32.0002 9.925C32.0001 9.925 32 9.925 31.9999 9.925C31.9998 9.925 31.9997 9.925 31.9996 9.925C31.9995 9.925 31.9994 9.925 31.9993 9.925C31.9992 9.925 31.9991 9.925 31.999 9.925C31.9989 9.925 31.9988 9.925 31.9987 9.925C31.9986 9.925 31.9985 9.925 31.9984 9.925C31.9983 9.925 31.9982 9.925 31.9981 9.925C31.998 9.925 31.9979 9.925 31.9979 9.925C31.9978 9.925 31.9977 9.925 31.9976 9.925C31.9975 9.925 31.9974 9.925 31.9973 9.925C31.9972 9.925 31.9971 9.925 31.997 9.925C31.9969 9.925 31.9968 9.925 31.9967 9.925C31.9966 9.925 31.9965 9.925 31.9964 9.925C31.9963 9.925 31.9962 9.925 31.9961 9.925C31.996 9.925 31.9959 9.925 31.9958 9.925C31.9957 9.925 31.9956 9.925 31.9955 9.925C31.9954 9.925 31.9953 9.925 31.9952 9.925C31.9951 9.925 31.995 9.925 31.9949 9.925C31.9948 9.925 31.9947 9.925 31.9946 9.925C31.9945 9.925 31.9944 9.925 31.9943 9.925C31.9942 9.925 31.9941 9.925 31.994 9.925C31.9939 9.925 31.9938 9.925 31.9938 9.925C31.9937 9.925 31.9936 9.925 31.9935 9.925C31.9934 9.925 31.9933 9.925 31.9932 9.925C31.9931 9.925 31.993 9.925 31.9929 9.925C31.9928 9.925 31.9927 9.925 31.9926 9.925C31.9925 9.925 31.9924 9.925 31.9923 9.925C31.9922 9.925 31.9921 9.925 31.992 9.925C31.9919 9.925 31.9918 9.925 31.9917 9.925C31.9916 9.925 31.9915 9.925 31.9914 9.925C31.9913 9.925 31.9912 9.925 31.9911 9.925C31.991 9.925 31.9909 9.925 31.9908 9.925C31.9907 9.925 31.9906 9.925 31.9905 9.925C31.9904 9.925 31.9903 9.925 31.9902 9.925C31.9901 9.925 31.99 9.925 31.9899 9.925C31.9898 9.925 31.9897 9.925 31.9896 9.925C31.9896 9.925 31.9895 9.925 31.9894 9.925C31.9893 9.925 31.9892 9.925 31.9891 9.925C31.989 9.925 31.9889 9.925 31.9888 9.925C31.9887 9.925 31.9886 9.925 31.9885 9.925C31.9884 9.925 31.9883 9.925 31.9882 9.925C31.9881 9.925 31.988 9.925 31.9879 9.925C31.9878 9.925 31.9877 9.925 31.9876 9.925C31.9875 9.925 31.9874 9.925 31.9873 9.925C31.9872 9.925 31.9871 9.925 31.987 9.925C31.9869 9.925 31.9868 9.925 31.9867 9.925C31.9866 9.925 31.9865 9.925 31.9864 9.925C31.9863 9.925 31.9862 9.925 31.9861 9.925C31.986 9.925 31.9859 9.925 31.9858 9.925C31.9857 9.925 31.9856 9.925 31.9855 9.925C31.9854 9.925 31.9854 9.925 31.9853 9.925C31.9852 9.925 31.9851 9.925 31.985 9.925C31.9849 9.925 31.9848 9.925 31.9847 9.925C31.9846 9.925 31.9845 9.925 31.9844 9.925C31.9843 9.925 31.9842 9.925 31.9841 9.925C31.984 9.925 31.9839 9.925 31.9838 9.925C31.9837 9.925 31.9836 9.925 31.9835 9.925C31.9834 9.925 31.9833 9.925 31.9832 9.925C31.9831 9.925 31.983 9.925 31.9829 9.925C31.9828 9.925 31.9827 9.925 31.9826 9.925C31.9825 9.925 31.9824 9.925 31.9823 9.925C31.9822 9.925 31.9821 9.925 31.982 9.925C31.9819 9.925 31.9818 9.925 31.9817 9.925C31.9816 9.925 31.9815 9.925 31.9814 9.925C31.9813 9.925 31.9813 9.925 31.9812 9.925C31.9811 9.925 31.981 9.925 31.9809 9.925C31.9808 9.925 31.9807 9.925 31.9806 9.925C31.9805 9.925 31.9804 9.925 31.9803 9.925C31.9802 9.925 31.9801 9.925 31.98 9.925C31.9799 9.925 31.9798 9.925 31.9797 9.925C31.9796 9.925 31.9795 9.925 31.9794 9.925C31.9793 9.925 31.9792 9.925 31.9791 9.925C31.979 9.925 31.9789 9.925 31.9788 9.925C31.9787 9.925 31.9786 9.925 31.9785 9.925C31.9784 9.925 31.9783 9.925 31.9782 9.925C31.9781 9.925 31.978 9.925 31.9779 9.925C31.9778 9.925 31.9777 9.925 31.9776 9.925C31.9775 9.925 31.9774 9.925 31.9773 9.925C31.9772 9.925 31.9771 9.925 31.9771 9.925C31.977 9.925 31.9769 9.925 31.9768 9.925C31.9767 9.925 31.9766 9.925 31.9765 9.925C31.9764 9.925 31.9763 9.925 31.9762 9.925C31.9761 9.925 31.976 9.925 31.9759 9.925C31.9758 9.925 31.9757 9.925 31.9756 9.925C31.9755 9.925 31.9754 9.925 31.9753 9.925C31.9752 9.925 31.9751 9.925 31.975 9.925C31.9749 9.925 31.9748 9.925 31.9747 9.925C31.9746 9.925 31.9745 9.925 31.9744 9.925C31.9743 9.925 31.9742 9.925 31.9741 9.925C31.974 9.925 31.9739 9.925 31.9738 9.925C31.9737 9.925 31.9736 9.925 31.9735 9.925C31.9734 9.925 31.9733 9.925 31.9732 9.925C31.9731 9.925 31.973 9.925 31.9729 9.925C31.9729 9.925 31.9728 9.925 31.9727 9.925C31.9726 9.925 31.9725 9.925 31.9724 9.925C31.9723 9.925 31.9722 9.925 31.9721 9.925C31.972 9.925 31.9719 9.925 31.9718 9.925C31.9717 9.925 31.9716 9.925 31.9715 9.925C31.9714 9.925 31.9713 9.925 31.9712 9.925C31.9711 9.925 31.971 9.925 31.9709 9.925C31.9708 9.925 31.9707 9.925 31.9706 9.925C31.9705 9.925 31.9704 9.925 31.9703 9.925C31.9702 9.925 31.9701 9.925 31.97 9.925C31.9699 9.925 31.9698 9.925 31.9697 9.925C31.9696 9.925 31.9695 9.925 31.9694 9.925C31.9693 9.925 31.9692 9.925 31.9691 9.925C31.969 9.925 31.9689 9.925 31.9688 9.925C31.9688 9.925 31.9687 9.925 31.9686 9.925C31.9685 9.925 31.9684 9.925 31.9683 9.925C31.9682 9.925 31.9681 9.925 31.968 9.925C31.9679 9.925 31.9678 9.925 31.9677 9.925C31.9676 9.925 31.9675 9.925 31.9674 9.925C31.9673 9.925 31.9672 9.925 31.9671 9.925C31.967 9.925 31.9669 9.925 31.9668 9.925C31.9667 9.925 31.9666 9.925 31.9665 9.925C31.9664 9.925 31.9663 9.925 31.9662 9.925C31.9661 9.925 31.966 9.925 31.9659 9.925C31.9658 9.925 31.9657 9.925 31.9656 9.925C31.9655 9.925 31.9654 9.925 31.9653 9.925C31.9652 9.925 31.9651 9.925 31.965 9.925C31.9649 9.925 31.9648 9.925 31.9647 9.925C31.9646 9.925 31.9646 9.925 31.9645 9.925C31.9644 9.925 31.9643 9.925 31.9642 9.925C31.9641 9.925 31.964 9.925 31.9639 9.925C31.9638 9.925 31.9637 9.925 31.9636 9.925C31.9635 9.925 31.9634 9.925 31.9633 9.925C31.9632 9.925 31.9631 9.925 31.963 9.925C31.9629 9.925 31.9628 9.925 31.9627 9.925C31.9626 9.925 31.9625 9.925 31.9624 9.925C31.9623 9.925 31.9622 9.925 31.9621 9.925C31.962 9.925 31.9619 9.925 31.9618 9.925C31.9617 9.925 31.9616 9.925 31.9615 9.925C31.9614 9.925 31.9613 9.925 31.9612 9.925C31.9611 9.925 31.961 9.925 31.9609 9.925C31.9608 9.925 31.9607 9.925 31.9606 9.925C31.9605 9.925 31.9604 9.925 31.9604 9.925C31.9603 9.925 31.9602 9.925 31.9601 9.925C31.96 9.925 31.9599 9.925 31.9598 9.925C31.9597 9.925 31.9596 9.925 31.9595 9.925C31.9594 9.925 31.9593 9.925 31.9592 9.925C31.9591 9.925 31.959 9.925 31.9589 9.925C31.9588 9.925 31.9587 9.925 31.9586 9.925C31.9585 9.925 31.9584 9.925 31.9583 9.925C31.9582 9.925 31.9581 9.925 31.958 9.925C31.9579 9.925 31.9578 9.925 31.9577 9.925C31.9576 9.925 31.9575 9.925 31.9574 9.925C31.9573 9.925 31.9572 9.925 31.9571 9.925C31.957 9.925 31.9569 9.925 31.9568 9.925C31.9567 9.925 31.9566 9.925 31.9565 9.925C31.9564 9.925 31.9563 9.925 31.9563 9.925C31.9562 9.925 31.9561 9.925 31.956 9.925C31.9559 9.925 31.9558 9.925 31.9557 9.925C31.9556 9.925 31.9555 9.925 31.9554 9.925C31.9553 9.925 31.9552 9.925 31.9551 9.925C31.955 9.925 31.9549 9.925 31.9548 9.925C31.9547 9.925 31.9546 9.925 31.9545 9.925C31.9544 9.925 31.9543 9.925 31.9542 9.925C31.9541 9.925 31.954 9.925 31.9539 9.925C31.9538 9.925 31.9537 9.925 31.9536 9.925C31.9535 9.925 31.9534 9.925 31.9533 9.925C31.9532 9.925 31.9531 9.925 31.953 9.925C31.9529 9.925 31.9528 9.925 31.9527 9.925C31.9526 9.925 31.9525 9.925 31.9524 9.925C31.9523 9.925 31.9522 9.925 31.9521 9.925C31.9521 9.925 31.952 9.925 31.9519 9.925C31.9518 9.925 31.9517 9.925 31.9516 9.925C31.9515 9.925 31.9514 9.925 31.9513 9.925C31.9512 9.925 31.9511 9.925 31.951 9.925C31.9509 9.925 31.9508 9.925 31.9507 9.925C31.9506 9.925 31.9505 9.925 31.9504 9.925C31.9503 9.925 31.9502 9.925 31.9501 9.925C31.95 9.925 31.9499 9.925 31.9498 9.925C31.9497 9.925 31.9496 9.925 31.9495 9.925C31.9494 9.925 31.9493 9.925 31.9492 9.925C31.9491 9.925 31.949 9.925 31.9489 9.925C31.9488 9.925 31.9487 9.925 31.9486 9.925C31.9485 9.925 31.9484 9.925 31.9483 9.925C31.9482 9.925 31.9481 9.925 31.948 9.925C31.9479 9.925 31.9479 9.925 31.9478 9.925C31.9477 9.925 31.9476 9.925 31.9475 9.925C31.9474 9.925 31.9473 9.925 31.9472 9.925C31.9471 9.925 31.947 9.925 31.9469 9.925C31.9468 9.925 31.9467 9.925 31.9466 9.925C31.9465 9.925 31.9464 9.925 31.9463 9.925C31.9462 9.925 31.9461 9.925 31.946 9.925C31.9459 9.925 31.9458 9.925 31.9457 9.925C31.9456 9.925 31.9455 9.925 31.9454 9.925C31.9453 9.925 31.9452 9.925 31.9451 9.925C31.945 9.925 31.9449 9.925 31.9448 9.925C31.9447 9.925 31.9446 9.925 31.9445 9.925C31.9444 9.925 31.9443 9.925 31.9442 9.925C31.9441 9.925 31.944 9.925 31.9439 9.925C31.9438 9.925 31.9438 9.925 31.9437 9.925C31.9436 9.925 31.9435 9.925 31.9434 9.925C31.9433 9.925 31.9432 9.925 31.9431 9.925C31.943 9.925 31.9429 9.925 31.9428 9.925C31.9427 9.925 31.9426 9.925 31.9425 9.925C31.9424 9.925 31.9423 9.925 31.9422 9.925C31.9421 9.925 31.942 9.925 31.9419 9.925C31.9418 9.925 31.9417 9.925 31.9416 9.925C31.9415 9.925 31.9414 9.925 31.9413 9.925C31.9412 9.925 31.9411 9.925 31.941 9.925C31.9409 9.925 31.9408 9.925 31.9407 9.925C31.9406 9.925 31.9405 9.925 31.9404 9.925C31.9403 9.925 31.9402 9.925 31.9401 9.925C31.94 9.925 31.9399 9.925 31.9398 9.925C31.9397 9.925 31.9396 9.925 31.9396 9.925C31.9395 9.925 31.9394 9.925 31.9393 9.925C31.9392 9.925 31.9391 9.925 31.939 9.925C31.9389 9.925 31.9388 9.925 31.9387 9.925C31.9386 9.925 31.9385 9.925 31.9384 9.925C31.9383 9.925 31.9382 9.925 31.9381 9.925C31.938 9.925 31.9379 9.925 31.9378 9.925C31.9377 9.925 31.9376 9.925 31.9375 9.925C31.9374 9.925 31.9373 9.925 31.9372 9.925C31.9371 9.925 31.937 9.925 31.9369 9.925C31.9368 9.925 31.9367 9.925 31.9366 9.925C31.9365 9.925 31.9364 9.925 31.9363 9.925C31.9362 9.925 31.9361 9.925 31.936 9.925C31.9359 9.925 31.9358 9.925 31.9357 9.925C31.9356 9.925 31.9355 9.925 31.9354 9.925C31.9354 9.925 31.9353 9.925 31.9352 9.925C31.9351 9.925 31.935 9.925 31.9349 9.925C31.9348 9.925 31.9347 9.925 31.9346 9.925C31.9345 9.925 31.9344 9.925 31.9343 9.925C31.9342 9.925 31.9341 9.925 31.934 9.925C31.9339 9.925 31.9338 9.925 31.9337 9.925C31.9336 9.925 31.9335 9.925 31.9334 9.925C31.9333 9.925 31.9332 9.925 31.9331 9.925C31.933 9.925 31.9329 9.925 31.9328 9.925C31.9327 9.925 31.9326 9.925 31.9325 9.925C31.9324 9.925 31.9323 9.925 31.9322 9.925C31.9321 9.925 31.932 9.925 31.9319 9.925C31.9318 9.925 31.9317 9.925 31.9316 9.925C31.9315 9.925 31.9314 9.925 31.9313 9.925C31.9313 9.925 31.9312 9.925 31.9311 9.925C31.931 9.925 31.9309 9.925 31.9308 9.925C31.9307 9.925 31.9306 9.925 31.9305 9.925C31.9304 9.925 31.9303 9.925 31.9302 9.925C31.9301 9.925 31.93 9.925 31.9299 9.925C31.9298 9.925 31.9297 9.925 31.9296 9.925C31.9295 9.925 31.9294 9.925 31.9293 9.925C31.9292 9.925 31.9291 9.925 31.929 9.925C31.9289 9.925 31.9288 9.925 31.9287 9.925C31.9286 9.925 31.9285 9.925 31.9284 9.925C31.9283 9.925 31.9282 9.925 31.9281 9.925C31.928 9.925 31.9279 9.925 31.9278 9.925C31.9277 9.925 31.9276 9.925 31.9275 9.925C31.9274 9.925 31.9273 9.925 31.9272 9.925C31.9271 9.925 31.9271 9.925 31.927 9.925C31.9269 9.925 31.9268 9.925 31.9267 9.925C31.9266 9.925 31.9265 9.925 31.9264 9.925C31.9263 9.925 31.9262 9.925 31.9261 9.925C31.926 9.925 31.9259 9.925 31.9258 9.925C31.9257 9.925 31.9256 9.925 31.9255 9.925C31.9254 9.925 31.9253 9.925 31.9252 9.925C31.9251 9.925 31.925 9.925 31.9249 9.925C31.9248 9.925 31.9247 9.925 31.9246 9.925C31.9245 9.925 31.9244 9.925 31.9243 9.925C31.9242 9.925 31.9241 9.925 31.924 9.925C31.9239 9.925 31.9238 9.925 31.9237 9.925C31.9236 9.925 31.9235 9.925 31.9234 9.925C31.9233 9.925 31.9232 9.925 31.9231 9.925C31.923 9.925 31.9229 9.925 31.9229 9.925C31.9228 9.925 31.9227 9.925 31.9226 9.925C31.9225 9.925 31.9224 9.925 31.9223 9.925C31.9222 9.925 31.9221 9.925 31.922 9.925C31.9219 9.925 31.9218 9.925 31.9217 9.925C31.9216 9.925 31.9215 9.925 31.9214 9.925C31.9213 9.925 31.9212 9.925 31.9211 9.925C31.921 9.925 31.9209 9.925 31.9208 9.925C31.9207 9.925 31.9206 9.925 31.9205 9.925C31.9204 9.925 31.9203 9.925 31.9202 9.925C31.9201 9.925 31.92 9.925 31.9199 9.925C31.9198 9.925 31.9197 9.925 31.9196 9.925C31.9195 9.925 31.9194 9.925 31.9193 9.925C31.9192 9.925 31.9191 9.925 31.919 9.925C31.9189 9.925 31.9188 9.925 31.9188 9.925C31.9187 9.925 31.9186 9.925 31.9185 9.925C31.9184 9.925 31.9183 9.925 31.9182 9.925C31.9181 9.925 31.918 9.925 31.9179 9.925C31.9178 9.925 31.9177 9.925 31.9176 9.925C31.9175 9.925 31.9174 9.925 31.9173 9.925C31.9172 9.925 31.9171 9.925 31.917 9.925C31.9169 9.925 31.9168 9.925 31.9167 9.925C31.9166 9.925 31.9165 9.925 31.9164 9.925C31.9163 9.925 31.9162 9.925 31.9161 9.925C31.916 9.925 31.9159 9.925 31.9158 9.925C31.9157 9.925 31.9156 9.925 31.9155 9.925C31.9154 9.925 31.9153 9.925 31.9152 9.925C31.9151 9.925 31.915 9.925 31.9149 9.925C31.9148 9.925 31.9147 9.925 31.9146 9.925C31.9146 9.925 31.9145 9.925 31.9144 9.925C31.9143 9.925 31.9142 9.925 31.9141 9.925C31.914 9.925 31.9139 9.925 31.9138 9.925C31.9137 9.925 31.9136 9.925 31.9135 9.925C31.9134 9.925 31.9133 9.925 31.9132 9.925C31.9131 9.925 31.913 9.925 31.9129 9.925C31.9128 9.925 31.9127 9.925 31.9126 9.925C31.9125 9.925 31.9124 9.925 31.9123 9.925C31.9122 9.925 31.9121 9.925 31.912 9.925C31.9119 9.925 31.9118 9.925 31.9117 9.925C31.9116 9.925 31.9115 9.925 31.9114 9.925C31.9113 9.925 31.9112 9.925 31.9111 9.925C31.911 9.925 31.9109 9.925 31.9108 9.925C31.9107 9.925 31.9106 9.925 31.9105 9.925C31.9104 9.925 31.9104 9.925 31.9103 9.925C31.9102 9.925 31.9101 9.925 31.91 9.925C31.9099 9.925 31.9098 9.925 31.9097 9.925C31.9096 9.925 31.9095 9.925 31.9094 9.925C31.9093 9.925 31.9092 9.925 31.9091 9.925C31.909 9.925 31.9089 9.925 31.9088 9.925C31.9087 9.925 31.9086 9.925 31.9085 9.925C31.9084 9.925 31.9083 9.925 31.9082 9.925C31.9081 9.925 31.908 9.925 31.9079 9.925C31.9078 9.925 31.9077 9.925 31.9076 9.925C31.9075 9.925 31.9074 9.925 31.9073 9.925C31.9072 9.925 31.9071 9.925 31.907 9.925C31.9069 9.925 31.9068 9.925 31.9067 9.925C31.9066 9.925 31.9065 9.925 31.9064 9.925C31.9063 9.925 31.9063 9.925 31.9062 9.925C31.9061 9.925 31.906 9.925 31.9059 9.925C31.9058 9.925 31.9057 9.925 31.9056 9.925C31.9055 9.925 31.9054 9.925 31.9053 9.925C31.9052 9.925 31.9051 9.925 31.905 9.925C31.9049 9.925 31.9048 9.925 31.9047 9.925C31.9046 9.925 31.9045 9.925 31.9044 9.925C31.9043 9.925 31.9042 9.925 31.9041 9.925C31.904 9.925 31.9039 9.925 31.9038 9.925C31.9037 9.925 31.9036 9.925 31.9035 9.925C31.9034 9.925 31.9033 9.925 31.9032 9.925C31.9031 9.925 31.903 9.925 31.9029 9.925C31.9028 9.925 31.9027 9.925 31.9026 9.925C31.9025 9.925 31.9024 9.925 31.9023 9.925C31.9022 9.925 31.9021 9.925 31.9021 9.925C31.902 9.925 31.9019 9.925 31.9018 9.925C31.9017 9.925 31.9016 9.925 31.9015 9.925C31.9014 9.925 31.9013 9.925 31.9012 9.925C31.9011 9.925 31.901 9.925 31.9009 9.925C31.9008 9.925 31.9007 9.925 31.9006 9.925C31.9005 9.925 31.9004 9.925 31.9003 9.925C31.9002 9.925 31.9001 9.925 31.9 9.925C31.8999 9.925 31.8998 9.925 31.8997 9.925C31.8996 9.925 31.8995 9.925 31.8994 9.925C31.8993 9.925 31.8992 9.925 31.8991 9.925C31.899 9.925 31.8989 9.925 31.8988 9.925C31.8987 9.925 31.8986 9.925 31.8985 9.925C31.8984 9.925 31.8983 9.925 31.8982 9.925C31.8981 9.925 31.898 9.925 31.8979 9.925C31.8979 9.925 31.8978 9.925 31.8977 9.925C31.8976 9.925 31.8975 9.925 31.8974 9.925C31.8973 9.925 31.8972 9.925 31.8971 9.925C31.897 9.925 31.8969 9.925 31.8968 9.925C31.8967 9.925 31.8966 9.925 31.8965 9.925C31.8964 9.925 31.8963 9.925 31.8962 9.925C31.8961 9.925 31.896 9.925 31.8959 9.925C31.8958 9.925 31.8957 9.925 31.8956 9.925C31.8955 9.925 31.8954 9.925 31.8953 9.925C31.8952 9.925 31.8951 9.925 31.895 9.925C31.8949 9.925 31.8948 9.925 31.8947 9.925C31.8946 9.925 31.8945 9.925 31.8944 9.925C31.8943 9.925 31.8942 9.925 31.8941 9.925C31.894 9.925 31.8939 9.925 31.8938 9.925C31.8938 9.925 31.8937 9.925 31.8936 9.925C31.8935 9.925 31.8934 9.925 31.8933 9.925C31.8932 9.925 31.8931 9.925 31.893 9.925C31.8929 9.925 31.8928 9.925 31.8927 9.925C31.8926 9.925 31.8925 9.925 31.8924 9.925C31.8923 9.925 31.8922 9.925 31.8921 9.925C31.892 9.925 31.8919 9.925 31.8918 9.925C31.8917 9.925 31.8916 9.925 31.8915 9.925C31.8914 9.925 31.8913 9.925 31.8912 9.925C31.8911 9.925 31.891 9.925 31.8909 9.925C31.8908 9.925 31.8907 9.925 31.8906 9.925C31.8905 9.925 31.8904 9.925 31.8903 9.925C31.8902 9.925 31.8901 9.925 31.89 9.925C31.8899 9.925 31.8898 9.925 31.8897 9.925C31.8896 9.925 31.8896 9.925 31.8895 9.925C31.8894 9.925 31.8893 9.925 31.8892 9.925C31.8891 9.925 31.889 9.925 31.8889 9.925C31.8888 9.925 31.8887 9.925 31.8886 9.925C31.8885 9.925 31.8884 9.925 31.8883 9.925C31.8882 9.925 31.8881 9.925 31.888 9.925C31.8879 9.925 31.8878 9.925 31.8877 9.925C31.8876 9.925 31.8875 9.925 31.8874 9.925C31.8873 9.925 31.8872 9.925 31.8871 9.925C31.887 9.925 31.8869 9.925 31.8868 9.925C31.8867 9.925 31.8866 9.925 31.8865 9.925C31.8864 9.925 31.8863 9.925 31.8862 9.925C31.8861 9.925 31.886 9.925 31.8859 9.925C31.8858 9.925 31.8857 9.925 31.8856 9.925C31.8855 9.925 31.8854 9.925 31.8854 9.925C31.8853 9.925 31.8852 9.925 31.8851 9.925C31.885 9.925 31.8849 9.925 31.8848 9.925C31.8847 9.925 31.8846 9.925 31.8845 9.925C31.8844 9.925 31.8843 9.925 31.8842 9.925C31.8841 9.925 31.884 9.925 31.8839 9.925C31.8838 9.925 31.8837 9.925 31.8836 9.925C31.8835 9.925 31.8834 9.925 31.8833 9.925C31.8832 9.925 31.8831 9.925 31.883 9.925C31.8829 9.925 31.8828 9.925 31.8827 9.925C31.8826 9.925 31.8825 9.925 31.8824 9.925C31.8823 9.925 31.8822 9.925 31.8821 9.925C31.882 9.925 31.8819 9.925 31.8818 9.925C31.8817 9.925 31.8816 9.925 31.8815 9.925C31.8814 9.925 31.8813 9.925 31.8813 9.925C31.8812 9.925 31.8811 9.925 31.881 9.925C31.8809 9.925 31.8808 9.925 31.8807 9.925C31.8806 9.925 31.8805 9.925 31.8804 9.925C31.8803 9.925 31.8802 9.925 31.8801 9.925C31.88 9.925 31.8799 9.925 31.8798 9.925C31.8797 9.925 31.8796 9.925 31.8795 9.925C31.8794 9.925 31.8793 9.925 31.8792 9.925C31.8791 9.925 31.879 9.925 31.8789 9.925C31.8788 9.925 31.8787 9.925 31.8786 9.925C31.8785 9.925 31.8784 9.925 31.8783 9.925C31.8782 9.925 31.8781 9.925 31.878 9.925C31.8779 9.925 31.8778 9.925 31.8777 9.925C31.8776 9.925 31.8775 9.925 31.8774 9.925C31.8773 9.925 31.8772 9.925 31.8771 9.925C31.8771 9.925 31.877 9.925 31.8769 9.925C31.8768 9.925 31.8767 9.925 31.8766 9.925C31.8765 9.925 31.8764 9.925 31.8763 9.925C31.8762 9.925 31.8761 9.925 31.876 9.925C31.8759 9.925 31.8758 9.925 31.8757 9.925C31.8756 9.925 31.8755 9.925 31.8754 9.925C31.8753 9.925 31.8752 9.925 31.8751 9.925C31.875 9.925 31.8749 9.925 31.8748 9.925C31.8747 9.925 31.8746 9.925 31.8745 9.925C31.8744 9.925 31.8743 9.925 31.8742 9.925C31.8741 9.925 31.874 9.925 31.8739 9.925C31.8738 9.925 31.8737 9.925 31.8736 9.925C31.8735 9.925 31.8734 9.925 31.8733 9.925C31.8732 9.925 31.8731 9.925 31.873 9.925C31.873 9.925 31.8729 9.925 31.8728 9.925C31.8727 9.925 31.8726 9.925 31.8725 9.925C31.8724 9.925 31.8723 9.925 31.8722 9.925C31.8721 9.925 31.872 9.925 31.8719 9.925C31.8718 9.925 31.8717 9.925 31.8716 9.925C31.8715 9.925 31.8714 9.925 31.8713 9.925C31.8712 9.925 31.8711 9.925 31.871 9.925C31.8709 9.925 31.8708 9.925 31.8707 9.925C31.8706 9.925 31.8705 9.925 31.8704 9.925C31.8703 9.925 31.8702 9.925 31.8701 9.925C31.87 9.925 31.8699 9.925 31.8698 9.925C31.8697 9.925 31.8696 9.925 31.8695 9.925C31.8694 9.925 31.8693 9.925 31.8692 9.925C31.8691 9.925 31.869 9.925 31.8689 9.925C31.8688 9.925 31.8688 9.925 31.8687 9.925C31.8686 9.925 31.8685 9.925 31.8684 9.925C31.8683 9.925 31.8682 9.925 31.8681 9.925C31.868 9.925 31.8679 9.925 31.8678 9.925C31.8677 9.925 31.8676 9.925 31.8675 9.925C31.8674 9.925 31.8673 9.925 31.8672 9.925C31.8671 9.925 31.867 9.925 31.8669 9.925C31.8668 9.925 31.8667 9.925 31.8666 9.925C31.8665 9.925 31.8664 9.925 31.8663 9.925C31.8662 9.925 31.8661 9.925 31.866 9.925C31.8659 9.925 31.8658 9.925 31.8657 9.925C31.8656 9.925 31.8655 9.925 31.8654 9.925C31.8653 9.925 31.8652 9.925 31.8651 9.925C31.865 9.925 31.8649 9.925 31.8648 9.925C31.8647 9.925 31.8646 9.925 31.8646 9.925C31.8645 9.925 31.8644 9.925 31.8643 9.925C31.8642 9.925 31.8641 9.925 31.864 9.925C31.8639 9.925 31.8638 9.925 31.8637 9.925C31.8636 9.925 31.8635 9.925 31.8634 9.925C31.8633 9.925 31.8632 9.925 31.8631 9.925C31.863 9.925 31.8629 9.925 31.8628 9.925C31.8627 9.925 31.8626 9.925 31.8625 9.925C31.8624 9.925 31.8623 9.925 31.8622 9.925C31.8621 9.925 31.862 9.925 31.8619 9.925C31.8618 9.925 31.8617 9.925 31.8616 9.925C31.8615 9.925 31.8614 9.925 31.8613 9.925C31.8612 9.925 31.8611 9.925 31.861 9.925C31.8609 9.925 31.8608 9.925 31.8607 9.925C31.8606 9.925 31.8605 9.925 31.8605 9.925V11.925C31.8605 11.925 31.8606 11.925 31.8607 11.925C31.8608 11.925 31.8609 11.925 31.861 11.925C31.8611 11.925 31.8612 11.925 31.8613 11.925C31.8614 11.925 31.8615 11.925 31.8616 11.925C31.8617 11.925 31.8618 11.925 31.8619 11.925C31.862 11.925 31.8621 11.925 31.8622 11.925C31.8623 11.925 31.8624 11.925 31.8625 11.925C31.8626 11.925 31.8627 11.925 31.8628 11.925C31.8629 11.925 31.863 11.925 31.8631 11.925C31.8632 11.925 31.8633 11.925 31.8634 11.925C31.8635 11.925 31.8636 11.925 31.8637 11.925C31.8638 11.925 31.8639 11.925 31.864 11.925C31.8641 11.925 31.8642 11.925 31.8643 11.925C31.8644 11.925 31.8645 11.925 31.8646 11.925C31.8646 11.925 31.8647 11.925 31.8648 11.925C31.8649 11.925 31.865 11.925 31.8651 11.925C31.8652 11.925 31.8653 11.925 31.8654 11.925C31.8655 11.925 31.8656 11.925 31.8657 11.925C31.8658 11.925 31.8659 11.925 31.866 11.925C31.8661 11.925 31.8662 11.925 31.8663 11.925C31.8664 11.925 31.8665 11.925 31.8666 11.925C31.8667 11.925 31.8668 11.925 31.8669 11.925C31.867 11.925 31.8671 11.925 31.8672 11.925C31.8673 11.925 31.8674 11.925 31.8675 11.925C31.8676 11.925 31.8677 11.925 31.8678 11.925C31.8679 11.925 31.868 11.925 31.8681 11.925C31.8682 11.925 31.8683 11.925 31.8684 11.925C31.8685 11.925 31.8686 11.925 31.8687 11.925C31.8688 11.925 31.8688 11.925 31.8689 11.925C31.869 11.925 31.8691 11.925 31.8692 11.925C31.8693 11.925 31.8694 11.925 31.8695 11.925C31.8696 11.925 31.8697 11.925 31.8698 11.925C31.8699 11.925 31.87 11.925 31.8701 11.925C31.8702 11.925 31.8703 11.925 31.8704 11.925C31.8705 11.925 31.8706 11.925 31.8707 11.925C31.8708 11.925 31.8709 11.925 31.871 11.925C31.8711 11.925 31.8712 11.925 31.8713 11.925C31.8714 11.925 31.8715 11.925 31.8716 11.925C31.8717 11.925 31.8718 11.925 31.8719 11.925C31.872 11.925 31.8721 11.925 31.8722 11.925C31.8723 11.925 31.8724 11.925 31.8725 11.925C31.8726 11.925 31.8727 11.925 31.8728 11.925C31.8729 11.925 31.873 11.925 31.873 11.925C31.8731 11.925 31.8732 11.925 31.8733 11.925C31.8734 11.925 31.8735 11.925 31.8736 11.925C31.8737 11.925 31.8738 11.925 31.8739 11.925C31.874 11.925 31.8741 11.925 31.8742 11.925C31.8743 11.925 31.8744 11.925 31.8745 11.925C31.8746 11.925 31.8747 11.925 31.8748 11.925C31.8749 11.925 31.875 11.925 31.8751 11.925C31.8752 11.925 31.8753 11.925 31.8754 11.925C31.8755 11.925 31.8756 11.925 31.8757 11.925C31.8758 11.925 31.8759 11.925 31.876 11.925C31.8761 11.925 31.8762 11.925 31.8763 11.925C31.8764 11.925 31.8765 11.925 31.8766 11.925C31.8767 11.925 31.8768 11.925 31.8769 11.925C31.877 11.925 31.8771 11.925 31.8771 11.925C31.8772 11.925 31.8773 11.925 31.8774 11.925C31.8775 11.925 31.8776 11.925 31.8777 11.925C31.8778 11.925 31.8779 11.925 31.878 11.925C31.8781 11.925 31.8782 11.925 31.8783 11.925C31.8784 11.925 31.8785 11.925 31.8786 11.925C31.8787 11.925 31.8788 11.925 31.8789 11.925C31.879 11.925 31.8791 11.925 31.8792 11.925C31.8793 11.925 31.8794 11.925 31.8795 11.925C31.8796 11.925 31.8797 11.925 31.8798 11.925C31.8799 11.925 31.88 11.925 31.8801 11.925C31.8802 11.925 31.8803 11.925 31.8804 11.925C31.8805 11.925 31.8806 11.925 31.8807 11.925C31.8808 11.925 31.8809 11.925 31.881 11.925C31.8811 11.925 31.8812 11.925 31.8813 11.925C31.8813 11.925 31.8814 11.925 31.8815 11.925C31.8816 11.925 31.8817 11.925 31.8818 11.925C31.8819 11.925 31.882 11.925 31.8821 11.925C31.8822 11.925 31.8823 11.925 31.8824 11.925C31.8825 11.925 31.8826 11.925 31.8827 11.925C31.8828 11.925 31.8829 11.925 31.883 11.925C31.8831 11.925 31.8832 11.925 31.8833 11.925C31.8834 11.925 31.8835 11.925 31.8836 11.925C31.8837 11.925 31.8838 11.925 31.8839 11.925C31.884 11.925 31.8841 11.925 31.8842 11.925C31.8843 11.925 31.8844 11.925 31.8845 11.925C31.8846 11.925 31.8847 11.925 31.8848 11.925C31.8849 11.925 31.885 11.925 31.8851 11.925C31.8852 11.925 31.8853 11.925 31.8854 11.925C31.8854 11.925 31.8855 11.925 31.8856 11.925C31.8857 11.925 31.8858 11.925 31.8859 11.925C31.886 11.925 31.8861 11.925 31.8862 11.925C31.8863 11.925 31.8864 11.925 31.8865 11.925C31.8866 11.925 31.8867 11.925 31.8868 11.925C31.8869 11.925 31.887 11.925 31.8871 11.925C31.8872 11.925 31.8873 11.925 31.8874 11.925C31.8875 11.925 31.8876 11.925 31.8877 11.925C31.8878 11.925 31.8879 11.925 31.888 11.925C31.8881 11.925 31.8882 11.925 31.8883 11.925C31.8884 11.925 31.8885 11.925 31.8886 11.925C31.8887 11.925 31.8888 11.925 31.8889 11.925C31.889 11.925 31.8891 11.925 31.8892 11.925C31.8893 11.925 31.8894 11.925 31.8895 11.925C31.8896 11.925 31.8896 11.925 31.8897 11.925C31.8898 11.925 31.8899 11.925 31.89 11.925C31.8901 11.925 31.8902 11.925 31.8903 11.925C31.8904 11.925 31.8905 11.925 31.8906 11.925C31.8907 11.925 31.8908 11.925 31.8909 11.925C31.891 11.925 31.8911 11.925 31.8912 11.925C31.8913 11.925 31.8914 11.925 31.8915 11.925C31.8916 11.925 31.8917 11.925 31.8918 11.925C31.8919 11.925 31.892 11.925 31.8921 11.925C31.8922 11.925 31.8923 11.925 31.8924 11.925C31.8925 11.925 31.8926 11.925 31.8927 11.925C31.8928 11.925 31.8929 11.925 31.893 11.925C31.8931 11.925 31.8932 11.925 31.8933 11.925C31.8934 11.925 31.8935 11.925 31.8936 11.925C31.8937 11.925 31.8938 11.925 31.8938 11.925C31.8939 11.925 31.894 11.925 31.8941 11.925C31.8942 11.925 31.8943 11.925 31.8944 11.925C31.8945 11.925 31.8946 11.925 31.8947 11.925C31.8948 11.925 31.8949 11.925 31.895 11.925C31.8951 11.925 31.8952 11.925 31.8953 11.925C31.8954 11.925 31.8955 11.925 31.8956 11.925C31.8957 11.925 31.8958 11.925 31.8959 11.925C31.896 11.925 31.8961 11.925 31.8962 11.925C31.8963 11.925 31.8964 11.925 31.8965 11.925C31.8966 11.925 31.8967 11.925 31.8968 11.925C31.8969 11.925 31.897 11.925 31.8971 11.925C31.8972 11.925 31.8973 11.925 31.8974 11.925C31.8975 11.925 31.8976 11.925 31.8977 11.925C31.8978 11.925 31.8979 11.925 31.8979 11.925C31.898 11.925 31.8981 11.925 31.8982 11.925C31.8983 11.925 31.8984 11.925 31.8985 11.925C31.8986 11.925 31.8987 11.925 31.8988 11.925C31.8989 11.925 31.899 11.925 31.8991 11.925C31.8992 11.925 31.8993 11.925 31.8994 11.925C31.8995 11.925 31.8996 11.925 31.8997 11.925C31.8998 11.925 31.8999 11.925 31.9 11.925C31.9001 11.925 31.9002 11.925 31.9003 11.925C31.9004 11.925 31.9005 11.925 31.9006 11.925C31.9007 11.925 31.9008 11.925 31.9009 11.925C31.901 11.925 31.9011 11.925 31.9012 11.925C31.9013 11.925 31.9014 11.925 31.9015 11.925C31.9016 11.925 31.9017 11.925 31.9018 11.925C31.9019 11.925 31.902 11.925 31.9021 11.925C31.9021 11.925 31.9022 11.925 31.9023 11.925C31.9024 11.925 31.9025 11.925 31.9026 11.925C31.9027 11.925 31.9028 11.925 31.9029 11.925C31.903 11.925 31.9031 11.925 31.9032 11.925C31.9033 11.925 31.9034 11.925 31.9035 11.925C31.9036 11.925 31.9037 11.925 31.9038 11.925C31.9039 11.925 31.904 11.925 31.9041 11.925C31.9042 11.925 31.9043 11.925 31.9044 11.925C31.9045 11.925 31.9046 11.925 31.9047 11.925C31.9048 11.925 31.9049 11.925 31.905 11.925C31.9051 11.925 31.9052 11.925 31.9053 11.925C31.9054 11.925 31.9055 11.925 31.9056 11.925C31.9057 11.925 31.9058 11.925 31.9059 11.925C31.906 11.925 31.9061 11.925 31.9062 11.925C31.9063 11.925 31.9063 11.925 31.9064 11.925C31.9065 11.925 31.9066 11.925 31.9067 11.925C31.9068 11.925 31.9069 11.925 31.907 11.925C31.9071 11.925 31.9072 11.925 31.9073 11.925C31.9074 11.925 31.9075 11.925 31.9076 11.925C31.9077 11.925 31.9078 11.925 31.9079 11.925C31.908 11.925 31.9081 11.925 31.9082 11.925C31.9083 11.925 31.9084 11.925 31.9085 11.925C31.9086 11.925 31.9087 11.925 31.9088 11.925C31.9089 11.925 31.909 11.925 31.9091 11.925C31.9092 11.925 31.9093 11.925 31.9094 11.925C31.9095 11.925 31.9096 11.925 31.9097 11.925C31.9098 11.925 31.9099 11.925 31.91 11.925C31.9101 11.925 31.9102 11.925 31.9103 11.925C31.9104 11.925 31.9104 11.925 31.9105 11.925C31.9106 11.925 31.9107 11.925 31.9108 11.925C31.9109 11.925 31.911 11.925 31.9111 11.925C31.9112 11.925 31.9113 11.925 31.9114 11.925C31.9115 11.925 31.9116 11.925 31.9117 11.925C31.9118 11.925 31.9119 11.925 31.912 11.925C31.9121 11.925 31.9122 11.925 31.9123 11.925C31.9124 11.925 31.9125 11.925 31.9126 11.925C31.9127 11.925 31.9128 11.925 31.9129 11.925C31.913 11.925 31.9131 11.925 31.9132 11.925C31.9133 11.925 31.9134 11.925 31.9135 11.925C31.9136 11.925 31.9137 11.925 31.9138 11.925C31.9139 11.925 31.914 11.925 31.9141 11.925C31.9142 11.925 31.9143 11.925 31.9144 11.925C31.9145 11.925 31.9146 11.925 31.9146 11.925C31.9147 11.925 31.9148 11.925 31.9149 11.925C31.915 11.925 31.9151 11.925 31.9152 11.925C31.9153 11.925 31.9154 11.925 31.9155 11.925C31.9156 11.925 31.9157 11.925 31.9158 11.925C31.9159 11.925 31.916 11.925 31.9161 11.925C31.9162 11.925 31.9163 11.925 31.9164 11.925C31.9165 11.925 31.9166 11.925 31.9167 11.925C31.9168 11.925 31.9169 11.925 31.917 11.925C31.9171 11.925 31.9172 11.925 31.9173 11.925C31.9174 11.925 31.9175 11.925 31.9176 11.925C31.9177 11.925 31.9178 11.925 31.9179 11.925C31.918 11.925 31.9181 11.925 31.9182 11.925C31.9183 11.925 31.9184 11.925 31.9185 11.925C31.9186 11.925 31.9187 11.925 31.9188 11.925C31.9188 11.925 31.9189 11.925 31.919 11.925C31.9191 11.925 31.9192 11.925 31.9193 11.925C31.9194 11.925 31.9195 11.925 31.9196 11.925C31.9197 11.925 31.9198 11.925 31.9199 11.925C31.92 11.925 31.9201 11.925 31.9202 11.925C31.9203 11.925 31.9204 11.925 31.9205 11.925C31.9206 11.925 31.9207 11.925 31.9208 11.925C31.9209 11.925 31.921 11.925 31.9211 11.925C31.9212 11.925 31.9213 11.925 31.9214 11.925C31.9215 11.925 31.9216 11.925 31.9217 11.925C31.9218 11.925 31.9219 11.925 31.922 11.925C31.9221 11.925 31.9222 11.925 31.9223 11.925C31.9224 11.925 31.9225 11.925 31.9226 11.925C31.9227 11.925 31.9228 11.925 31.9229 11.925C31.9229 11.925 31.923 11.925 31.9231 11.925C31.9232 11.925 31.9233 11.925 31.9234 11.925C31.9235 11.925 31.9236 11.925 31.9237 11.925C31.9238 11.925 31.9239 11.925 31.924 11.925C31.9241 11.925 31.9242 11.925 31.9243 11.925C31.9244 11.925 31.9245 11.925 31.9246 11.925C31.9247 11.925 31.9248 11.925 31.9249 11.925C31.925 11.925 31.9251 11.925 31.9252 11.925C31.9253 11.925 31.9254 11.925 31.9255 11.925C31.9256 11.925 31.9257 11.925 31.9258 11.925C31.9259 11.925 31.926 11.925 31.9261 11.925C31.9262 11.925 31.9263 11.925 31.9264 11.925C31.9265 11.925 31.9266 11.925 31.9267 11.925C31.9268 11.925 31.9269 11.925 31.927 11.925C31.9271 11.925 31.9271 11.925 31.9272 11.925C31.9273 11.925 31.9274 11.925 31.9275 11.925C31.9276 11.925 31.9277 11.925 31.9278 11.925C31.9279 11.925 31.928 11.925 31.9281 11.925C31.9282 11.925 31.9283 11.925 31.9284 11.925C31.9285 11.925 31.9286 11.925 31.9287 11.925C31.9288 11.925 31.9289 11.925 31.929 11.925C31.9291 11.925 31.9292 11.925 31.9293 11.925C31.9294 11.925 31.9295 11.925 31.9296 11.925C31.9297 11.925 31.9298 11.925 31.9299 11.925C31.93 11.925 31.9301 11.925 31.9302 11.925C31.9303 11.925 31.9304 11.925 31.9305 11.925C31.9306 11.925 31.9307 11.925 31.9308 11.925C31.9309 11.925 31.931 11.925 31.9311 11.925C31.9312 11.925 31.9313 11.925 31.9313 11.925C31.9314 11.925 31.9315 11.925 31.9316 11.925C31.9317 11.925 31.9318 11.925 31.9319 11.925C31.932 11.925 31.9321 11.925 31.9322 11.925C31.9323 11.925 31.9324 11.925 31.9325 11.925C31.9326 11.925 31.9327 11.925 31.9328 11.925C31.9329 11.925 31.933 11.925 31.9331 11.925C31.9332 11.925 31.9333 11.925 31.9334 11.925C31.9335 11.925 31.9336 11.925 31.9337 11.925C31.9338 11.925 31.9339 11.925 31.934 11.925C31.9341 11.925 31.9342 11.925 31.9343 11.925C31.9344 11.925 31.9345 11.925 31.9346 11.925C31.9347 11.925 31.9348 11.925 31.9349 11.925C31.935 11.925 31.9351 11.925 31.9352 11.925C31.9353 11.925 31.9354 11.925 31.9354 11.925C31.9355 11.925 31.9356 11.925 31.9357 11.925C31.9358 11.925 31.9359 11.925 31.936 11.925C31.9361 11.925 31.9362 11.925 31.9363 11.925C31.9364 11.925 31.9365 11.925 31.9366 11.925C31.9367 11.925 31.9368 11.925 31.9369 11.925C31.937 11.925 31.9371 11.925 31.9372 11.925C31.9373 11.925 31.9374 11.925 31.9375 11.925C31.9376 11.925 31.9377 11.925 31.9378 11.925C31.9379 11.925 31.938 11.925 31.9381 11.925C31.9382 11.925 31.9383 11.925 31.9384 11.925C31.9385 11.925 31.9386 11.925 31.9387 11.925C31.9388 11.925 31.9389 11.925 31.939 11.925C31.9391 11.925 31.9392 11.925 31.9393 11.925C31.9394 11.925 31.9395 11.925 31.9396 11.925C31.9396 11.925 31.9397 11.925 31.9398 11.925C31.9399 11.925 31.94 11.925 31.9401 11.925C31.9402 11.925 31.9403 11.925 31.9404 11.925C31.9405 11.925 31.9406 11.925 31.9407 11.925C31.9408 11.925 31.9409 11.925 31.941 11.925C31.9411 11.925 31.9412 11.925 31.9413 11.925C31.9414 11.925 31.9415 11.925 31.9416 11.925C31.9417 11.925 31.9418 11.925 31.9419 11.925C31.942 11.925 31.9421 11.925 31.9422 11.925C31.9423 11.925 31.9424 11.925 31.9425 11.925C31.9426 11.925 31.9427 11.925 31.9428 11.925C31.9429 11.925 31.943 11.925 31.9431 11.925C31.9432 11.925 31.9433 11.925 31.9434 11.925C31.9435 11.925 31.9436 11.925 31.9437 11.925C31.9438 11.925 31.9438 11.925 31.9439 11.925C31.944 11.925 31.9441 11.925 31.9442 11.925C31.9443 11.925 31.9444 11.925 31.9445 11.925C31.9446 11.925 31.9447 11.925 31.9448 11.925C31.9449 11.925 31.945 11.925 31.9451 11.925C31.9452 11.925 31.9453 11.925 31.9454 11.925C31.9455 11.925 31.9456 11.925 31.9457 11.925C31.9458 11.925 31.9459 11.925 31.946 11.925C31.9461 11.925 31.9462 11.925 31.9463 11.925C31.9464 11.925 31.9465 11.925 31.9466 11.925C31.9467 11.925 31.9468 11.925 31.9469 11.925C31.947 11.925 31.9471 11.925 31.9472 11.925C31.9473 11.925 31.9474 11.925 31.9475 11.925C31.9476 11.925 31.9477 11.925 31.9478 11.925C31.9479 11.925 31.9479 11.925 31.948 11.925C31.9481 11.925 31.9482 11.925 31.9483 11.925C31.9484 11.925 31.9485 11.925 31.9486 11.925C31.9487 11.925 31.9488 11.925 31.9489 11.925C31.949 11.925 31.9491 11.925 31.9492 11.925C31.9493 11.925 31.9494 11.925 31.9495 11.925C31.9496 11.925 31.9497 11.925 31.9498 11.925C31.9499 11.925 31.95 11.925 31.9501 11.925C31.9502 11.925 31.9503 11.925 31.9504 11.925C31.9505 11.925 31.9506 11.925 31.9507 11.925C31.9508 11.925 31.9509 11.925 31.951 11.925C31.9511 11.925 31.9512 11.925 31.9513 11.925C31.9514 11.925 31.9515 11.925 31.9516 11.925C31.9517 11.925 31.9518 11.925 31.9519 11.925C31.952 11.925 31.9521 11.925 31.9521 11.925C31.9522 11.925 31.9523 11.925 31.9524 11.925C31.9525 11.925 31.9526 11.925 31.9527 11.925C31.9528 11.925 31.9529 11.925 31.953 11.925C31.9531 11.925 31.9532 11.925 31.9533 11.925C31.9534 11.925 31.9535 11.925 31.9536 11.925C31.9537 11.925 31.9538 11.925 31.9539 11.925C31.954 11.925 31.9541 11.925 31.9542 11.925C31.9543 11.925 31.9544 11.925 31.9545 11.925C31.9546 11.925 31.9547 11.925 31.9548 11.925C31.9549 11.925 31.955 11.925 31.9551 11.925C31.9552 11.925 31.9553 11.925 31.9554 11.925C31.9555 11.925 31.9556 11.925 31.9557 11.925C31.9558 11.925 31.9559 11.925 31.956 11.925C31.9561 11.925 31.9562 11.925 31.9563 11.925C31.9563 11.925 31.9564 11.925 31.9565 11.925C31.9566 11.925 31.9567 11.925 31.9568 11.925C31.9569 11.925 31.957 11.925 31.9571 11.925C31.9572 11.925 31.9573 11.925 31.9574 11.925C31.9575 11.925 31.9576 11.925 31.9577 11.925C31.9578 11.925 31.9579 11.925 31.958 11.925C31.9581 11.925 31.9582 11.925 31.9583 11.925C31.9584 11.925 31.9585 11.925 31.9586 11.925C31.9587 11.925 31.9588 11.925 31.9589 11.925C31.959 11.925 31.9591 11.925 31.9592 11.925C31.9593 11.925 31.9594 11.925 31.9595 11.925C31.9596 11.925 31.9597 11.925 31.9598 11.925C31.9599 11.925 31.96 11.925 31.9601 11.925C31.9602 11.925 31.9603 11.925 31.9604 11.925C31.9604 11.925 31.9605 11.925 31.9606 11.925C31.9607 11.925 31.9608 11.925 31.9609 11.925C31.961 11.925 31.9611 11.925 31.9612 11.925C31.9613 11.925 31.9614 11.925 31.9615 11.925C31.9616 11.925 31.9617 11.925 31.9618 11.925C31.9619 11.925 31.962 11.925 31.9621 11.925C31.9622 11.925 31.9623 11.925 31.9624 11.925C31.9625 11.925 31.9626 11.925 31.9627 11.925C31.9628 11.925 31.9629 11.925 31.963 11.925C31.9631 11.925 31.9632 11.925 31.9633 11.925C31.9634 11.925 31.9635 11.925 31.9636 11.925C31.9637 11.925 31.9638 11.925 31.9639 11.925C31.964 11.925 31.9641 11.925 31.9642 11.925C31.9643 11.925 31.9644 11.925 31.9645 11.925C31.9646 11.925 31.9646 11.925 31.9647 11.925C31.9648 11.925 31.9649 11.925 31.965 11.925C31.9651 11.925 31.9652 11.925 31.9653 11.925C31.9654 11.925 31.9655 11.925 31.9656 11.925C31.9657 11.925 31.9658 11.925 31.9659 11.925C31.966 11.925 31.9661 11.925 31.9662 11.925C31.9663 11.925 31.9664 11.925 31.9665 11.925C31.9666 11.925 31.9667 11.925 31.9668 11.925C31.9669 11.925 31.967 11.925 31.9671 11.925C31.9672 11.925 31.9673 11.925 31.9674 11.925C31.9675 11.925 31.9676 11.925 31.9677 11.925C31.9678 11.925 31.9679 11.925 31.968 11.925C31.9681 11.925 31.9682 11.925 31.9683 11.925C31.9684 11.925 31.9685 11.925 31.9686 11.925C31.9687 11.925 31.9688 11.925 31.9688 11.925C31.9689 11.925 31.969 11.925 31.9691 11.925C31.9692 11.925 31.9693 11.925 31.9694 11.925C31.9695 11.925 31.9696 11.925 31.9697 11.925C31.9698 11.925 31.9699 11.925 31.97 11.925C31.9701 11.925 31.9702 11.925 31.9703 11.925C31.9704 11.925 31.9705 11.925 31.9706 11.925C31.9707 11.925 31.9708 11.925 31.9709 11.925C31.971 11.925 31.9711 11.925 31.9712 11.925C31.9713 11.925 31.9714 11.925 31.9715 11.925C31.9716 11.925 31.9717 11.925 31.9718 11.925C31.9719 11.925 31.972 11.925 31.9721 11.925C31.9722 11.925 31.9723 11.925 31.9724 11.925C31.9725 11.925 31.9726 11.925 31.9727 11.925C31.9728 11.925 31.9729 11.925 31.9729 11.925C31.973 11.925 31.9731 11.925 31.9732 11.925C31.9733 11.925 31.9734 11.925 31.9735 11.925C31.9736 11.925 31.9737 11.925 31.9738 11.925C31.9739 11.925 31.974 11.925 31.9741 11.925C31.9742 11.925 31.9743 11.925 31.9744 11.925C31.9745 11.925 31.9746 11.925 31.9747 11.925C31.9748 11.925 31.9749 11.925 31.975 11.925C31.9751 11.925 31.9752 11.925 31.9753 11.925C31.9754 11.925 31.9755 11.925 31.9756 11.925C31.9757 11.925 31.9758 11.925 31.9759 11.925C31.976 11.925 31.9761 11.925 31.9762 11.925C31.9763 11.925 31.9764 11.925 31.9765 11.925C31.9766 11.925 31.9767 11.925 31.9768 11.925C31.9769 11.925 31.977 11.925 31.9771 11.925C31.9771 11.925 31.9772 11.925 31.9773 11.925C31.9774 11.925 31.9775 11.925 31.9776 11.925C31.9777 11.925 31.9778 11.925 31.9779 11.925C31.978 11.925 31.9781 11.925 31.9782 11.925C31.9783 11.925 31.9784 11.925 31.9785 11.925C31.9786 11.925 31.9787 11.925 31.9788 11.925C31.9789 11.925 31.979 11.925 31.9791 11.925C31.9792 11.925 31.9793 11.925 31.9794 11.925C31.9795 11.925 31.9796 11.925 31.9797 11.925C31.9798 11.925 31.9799 11.925 31.98 11.925C31.9801 11.925 31.9802 11.925 31.9803 11.925C31.9804 11.925 31.9805 11.925 31.9806 11.925C31.9807 11.925 31.9808 11.925 31.9809 11.925C31.981 11.925 31.9811 11.925 31.9812 11.925C31.9813 11.925 31.9813 11.925 31.9814 11.925C31.9815 11.925 31.9816 11.925 31.9817 11.925C31.9818 11.925 31.9819 11.925 31.982 11.925C31.9821 11.925 31.9822 11.925 31.9823 11.925C31.9824 11.925 31.9825 11.925 31.9826 11.925C31.9827 11.925 31.9828 11.925 31.9829 11.925C31.983 11.925 31.9831 11.925 31.9832 11.925C31.9833 11.925 31.9834 11.925 31.9835 11.925C31.9836 11.925 31.9837 11.925 31.9838 11.925C31.9839 11.925 31.984 11.925 31.9841 11.925C31.9842 11.925 31.9843 11.925 31.9844 11.925C31.9845 11.925 31.9846 11.925 31.9847 11.925C31.9848 11.925 31.9849 11.925 31.985 11.925C31.9851 11.925 31.9852 11.925 31.9853 11.925C31.9854 11.925 31.9854 11.925 31.9855 11.925C31.9856 11.925 31.9857 11.925 31.9858 11.925C31.9859 11.925 31.986 11.925 31.9861 11.925C31.9862 11.925 31.9863 11.925 31.9864 11.925C31.9865 11.925 31.9866 11.925 31.9867 11.925C31.9868 11.925 31.9869 11.925 31.987 11.925C31.9871 11.925 31.9872 11.925 31.9873 11.925C31.9874 11.925 31.9875 11.925 31.9876 11.925C31.9877 11.925 31.9878 11.925 31.9879 11.925C31.988 11.925 31.9881 11.925 31.9882 11.925C31.9883 11.925 31.9884 11.925 31.9885 11.925C31.9886 11.925 31.9887 11.925 31.9888 11.925C31.9889 11.925 31.989 11.925 31.9891 11.925C31.9892 11.925 31.9893 11.925 31.9894 11.925C31.9895 11.925 31.9896 11.925 31.9896 11.925C31.9897 11.925 31.9898 11.925 31.9899 11.925C31.99 11.925 31.9901 11.925 31.9902 11.925C31.9903 11.925 31.9904 11.925 31.9905 11.925C31.9906 11.925 31.9907 11.925 31.9908 11.925C31.9909 11.925 31.991 11.925 31.9911 11.925C31.9912 11.925 31.9913 11.925 31.9914 11.925C31.9915 11.925 31.9916 11.925 31.9917 11.925C31.9918 11.925 31.9919 11.925 31.992 11.925C31.9921 11.925 31.9922 11.925 31.9923 11.925C31.9924 11.925 31.9925 11.925 31.9926 11.925C31.9927 11.925 31.9928 11.925 31.9929 11.925C31.993 11.925 31.9931 11.925 31.9932 11.925C31.9933 11.925 31.9934 11.925 31.9935 11.925C31.9936 11.925 31.9937 11.925 31.9938 11.925C31.9938 11.925 31.9939 11.925 31.994 11.925C31.9941 11.925 31.9942 11.925 31.9943 11.925C31.9944 11.925 31.9945 11.925 31.9946 11.925C31.9947 11.925 31.9948 11.925 31.9949 11.925C31.995 11.925 31.9951 11.925 31.9952 11.925C31.9953 11.925 31.9954 11.925 31.9955 11.925C31.9956 11.925 31.9957 11.925 31.9958 11.925C31.9959 11.925 31.996 11.925 31.9961 11.925C31.9962 11.925 31.9963 11.925 31.9964 11.925C31.9965 11.925 31.9966 11.925 31.9967 11.925C31.9968 11.925 31.9969 11.925 31.997 11.925C31.9971 11.925 31.9972 11.925 31.9973 11.925C31.9974 11.925 31.9975 11.925 31.9976 11.925C31.9977 11.925 31.9978 11.925 31.9979 11.925C31.9979 11.925 31.998 11.925 31.9981 11.925C31.9982 11.925 31.9983 11.925 31.9984 11.925C31.9985 11.925 31.9986 11.925 31.9987 11.925C31.9988 11.925 31.9989 11.925 31.999 11.925C31.9991 11.925 31.9992 11.925 31.9993 11.925C31.9994 11.925 31.9995 11.925 31.9996 11.925C31.9997 11.925 31.9998 11.925 31.9999 11.925C32 11.925 32.0001 11.925 32.0002 11.925C32.0003 11.925 32.0004 11.925 32.0005 11.925C32.0006 11.925 32.0007 11.925 32.0008 11.925C32.0009 11.925 32.001 11.925 32.0011 11.925C32.0012 11.925 32.0013 11.925 32.0014 11.925C32.0015 11.925 32.0016 11.925 32.0017 11.925C32.0018 11.925 32.0019 11.925 32.002 11.925C32.0021 11.925 32.0021 11.925 32.0022 11.925C32.0023 11.925 32.0024 11.925 32.0025 11.925C32.0026 11.925 32.0027 11.925 32.0028 11.925C32.0029 11.925 32.003 11.925 32.0031 11.925C32.0032 11.925 32.0033 11.925 32.0034 11.925C32.0035 11.925 32.0036 11.925 32.0037 11.925C32.0038 11.925 32.0039 11.925 32.004 11.925C32.0041 11.925 32.0042 11.925 32.0043 11.925C32.0044 11.925 32.0045 11.925 32.0046 11.925C32.0047 11.925 32.0048 11.925 32.0049 11.925C32.005 11.925 32.0051 11.925 32.0052 11.925C32.0053 11.925 32.0054 11.925 32.0055 11.925C32.0056 11.925 32.0057 11.925 32.0058 11.925C32.0059 11.925 32.006 11.925 32.0061 11.925C32.0062 11.925 32.0063 11.925 32.0063 11.925C32.0064 11.925 32.0065 11.925 32.0066 11.925C32.0067 11.925 32.0068 11.925 32.0069 11.925C32.007 11.925 32.0071 11.925 32.0072 11.925C32.0073 11.925 32.0074 11.925 32.0075 11.925C32.0076 11.925 32.0077 11.925 32.0078 11.925C32.0079 11.925 32.008 11.925 32.0081 11.925C32.0082 11.925 32.0083 11.925 32.0084 11.925C32.0085 11.925 32.0086 11.925 32.0087 11.925C32.0088 11.925 32.0089 11.925 32.009 11.925C32.0091 11.925 32.0092 11.925 32.0093 11.925C32.0094 11.925 32.0095 11.925 32.0096 11.925C32.0097 11.925 32.0098 11.925 32.0099 11.925C32.01 11.925 32.0101 11.925 32.0102 11.925C32.0103 11.925 32.0104 11.925 32.0104 11.925V9.925ZM30.8605 10.925V10.95H32.8605V10.925H30.8605ZM31.8605 9.95H23.4854V11.95H31.8605V9.95ZM22.4854 10.95V19H24.4854V10.95H22.4854ZM23.4854 18H20.3604V20H23.4854V18ZM21.3604 19V1.5H19.3604V19H21.3604ZM20.3604 2.5H31.3854V0.499999H20.3604V2.5ZM31.3854 2.5C32.4105 2.5 33.3339 2.91263 34.0033 3.58211L35.4176 2.16789C34.387 1.13737 32.9604 0.499999 31.3854 0.499999V2.5ZM33.0605 7.725V7.7H31.0605V7.725H33.0605ZM32.4592 8.61707C33.4006 8.20774 34.0105 7.27165 34.0105 6.25H32.0105C32.0105 6.47835 31.8703 6.69226 31.6617 6.78293L32.4592 8.61707ZM34.0105 6.25C34.0105 5.31624 33.5266 4.67689 33.2426 4.39289L31.8283 5.8071C31.8943 5.87311 32.0105 6.03376 32.0105 6.25H34.0105ZM33.2426 4.39289C32.9022 4.05255 32.2857 3.65 31.4104 3.65V5.65C31.6352 5.65 31.7687 5.74745 31.8283 5.80711L33.2426 4.39289ZM31.4104 3.65H23.4854V5.65H31.4104V3.65ZM22.4854 4.65V7.875H24.4854V4.65H22.4854ZM23.4854 8.875H31.4104V6.875H23.4854V8.875ZM31.4104 8.875C31.7808 8.875 32.1602 8.79315 32.5077 8.61943L31.6132 6.83057C31.5607 6.85685 31.4901 6.875 31.4104 6.875V8.875ZM41.7222 19V20H42.7222V19H41.7222ZM38.5972 19H37.5972V20H38.5972V19ZM38.5972 1.5V0.499999H37.5972V1.5H38.5972ZM41.7222 1.5H42.7222V0.499999H41.7222V1.5ZM41.7222 18H38.5972V20H41.7222V18ZM39.5972 19V1.5H37.5972V19H39.5972ZM38.5972 2.5H41.7222V0.499999H38.5972V2.5ZM40.7222 1.5V19H42.7222V1.5H40.7222ZM44.2124 1.5L44.2153 0.500003L43.2124 0.497129V1.5H44.2124ZM52.9374 1.525L52.9345 2.525H52.9374V1.525ZM59.6124 15.9L60.3717 16.5508L60.3734 16.5487L59.6124 15.9ZM59.1124 16.425L58.4053 15.7179L58.3998 15.7235L59.1124 16.425ZM44.2124 19H43.2124V20H44.2124V19ZM47.3124 4.65V3.65H46.3124V4.65H47.3124ZM47.3124 15.9H46.3124V16.9H47.3124V15.9ZM44.2095 2.49999L52.9345 2.52499L52.9403 0.525003L44.2153 0.500003L44.2095 2.49999ZM52.9374 2.525C57.2138 2.525 60.6874 5.98101 60.6874 10.25H62.6874C62.6874 4.86899 58.311 0.524998 52.9374 0.524998V2.525ZM60.6874 10.25C60.6874 12.1555 60.0015 13.9021 58.8514 15.2513L60.3734 16.5487C61.8233 14.8479 62.6874 12.6445 62.6874 10.25H60.6874ZM58.8531 15.2492C58.7327 15.3897 58.5863 15.5369 58.4053 15.7179L59.8195 17.1321C59.9885 16.9631 60.1921 16.7603 60.3717 16.5508L58.8531 15.2492ZM58.3998 15.7235C57.0061 17.1392 55.0852 18 52.9624 18V20C55.6396 20 58.0687 18.9108 59.8251 17.1265L58.3998 15.7235ZM52.9624 18H44.2124V20H52.9624V18ZM45.2124 19V1.5H43.2124V19H45.2124ZM46.3124 4.65V15.9H48.3124V4.65H46.3124ZM47.3124 16.9H52.9374V14.9H47.3124V16.9ZM52.9374 16.9C56.5897 16.9 59.5624 13.9273 59.5624 10.275H57.5624C57.5624 12.8227 55.4851 14.9 52.9374 14.9V16.9ZM59.5624 10.275C59.5624 6.62271 56.5897 3.65 52.9374 3.65V5.65C55.4851 5.65 57.5624 7.72728 57.5624 10.275H59.5624ZM52.9374 3.65H47.3124V5.65H52.9374V3.65Z" fill="#673DE6" mask="url(#path-2-outside-1_1336_24)"/>
<rect x="64" y="1" width="18" height="5" fill="#673DE6"/>
<rect x="64" y="8" width="18" height="5" fill="#673DE6"/>
<rect x="64" y="15" width="18" height="5" fill="#673DE6"/>
<mask id="path-7-outside-2_1336_24" maskUnits="userSpaceOnUse" x="83" y="0" width="19" height="21" fill="black">
<rect fill="white" x="83" width="19" height="21"/>
<path d="M96.2441 10.925L98.7441 15.9L100.344 19.025H96.8441L95.2441 15.9L93.5691 12.625L93.4941 12.475C92.9441 11.575 91.9691 10.975 90.8441 10.975H87.7191V19.025H84.5941V1.525H95.6441C96.9441 1.525 98.1191 2.05 98.9691 2.9C99.8191 3.775 100.344 4.95 100.344 6.25C100.344 8.15 99.2191 9.8 97.5941 10.55C97.1691 10.75 96.7191 10.875 96.2441 10.925ZM87.7191 7.875L95.6441 7.85C95.8691 7.85 96.0941 7.8 96.2941 7.7C96.8691 7.45 97.2441 6.875 97.2441 6.25C97.2441 5.675 96.9441 5.275 96.7691 5.1C96.5691 4.9 96.1941 4.65 95.6441 4.65H87.7191V7.875Z"/>
</mask>
<path d="M96.2441 10.925L96.1395 9.93049L94.7013 10.0819L95.3506 11.374L96.2441 10.925ZM98.7441 15.9L97.8506 16.349L97.854 16.3557L98.7441 15.9ZM100.344 19.025V20.025H101.98L101.234 18.5693L100.344 19.025ZM96.8441 19.025L95.954 19.4807L96.2327 20.025H96.8441V19.025ZM95.2441 15.9L94.3538 16.3554L94.354 16.3557L95.2441 15.9ZM93.5691 12.625L92.6747 13.0722L92.6788 13.0803L93.5691 12.625ZM93.4941 12.475L94.3886 12.0278L94.3696 11.9898L94.3474 11.9535L93.4941 12.475ZM87.7191 10.975V9.975H86.7191V10.975H87.7191ZM87.7191 19.025V20.025H88.7191V19.025H87.7191ZM84.5941 19.025H83.5941V20.025H84.5941V19.025ZM84.5941 1.525V0.524998H83.5941V1.525H84.5941ZM98.9691 2.9L99.6864 2.20321L99.6814 2.19802L99.6762 2.19289L98.9691 2.9ZM97.5941 10.55L97.1751 9.64201L97.1683 9.64518L97.5941 10.55ZM87.7191 7.875H86.7191V8.87816L87.7223 8.87499L87.7191 7.875ZM95.6441 7.85L95.6441 6.84999L95.641 6.85L95.6441 7.85ZM96.2941 7.7L95.8954 6.78293L95.8709 6.7936L95.8469 6.80557L96.2941 7.7ZM96.7691 5.1L97.4762 4.39289L97.4762 4.39289L96.7691 5.1ZM87.7191 4.65V3.65H86.7191V4.65H87.7191ZM95.3506 11.374L97.8506 16.349L99.6377 15.451L97.1377 10.476L95.3506 11.374ZM97.854 16.3557L99.454 19.4807L101.234 18.5693L99.6343 15.4443L97.854 16.3557ZM100.344 18.025H96.8441V20.025H100.344V18.025ZM97.7343 18.5693L96.1343 15.4443L94.354 16.3557L95.954 19.4807L97.7343 18.5693ZM96.1345 15.4446L94.4595 12.1696L92.6788 13.0803L94.3538 16.3554L96.1345 15.4446ZM94.4636 12.1778L94.3886 12.0278L92.5997 12.9222L92.6747 13.0722L94.4636 12.1778ZM94.3474 11.9535C93.627 10.7747 92.3386 9.975 90.8441 9.975V11.975C91.5997 11.975 92.2613 12.3753 92.6409 12.9964L94.3474 11.9535ZM90.8441 9.975H87.7191V11.975H90.8441V9.975ZM86.7191 10.975V19.025H88.7191V10.975H86.7191ZM87.7191 18.025H84.5941V20.025H87.7191V18.025ZM85.5941 19.025V1.525H83.5941V19.025H85.5941ZM84.5941 2.525H95.6441V0.524998H84.5941V2.525ZM95.6441 2.525C96.6692 2.525 97.5926 2.93763 98.262 3.60711L99.6762 2.19289C98.6457 1.16237 97.2191 0.524998 95.6441 0.524998V2.525ZM98.2519 3.59678C98.9329 4.2978 99.3441 5.22732 99.3441 6.25H101.344C101.344 4.67268 100.705 3.25219 99.6864 2.20321L98.2519 3.59678ZM99.3441 6.25C99.3441 7.74726 98.4576 9.05011 97.1751 9.64204L98.0132 11.458C99.9807 10.5499 101.344 8.55274 101.344 6.25H99.3441ZM97.1683 9.64518C96.8463 9.79672 96.5051 9.89201 96.1395 9.93049L96.3488 11.9195C96.9332 11.858 97.492 11.7033 98.0199 11.4548L97.1683 9.64518ZM87.7223 8.87499L95.6473 8.84999L95.641 6.85L87.716 6.875L87.7223 8.87499ZM95.6441 8.85C96.0145 8.85 96.3939 8.76815 96.7414 8.59443L95.8469 6.80557C95.7944 6.83185 95.7238 6.85 95.6441 6.85V8.85ZM96.6929 8.61707C97.6343 8.20774 98.2441 7.27165 98.2441 6.25H96.2441C96.2441 6.47835 96.1039 6.69226 95.8954 6.78293L96.6929 8.61707ZM98.2441 6.25C98.2441 5.31624 97.7602 4.67689 97.4762 4.39289L96.062 5.80711C96.128 5.87311 96.2441 6.03376 96.2441 6.25H98.2441ZM97.4762 4.39289C97.1359 4.05255 96.5194 3.65 95.6441 3.65V5.65C95.8689 5.65 96.0024 5.74745 96.062 5.80711L97.4762 4.39289ZM95.6441 3.65H87.7191V5.65H95.6441V3.65ZM86.7191 4.65V7.875H88.7191V4.65H86.7191Z" fill="#673DE6" mask="url(#path-7-outside-2_1336_24)"/>
<line x1="2" y1="22.9" x2="102" y2="22.9" stroke="#673DE6" stroke-opacity="0.5" stroke-width="0.2"/>
</svg>
