<svg width="258" height="105" viewBox="0 0 258 105" fill="none" xmlns="http://www.w3.org/2000/svg">
<mask id="path-1-outside-1_1418_336" maskUnits="userSpaceOnUse" x="2" y="-1" width="254" height="89" fill="black">
<rect fill="white" x="2" y="-1" width="254" height="89"/>
<path d="M49.8742 56.8C49.8742 59.2 49.2742 61.4 48.0742 63.4C46.8742 65.4 45.2742 67 43.2742 68.2C41.2742 69.4 39.0742 70 36.6742 70H17.4742C15.0742 70 12.8409 69.4 10.7742 68.2C8.77422 67 7.17422 65.4 5.97422 63.4C4.77422 61.4 4.17422 59.2 4.17422 56.8V53.8C4.17422 52.5333 4.60755 51.4667 5.47422 50.6C6.40755 49.6667 7.50755 49.2 8.77422 49.2H11.5742C12.7742 49.2 13.8076 49.6667 14.6742 50.6C15.6076 51.4667 16.0742 52.5333 16.0742 53.8V56.8C16.0742 57.1333 16.2076 57.4667 16.4742 57.8C16.8076 58.0667 17.1409 58.2 17.4742 58.2H36.6742C37.0076 58.2 37.3076 58.0667 37.5742 57.8C37.8409 57.4667 37.9742 57.1333 37.9742 56.8V47.7C37.9742 46.9667 37.6409 46.5 36.9742 46.3L12.9742 37.3C10.3076 36.3667 8.17422 34.7333 6.57422 32.4C4.97422 30.0667 4.17422 27.5 4.17422 24.7V15.7C4.17422 13.2333 4.77422 11 5.97422 9C7.17422 7 8.77422 5.4 10.7742 4.19999C12.8409 2.99999 15.0742 2.39999 17.4742 2.39999H36.6742C39.0742 2.39999 41.2742 2.99999 43.2742 4.19999C45.2742 5.4 46.8742 7 48.0742 9C49.2742 11 49.8742 13.2333 49.8742 15.7V18.4C49.8742 19.6667 49.4076 20.7333 48.4742 21.6C47.6076 22.4667 46.5409 22.9 45.2742 22.9H42.5742C41.3076 22.9 40.2076 22.4667 39.2742 21.6C38.4076 20.7333 37.9742 19.6667 37.9742 18.4V15.7C37.9742 14.7667 37.5409 14.3 36.6742 14.3H17.4742C17.1409 14.3 16.8076 14.4333 16.4742 14.7C16.2076 14.9667 16.0742 15.3 16.0742 15.7V24.7C16.0742 25.5 16.4076 26 17.0742 26.2L41.1742 35.2C43.7742 36.1333 45.8742 37.7667 47.4742 40.1C49.0742 42.4333 49.8742 44.9667 49.8742 47.7V56.8ZM96.1805 58.8C96.1805 61.9333 95.0805 64.6 92.8805 66.8C90.7471 68.9333 88.1471 70 85.0805 70H73.2805C72.9471 70 72.6138 70.1333 72.2805 70.4C72.0138 70.6667 71.8805 70.9667 71.8805 71.3V81.4C71.8805 82.6667 71.4471 83.7333 70.5805 84.6C69.7138 85.5333 68.6471 86 67.3805 86H64.5805C63.3138 86 62.2138 85.5333 61.2805 84.6C60.4138 83.7333 59.9805 82.6667 59.9805 81.4V29.4C59.9805 27.3333 60.4805 25.4667 61.4805 23.8C62.5471 22.0667 63.9138 20.7 65.5805 19.7C67.2471 18.7 69.1138 18.2 71.1805 18.2H85.0805C87.1471 18.2 89.0138 18.7 90.6805 19.7C92.3471 20.7 93.6805 22.0667 94.6805 23.8C95.6805 25.4667 96.1805 27.3333 96.1805 29.4V58.8ZM84.3805 56.9V31.5C84.3805 31.1 84.2138 30.7667 83.8805 30.5C83.6138 30.2333 83.3138 30.1 82.9805 30.1H73.2805C72.9471 30.1 72.6138 30.2333 72.2805 30.5C72.0138 30.7667 71.8805 31.1 71.8805 31.5V56.9C71.8805 57.2333 72.0138 57.5333 72.2805 57.8C72.6138 58.0667 72.9471 58.2 73.2805 58.2H82.9805C83.3138 58.2 83.6138 58.0667 83.8805 57.8C84.2138 57.5333 84.3805 57.2333 84.3805 56.9ZM121.416 8.8C121.416 10.8667 120.65 12.6667 119.116 14.2C117.65 15.6667 115.916 16.4 113.916 16.4C111.85 16.4 110.05 15.6667 108.516 14.2C107.05 12.6667 106.316 10.8667 106.316 8.8C106.316 6.8 107.05 5.06666 108.516 3.6C110.05 2.06666 111.85 1.3 113.916 1.3C115.916 1.3 117.65 2.06666 119.116 3.6C120.65 5.06666 121.416 6.8 121.416 8.8ZM119.816 65.4C119.816 66.6667 119.35 67.7667 118.416 68.7C117.55 69.5667 116.483 70 115.216 70H112.516C111.25 70 110.15 69.5667 109.216 68.7C108.35 67.7667 107.916 66.6667 107.916 65.4V23.9C107.916 22.6333 108.35 21.5667 109.216 20.7C110.15 19.7667 111.25 19.3 112.516 19.3H115.216C116.483 19.3 117.55 19.7667 118.416 20.7C119.35 21.5667 119.816 22.6333 119.816 23.9V65.4ZM167.661 58.8C167.661 61.9333 166.561 64.6 164.361 66.8C162.228 68.9333 159.628 70 156.561 70H142.661C139.594 70 136.961 68.9333 134.761 66.8C132.561 64.6 131.461 61.9333 131.461 58.8V29.4C131.461 27.3333 131.961 25.4667 132.961 23.8C134.028 22.0667 135.394 20.7 137.061 19.7C138.728 18.7 140.594 18.2 142.661 18.2H154.461C155.394 18.2 155.861 17.8 155.861 17V6.99999C155.861 5.66666 156.294 4.56666 157.161 3.7C158.028 2.83333 159.094 2.39999 160.361 2.39999H163.161C164.428 2.39999 165.494 2.83333 166.361 3.7C167.228 4.56666 167.661 5.66666 167.661 6.99999V58.8ZM155.861 56.9V31.5C155.861 30.5667 155.394 30.1 154.461 30.1H144.761C144.428 30.1 144.094 30.2333 143.761 30.5C143.494 30.7667 143.361 31.1 143.361 31.5V56.9C143.361 57.2333 143.494 57.5333 143.761 57.8C144.094 58.0667 144.428 58.2 144.761 58.2H154.461C155.394 58.2 155.861 57.7667 155.861 56.9ZM213.997 40.3C213.997 42.3 213.497 44.1667 212.497 45.9C211.497 47.5667 210.164 48.9333 208.497 50C206.83 51 204.964 51.5 202.897 51.5H191.097C190.764 51.5 190.43 51.6333 190.097 51.9C189.83 52.1 189.697 52.3667 189.697 52.7V56.9C189.697 57.2333 189.83 57.5333 190.097 57.8C190.43 58.0667 190.764 58.2 191.097 58.2H202.897C204.164 58.2 205.23 58.6333 206.097 59.5C207.03 60.3667 207.497 61.4667 207.497 62.8V65.4C207.497 66.6667 207.03 67.7667 206.097 68.7C205.23 69.5667 204.164 70 202.897 70H188.997C185.93 70 183.297 68.9333 181.097 66.8C178.897 64.6 177.797 61.9333 177.797 58.8V29.4C177.797 27.3333 178.297 25.4667 179.297 23.8C180.364 22.1333 181.73 20.8 183.397 19.8C185.064 18.7333 186.93 18.2 188.997 18.2H202.897C204.964 18.2 206.83 18.7333 208.497 19.8C210.164 20.8 211.497 22.1333 212.497 23.8C213.497 25.4667 213.997 27.3333 213.997 29.4V40.3ZM202.197 38.3V31.5C202.197 31.1 202.03 30.7667 201.697 30.5C201.43 30.2333 201.13 30.1 200.797 30.1H191.097C190.764 30.1 190.43 30.2333 190.097 30.5C189.83 30.7667 189.697 31.1 189.697 31.5V38.3C189.697 38.5667 189.83 38.8333 190.097 39.1C190.43 39.3667 190.764 39.5 191.097 39.5H200.797C201.13 39.5 201.43 39.3667 201.697 39.1C202.03 38.8333 202.197 38.5667 202.197 38.3ZM253.833 25.6C253.833 26.8667 253.399 27.9333 252.533 28.8C251.666 29.6667 250.599 30.1 249.333 30.1H237.433C236.566 30.1 236.133 30.5667 236.133 31.5V65.4C236.133 66.6667 235.666 67.7667 234.733 68.7C233.866 69.5667 232.799 70 231.533 70H228.733C227.466 70 226.399 69.5667 225.533 68.7C224.666 67.7667 224.233 66.6667 224.233 65.4V29.4C224.233 27.3333 224.733 25.4667 225.733 23.8C226.733 22.0667 228.066 20.7 229.733 19.7C231.399 18.7 233.266 18.2 235.333 18.2H249.333C250.599 18.2 251.666 18.6667 252.533 19.6C253.399 20.4667 253.833 21.5667 253.833 22.9V25.6Z"/>
</mask>
<path d="M49.8742 56.8C49.8742 59.2 49.2742 61.4 48.0742 63.4C46.8742 65.4 45.2742 67 43.2742 68.2C41.2742 69.4 39.0742 70 36.6742 70H17.4742C15.0742 70 12.8409 69.4 10.7742 68.2C8.77422 67 7.17422 65.4 5.97422 63.4C4.77422 61.4 4.17422 59.2 4.17422 56.8V53.8C4.17422 52.5333 4.60755 51.4667 5.47422 50.6C6.40755 49.6667 7.50755 49.2 8.77422 49.2H11.5742C12.7742 49.2 13.8076 49.6667 14.6742 50.6C15.6076 51.4667 16.0742 52.5333 16.0742 53.8V56.8C16.0742 57.1333 16.2076 57.4667 16.4742 57.8C16.8076 58.0667 17.1409 58.2 17.4742 58.2H36.6742C37.0076 58.2 37.3076 58.0667 37.5742 57.8C37.8409 57.4667 37.9742 57.1333 37.9742 56.8V47.7C37.9742 46.9667 37.6409 46.5 36.9742 46.3L12.9742 37.3C10.3076 36.3667 8.17422 34.7333 6.57422 32.4C4.97422 30.0667 4.17422 27.5 4.17422 24.7V15.7C4.17422 13.2333 4.77422 11 5.97422 9C7.17422 7 8.77422 5.4 10.7742 4.19999C12.8409 2.99999 15.0742 2.39999 17.4742 2.39999H36.6742C39.0742 2.39999 41.2742 2.99999 43.2742 4.19999C45.2742 5.4 46.8742 7 48.0742 9C49.2742 11 49.8742 13.2333 49.8742 15.7V18.4C49.8742 19.6667 49.4076 20.7333 48.4742 21.6C47.6076 22.4667 46.5409 22.9 45.2742 22.9H42.5742C41.3076 22.9 40.2076 22.4667 39.2742 21.6C38.4076 20.7333 37.9742 19.6667 37.9742 18.4V15.7C37.9742 14.7667 37.5409 14.3 36.6742 14.3H17.4742C17.1409 14.3 16.8076 14.4333 16.4742 14.7C16.2076 14.9667 16.0742 15.3 16.0742 15.7V24.7C16.0742 25.5 16.4076 26 17.0742 26.2L41.1742 35.2C43.7742 36.1333 45.8742 37.7667 47.4742 40.1C49.0742 42.4333 49.8742 44.9667 49.8742 47.7V56.8ZM96.1805 58.8C96.1805 61.9333 95.0805 64.6 92.8805 66.8C90.7471 68.9333 88.1471 70 85.0805 70H73.2805C72.9471 70 72.6138 70.1333 72.2805 70.4C72.0138 70.6667 71.8805 70.9667 71.8805 71.3V81.4C71.8805 82.6667 71.4471 83.7333 70.5805 84.6C69.7138 85.5333 68.6471 86 67.3805 86H64.5805C63.3138 86 62.2138 85.5333 61.2805 84.6C60.4138 83.7333 59.9805 82.6667 59.9805 81.4V29.4C59.9805 27.3333 60.4805 25.4667 61.4805 23.8C62.5471 22.0667 63.9138 20.7 65.5805 19.7C67.2471 18.7 69.1138 18.2 71.1805 18.2H85.0805C87.1471 18.2 89.0138 18.7 90.6805 19.7C92.3471 20.7 93.6805 22.0667 94.6805 23.8C95.6805 25.4667 96.1805 27.3333 96.1805 29.4V58.8ZM84.3805 56.9V31.5C84.3805 31.1 84.2138 30.7667 83.8805 30.5C83.6138 30.2333 83.3138 30.1 82.9805 30.1H73.2805C72.9471 30.1 72.6138 30.2333 72.2805 30.5C72.0138 30.7667 71.8805 31.1 71.8805 31.5V56.9C71.8805 57.2333 72.0138 57.5333 72.2805 57.8C72.6138 58.0667 72.9471 58.2 73.2805 58.2H82.9805C83.3138 58.2 83.6138 58.0667 83.8805 57.8C84.2138 57.5333 84.3805 57.2333 84.3805 56.9ZM121.416 8.8C121.416 10.8667 120.65 12.6667 119.116 14.2C117.65 15.6667 115.916 16.4 113.916 16.4C111.85 16.4 110.05 15.6667 108.516 14.2C107.05 12.6667 106.316 10.8667 106.316 8.8C106.316 6.8 107.05 5.06666 108.516 3.6C110.05 2.06666 111.85 1.3 113.916 1.3C115.916 1.3 117.65 2.06666 119.116 3.6C120.65 5.06666 121.416 6.8 121.416 8.8ZM119.816 65.4C119.816 66.6667 119.35 67.7667 118.416 68.7C117.55 69.5667 116.483 70 115.216 70H112.516C111.25 70 110.15 69.5667 109.216 68.7C108.35 67.7667 107.916 66.6667 107.916 65.4V23.9C107.916 22.6333 108.35 21.5667 109.216 20.7C110.15 19.7667 111.25 19.3 112.516 19.3H115.216C116.483 19.3 117.55 19.7667 118.416 20.7C119.35 21.5667 119.816 22.6333 119.816 23.9V65.4ZM167.661 58.8C167.661 61.9333 166.561 64.6 164.361 66.8C162.228 68.9333 159.628 70 156.561 70H142.661C139.594 70 136.961 68.9333 134.761 66.8C132.561 64.6 131.461 61.9333 131.461 58.8V29.4C131.461 27.3333 131.961 25.4667 132.961 23.8C134.028 22.0667 135.394 20.7 137.061 19.7C138.728 18.7 140.594 18.2 142.661 18.2H154.461C155.394 18.2 155.861 17.8 155.861 17V6.99999C155.861 5.66666 156.294 4.56666 157.161 3.7C158.028 2.83333 159.094 2.39999 160.361 2.39999H163.161C164.428 2.39999 165.494 2.83333 166.361 3.7C167.228 4.56666 167.661 5.66666 167.661 6.99999V58.8ZM155.861 56.9V31.5C155.861 30.5667 155.394 30.1 154.461 30.1H144.761C144.428 30.1 144.094 30.2333 143.761 30.5C143.494 30.7667 143.361 31.1 143.361 31.5V56.9C143.361 57.2333 143.494 57.5333 143.761 57.8C144.094 58.0667 144.428 58.2 144.761 58.2H154.461C155.394 58.2 155.861 57.7667 155.861 56.9ZM213.997 40.3C213.997 42.3 213.497 44.1667 212.497 45.9C211.497 47.5667 210.164 48.9333 208.497 50C206.83 51 204.964 51.5 202.897 51.5H191.097C190.764 51.5 190.43 51.6333 190.097 51.9C189.83 52.1 189.697 52.3667 189.697 52.7V56.9C189.697 57.2333 189.83 57.5333 190.097 57.8C190.43 58.0667 190.764 58.2 191.097 58.2H202.897C204.164 58.2 205.23 58.6333 206.097 59.5C207.03 60.3667 207.497 61.4667 207.497 62.8V65.4C207.497 66.6667 207.03 67.7667 206.097 68.7C205.23 69.5667 204.164 70 202.897 70H188.997C185.93 70 183.297 68.9333 181.097 66.8C178.897 64.6 177.797 61.9333 177.797 58.8V29.4C177.797 27.3333 178.297 25.4667 179.297 23.8C180.364 22.1333 181.73 20.8 183.397 19.8C185.064 18.7333 186.93 18.2 188.997 18.2H202.897C204.964 18.2 206.83 18.7333 208.497 19.8C210.164 20.8 211.497 22.1333 212.497 23.8C213.497 25.4667 213.997 27.3333 213.997 29.4V40.3ZM202.197 38.3V31.5C202.197 31.1 202.03 30.7667 201.697 30.5C201.43 30.2333 201.13 30.1 200.797 30.1H191.097C190.764 30.1 190.43 30.2333 190.097 30.5C189.83 30.7667 189.697 31.1 189.697 31.5V38.3C189.697 38.5667 189.83 38.8333 190.097 39.1C190.43 39.3667 190.764 39.5 191.097 39.5H200.797C201.13 39.5 201.43 39.3667 201.697 39.1C202.03 38.8333 202.197 38.5667 202.197 38.3ZM253.833 25.6C253.833 26.8667 253.399 27.9333 252.533 28.8C251.666 29.6667 250.599 30.1 249.333 30.1H237.433C236.566 30.1 236.133 30.5667 236.133 31.5V65.4C236.133 66.6667 235.666 67.7667 234.733 68.7C233.866 69.5667 232.799 70 231.533 70H228.733C227.466 70 226.399 69.5667 225.533 68.7C224.666 67.7667 224.233 66.6667 224.233 65.4V29.4C224.233 27.3333 224.733 25.4667 225.733 23.8C226.733 22.0667 228.066 20.7 229.733 19.7C231.399 18.7 233.266 18.2 235.333 18.2H249.333C250.599 18.2 251.666 18.6667 252.533 19.6C253.399 20.4667 253.833 21.5667 253.833 22.9V25.6Z" fill="#673DE6"/>
<path d="M48.0742 63.4L49.7892 64.429L49.7892 64.429L48.0742 63.4ZM10.7742 68.2L9.74523 69.915L9.75754 69.9224L9.76995 69.9296L10.7742 68.2ZM5.97422 63.4L4.25923 64.429L4.25923 64.429L5.97422 63.4ZM5.47422 50.6L6.88843 52.0142L5.47422 50.6ZM14.6742 50.6L13.2086 51.9609L13.259 52.0152L13.3133 52.0656L14.6742 50.6ZM16.4742 57.8L14.9125 59.0494L15.0513 59.2229L15.2248 59.3617L16.4742 57.8ZM37.5742 57.8L38.9884 59.2142L39.0668 59.1359L39.136 59.0494L37.5742 57.8ZM36.9742 46.3L36.272 48.1727L36.335 48.1963L36.3995 48.2157L36.9742 46.3ZM12.9742 37.3L13.6765 35.4273L13.6558 35.4196L13.6349 35.4123L12.9742 37.3ZM6.57422 32.4L8.22368 31.2689L8.22368 31.2689L6.57422 32.4ZM5.97422 9L7.6892 10.029L7.68921 10.029L5.97422 9ZM10.7742 4.19999L9.76995 2.47042L9.75754 2.47762L9.74523 2.48501L10.7742 4.19999ZM48.0742 9L46.3592 10.029L46.3592 10.029L48.0742 9ZM48.4742 21.6L47.1133 20.1344L47.0862 20.1596L47.06 20.1858L48.4742 21.6ZM39.2742 21.6L37.86 23.0142L37.8862 23.0404L37.9133 23.0656L39.2742 21.6ZM16.4742 14.7L15.2248 13.1383L15.1383 13.2075L15.06 13.2858L16.4742 14.7ZM17.0742 26.2L17.7739 24.3264L17.7121 24.3033L17.6489 24.2843L17.0742 26.2ZM41.1742 35.2L40.4745 37.0736L40.4865 37.0781L40.4985 37.0824L41.1742 35.2ZM47.4742 40.1L49.1237 38.9689L49.1237 38.9689L47.4742 40.1ZM47.8742 56.8C47.8742 58.8485 47.3671 60.6912 46.3592 62.371L49.7892 64.429C51.1813 62.1088 51.8742 59.5515 51.8742 56.8H47.8742ZM46.3592 62.371C45.3281 64.0895 43.9637 65.4539 42.2452 66.485L44.3032 69.915C46.5847 68.5461 48.4203 66.7105 49.7892 64.429L46.3592 62.371ZM42.2452 66.485C40.5654 67.4929 38.7228 68 36.6742 68V72C39.4257 72 41.9831 71.3071 44.3032 69.915L42.2452 66.485ZM36.6742 68H17.4742V72H36.6742V68ZM17.4742 68C15.4254 68 13.5387 67.4925 11.7785 66.4704L9.76995 69.9296C12.143 71.3075 14.7231 72 17.4742 72V68ZM11.8032 66.485C10.0847 65.4539 8.72031 64.0895 7.6892 62.371L4.25923 64.429C5.62813 66.7105 7.46373 68.5461 9.74523 69.915L11.8032 66.485ZM7.6892 62.371C6.6813 60.6912 6.17422 58.8485 6.17422 56.8H2.17422C2.17422 59.5515 2.86714 62.1088 4.25923 64.429L7.6892 62.371ZM6.17422 56.8V53.8H2.17422V56.8H6.17422ZM6.17422 53.8C6.17422 53.0439 6.41064 52.492 6.88843 52.0142L4.06001 49.1858C2.80447 50.4413 2.17422 52.0227 2.17422 53.8H6.17422ZM6.88843 52.0142C7.46428 51.4384 8.06235 51.2 8.77422 51.2V47.2C6.95275 47.2 5.35082 47.895 4.06001 49.1858L6.88843 52.0142ZM8.77422 51.2H11.5742V47.2H8.77422V51.2ZM11.5742 51.2C12.1809 51.2 12.6943 51.407 13.2086 51.9609L16.1398 49.2391C14.9208 47.9263 13.3676 47.2 11.5742 47.2V51.2ZM13.3133 52.0656C13.8417 52.5562 14.0742 53.093 14.0742 53.8H18.0742C18.0742 51.9737 17.3734 50.3771 16.0351 49.1344L13.3133 52.0656ZM14.0742 53.8V56.8H18.0742V53.8H14.0742ZM14.0742 56.8C14.0742 57.7018 14.4429 58.4624 14.9125 59.0494L18.036 56.5506C18.0029 56.5093 18.0126 56.5108 18.0312 56.5572C18.0517 56.6084 18.0742 56.6932 18.0742 56.8H14.0742ZM15.2248 59.3617C15.8118 59.8313 16.5724 60.2 17.4742 60.2V56.2C17.581 56.2 17.6658 56.2226 17.717 56.243C17.7634 56.2616 17.7649 56.2713 17.7236 56.2383L15.2248 59.3617ZM17.4742 60.2H36.6742V56.2H17.4742V60.2ZM36.6742 60.2C37.6094 60.2 38.4004 59.8023 38.9884 59.2142L36.16 56.3858C36.1748 56.371 36.2319 56.3191 36.3369 56.2724C36.4467 56.2236 36.5655 56.2 36.6742 56.2V60.2ZM39.136 59.0494C39.6055 58.4624 39.9742 57.7018 39.9742 56.8H35.9742C35.9742 56.6932 35.9968 56.6085 36.0173 56.5572C36.0358 56.5108 36.0455 56.5093 36.0125 56.5506L39.136 59.0494ZM39.9742 56.8V47.7H35.9742V56.8H39.9742ZM39.9742 47.7C39.9742 47.0329 39.8205 46.2939 39.3517 45.6375C38.8759 44.9714 38.2136 44.5838 37.5489 44.3843L36.3995 48.2157C36.4015 48.2162 36.2393 48.162 36.0968 47.9625C35.9613 47.7728 35.9742 47.6338 35.9742 47.7H39.9742ZM37.6765 44.4273L13.6765 35.4273L12.272 39.1727L36.272 48.1727L37.6765 44.4273ZM13.6349 35.4123C11.3706 34.6198 9.58335 33.2518 8.22368 31.2689L4.92476 33.5311C6.76508 36.2149 9.24455 38.1136 12.3135 39.1877L13.6349 35.4123ZM8.22368 31.2689C6.84947 29.2649 6.17422 27.0918 6.17422 24.7H2.17422C2.17422 27.9082 3.09897 30.8684 4.92476 33.5311L8.22368 31.2689ZM6.17422 24.7V15.7H2.17422V24.7H6.17422ZM6.17422 15.7C6.17422 13.5741 6.68658 11.7 7.6892 10.029L4.25923 7.97101C2.86186 10.3 2.17422 12.8926 2.17422 15.7H6.17422ZM7.68921 10.029C8.72031 8.31049 10.0847 6.94608 11.8032 5.91498L9.74523 2.48501C7.46373 3.85391 5.62813 5.68951 4.25923 7.97101L7.68921 10.029ZM11.7785 5.92957C13.5387 4.90749 15.4254 4.39999 17.4742 4.39999V0.399994C14.7231 0.399994 12.143 1.09249 9.76995 2.47042L11.7785 5.92957ZM17.4742 4.39999H36.6742V0.399994H17.4742V4.39999ZM36.6742 4.39999C38.7228 4.39999 40.5654 4.90707 42.2452 5.91498L44.3032 2.48501C41.9831 1.09292 39.4257 0.399994 36.6742 0.399994V4.39999ZM42.2452 5.91498C43.9637 6.94608 45.3281 8.31049 46.3592 10.029L49.7892 7.97101C48.4203 5.68951 46.5847 3.85391 44.3032 2.48501L42.2452 5.91498ZM46.3592 10.029C47.3619 11.7 47.8742 13.5741 47.8742 15.7H51.8742C51.8742 12.8926 51.1866 10.3 49.7892 7.97101L46.3592 10.029ZM47.8742 15.7V18.4H51.8742V15.7H47.8742ZM47.8742 18.4C47.8742 19.107 47.6417 19.6438 47.1133 20.1344L49.8351 23.0656C51.1734 21.8229 51.8742 20.2263 51.8742 18.4H47.8742ZM47.06 20.1858C46.5822 20.6636 46.0303 20.9 45.2742 20.9V24.9C47.0515 24.9 48.6329 24.2697 49.8884 23.0142L47.06 20.1858ZM45.2742 20.9H42.5742V24.9H45.2742V20.9ZM42.5742 20.9C41.8155 20.9 41.2008 20.6597 40.6351 20.1344L37.9133 23.0656C39.2143 24.2736 40.7996 24.9 42.5742 24.9V20.9ZM40.6884 20.1858C40.2106 19.708 39.9742 19.1561 39.9742 18.4H35.9742C35.9742 20.1773 36.6045 21.7587 37.86 23.0142L40.6884 20.1858ZM39.9742 18.4V15.7H35.9742V18.4H39.9742ZM39.9742 15.7C39.9742 14.9603 39.8055 14.033 39.1148 13.2891C38.3981 12.5173 37.4554 12.3 36.6742 12.3V16.3C36.7597 16.3 36.467 16.3161 36.1836 16.0109C35.9262 15.7337 35.9742 15.5063 35.9742 15.7H39.9742ZM36.6742 12.3H17.4742V16.3H36.6742V12.3ZM17.4742 12.3C16.5724 12.3 15.8118 12.6687 15.2248 13.1383L17.7236 16.2617C17.7649 16.2287 17.7634 16.2384 17.717 16.2569C17.6658 16.2774 17.581 16.3 17.4742 16.3V12.3ZM15.06 13.2858C14.3937 13.952 14.0742 14.8053 14.0742 15.7H18.0742C18.0742 15.7254 18.0692 15.7977 18.0312 15.8928C17.9922 15.9902 17.9368 16.0659 17.8884 16.1142L15.06 13.2858ZM14.0742 15.7V24.7H18.0742V15.7H14.0742ZM14.0742 24.7C14.0742 25.3666 14.2127 26.1133 14.6601 26.7844C15.125 27.4817 15.7946 27.9042 16.4995 28.1157L17.6489 24.2843C17.6583 24.2872 17.7113 24.3046 17.7836 24.3553C17.8592 24.4082 17.9315 24.4803 17.9883 24.5656C18.1024 24.7367 18.0742 24.8334 18.0742 24.7H14.0742ZM16.3745 28.0736L40.4745 37.0736L41.8739 33.3264L17.7739 24.3264L16.3745 28.0736ZM40.4985 37.0824C42.6929 37.8701 44.4562 39.2353 45.8248 41.2311L49.1237 38.9689C47.2922 36.2981 44.8555 34.3965 41.8499 33.3176L40.4985 37.0824ZM45.8248 41.2311C47.2049 43.2438 47.8742 45.3852 47.8742 47.7H51.8742C51.8742 44.5481 50.9435 41.6229 49.1237 38.9689L45.8248 41.2311ZM47.8742 47.7V56.8H51.8742V47.7H47.8742ZM92.8805 66.8L94.2947 68.2142L94.2947 68.2142L92.8805 66.8ZM72.2805 70.4L71.0311 68.8383L70.9446 68.9075L70.8663 68.9858L72.2805 70.4ZM70.5805 84.6L69.1663 83.1858L69.1401 83.212L69.1149 83.2391L70.5805 84.6ZM61.2805 84.6L59.8663 86.0142L59.8663 86.0142L61.2805 84.6ZM61.4805 23.8L59.7772 22.7518L59.7713 22.7614L59.7655 22.771L61.4805 23.8ZM65.5805 19.7L64.5515 17.985L64.5515 17.985L65.5805 19.7ZM90.6805 19.7L89.6515 21.415L89.6515 21.415L90.6805 19.7ZM94.6805 23.8L92.9481 24.7994L92.9567 24.8143L92.9655 24.829L94.6805 23.8ZM83.8805 30.5L82.4663 31.9142L82.5446 31.9925L82.6311 32.0617L83.8805 30.5ZM72.2805 30.5L71.0311 28.9383L70.9446 29.0075L70.8663 29.0858L72.2805 30.5ZM72.2805 57.8L70.8663 59.2142L70.9446 59.2925L71.0311 59.3617L72.2805 57.8ZM83.8805 57.8L82.6311 56.2383L82.5446 56.3075L82.4663 56.3858L83.8805 57.8ZM94.1805 58.8C94.1805 61.4071 93.2882 63.5638 91.4663 65.3858L94.2947 68.2142C96.8727 65.6362 98.1805 62.4595 98.1805 58.8H94.1805ZM91.4663 65.3858C89.7149 67.1372 87.6265 68 85.0805 68V72C88.6678 72 91.7794 70.7295 94.2947 68.2142L91.4663 65.3858ZM85.0805 68H73.2805V72H85.0805V68ZM73.2805 68C72.3786 68 71.618 68.3687 71.0311 68.8383L73.5299 71.9617C73.5712 71.9287 73.5697 71.9384 73.5233 71.957C73.472 71.9774 73.3873 72 73.2805 72V68ZM70.8663 68.9858C70.2782 69.5738 69.8805 70.3648 69.8805 71.3H73.8805C73.8805 71.4087 73.8569 71.5275 73.8081 71.6373C73.7614 71.7423 73.7094 71.7995 73.6947 71.8142L70.8663 68.9858ZM69.8805 71.3V81.4H73.8805V71.3H69.8805ZM69.8805 81.4C69.8805 82.1561 69.6441 82.708 69.1663 83.1858L71.9947 86.0142C73.2502 84.7587 73.8805 83.1773 73.8805 81.4H69.8805ZM69.1149 83.2391C68.6243 83.7675 68.0875 84 67.3805 84V88C69.2068 88 70.8033 87.2992 72.0461 85.9609L69.1149 83.2391ZM67.3805 84H64.5805V88H67.3805V84ZM64.5805 84C63.8686 84 63.2705 83.7616 62.6947 83.1858L59.8663 86.0142C61.1571 87.305 62.759 88 64.5805 88V84ZM62.6947 83.1858C62.2169 82.708 61.9805 82.1561 61.9805 81.4H57.9805C57.9805 83.1773 58.6107 84.7587 59.8663 86.0142L62.6947 83.1858ZM61.9805 81.4V29.4H57.9805V81.4H61.9805ZM61.9805 29.4C61.9805 27.672 62.3939 26.165 63.1955 24.829L59.7655 22.771C58.5671 24.7684 57.9805 26.9947 57.9805 29.4H61.9805ZM63.1838 24.8482C64.0906 23.3747 65.2308 22.2422 66.6095 21.415L64.5515 17.985C62.5968 19.1578 61.0037 20.7586 59.7772 22.7518L63.1838 24.8482ZM66.6095 21.415C67.9454 20.6134 69.4524 20.2 71.1805 20.2V16.2C68.7752 16.2 66.5488 16.7866 64.5515 17.985L66.6095 21.415ZM71.1805 20.2H85.0805V16.2H71.1805V20.2ZM85.0805 20.2C86.8085 20.2 88.3155 20.6134 89.6515 21.415L91.7095 17.985C89.7121 16.7866 87.4858 16.2 85.0805 16.2V20.2ZM89.6515 21.415C91.0178 22.2348 92.1127 23.3514 92.9481 24.7994L96.4128 22.8006C95.2482 20.7819 93.6764 19.1652 91.7095 17.985L89.6515 21.415ZM92.9655 24.829C93.7671 26.165 94.1805 27.6719 94.1805 29.4H98.1805C98.1805 26.9947 97.5939 24.7684 96.3955 22.771L92.9655 24.829ZM94.1805 29.4V58.8H98.1805V29.4H94.1805ZM86.3805 56.9V31.5H82.3805V56.9H86.3805ZM86.3805 31.5C86.3805 30.447 85.901 29.5551 85.1299 28.9383L82.6311 32.0617C82.6046 32.0405 82.5303 31.9717 82.4666 31.8444C82.401 31.7133 82.3805 31.5872 82.3805 31.5H86.3805ZM85.2947 29.0858C84.7066 28.4977 83.9156 28.1 82.9805 28.1V32.1C82.8717 32.1 82.7529 32.0764 82.6432 32.0276C82.5381 31.9809 82.481 31.929 82.4663 31.9142L85.2947 29.0858ZM82.9805 28.1H73.2805V32.1H82.9805V28.1ZM73.2805 28.1C72.3786 28.1 71.618 28.4687 71.0311 28.9383L73.5299 32.0617C73.5712 32.0287 73.5697 32.0384 73.5233 32.057C73.472 32.0774 73.3873 32.1 73.2805 32.1V28.1ZM70.8663 29.0858C70.2 29.752 69.8805 30.6053 69.8805 31.5H73.8805C73.8805 31.5254 73.8755 31.5977 73.8374 31.6928C73.7985 31.7902 73.743 31.8659 73.6947 31.9142L70.8663 29.0858ZM69.8805 31.5V56.9H73.8805V31.5H69.8805ZM69.8805 56.9C69.8805 57.8352 70.2782 58.6262 70.8663 59.2142L73.6947 56.3858C73.7094 56.4005 73.7614 56.4577 73.8081 56.5627C73.8569 56.6725 73.8805 56.7913 73.8805 56.9H69.8805ZM71.0311 59.3617C71.618 59.8313 72.3786 60.2 73.2805 60.2V56.2C73.3873 56.2 73.472 56.2226 73.5233 56.243C73.5697 56.2616 73.5712 56.2713 73.5299 56.2383L71.0311 59.3617ZM73.2805 60.2H82.9805V56.2H73.2805V60.2ZM82.9805 60.2C83.9156 60.2 84.7066 59.8023 85.2947 59.2142L82.4663 56.3858C82.481 56.371 82.5381 56.3191 82.6432 56.2724C82.7529 56.2236 82.8717 56.2 82.9805 56.2V60.2ZM85.1299 59.3617C85.7928 58.8313 86.3805 58.0048 86.3805 56.9H82.3805C82.3805 56.7165 82.4305 56.5417 82.5072 56.4037C82.5769 56.2782 82.6425 56.2291 82.6311 56.2383L85.1299 59.3617ZM119.116 14.2L117.702 12.7858L117.702 12.7858L119.116 14.2ZM108.516 14.2L107.071 15.5824L107.102 15.6146L107.134 15.6453L108.516 14.2ZM108.516 3.6L107.102 2.18578L107.102 2.18578L108.516 3.6ZM119.116 3.6L117.671 4.98244L117.702 5.01456L117.734 5.04528L119.116 3.6ZM118.416 68.7L119.831 70.1142L119.831 70.1142L118.416 68.7ZM109.216 68.7L107.751 70.0609L107.801 70.1152L107.856 70.1656L109.216 68.7ZM109.216 20.7L107.802 19.2858L107.802 19.2858L109.216 20.7ZM118.416 20.7L116.951 22.0609L117.001 22.1152L117.056 22.1656L118.416 20.7ZM119.416 8.8C119.416 10.3078 118.881 11.607 117.702 12.7858L120.531 15.6142C122.418 13.7264 123.416 11.4255 123.416 8.8H119.416ZM117.702 12.7858C116.595 13.8929 115.364 14.4 113.916 14.4V18.4C116.468 18.4 118.704 17.4404 120.531 15.6142L117.702 12.7858ZM113.916 14.4C112.38 14.4 111.071 13.8759 109.899 12.7547L107.134 15.6453C109.028 17.4574 111.32 18.4 113.916 18.4V14.4ZM109.962 12.8176C108.84 11.6454 108.316 10.3365 108.316 8.8H104.316C104.316 11.3968 105.259 13.688 107.071 15.5824L109.962 12.8176ZM108.316 8.8C108.316 7.352 108.823 6.12134 109.931 5.01421L107.102 2.18578C105.276 4.01199 104.316 6.24799 104.316 8.8H108.316ZM109.931 5.01421C111.109 3.83539 112.409 3.3 113.916 3.3V-0.700004C111.291 -0.700004 108.99 0.29794 107.102 2.18578L109.931 5.01421ZM113.916 3.3C115.334 3.3 116.556 3.8167 117.671 4.98244L120.562 2.21755C118.743 0.316623 116.498 -0.700004 113.916 -0.700004V3.3ZM117.734 5.04528C118.9 6.16034 119.416 7.38193 119.416 8.8H123.416C123.416 6.21806 122.4 3.97299 120.499 2.15471L117.734 5.04528ZM117.816 65.4C117.816 66.1119 117.578 66.7099 117.002 67.2858L119.831 70.1142C121.121 68.8234 121.816 67.2215 121.816 65.4H117.816ZM117.002 67.2858C116.524 67.7636 115.972 68 115.216 68V72C116.994 72 118.575 71.3698 119.831 70.1142L117.002 67.2858ZM115.216 68H112.516V72H115.216V68ZM112.516 68C111.758 68 111.143 67.7597 110.577 67.2344L107.856 70.1656C109.156 71.3736 110.742 72 112.516 72V68ZM110.682 67.3391C110.157 66.7734 109.916 66.1587 109.916 65.4H105.916C105.916 67.1746 106.543 68.7599 107.751 70.0609L110.682 67.3391ZM109.916 65.4V23.9H105.916V65.4H109.916ZM109.916 23.9C109.916 23.1439 110.153 22.592 110.631 22.1142L107.802 19.2858C106.547 20.5413 105.916 22.1227 105.916 23.9H109.916ZM110.631 22.1142C111.206 21.5384 111.805 21.3 112.516 21.3V17.3C110.695 17.3 109.093 17.995 107.802 19.2858L110.631 22.1142ZM112.516 21.3H115.216V17.3H112.516V21.3ZM115.216 21.3C115.923 21.3 116.46 21.5325 116.951 22.0609L119.882 19.3391C118.639 18.0008 117.043 17.3 115.216 17.3V21.3ZM117.056 22.1656C117.584 22.6562 117.816 23.193 117.816 23.9H121.816C121.816 22.0737 121.116 20.4771 119.777 19.2344L117.056 22.1656ZM117.816 23.9V65.4H121.816V23.9H117.816ZM164.361 66.8L165.775 68.2142L165.775 68.2142L164.361 66.8ZM134.761 66.8L133.347 68.2142L133.358 68.2251L133.369 68.2358L134.761 66.8ZM132.961 23.8L131.258 22.7518L131.252 22.7614L131.246 22.771L132.961 23.8ZM137.061 19.7L136.032 17.985L136.032 17.985L137.061 19.7ZM157.161 3.7L158.575 5.11421L158.575 5.11421L157.161 3.7ZM166.361 3.7L167.775 2.28578L167.775 2.28578L166.361 3.7ZM143.761 30.5L142.512 28.9383L142.425 29.0075L142.347 29.0858L143.761 30.5ZM143.761 57.8L142.347 59.2142L142.425 59.2925L142.512 59.3617L143.761 57.8ZM165.661 58.8C165.661 61.4071 164.769 63.5638 162.947 65.3858L165.775 68.2142C168.353 65.6362 169.661 62.4595 169.661 58.8H165.661ZM162.947 65.3858C161.195 67.1372 159.107 68 156.561 68V72C160.148 72 163.26 70.7295 165.775 68.2142L162.947 65.3858ZM156.561 68H142.661V72H156.561V68ZM142.661 68C140.114 68 137.98 67.1354 136.153 65.3642L133.369 68.2358C135.942 70.7313 139.075 72 142.661 72V68ZM136.175 65.3858C134.353 63.5638 133.461 61.4071 133.461 58.8H129.461C129.461 62.4595 130.769 65.6362 133.347 68.2142L136.175 65.3858ZM133.461 58.8V29.4H129.461V58.8H133.461ZM133.461 29.4C133.461 27.672 133.874 26.165 134.676 24.829L131.246 22.771C130.048 24.7684 129.461 26.9947 129.461 29.4H133.461ZM134.664 24.8482C135.571 23.3747 136.711 22.2422 138.09 21.415L136.032 17.985C134.077 19.1578 132.484 20.7586 131.258 22.7518L134.664 24.8482ZM138.09 21.415C139.426 20.6134 140.933 20.2 142.661 20.2V16.2C140.256 16.2 138.029 16.7866 136.032 17.985L138.09 21.415ZM142.661 20.2H154.461V16.2H142.661V20.2ZM154.461 20.2C155.167 20.2 156.07 20.0553 156.813 19.4185C157.614 18.7312 157.861 17.7957 157.861 17H153.861C153.861 17.0101 153.859 16.9298 153.909 16.8001C153.965 16.6584 154.064 16.506 154.209 16.3815C154.486 16.1447 154.688 16.2 154.461 16.2V20.2ZM157.861 17V6.99999H153.861V17H157.861ZM157.861 6.99999C157.861 6.14574 158.118 5.57098 158.575 5.11421L155.747 2.28578C154.47 3.56234 153.861 5.18759 153.861 6.99999H157.861ZM158.575 5.11421C159.053 4.63641 159.605 4.39999 160.361 4.39999V0.399994C158.584 0.399994 157.002 1.03024 155.747 2.28578L158.575 5.11421ZM160.361 4.39999H163.161V0.399994H160.361V4.39999ZM163.161 4.39999C163.917 4.39999 164.469 4.63641 164.947 5.11421L167.775 2.28578C166.52 1.03024 164.938 0.399994 163.161 0.399994V4.39999ZM164.947 5.11421C165.403 5.57098 165.661 6.14573 165.661 6.99999H169.661C169.661 5.18759 169.052 3.56234 167.775 2.28578L164.947 5.11421ZM165.661 6.99999V58.8H169.661V6.99999H165.661ZM157.861 56.9V31.5H153.861V56.9H157.861ZM157.861 31.5C157.861 30.725 157.666 29.7765 156.925 29.0358C156.184 28.2951 155.236 28.1 154.461 28.1V32.1C154.619 32.1 154.371 32.1382 154.097 31.8642C153.823 31.5902 153.861 31.3416 153.861 31.5H157.861ZM154.461 28.1H144.761V32.1H154.461V28.1ZM144.761 28.1C143.859 28.1 143.098 28.4687 142.512 28.9383L145.01 32.0617C145.052 32.0287 145.05 32.0384 145.004 32.057C144.952 32.0774 144.868 32.1 144.761 32.1V28.1ZM142.347 29.0858C141.68 29.752 141.361 30.6053 141.361 31.5H145.361C145.361 31.5254 145.356 31.5977 145.318 31.6928C145.279 31.7902 145.223 31.8659 145.175 31.9142L142.347 29.0858ZM141.361 31.5V56.9H145.361V31.5H141.361ZM141.361 56.9C141.361 57.8352 141.759 58.6262 142.347 59.2142L145.175 56.3858C145.19 56.4005 145.242 56.4577 145.289 56.5627C145.337 56.6725 145.361 56.7913 145.361 56.9H141.361ZM142.512 59.3617C143.098 59.8313 143.859 60.2 144.761 60.2V56.2C144.868 56.2 144.952 56.2226 145.004 56.243C145.05 56.2616 145.052 56.2713 145.01 56.2383L142.512 59.3617ZM144.761 60.2H154.461V56.2H144.761V60.2ZM154.461 60.2C155.201 60.2 156.128 60.0313 156.872 59.3406C157.644 58.6239 157.861 57.6812 157.861 56.9H153.861C153.861 56.9855 153.845 56.6928 154.15 56.4094C154.427 56.152 154.655 56.2 154.461 56.2V60.2ZM212.497 45.9L214.212 46.929L214.221 46.9143L214.229 46.8994L212.497 45.9ZM208.497 50L209.526 51.715L209.551 51.7001L209.575 51.6845L208.497 50ZM190.097 51.9L191.297 53.5L191.322 53.4813L191.346 53.4617L190.097 51.9ZM190.097 57.8L188.683 59.2142L188.761 59.2925L188.847 59.3617L190.097 57.8ZM206.097 59.5L204.683 60.9142L204.709 60.9404L204.736 60.9656L206.097 59.5ZM206.097 68.7L207.511 70.1142L207.511 70.1142L206.097 68.7ZM181.097 66.8L179.683 68.2142L179.694 68.2251L179.705 68.2358L181.097 66.8ZM179.297 23.8L177.612 22.7219L177.597 22.7462L177.582 22.771L179.297 23.8ZM183.397 19.8L184.426 21.515L184.451 21.5001L184.475 21.4845L183.397 19.8ZM208.497 19.8L207.419 21.4845L207.443 21.5001L207.468 21.515L208.497 19.8ZM212.497 23.8L214.212 22.771L214.212 22.771L212.497 23.8ZM201.697 30.5L200.283 31.9142L200.361 31.9925L200.447 32.0617L201.697 30.5ZM190.097 30.5L188.847 28.9383L188.761 29.0075L188.683 29.0858L190.097 30.5ZM190.097 39.1L188.683 40.5142L188.761 40.5925L188.847 40.6617L190.097 39.1ZM201.697 39.1L200.447 37.5383L200.361 37.6075L200.283 37.6858L201.697 39.1ZM211.997 40.3C211.997 41.9489 211.589 43.4709 210.765 44.9006L214.229 46.8994C215.404 44.8624 215.997 42.6511 215.997 40.3H211.997ZM210.782 44.871C209.944 46.268 208.83 47.4121 207.419 48.3155L209.575 51.6845C211.497 50.4546 213.05 48.8653 214.212 46.929L210.782 44.871ZM207.468 48.285C206.132 49.0866 204.625 49.5 202.897 49.5V53.5C205.302 53.5 207.529 52.9134 209.526 51.715L207.468 48.285ZM202.897 49.5H191.097V53.5H202.897V49.5ZM191.097 49.5C190.195 49.5 189.434 49.8687 188.847 50.3383L191.346 53.4617C191.388 53.4287 191.386 53.4384 191.34 53.457C191.288 53.4774 191.204 53.5 191.097 53.5V49.5ZM188.897 50.3C188.127 50.8777 187.697 51.7372 187.697 52.7H191.697C191.697 52.8068 191.674 52.9687 191.586 53.1444C191.498 53.3201 191.382 53.4359 191.297 53.5L188.897 50.3ZM187.697 52.7V56.9H191.697V52.7H187.697ZM187.697 56.9C187.697 57.8352 188.095 58.6262 188.683 59.2142L191.511 56.3858C191.526 56.4005 191.578 56.4577 191.624 56.5627C191.673 56.6725 191.697 56.7913 191.697 56.9H187.697ZM188.847 59.3617C189.434 59.8313 190.195 60.2 191.097 60.2V56.2C191.204 56.2 191.288 56.2226 191.34 56.243C191.386 56.2616 191.388 56.2713 191.346 56.2383L188.847 59.3617ZM191.097 60.2H202.897V56.2H191.097V60.2ZM202.897 60.2C203.653 60.2 204.205 60.4364 204.683 60.9142L207.511 58.0858C206.256 56.8302 204.674 56.2 202.897 56.2V60.2ZM204.736 60.9656C205.241 61.4343 205.497 61.9934 205.497 62.8H209.497C209.497 60.9399 208.82 59.299 207.458 58.0344L204.736 60.9656ZM205.497 62.8V65.4H209.497V62.8H205.497ZM205.497 65.4C205.497 66.1119 205.259 66.7099 204.683 67.2858L207.511 70.1142C208.802 68.8234 209.497 67.2215 209.497 65.4H205.497ZM204.683 67.2858C204.205 67.7636 203.653 68 202.897 68V72C204.674 72 206.256 71.3698 207.511 70.1142L204.683 67.2858ZM202.897 68H188.997V72H202.897V68ZM188.997 68C186.45 68 184.316 67.1354 182.489 65.3642L179.705 68.2358C182.278 70.7313 185.411 72 188.997 72V68ZM182.511 65.3858C180.689 63.5638 179.797 61.4071 179.797 58.8H175.797C175.797 62.4595 177.105 65.6362 179.683 68.2142L182.511 65.3858ZM179.797 58.8V29.4H175.797V58.8H179.797ZM179.797 29.4C179.797 27.672 180.21 26.165 181.012 24.829L177.582 22.771C176.383 24.7684 175.797 26.9947 175.797 29.4H179.797ZM180.981 24.8781C181.885 23.4666 183.029 22.3532 184.426 21.515L182.368 18.085C180.432 19.2468 178.842 20.8 177.612 22.7219L180.981 24.8781ZM184.475 21.4845C185.805 20.6333 187.294 20.2 188.997 20.2V16.2C186.566 16.2 184.322 16.8334 182.319 18.1155L184.475 21.4845ZM188.997 20.2H202.897V16.2H188.997V20.2ZM202.897 20.2C204.599 20.2 206.089 20.6333 207.419 21.4845L209.575 18.1155C207.572 16.8334 205.328 16.2 202.897 16.2V20.2ZM207.468 21.515C208.853 22.3461 209.951 23.4438 210.782 24.829L214.212 22.771C213.043 20.8228 211.474 19.2539 209.526 18.085L207.468 21.515ZM210.782 24.829C211.583 26.165 211.997 27.6719 211.997 29.4H215.997C215.997 26.9947 215.41 24.7684 214.212 22.771L210.782 24.829ZM211.997 29.4V40.3H215.997V29.4H211.997ZM204.197 38.3V31.5H200.197V38.3H204.197ZM204.197 31.5C204.197 30.447 203.717 29.5551 202.946 28.9383L200.447 32.0617C200.421 32.0405 200.347 31.9717 200.283 31.8444C200.217 31.7133 200.197 31.5872 200.197 31.5H204.197ZM203.111 29.0858C202.523 28.4977 201.732 28.1 200.797 28.1V32.1C200.688 32.1 200.569 32.0764 200.46 32.0276C200.355 31.9809 200.297 31.929 200.283 31.9142L203.111 29.0858ZM200.797 28.1H191.097V32.1H200.797V28.1ZM191.097 28.1C190.195 28.1 189.434 28.4687 188.847 28.9383L191.346 32.0617C191.388 32.0287 191.386 32.0384 191.34 32.057C191.288 32.0774 191.204 32.1 191.097 32.1V28.1ZM188.683 29.0858C188.016 29.752 187.697 30.6053 187.697 31.5H191.697C191.697 31.5254 191.692 31.5977 191.654 31.6928C191.615 31.7902 191.559 31.8659 191.511 31.9142L188.683 29.0858ZM187.697 31.5V38.3H191.697V31.5H187.697ZM187.697 38.3C187.697 39.2842 188.198 40.0296 188.683 40.5142L191.511 37.6858C191.462 37.6371 191.697 37.8491 191.697 38.3H187.697ZM188.847 40.6617C189.434 41.1313 190.195 41.5 191.097 41.5V37.5C191.204 37.5 191.288 37.5226 191.34 37.543C191.386 37.5616 191.388 37.5713 191.346 37.5383L188.847 40.6617ZM191.097 41.5H200.797V37.5H191.097V41.5ZM200.797 41.5C201.732 41.5 202.523 41.1023 203.111 40.5142L200.283 37.6858C200.297 37.671 200.355 37.6191 200.46 37.5724C200.569 37.5236 200.688 37.5 200.797 37.5V41.5ZM202.946 40.6617C203.47 40.243 204.197 39.4631 204.197 38.3H200.197C200.197 37.9958 200.297 37.7668 200.376 37.64C200.446 37.5274 200.497 37.4989 200.447 37.5383L202.946 40.6617ZM252.533 28.8L251.119 27.3858L251.119 27.3858L252.533 28.8ZM234.733 68.7L236.147 70.1142L236.147 70.1142L234.733 68.7ZM225.533 68.7L224.067 70.0609L224.092 70.088L224.119 70.1142L225.533 68.7ZM225.733 23.8L227.448 24.829L227.457 24.8143L227.465 24.7994L225.733 23.8ZM229.733 19.7L228.704 17.985L228.704 17.985L229.733 19.7ZM252.533 19.6L251.067 20.9609L251.092 20.988L251.119 21.0142L252.533 19.6ZM251.833 25.6C251.833 26.3561 251.596 26.908 251.119 27.3858L253.947 30.2142C255.203 28.9587 255.833 27.3773 255.833 25.6H251.833ZM251.119 27.3858C250.641 27.8636 250.089 28.1 249.333 28.1V32.1C251.11 32.1 252.691 31.4697 253.947 30.2142L251.119 27.3858ZM249.333 28.1H237.433V32.1H249.333V28.1ZM237.433 28.1C236.652 28.1 235.709 28.3173 234.992 29.0891C234.301 29.833 234.133 30.7603 234.133 31.5H238.133C238.133 31.3063 238.181 31.5337 237.923 31.8109C237.64 32.1161 237.347 32.1 237.433 32.1V28.1ZM234.133 31.5V65.4H238.133V31.5H234.133ZM234.133 65.4C234.133 66.1119 233.894 66.7099 233.319 67.2858L236.147 70.1142C237.438 68.8234 238.133 67.2215 238.133 65.4H234.133ZM233.319 67.2858C232.841 67.7636 232.289 68 231.533 68V72C233.31 72 234.891 71.3698 236.147 70.1142L233.319 67.2858ZM231.533 68H228.733V72H231.533V68ZM228.733 68C227.977 68 227.425 67.7636 226.947 67.2858L224.119 70.1142C225.374 71.3698 226.956 72 228.733 72V68ZM226.998 67.3391C226.473 66.7734 226.233 66.1587 226.233 65.4H222.233C222.233 67.1746 222.859 68.7599 224.067 70.0609L226.998 67.3391ZM226.233 65.4V29.4H222.233V65.4H226.233ZM226.233 29.4C226.233 27.672 226.646 26.165 227.448 24.829L224.018 22.771C222.819 24.7684 222.233 26.9947 222.233 29.4H226.233ZM227.465 24.7994C228.301 23.3514 229.395 22.2348 230.762 21.415L228.704 17.985C226.737 19.1652 225.165 20.7819 224 22.8006L227.465 24.7994ZM230.762 21.415C232.098 20.6134 233.605 20.2 235.333 20.2V16.2C232.928 16.2 230.701 16.7866 228.704 17.985L230.762 21.415ZM235.333 20.2H249.333V16.2H235.333V20.2ZM249.333 20.2C250.04 20.2 250.577 20.4325 251.067 20.9609L253.998 18.2391C252.756 16.9008 251.159 16.2 249.333 16.2V20.2ZM251.119 21.0142C251.575 21.471 251.833 22.0457 251.833 22.9H255.833C255.833 21.0876 255.224 19.4623 253.947 18.1858L251.119 21.0142ZM251.833 22.9V25.6H255.833V22.9H251.833Z" fill="#673DE6" mask="url(#path-1-outside-1_1418_336)"/>
<path d="M193.01 81.895C193.01 82.3383 192.858 82.7233 192.555 83.05C192.252 83.3533 191.867 83.505 191.4 83.505H187.725C187.422 83.505 187.27 83.6567 187.27 83.96V101.39C187.27 101.833 187.107 102.218 186.78 102.545C186.477 102.848 186.103 103 185.66 103H184.75C184.307 103 183.922 102.848 183.595 102.545C183.292 102.218 183.14 101.833 183.14 101.39V83.96C183.14 83.6567 182.988 83.505 182.685 83.505H178.975C178.532 83.505 178.147 83.3533 177.82 83.05C177.517 82.7233 177.365 82.3383 177.365 81.895V80.95C177.365 80.4833 177.517 80.0983 177.82 79.795C178.147 79.4917 178.532 79.34 178.975 79.34H191.4C191.867 79.34 192.252 79.4917 192.555 79.795C192.858 80.0983 193.01 80.4833 193.01 80.95V81.895ZM206.75 92.605C206.75 93.305 206.575 93.9583 206.225 94.565C205.875 95.1483 205.408 95.6267 204.825 96C204.241 96.35 203.588 96.525 202.865 96.525H198.735C198.618 96.525 198.501 96.5717 198.385 96.665C198.291 96.735 198.245 96.8283 198.245 96.945V98.415C198.245 98.5317 198.291 98.6367 198.385 98.73C198.501 98.8233 198.618 98.87 198.735 98.87H202.865C203.308 98.87 203.681 99.0217 203.985 99.325C204.311 99.6283 204.475 100.013 204.475 100.48V101.39C204.475 101.833 204.311 102.218 203.985 102.545C203.681 102.848 203.308 103 202.865 103H198C196.926 103 196.005 102.627 195.235 101.88C194.465 101.11 194.08 100.177 194.08 99.08V88.79C194.08 88.0667 194.255 87.4133 194.605 86.83C194.978 86.2467 195.456 85.78 196.04 85.43C196.623 85.0567 197.276 84.87 198 84.87H202.865C203.588 84.87 204.241 85.0567 204.825 85.43C205.408 85.78 205.875 86.2467 206.225 86.83C206.575 87.4133 206.75 88.0667 206.75 88.79V92.605ZM202.62 91.905V89.525C202.62 89.385 202.561 89.2683 202.445 89.175C202.351 89.0817 202.246 89.035 202.13 89.035H198.735C198.618 89.035 198.501 89.0817 198.385 89.175C198.291 89.2683 198.245 89.385 198.245 89.525V91.905C198.245 91.9983 198.291 92.0917 198.385 92.185C198.501 92.2783 198.618 92.325 198.735 92.325H202.13C202.246 92.325 202.351 92.2783 202.445 92.185C202.561 92.0917 202.62 91.9983 202.62 91.905ZM222.267 99.08C222.267 100.177 221.882 101.11 221.112 101.88C220.366 102.627 219.456 103 218.382 103H213.517C212.444 103 211.522 102.627 210.752 101.88C209.982 101.11 209.597 100.177 209.597 99.08V88.79C209.597 88.0667 209.772 87.4133 210.122 86.83C210.496 86.2233 210.974 85.745 211.557 85.395C212.141 85.045 212.794 84.87 213.517 84.87H218.382C219.106 84.87 219.759 85.045 220.342 85.395C220.926 85.745 221.392 86.2233 221.742 86.83C222.092 87.4133 222.267 88.0667 222.267 88.79V90.61C222.267 91.0533 222.116 91.4383 221.812 91.765C221.509 92.0683 221.136 92.22 220.692 92.22H219.712C219.269 92.22 218.896 92.0683 218.592 91.765C218.289 91.4383 218.137 91.0533 218.137 90.61V89.525C218.137 89.385 218.079 89.2683 217.962 89.175C217.869 89.0817 217.764 89.035 217.647 89.035H214.252C214.136 89.035 214.019 89.0817 213.902 89.175C213.809 89.2683 213.762 89.385 213.762 89.525V98.415C213.762 98.5317 213.809 98.6367 213.902 98.73C214.019 98.8233 214.136 98.87 214.252 98.87H217.647C217.764 98.87 217.869 98.8233 217.962 98.73C218.079 98.6367 218.137 98.5317 218.137 98.415V97.33C218.137 96.8867 218.289 96.5133 218.592 96.21C218.896 95.8833 219.269 95.72 219.712 95.72H220.692C221.136 95.72 221.509 95.8833 221.812 96.21C222.116 96.5133 222.267 96.8867 222.267 97.33V99.08ZM237.785 101.39C237.785 101.833 237.633 102.218 237.33 102.545C237.027 102.848 236.653 103 236.21 103H235.23C234.787 103 234.413 102.848 234.11 102.545C233.807 102.218 233.655 101.833 233.655 101.39V89.525C233.655 89.385 233.597 89.2683 233.48 89.175C233.387 89.0817 233.282 89.035 233.165 89.035H229.77C229.653 89.035 229.537 89.0817 229.42 89.175C229.327 89.2683 229.28 89.385 229.28 89.525V101.39C229.28 101.833 229.128 102.218 228.825 102.545C228.522 102.848 228.148 103 227.705 103H226.725C226.282 103 225.897 102.848 225.57 102.545C225.267 102.218 225.115 101.833 225.115 101.39V80.95C225.115 80.4833 225.267 80.0983 225.57 79.795C225.897 79.4917 226.282 79.34 226.725 79.34H227.705C228.148 79.34 228.522 79.4917 228.825 79.795C229.128 80.0983 229.28 80.4833 229.28 80.95V84.45C229.28 84.5667 229.327 84.6717 229.42 84.765C229.537 84.835 229.653 84.87 229.77 84.87H233.9C234.623 84.87 235.277 85.045 235.86 85.395C236.443 85.745 236.91 86.2233 237.26 86.83C237.61 87.4133 237.785 88.0667 237.785 88.79V101.39Z" fill="#673DE6"/>
</svg>
