<svg width="90" height="90" viewBox="0 0 90 90" fill="none" xmlns="http://www.w3.org/2000/svg">
<path d="M44.7967 0C20.1662 0 0 20.0123 0 44.6428C0 69.4272 20.1662 89.4395 44.7967 89.4395C69.5811 89.4395 89.5934 69.4272 89.5934 44.6428C89.5934 20.0123 69.5811 0 44.7967 0Z" fill="#042390"/>
<path d="M44.6 16C34.9 16 27 24 27 33.6C27 40.1 30.5 45.8 35.9 48.9V52.5H44.7H53.5V48.9C58.8 45.9 62.4 40.1 62.4 33.6C62.2 24 54.3 16 44.6 16Z" fill="#FCD884"/>
<path fill-rule="evenodd" clip-rule="evenodd" d="M51.7008 29.5L45.8008 35.4V52.5C45.8008 53.2 45.2008 53.8 44.5008 53.8C43.8008 53.8 43.2008 53.2 43.2008 52.5V35.4L39.8008 32L37.3008 29.5C36.8008 29 36.8008 28.2 37.3008 27.7C37.8008 27.2 38.6008 27.2 39.1008 27.7L40.7008 29.3L43.6008 26.4C44.1008 25.9 44.9008 25.9 45.4008 26.4L48.3008 29.3L49.9008 27.7C50.4008 27.2 51.2008 27.2 51.7008 27.7C52.2008 28.2 52.2008 29 51.7008 29.5ZM44.6008 33.1L46.6008 31.1L44.6008 29.1L42.6008 31.1L44.6008 33.1Z" fill="#EABF6A"/>
<path d="M38.4004 67.6H51.0004C51.0004 71.1 48.2004 73.9 44.7004 73.9C41.2004 73.8 38.4004 71 38.4004 67.6Z" fill="#414A56"/>
<path d="M53.4004 57.5001V61.2001H51.0004H38.4004H35.9004V57.5001H53.4004Z" fill="#414A56"/>
<path d="M51.0004 61.2001V67.5001C51.0004 67.5001 51.0004 67.5001 51.0004 67.6001H38.4004C38.4004 67.6001 38.4004 67.6001 38.4004 67.5001V61.2001H51.0004Z" fill="#57606F"/>
<path d="M53.4004 52.5V57.5H35.9004V52.5H44.6004H53.4004Z" fill="#57606F"/>
<path d="M54.6008 68.8001H34.6008C33.9008 68.8001 33.3008 68.2001 33.3008 67.5001C33.3008 66.8001 33.9008 66.2001 34.6008 66.2001H54.6008C55.4008 66.2001 56.0008 66.8001 56.0008 67.5001C56.0008 68.3001 55.4008 68.8001 54.6008 68.8001Z" fill="#353E48"/>
</svg>
