<svg width="90" height="90" viewBox="0 0 90 90" fill="none" xmlns="http://www.w3.org/2000/svg">
<path d="M44.7967 0C20.1662 0 0 20.0123 0 44.6428C0 69.4272 20.1662 89.4395 44.7967 89.4395C69.5811 89.4395 89.5934 69.4272 89.5934 44.6428C89.5934 20.0123 69.5811 0 44.7967 0Z" fill="#042390"/>
<path d="M45.5443 40.2426C40.3103 40.2426 36 35.9322 36 30.6982C36 25.3103 40.3103 21 45.5443 21C50.7783 21 55.2426 25.3103 55.2426 30.6982C55.2426 35.9322 50.7783 40.2426 45.5443 40.2426Z" fill="#FFD8A8"/>
<path d="M26 59.4871C26 49.0191 34.6207 40.2445 45.2426 40.2445C50.4765 40.2445 55.4027 42.3997 58.7894 45.7864C62.1761 49.327 64.3312 54.0992 64.3312 59.3331V67.6459H26V59.4871Z" fill="#86DCFD"/>
</svg>
