<svg width="90" height="90" viewBox="0 0 90 90" fill="none" xmlns="http://www.w3.org/2000/svg">
<path d="M44.7967 0C20.1662 0 0 20.0123 0 44.6428C0 69.4272 20.1662 89.4395 44.7967 89.4395C69.5811 89.4395 89.5934 69.4272 89.5934 44.6428C89.5934 20.0123 69.5811 0 44.7967 0Z" fill="#042390"/>
<path d="M51.7078 53.2H38.1936H30V51.9231C30 43.8359 36.5975 37.2385 44.7911 37.2385C48.9411 37.2385 52.559 38.941 55.3257 41.4949C57.8795 44.0487 59.6885 47.8795 59.6885 51.9231V53.2H51.7078Z" fill="#D94556"/>
<path d="M45.0021 20C49.7906 20 53.6213 23.8308 53.6213 28.5128C53.6213 33.1949 49.7906 37.0257 45.0021 37.0257C40.32 37.0257 36.3828 33.1949 36.3828 28.5128C36.3828 23.8308 40.32 20 45.0021 20Z" fill="#FFD5AB"/>
<path d="M70.2898 69.2H56.7756H48.582V67.9231C48.582 59.8359 55.1795 53.2385 63.3731 53.2385C67.5231 53.2385 71.141 54.941 73.9077 57.4949C76.4615 60.0487 78.2706 63.8795 78.2706 67.9231V69.2H70.2898Z" fill="#D94556"/>
<path d="M63.5841 36C68.3726 36 72.2033 39.8308 72.2033 44.5128C72.2033 49.1949 68.3726 53.0257 63.5841 53.0257C58.9021 53.0257 54.9648 49.1949 54.9648 44.5128C54.9648 39.8308 58.9021 36 63.5841 36Z" fill="#FFD5AB"/>
<path d="M33.7077 69.2H20.0872H12V67.9231C12 59.8359 18.5974 53.2385 26.791 53.2385C30.8346 53.2385 34.559 54.941 37.3257 57.4949C39.8795 60.0487 41.5821 63.8795 41.5821 67.9231V69.2H33.7077Z" fill="#5CBEFF"/>
<path d="M27.002 36C31.7905 36 35.6213 39.8308 35.6213 44.5128C35.6213 49.1949 31.7905 53.0257 27.002 53.0257C22.32 53.0257 18.3828 49.1949 18.3828 44.5128C18.3828 39.8308 22.32 36 27.002 36Z" fill="#FFD5AB"/>
</svg>
