<svg width="90" height="90" viewBox="0 0 90 90" fill="none" xmlns="http://www.w3.org/2000/svg">
<path d="M44.7967 0C20.1662 0 0 20.0123 0 44.6428C0 69.4272 20.1662 89.4395 44.7967 89.4395C69.5811 89.4395 89.5934 69.4272 89.5934 44.6428C89.5934 20.0123 69.5811 0 44.7967 0Z" fill="#042390"/>
<path d="M45.1428 26.0857C44.7999 26.0857 44.457 25.7428 44.457 25.4V20.8285C44.457 20.4857 44.7999 20.1428 45.1428 20.1428C45.5428 20.1428 45.8856 20.4857 45.8856 20.8285V25.4C45.8856 25.7428 45.5428 26.0857 45.1428 26.0857Z" fill="#3F4751"/>
<path d="M76.4571 36.6V47.6857L69.3142 48.2571C68.7428 50.5428 67.7714 52.7142 66.6285 54.7714L71.2571 60.1428L63.4285 67.9142L58 63.3428C56 64.4856 53.7143 65.3999 51.4285 65.9714L50.8 73.0571H39.6571L39.0285 65.9714C36.7428 65.3999 34.5714 64.4856 32.4571 63.3428L27.0286 67.9142L19.2 60.1428L23.8286 54.7714C22.6857 52.8285 21.7143 50.5428 21.0286 48.2571L14 47.6857V36.6L21.0286 36.0285C21.3714 34.6571 21.8286 33.4 22.4571 32.1428H67.8857C68.5142 33.4 68.9714 34.6571 69.3142 36.0285L76.4571 36.6Z" fill="white" fill-opacity="0.91"/>
<path d="M62.1142 42.1999C62.1142 51.4571 54.5142 58.9999 45.1428 58.9999C35.8285 58.9999 28.2285 51.4571 28.2285 42.1999C28.2285 32.9428 35.8285 25.4 45.1428 25.4C54.5142 25.4 62.1142 32.9428 62.1142 42.1999Z" fill="#05AB6F"/>
<path d="M53.6 50.4286C48.9715 55 41.4858 55 36.7429 50.4286C32.1143 45.8572 32.1143 38.4286 36.7429 33.7429C41.3715 29.1715 48.9715 29.1715 53.6 33.7429C58.2286 38.4286 58.2286 45.8572 53.6 50.4286Z" fill="#E9EFFF"/>
<path d="M45.143 40.3713C46.2287 40.3713 47.0287 41.1713 47.0287 42.1999C47.0287 43.2285 46.2287 44.0285 45.143 44.0285C44.1145 44.0285 43.3145 43.2285 43.3145 42.1999C43.3145 41.1713 44.1145 40.3713 45.143 40.3713Z" fill="#3F4751"/>
<path d="M47.3724 15C48.9724 15 50.2295 16.2571 50.2295 17.8571C50.2295 19.4571 48.9724 20.7143 47.3724 20.7143C45.8867 20.7143 44.5724 20.7143 42.9724 20.7143C41.3724 20.7143 40.1152 19.4571 40.1152 17.8571C40.1152 16.2571 41.3724 15 42.9724 15H47.3724Z" fill="#D94556"/>
<path d="M45.1428 33.6286C44.7999 33.6286 44.457 33.2857 44.457 32.9429V30.4286C44.457 30.0857 44.7999 29.7429 45.1428 29.7429C45.5428 29.7429 45.8856 30.0857 45.8856 30.4286V32.9429C45.8856 33.2857 45.5428 33.6286 45.1428 33.6286Z" fill="#A0B5C5"/>
<path d="M45.1428 54.657C44.7999 54.657 44.457 54.3142 44.457 53.9713V51.457C44.457 51.1142 44.7999 50.7713 45.1428 50.7713C45.5428 50.7713 45.8856 51.1142 45.8856 51.457V53.9713C45.8856 54.3142 45.5428 54.657 45.1428 54.657Z" fill="#A0B5C5"/>
<path d="M57.0872 42.8857H54.5158C54.1729 42.8857 53.8301 42.5428 53.8301 42.1999C53.8301 41.8571 54.1729 41.5142 54.5158 41.5142H57.0872C57.4301 41.5142 57.7729 41.8571 57.7729 42.1999C57.7729 42.5428 57.5444 42.8857 57.0872 42.8857Z" fill="#A0B5C5"/>
<path d="M35.8294 42.8857H33.258C32.9151 42.8857 32.5723 42.5428 32.5723 42.1999C32.5723 41.8571 32.9151 41.5142 33.258 41.5142H35.8294C36.1723 41.5142 36.5151 41.8571 36.5151 42.1999C36.5151 42.5428 36.1723 42.8857 35.8294 42.8857Z" fill="#A0B5C5"/>
<path d="M51.7712 36.2571C51.5426 36.2571 51.4283 36.1428 51.314 36.0285C51.0854 35.8 51.0854 35.3428 51.314 35L53.0283 33.2857C53.2569 33.0571 53.714 33.0571 54.0569 33.2857C54.2854 33.5143 54.2854 33.9714 54.0569 34.3143L52.2283 36.1428C52.2283 36.2571 51.9997 36.2571 51.7712 36.2571Z" fill="#A0B5C5"/>
<path d="M36.7438 51.2285C36.5152 51.2285 36.4009 51.1142 36.2867 50.9999C36.0581 50.7713 36.0581 50.3142 36.2867 49.9713L38.0009 48.2571C38.2295 48.0285 38.6867 48.0285 39.0295 48.2571C39.2581 48.4856 39.2581 48.9428 39.0295 49.2856L37.3152 50.9999C37.0867 51.1142 36.9724 51.2285 36.7438 51.2285Z" fill="#A0B5C5"/>
<path d="M53.6007 51.2285C53.3721 51.2285 53.2578 51.1142 53.1435 50.9999L51.4292 49.2856C51.2007 49.0571 51.2007 48.5999 51.4292 48.2571C51.6578 48.0285 52.1149 48.0285 52.4578 48.2571L54.1721 49.9713C54.4007 50.1999 54.4007 50.6571 54.1721 50.9999C53.9435 51.1142 53.7149 51.2285 53.6007 51.2285Z" fill="#A0B5C5"/>
<path d="M38.5714 36.2571C38.3428 36.2571 38.2285 36.1428 38.1142 36.0285L36.3999 34.3143C36.1714 34.0857 36.1714 33.6285 36.3999 33.2857C36.6285 33.0571 37.0857 33.0571 37.4285 33.2857L39.2571 35.1143C39.5428 35.3428 39.5428 35.8 39.2571 36.1428C38.9142 36.2571 38.6857 36.2571 38.5714 36.2571Z" fill="#A0B5C5"/>
<path d="M45.1428 41.4C44.7999 41.4 44.457 41.0571 44.457 40.7143V37.5143C44.457 37.1714 44.7999 36.8286 45.1428 36.8286C45.5428 36.8286 45.8856 37.1714 45.8856 37.5143V40.7143C45.8856 41.1714 45.5428 41.4 45.1428 41.4Z" fill="#3F4751"/>
<path fill-rule="evenodd" clip-rule="evenodd" d="M45.1428 54.9999C41.7142 54.9999 38.4571 53.6285 36.0571 51.2285C33.6571 48.8285 32.2285 45.6285 32.2285 42.1999C32.2285 38.7714 33.6571 35.5714 36.0571 33.1714C38.4571 30.7714 41.7142 29.4 45.1428 29.4C48.6285 29.4 51.8856 30.7714 54.2856 33.1714C56.6856 35.5714 58.1142 38.7714 58.1142 42.1999C58.1142 45.6285 56.6856 48.8285 54.2856 51.2285C51.8856 53.6285 48.6285 54.9999 45.1428 54.9999ZM45.1428 31.1142C42.1714 31.1142 39.4285 32.2571 37.3142 34.3142C35.2571 36.3714 34.1142 39.2285 34.1142 42.0857C34.1142 45.0571 35.2571 47.7999 37.3142 49.8571C39.4285 51.9142 42.2857 53.0571 45.1428 53.0571C48.1714 53.0571 50.9142 51.9142 53.1428 49.8571C55.1999 47.7999 56.3428 44.9428 56.3428 41.9714C56.3428 39 55.1999 36.2571 53.1428 34.2C50.9142 32.2571 48.1714 31.1142 45.1428 31.1142Z" fill="#757D8C"/>
</svg>
