<svg width="14" height="16" viewBox="0 0 14 16" fill="none" xmlns="http://www.w3.org/2000/svg">
<path d="M10.5 16C12.433 16 14 14.433 14 12.5C14 10.567 12.433 9 10.5 9C8.567 9 7 10.567 7 12.5C7 14.433 8.567 16 10.5 16ZM12.1787 11.5072L10.8435 13.7327C10.5924 14.1511 10.0151 14.2222 9.67004 13.8771L8.89645 13.1036C8.70118 12.9083 8.70118 12.5917 8.89645 12.3964C9.09171 12.2012 9.40829 12.2012 9.60355 12.3964L10.1507 12.9436L11.3213 10.9928C11.4633 10.756 11.7705 10.6792 12.0072 10.8213C12.244 10.9633 12.3208 11.2705 12.1787 11.5072Z" fill="#673DE6"/>
<path d="M0 1C0 0.447715 0.447715 0 1 0H11C11.5523 0 12 0.447715 12 1V7.5C12 7.77614 11.7761 8 11.5 8C11.2239 8 11 7.77614 11 7.5V1H1V15H4V12.5C4 12.2239 4.22386 12 4.5 12H6V16H1C0.447715 16 0 15.5523 0 15V1Z" fill="#673DE6"/>
<path d="M2.5 2C2.22386 2 2 2.22386 2 2.5V3.5C2 3.77614 2.22386 4 2.5 4H3.5C3.77614 4 4 3.77614 4 3.5V2.5C4 2.22386 3.77614 2 3.5 2H2.5Z" fill="#673DE6"/>
<path d="M5.5 2C5.22386 2 5 2.22386 5 2.5V3.5C5 3.77614 5.22386 4 5.5 4H6.5C6.77614 4 7 3.77614 7 3.5V2.5C7 2.22386 6.77614 2 6.5 2H5.5Z" fill="#673DE6"/>
<path d="M8.5 2C8.22386 2 8 2.22386 8 2.5V3.5C8 3.77614 8.22386 4 8.5 4H9.5C9.77614 4 10 3.77614 10 3.5V2.5C10 2.22386 9.77614 2 9.5 2H8.5Z" fill="#673DE6"/>
<path d="M2.5 5C2.22386 5 2 5.22386 2 5.5V6.5C2 6.77614 2.22386 7 2.5 7H3.5C3.77614 7 4 6.77614 4 6.5V5.5C4 5.22386 3.77614 5 3.5 5H2.5Z" fill="#673DE6"/>
<path d="M5.5 5C5.22386 5 5 5.22386 5 5.5V6.5C5 6.77614 5.22386 7 5.5 7H6.5C6.77614 7 7 6.77614 7 6.5V5.5C7 5.22386 6.77614 5 6.5 5H5.5Z" fill="#673DE6"/>
<path d="M8.5 5C8.22386 5 8 5.22386 8 5.5V6.5C8 6.77614 8.22386 7 8.5 7H9.5C9.77614 7 10 6.77614 10 6.5V5.5C10 5.22386 9.77614 5 9.5 5H8.5Z" fill="#673DE6"/>
<path d="M2.5 8C2.22386 8 2 8.22386 2 8.5V9.5C2 9.77614 2.22386 10 2.5 10H3.5C3.77614 10 4 9.77614 4 9.5V8.5C4 8.22386 3.77614 8 3.5 8H2.5Z" fill="#673DE6"/>
<path d="M5.5 8C5.22386 8 5 8.22386 5 8.5V9.5C5 9.77614 5.22386 10 5.5 10H6.5C6.77614 10 7 9.77614 7 9.5V8.5C7 8.22386 6.77614 8 6.5 8H5.5Z" fill="#673DE6"/>
</svg>
