<svg width="18" height="18" viewBox="0 0 18 18" fill="none" xmlns="http://www.w3.org/2000/svg">
<path d="M0 3.9375C0 3.00552 0.75552 2.25 1.6875 2.25H11.8125C12.7445 2.25 13.5 3.00552 13.5 3.9375V5.625H14.6468C15.1594 5.625 15.6443 5.85803 15.9645 6.25833L17.6302 8.34046C17.8696 8.63967 18 9.01145 18 9.39463V11.8125C18 12.7445 17.2445 13.5 16.3125 13.5H15.75C15.75 14.7426 14.7426 15.75 13.5 15.75C12.2574 15.75 11.25 14.7426 11.25 13.5H5.625C5.625 14.7426 4.61764 15.75 3.375 15.75C2.13236 15.75 1.125 14.7426 1.125 13.5C1.125 13.4681 1.12567 13.4363 1.12698 13.4047C0.470525 13.1736 0 12.548 0 11.8125V3.9375ZM1.4557 12.3252C1.85133 11.6802 2.56292 11.25 3.375 11.25C4.20782 11.25 4.93495 11.7025 5.32399 12.375H11.551C11.7486 12.0334 12.0334 11.7486 12.375 11.551V3.9375C12.375 3.62684 12.1232 3.375 11.8125 3.375H1.6875C1.37684 3.375 1.125 3.62684 1.125 3.9375V11.8125C1.125 12.0405 1.26067 12.2369 1.4557 12.3252ZM13.5 11.25C14.3328 11.25 15.06 11.7025 15.449 12.375H16.3125C16.6232 12.375 16.875 12.1232 16.875 11.8125V9.39463C16.875 9.2669 16.8315 9.14298 16.7517 9.04324L15.086 6.96111C14.9793 6.82768 14.8177 6.75 14.6468 6.75H13.5V11.25ZM3.375 12.375C2.75368 12.375 2.25 12.8787 2.25 13.5C2.25 14.1213 2.75368 14.625 3.375 14.625C3.99632 14.625 4.5 14.1213 4.5 13.5C4.5 12.8787 3.99632 12.375 3.375 12.375ZM13.5 12.375C12.8787 12.375 12.375 12.8787 12.375 13.5C12.375 14.1213 12.8787 14.625 13.5 14.625C14.1213 14.625 14.625 14.1213 14.625 13.5C14.625 12.8787 14.1213 12.375 13.5 12.375Z" fill="#673DE6"/>
</svg>
